G04*
G04 #@! TF.GenerationSoftware,Altium Limited,Altium Designer,24.8.2 (39)*
G04*
G04 Layer_Color=16711935*
%FSLAX25Y25*%
%MOIN*%
G70*
G04*
G04 #@! TF.SameCoordinates,CBBCE14F-D53E-4E5E-9298-E108D83DD630*
G04*
G04*
G04 #@! TF.FilePolarity,Positive*
G04*
G01*
G75*
%ADD10C,0.00787*%
%ADD11C,0.00500*%
D10*
X115394Y190354D02*
G03*
X115394Y190354I-394J0D01*
G01*
X300394D02*
G03*
X300394Y190354I-394J0D01*
G01*
X263394D02*
G03*
X263394Y190354I-394J0D01*
G01*
X226394D02*
G03*
X226394Y190354I-394J0D01*
G01*
X189394D02*
G03*
X189394Y190354I-394J0D01*
G01*
X152394D02*
G03*
X152394Y190354I-394J0D01*
G01*
D11*
X104961Y192913D02*
X126614D01*
X104961D02*
Y233465D01*
X126614D01*
Y192913D02*
Y233465D01*
X311614Y192913D02*
Y233465D01*
X289961D02*
X311614D01*
X289961Y192913D02*
Y233465D01*
Y192913D02*
X311614D01*
X274614D02*
Y233465D01*
X252961D02*
X274614D01*
X252961Y192913D02*
Y233465D01*
Y192913D02*
X274614D01*
X237614D02*
Y233465D01*
X215961D02*
X237614D01*
X215961Y192913D02*
Y233465D01*
Y192913D02*
X237614D01*
X200614D02*
Y233465D01*
X178961D02*
X200614D01*
X178961Y192913D02*
Y233465D01*
Y192913D02*
X200614D01*
X163614D02*
Y233465D01*
X141961D02*
X163614D01*
X141961Y192913D02*
Y233465D01*
Y192913D02*
X163614D01*
M02*
