M48
;Layer_Color=9474304
;FILE_FORMAT=2:4
INCH,LZ
;TYPE=PLATED
T01F00S00C0.0315
T02F00S00C0.0354
T03F00S00C0.1083
%
T01
X0189Y020138
Y020925
Y021713
Y0225
X0226
Y021713
Y020925
Y020138
X0263
Y020925
Y021713
Y0225
X03
Y021713
Y020925
Y020138
X0152
Y020925
Y021713
Y0225
X0115
Y021713
Y020925
Y020138
T02
X015791Y026665
Y027665
X016791
Y026665
X017791
Y027665
X018791
Y026665
X019791
Y027665
X020791
Y026665
X021791
Y027665
X022791
Y026665
X023791
Y027665
X024791
Y026665
X025791
X026791
X027791
X028791
Y027665
X027791
X026791
X025791
X014791
X013791
X012791
X011791
X010791
X009791
Y026665
X010791
X011791
X012791
X013791
X014791
T03
X030709Y027165
X007874
M30
