M48
;Layer_Color=9474304
;FILE_FORMAT=2:5
INCH,LZ
;TYPE=PLATED
T01F00S00C0.03150
T02F00S00C0.03543
T03F00S00C0.10827
%
T01
X0189Y0201378
Y0209252
Y0217126
Y0225
X0226
Y0217126
Y0209252
Y0201378
X0263
Y0209252
Y0217126
Y0225
X03
Y0217126
Y0209252
Y0201378
X0152
Y0209252
Y0217126
Y0225
X0115
Y0217126
Y0209252
Y0201378
T02
X0157913Y0266653
X0167913
X0177913
X0187913
X0197913
X0207913
X0217913
X0227913
X0237913
X0247913
X0257913
Y0276654
X0267913
Y0266653
X0277913
Y0276654
X0287913
Y0266653
X0247913Y0276654
X0237913
X0227913
X0217913
X0207913
X0197913
X0187913
X0177913
X0167913
X0157913
X0147913
Y0266653
X0137913
Y0276654
X0127913
Y0266653
X0117913
Y0276654
X0107913
Y0266653
X0097913
Y0276654
T03
X007874Y007874
X0307087
Y0271654
X007874
M30
