G04*
G04 #@! TF.GenerationSoftware,Altium Limited,Altium Designer,24.7.2 (38)*
G04*
G04 Layer_Physical_Order=1*
G04 Layer_Color=255*
%FSLAX25Y25*%
%MOIN*%
G70*
G04*
G04 #@! TF.SameCoordinates,F96F46E9-85AD-4114-9B5A-613433178D46*
G04*
G04*
G04 #@! TF.FilePolarity,Positive*
G04*
G01*
G75*
%ADD18C,0.01000*%
%ADD19R,0.04528X0.04528*%
%ADD20C,0.04528*%
%ADD21C,0.05906*%
%ADD22R,0.05906X0.05906*%
%ADD23C,0.23622*%
D18*
X189000Y225000D02*
X226000D01*
X152000D02*
X189000D01*
X115000D02*
X152000D01*
X189000Y209252D02*
X200638Y197614D01*
X111236Y220890D02*
X115000Y217126D01*
X125761Y197614D02*
X137399Y209252D01*
X112115Y197614D02*
X125761D01*
X111236Y226559D02*
X130814Y246137D01*
X109236Y227387D02*
X129986Y248137D01*
X107236Y211693D02*
X113441Y205488D01*
X137399Y209252D02*
X152000D01*
X113441Y205488D02*
X126424D01*
X109236Y215016D02*
X115000Y209252D01*
X138062Y217126D02*
X152000D01*
X126424Y205488D02*
X138062Y217126D01*
X263000Y225000D02*
X300000D01*
X297115Y205142D02*
X301213D01*
X226000Y225000D02*
X263000D01*
X303764Y207693D02*
Y226559D01*
X200638Y197614D02*
X289587D01*
X297115Y205142D01*
X301213D02*
X303764Y207693D01*
X284091Y246231D02*
X303764Y226559D01*
X282038Y246231D02*
X284091D01*
X111236Y220890D02*
Y226559D01*
X109236Y215016D02*
Y227387D01*
X107236Y211693D02*
Y228216D01*
X129157Y250137D01*
X105236Y229044D02*
X128329Y252137D01*
X105236Y204493D02*
Y229044D01*
Y204493D02*
X112115Y197614D01*
X227397Y246137D02*
X247500Y266240D01*
X219397Y248137D02*
X237500Y266240D01*
X208137Y244137D02*
X231694D01*
X252366Y264809D01*
X189000Y225000D02*
X208137Y244137D01*
X263461Y264809D02*
X282038Y246231D01*
X130814Y246137D02*
X227397D01*
X129986Y248137D02*
X219397D01*
X117913Y267500D02*
Y276654D01*
X116654Y266653D02*
X117500Y267500D01*
X107913Y266653D02*
X116654D01*
X226654D02*
X227500Y267500D01*
X217913Y266653D02*
X226654D01*
X207913D02*
X217154D01*
X217500Y267000D01*
X197913Y266653D02*
X207913D01*
X187913Y267500D02*
X188760D01*
X187913Y266653D02*
X197913D01*
X267500Y267500D02*
X268347Y266653D01*
X277913D01*
X263461Y264809D02*
Y267404D01*
X247500Y277067D02*
Y277500D01*
Y277067D02*
X247913Y276654D01*
X280000Y266833D02*
Y267500D01*
X280179Y266653D02*
X287913D01*
X280000Y266833D02*
X280179Y266653D01*
X286653Y276654D02*
X287500Y277500D01*
Y267500D02*
X287913Y267913D01*
Y276654D01*
X277913D02*
X286653D01*
X273461Y281106D02*
X277067Y277500D01*
X257913Y276654D02*
X262366Y281106D01*
X273461D01*
X277067Y277500D02*
X277500D01*
X238663Y277403D02*
X242366D01*
X246069Y281106D02*
X253461D01*
X257067Y277500D02*
X257500D01*
X237913Y276654D02*
X238663Y277403D01*
X242366D02*
X246069Y281106D01*
X253461D02*
X257067Y277500D01*
X217913Y276654D02*
X218461D01*
X207913D02*
X217913D01*
X218461D02*
X222913Y281106D01*
X233461D01*
X237067Y277500D01*
X237500D01*
X187913Y267913D02*
Y276654D01*
X187500Y267500D02*
X187913Y267913D01*
X187067Y277500D02*
X187500D01*
X166069Y281106D02*
X183461D01*
X162366Y277403D02*
X166069Y281106D01*
X183461D02*
X187067Y277500D01*
X158663Y277403D02*
X162366D01*
X157913Y276654D02*
X158663Y277403D01*
X117913Y276654D02*
X127913D01*
X152913Y271654D02*
X157913Y276654D01*
X137500Y267500D02*
X138760D01*
X142913Y271654D01*
X152913D01*
X149694Y252137D02*
X162366Y264809D01*
X167500Y276240D02*
Y277500D01*
X128329Y252137D02*
X149694D01*
X172366Y271106D02*
X177500Y276240D01*
Y277500D01*
X172366Y264809D02*
Y271106D01*
X157694Y250137D02*
X172366Y264809D01*
X129157Y250137D02*
X157694D01*
X247500Y266240D02*
Y267500D01*
X237500Y266240D02*
Y267500D01*
X162366Y264809D02*
Y271106D01*
X167500Y276240D01*
X147913Y276654D02*
X155847D01*
X137913D02*
X147913D01*
X127913D02*
X137913D01*
X107913D02*
X109153D01*
X97913D02*
X107913D01*
X109153D02*
X110000Y277500D01*
X188760Y267500D02*
X192366Y271106D01*
X249758D02*
X252366Y268498D01*
Y264809D02*
Y268498D01*
X192366Y271106D02*
X249758D01*
X247913Y276654D02*
X253008Y271559D01*
X259305D01*
X263461Y267404D01*
D19*
X263000Y201378D02*
D03*
X300000D02*
D03*
X226000D02*
D03*
X189000D02*
D03*
X152000D02*
D03*
X115000D02*
D03*
D20*
X263000Y209252D02*
D03*
Y217126D02*
D03*
Y225000D02*
D03*
X300000Y209252D02*
D03*
Y217126D02*
D03*
Y225000D02*
D03*
X226000Y209252D02*
D03*
Y217126D02*
D03*
Y225000D02*
D03*
X189000Y209252D02*
D03*
Y217126D02*
D03*
Y225000D02*
D03*
X152000Y209252D02*
D03*
Y217126D02*
D03*
Y225000D02*
D03*
X115000Y209252D02*
D03*
Y217126D02*
D03*
Y225000D02*
D03*
D21*
X257913Y266653D02*
D03*
Y276654D02*
D03*
X267913Y266653D02*
D03*
Y276654D02*
D03*
X277913Y266653D02*
D03*
Y276654D02*
D03*
X287913Y266653D02*
D03*
Y276654D02*
D03*
X247913D02*
D03*
Y266653D02*
D03*
X237913Y276654D02*
D03*
Y266653D02*
D03*
X227913Y276654D02*
D03*
Y266653D02*
D03*
X217913Y276654D02*
D03*
Y266653D02*
D03*
X207913Y276654D02*
D03*
Y266653D02*
D03*
X197913Y276654D02*
D03*
Y266653D02*
D03*
X187913Y276654D02*
D03*
Y266653D02*
D03*
X177913Y276654D02*
D03*
Y266653D02*
D03*
X167913Y276654D02*
D03*
Y266653D02*
D03*
X157913Y276654D02*
D03*
Y266653D02*
D03*
X147913Y276654D02*
D03*
Y266653D02*
D03*
X137913Y276654D02*
D03*
Y266653D02*
D03*
X127913Y276654D02*
D03*
Y266653D02*
D03*
X117913Y276654D02*
D03*
Y266653D02*
D03*
X107913Y276654D02*
D03*
Y266653D02*
D03*
X97913Y276654D02*
D03*
D22*
Y266653D02*
D03*
D23*
X307087Y78740D02*
D03*
Y271654D02*
D03*
X78740Y78740D02*
D03*
Y271654D02*
D03*
M02*
