G04*
G04 #@! TF.GenerationSoftware,Altium Limited,Altium Designer,24.7.2 (38)*
G04*
G04 Layer_Color=8388736*
%FSLAX25Y25*%
%MOIN*%
G70*
G04*
G04 #@! TF.SameCoordinates,F96F46E9-85AD-4114-9B5A-613433178D46*
G04*
G04*
G04 #@! TF.FilePolarity,Negative*
G04*
G01*
G75*
%ADD13R,0.05328X0.05328*%
%ADD14C,0.05328*%
%ADD15C,0.06706*%
%ADD16R,0.06706X0.06706*%
%ADD17C,0.24422*%
D13*
X263000Y201378D02*
D03*
X300000D02*
D03*
X226000D02*
D03*
X189000D02*
D03*
X152000D02*
D03*
X115000D02*
D03*
D14*
X263000Y209252D02*
D03*
Y217126D02*
D03*
Y225000D02*
D03*
X300000Y209252D02*
D03*
Y217126D02*
D03*
Y225000D02*
D03*
X226000Y209252D02*
D03*
Y217126D02*
D03*
Y225000D02*
D03*
X189000Y209252D02*
D03*
Y217126D02*
D03*
Y225000D02*
D03*
X152000Y209252D02*
D03*
Y217126D02*
D03*
Y225000D02*
D03*
X115000Y209252D02*
D03*
Y217126D02*
D03*
Y225000D02*
D03*
D15*
X257913Y266653D02*
D03*
Y276654D02*
D03*
X267913Y266653D02*
D03*
Y276654D02*
D03*
X277913Y266653D02*
D03*
Y276654D02*
D03*
X287913Y266653D02*
D03*
Y276654D02*
D03*
X247913D02*
D03*
Y266653D02*
D03*
X237913Y276654D02*
D03*
Y266653D02*
D03*
X227913Y276654D02*
D03*
Y266653D02*
D03*
X217913Y276654D02*
D03*
Y266653D02*
D03*
X207913Y276654D02*
D03*
Y266653D02*
D03*
X197913Y276654D02*
D03*
Y266653D02*
D03*
X187913Y276654D02*
D03*
Y266653D02*
D03*
X177913Y276654D02*
D03*
Y266653D02*
D03*
X167913Y276654D02*
D03*
Y266653D02*
D03*
X157913Y276654D02*
D03*
Y266653D02*
D03*
X147913Y276654D02*
D03*
Y266653D02*
D03*
X137913Y276654D02*
D03*
Y266653D02*
D03*
X127913Y276654D02*
D03*
Y266653D02*
D03*
X117913Y276654D02*
D03*
Y266653D02*
D03*
X107913Y276654D02*
D03*
Y266653D02*
D03*
X97913Y276654D02*
D03*
D16*
Y266653D02*
D03*
D17*
X307087Y78740D02*
D03*
Y271654D02*
D03*
X78740Y78740D02*
D03*
Y271654D02*
D03*
M02*
