G04*
G04 #@! TF.GenerationSoftware,Altium Limited,Altium Designer,24.8.2 (39)*
G04*
G04 Layer_Color=8388736*
%FSLAX25Y25*%
%MOIN*%
G70*
G04*
G04 #@! TF.SameCoordinates,CBBCE14F-D53E-4E5E-9298-E108D83DD630*
G04*
G04*
G04 #@! TF.FilePolarity,Negative*
G04*
G01*
G75*
%ADD13R,0.06496X0.06496*%
%ADD14C,0.06496*%
%ADD15R,0.05118X0.05118*%
%ADD16C,0.05118*%
%ADD17C,0.24213*%
D13*
X97913Y266653D02*
D03*
D14*
Y276654D02*
D03*
X107913Y266653D02*
D03*
Y276654D02*
D03*
X117913Y266653D02*
D03*
Y276654D02*
D03*
X127913Y266653D02*
D03*
Y276654D02*
D03*
X137913Y266653D02*
D03*
Y276654D02*
D03*
X147913Y266653D02*
D03*
Y276654D02*
D03*
X157913Y266653D02*
D03*
Y276654D02*
D03*
X167913Y266653D02*
D03*
Y276654D02*
D03*
X177913Y266653D02*
D03*
Y276654D02*
D03*
X187913Y266653D02*
D03*
Y276654D02*
D03*
X197913Y266653D02*
D03*
Y276654D02*
D03*
X207913Y266653D02*
D03*
Y276654D02*
D03*
X217913Y266653D02*
D03*
Y276654D02*
D03*
X227913Y266653D02*
D03*
Y276654D02*
D03*
X237913Y266653D02*
D03*
Y276654D02*
D03*
X247913Y266653D02*
D03*
Y276654D02*
D03*
X287913D02*
D03*
Y266653D02*
D03*
X277913Y276654D02*
D03*
Y266653D02*
D03*
X267913Y276654D02*
D03*
Y266653D02*
D03*
X257913Y276654D02*
D03*
Y266653D02*
D03*
D15*
X115000Y201378D02*
D03*
X300000D02*
D03*
X263000D02*
D03*
X226000D02*
D03*
X189000D02*
D03*
X152000D02*
D03*
D16*
X115000Y209252D02*
D03*
Y217126D02*
D03*
Y225000D02*
D03*
X300000D02*
D03*
Y217126D02*
D03*
Y209252D02*
D03*
X263000Y225000D02*
D03*
Y217126D02*
D03*
Y209252D02*
D03*
X226000Y225000D02*
D03*
Y217126D02*
D03*
Y209252D02*
D03*
X189000Y225000D02*
D03*
Y217126D02*
D03*
Y209252D02*
D03*
X152000Y225000D02*
D03*
Y217126D02*
D03*
Y209252D02*
D03*
D17*
X307087Y271654D02*
D03*
X78740D02*
D03*
M02*
