G04*
G04 #@! TF.GenerationSoftware,Altium Limited,Altium Designer,24.8.2 (39)*
G04*
G04 Layer_Color=65535*
%FSLAX25Y25*%
%MOIN*%
G70*
G04*
G04 #@! TF.SameCoordinates,CBBCE14F-D53E-4E5E-9298-E108D83DD630*
G04*
G04*
G04 #@! TF.FilePolarity,Positive*
G04*
G01*
G75*
%ADD10C,0.00787*%
%ADD11C,0.00500*%
%ADD12C,0.00600*%
G36*
X85990Y256766D02*
X86202D01*
Y256695D01*
X86413D01*
Y256625D01*
X86554D01*
Y256554D01*
X86695D01*
Y256484D01*
X86836D01*
Y256413D01*
X86907D01*
Y256343D01*
X86977D01*
Y256272D01*
X87118D01*
Y256202D01*
X87189D01*
Y256131D01*
X87259D01*
Y256061D01*
X87330D01*
Y255920D01*
X87400D01*
Y255850D01*
X87471D01*
Y255779D01*
X87541D01*
Y255638D01*
X87611D01*
Y255568D01*
X87682D01*
Y255427D01*
X87752D01*
Y255215D01*
X87823D01*
Y255004D01*
X87893D01*
Y254722D01*
X87964D01*
Y244432D01*
X87893D01*
Y244080D01*
X87823D01*
Y243869D01*
X87752D01*
Y243728D01*
X87682D01*
Y243587D01*
X87611D01*
Y243446D01*
X87541D01*
Y243375D01*
X87471D01*
Y243234D01*
X87400D01*
Y243164D01*
X87330D01*
Y243093D01*
X87259D01*
Y243023D01*
X87189D01*
Y242952D01*
X87118D01*
Y242882D01*
X87048D01*
Y242811D01*
X86977D01*
Y242741D01*
X86836D01*
Y242670D01*
X86766D01*
Y242600D01*
X86625D01*
Y242530D01*
X86484D01*
Y242459D01*
X86343D01*
Y242389D01*
X86131D01*
Y242318D01*
X85779D01*
Y242248D01*
X71049D01*
Y242318D01*
X70697D01*
Y242389D01*
X70486D01*
Y242459D01*
X70345D01*
Y242530D01*
X70204D01*
Y242600D01*
X70063D01*
Y242670D01*
X69922D01*
Y242741D01*
X69851D01*
Y242811D01*
X69781D01*
Y242882D01*
X69710D01*
Y242952D01*
X69640D01*
Y243023D01*
X69570D01*
Y243093D01*
X69499D01*
Y243164D01*
X69429D01*
Y243234D01*
X69358D01*
Y243305D01*
X69288D01*
Y243446D01*
X69217D01*
Y243516D01*
X69147D01*
Y243657D01*
X69076D01*
Y243869D01*
X69006D01*
Y244009D01*
X68935D01*
Y244291D01*
X68865D01*
Y254792D01*
X68935D01*
Y255074D01*
X69006D01*
Y255286D01*
X69076D01*
Y255427D01*
X69147D01*
Y255568D01*
X69217D01*
Y255709D01*
X69288D01*
Y255779D01*
X69358D01*
Y255920D01*
X69429D01*
Y255991D01*
X69499D01*
Y256061D01*
X69570D01*
Y256131D01*
X69640D01*
Y256202D01*
X69710D01*
Y256272D01*
X69781D01*
Y256343D01*
X69922D01*
Y256413D01*
X69992D01*
Y256484D01*
X70133D01*
Y256554D01*
X70274D01*
Y256625D01*
X70415D01*
Y256695D01*
X70556D01*
Y256766D01*
X70838D01*
Y256836D01*
X85990D01*
Y256766D01*
D02*
G37*
%LPC*%
G36*
X85849Y255709D02*
X70979D01*
Y255638D01*
X70768D01*
Y255568D01*
X70627D01*
Y255497D01*
X70556D01*
Y255427D01*
X70486D01*
Y255356D01*
X70415D01*
Y255286D01*
X70345D01*
Y255215D01*
X70274D01*
Y255145D01*
X70204D01*
Y255074D01*
X70133D01*
Y254933D01*
X70063D01*
Y254722D01*
X69992D01*
Y244432D01*
X70063D01*
Y244221D01*
X70133D01*
Y244080D01*
X70204D01*
Y243939D01*
X70274D01*
Y243869D01*
X70345D01*
Y243798D01*
X70415D01*
Y243728D01*
X70486D01*
Y243657D01*
X70627D01*
Y243587D01*
X70697D01*
Y243516D01*
X70838D01*
Y243446D01*
X71120D01*
Y243375D01*
X85638D01*
Y243446D01*
X85920D01*
Y243516D01*
X86131D01*
Y243587D01*
X86202D01*
Y243657D01*
X86343D01*
Y243728D01*
X86413D01*
Y243798D01*
X86484D01*
Y243939D01*
X86554D01*
Y244009D01*
X86625D01*
Y244150D01*
X86695D01*
Y244291D01*
X86766D01*
Y244503D01*
X86836D01*
Y254651D01*
X86766D01*
Y254863D01*
X86695D01*
Y255004D01*
X86625D01*
Y255145D01*
X86554D01*
Y255215D01*
X86484D01*
Y255286D01*
X86413D01*
Y255356D01*
X86343D01*
Y255427D01*
X86272D01*
Y255497D01*
X86131D01*
Y255568D01*
X86061D01*
Y255638D01*
X85849D01*
Y255709D01*
D02*
G37*
%LPD*%
G36*
X78097Y245067D02*
X76476D01*
Y245631D01*
X77533D01*
Y249366D01*
X77392D01*
Y249436D01*
X77322D01*
Y249507D01*
X77251D01*
Y249577D01*
X77181D01*
Y249648D01*
X77110D01*
Y249718D01*
X77040D01*
Y249789D01*
X76969D01*
Y249859D01*
X76899D01*
Y249929D01*
X76829D01*
Y250000D01*
X76758D01*
Y250071D01*
X76688D01*
Y250141D01*
X76547D01*
Y250211D01*
X76476D01*
Y250282D01*
X76406D01*
Y250352D01*
X76335D01*
Y250423D01*
X76265D01*
Y250493D01*
X76194D01*
Y250564D01*
X76124D01*
Y250634D01*
X76053D01*
Y250705D01*
X75983D01*
Y250775D01*
X75842D01*
Y250916D01*
X75701D01*
Y250987D01*
X75630D01*
Y251057D01*
X75560D01*
Y251128D01*
X75489D01*
Y251198D01*
X75419D01*
Y251269D01*
X75349D01*
Y251339D01*
X75278D01*
Y251410D01*
X75208D01*
Y251480D01*
X75067D01*
Y251551D01*
X74996D01*
Y251621D01*
X74926D01*
Y251691D01*
X74855D01*
Y251762D01*
X74785D01*
Y251832D01*
X74714D01*
Y251903D01*
X74644D01*
Y251973D01*
X74573D01*
Y252044D01*
X74432D01*
Y251832D01*
X74362D01*
Y251621D01*
X74291D01*
Y251410D01*
X74221D01*
Y251198D01*
X74151D01*
Y250987D01*
X74080D01*
Y250775D01*
X74010D01*
Y250493D01*
X73939D01*
Y250282D01*
X73869D01*
Y250071D01*
X73798D01*
Y249859D01*
X73728D01*
Y249648D01*
X73657D01*
Y249436D01*
X73587D01*
Y249225D01*
X73516D01*
Y248943D01*
X73446D01*
Y248731D01*
X73375D01*
Y248520D01*
X73305D01*
Y248309D01*
X73234D01*
Y248097D01*
X73164D01*
Y247886D01*
X73093D01*
Y247674D01*
X73023D01*
Y247392D01*
X72952D01*
Y247181D01*
X72882D01*
Y246970D01*
X72812D01*
Y246758D01*
X72741D01*
Y246547D01*
X72671D01*
Y246335D01*
X72600D01*
Y246053D01*
X72530D01*
Y245912D01*
X73023D01*
Y245842D01*
X73093D01*
Y245419D01*
X73023D01*
Y245349D01*
X70838D01*
Y245912D01*
X72248D01*
Y246124D01*
X72318D01*
Y246335D01*
X72389D01*
Y246547D01*
X72459D01*
Y246758D01*
X72530D01*
Y246970D01*
X72600D01*
Y247181D01*
X72671D01*
Y247392D01*
X72741D01*
Y247604D01*
X72812D01*
Y247886D01*
X72882D01*
Y248097D01*
X72952D01*
Y248309D01*
X73023D01*
Y248520D01*
X73093D01*
Y248731D01*
X73164D01*
Y248943D01*
X73234D01*
Y249154D01*
X73305D01*
Y249366D01*
X73375D01*
Y249577D01*
X73446D01*
Y249789D01*
X73516D01*
Y250071D01*
X73587D01*
Y250282D01*
X73657D01*
Y250493D01*
X73728D01*
Y250705D01*
X73798D01*
Y250916D01*
X73869D01*
Y251128D01*
X73939D01*
Y251339D01*
X74010D01*
Y251551D01*
X74080D01*
Y251832D01*
X74151D01*
Y251973D01*
X74221D01*
Y252185D01*
X74291D01*
Y252467D01*
X74362D01*
Y252678D01*
X74432D01*
Y252889D01*
X74503D01*
Y253101D01*
X74573D01*
Y253312D01*
X74644D01*
Y253524D01*
X74714D01*
Y253735D01*
X74785D01*
Y253665D01*
X74926D01*
Y253594D01*
X74996D01*
Y253453D01*
X75137D01*
Y253383D01*
X75208D01*
Y253312D01*
X75278D01*
Y253242D01*
X75349D01*
Y253171D01*
X75419D01*
Y253101D01*
X75489D01*
Y253030D01*
X75560D01*
Y252960D01*
X75630D01*
Y252889D01*
X75701D01*
Y252819D01*
X75771D01*
Y252749D01*
X75842D01*
Y252678D01*
X75912D01*
Y252608D01*
X75983D01*
Y252537D01*
X76053D01*
Y252467D01*
X76124D01*
Y252396D01*
X76194D01*
Y252326D01*
X76265D01*
Y252255D01*
X76335D01*
Y252185D01*
X76406D01*
Y252114D01*
X76476D01*
Y252044D01*
X76547D01*
Y251903D01*
X76688D01*
Y251832D01*
X76758D01*
Y251691D01*
X76899D01*
Y251621D01*
X76969D01*
Y251551D01*
X77040D01*
Y251480D01*
X77110D01*
Y251410D01*
X77181D01*
Y251339D01*
X77251D01*
Y251269D01*
X77322D01*
Y251198D01*
X77392D01*
Y251128D01*
X77463D01*
Y251057D01*
X77533D01*
Y254369D01*
X76194D01*
Y254440D01*
X76124D01*
Y254863D01*
X78097D01*
Y245067D01*
D02*
G37*
G36*
X80634Y254369D02*
X79295D01*
Y254299D01*
X79225D01*
Y250987D01*
X79295D01*
Y251057D01*
X79366D01*
Y251128D01*
X79436D01*
Y251198D01*
X79507D01*
Y251269D01*
X79577D01*
Y251339D01*
X79648D01*
Y251410D01*
X79718D01*
Y251480D01*
X79789D01*
Y251551D01*
X79859D01*
Y251621D01*
X79930D01*
Y251691D01*
X80000D01*
Y251762D01*
X80071D01*
Y251832D01*
X80141D01*
Y251903D01*
X80211D01*
Y251973D01*
X80282D01*
Y252044D01*
X80352D01*
Y252114D01*
X80423D01*
Y252185D01*
X80493D01*
Y252255D01*
X80564D01*
Y252326D01*
X80634D01*
Y252396D01*
X80705D01*
Y252467D01*
X80775D01*
Y252537D01*
X80846D01*
Y252608D01*
X80916D01*
Y252678D01*
X80987D01*
Y252749D01*
X81057D01*
Y252819D01*
X81128D01*
Y252889D01*
X81198D01*
Y252960D01*
X81269D01*
Y253030D01*
X81339D01*
Y253101D01*
X81410D01*
Y253171D01*
X81480D01*
Y253242D01*
X81551D01*
Y253312D01*
X81621D01*
Y253383D01*
X81691D01*
Y253453D01*
X81762D01*
Y253524D01*
X81832D01*
Y253594D01*
X81903D01*
Y253665D01*
X81973D01*
Y253735D01*
X82044D01*
Y253665D01*
X82114D01*
Y253453D01*
X82185D01*
Y253242D01*
X82255D01*
Y253030D01*
X82326D01*
Y252819D01*
X82396D01*
Y252608D01*
X82467D01*
Y252396D01*
X82537D01*
Y252185D01*
X82608D01*
Y251903D01*
X82678D01*
Y251762D01*
X82749D01*
Y251551D01*
X82819D01*
Y251269D01*
X82889D01*
Y251057D01*
X82960D01*
Y250846D01*
X83030D01*
Y250634D01*
X83101D01*
Y250423D01*
X83171D01*
Y250211D01*
X83242D01*
Y250000D01*
X83312D01*
Y249718D01*
X83383D01*
Y249507D01*
X83453D01*
Y249295D01*
X83524D01*
Y249084D01*
X83594D01*
Y248872D01*
X83665D01*
Y248661D01*
X83735D01*
Y248449D01*
X83806D01*
Y248238D01*
X83876D01*
Y248027D01*
X83947D01*
Y247815D01*
X84017D01*
Y247604D01*
X84088D01*
Y247322D01*
X84158D01*
Y247111D01*
X84229D01*
Y246899D01*
X84299D01*
Y246688D01*
X84369D01*
Y246476D01*
X84440D01*
Y246265D01*
X84510D01*
Y245983D01*
X84581D01*
Y245912D01*
X85990D01*
Y245349D01*
X83735D01*
Y245912D01*
X84299D01*
Y246053D01*
X84229D01*
Y246265D01*
X84158D01*
Y246476D01*
X84088D01*
Y246688D01*
X84017D01*
Y246899D01*
X83947D01*
Y247111D01*
X83876D01*
Y247392D01*
X83806D01*
Y247604D01*
X83735D01*
Y247815D01*
X83665D01*
Y248027D01*
X83594D01*
Y248238D01*
X83524D01*
Y248449D01*
X83453D01*
Y248661D01*
X83383D01*
Y248943D01*
X83312D01*
Y249154D01*
X83242D01*
Y249366D01*
X83171D01*
Y249577D01*
X83101D01*
Y249789D01*
X83030D01*
Y250000D01*
X82960D01*
Y250211D01*
X82889D01*
Y250423D01*
X82819D01*
Y250705D01*
X82749D01*
Y250916D01*
X82678D01*
Y251128D01*
X82608D01*
Y251339D01*
X82537D01*
Y251551D01*
X82467D01*
Y251832D01*
X82396D01*
Y251973D01*
X82326D01*
Y252044D01*
X82255D01*
Y251973D01*
X82185D01*
Y251903D01*
X82114D01*
Y251832D01*
X82044D01*
Y251762D01*
X81903D01*
Y251621D01*
X81762D01*
Y251551D01*
X81691D01*
Y251480D01*
X81621D01*
Y251410D01*
X81551D01*
Y251339D01*
X81480D01*
Y251269D01*
X81410D01*
Y251198D01*
X81339D01*
Y251128D01*
X81269D01*
Y251057D01*
X81198D01*
Y250987D01*
X81057D01*
Y250916D01*
X80987D01*
Y250846D01*
X80916D01*
Y250775D01*
X80846D01*
Y250705D01*
X80775D01*
Y250634D01*
X80705D01*
Y250564D01*
X80634D01*
Y250493D01*
X80564D01*
Y250423D01*
X80493D01*
Y250352D01*
X80352D01*
Y250282D01*
X80282D01*
Y250211D01*
X80211D01*
Y250141D01*
X80141D01*
Y250071D01*
X80071D01*
Y250000D01*
X80000D01*
Y249929D01*
X79930D01*
Y249859D01*
X79859D01*
Y249789D01*
X79789D01*
Y249718D01*
X79718D01*
Y249648D01*
X79648D01*
Y249577D01*
X79507D01*
Y249507D01*
X79436D01*
Y249436D01*
X79366D01*
Y249366D01*
X79295D01*
Y249295D01*
X79225D01*
Y245701D01*
X79295D01*
Y245631D01*
X80352D01*
Y245560D01*
Y245490D01*
Y245067D01*
X78731D01*
Y245137D01*
X78661D01*
Y254863D01*
X80634D01*
Y254369D01*
D02*
G37*
G36*
X85990Y244221D02*
X70838D01*
Y244785D01*
X85990D01*
Y244221D01*
D02*
G37*
D10*
X115394Y190354D02*
G03*
X115394Y190354I-394J0D01*
G01*
X300394D02*
G03*
X300394Y190354I-394J0D01*
G01*
X263394D02*
G03*
X263394Y190354I-394J0D01*
G01*
X226394D02*
G03*
X226394Y190354I-394J0D01*
G01*
X189394D02*
G03*
X189394Y190354I-394J0D01*
G01*
X152394D02*
G03*
X152394Y190354I-394J0D01*
G01*
D11*
X104961Y192913D02*
X126614D01*
X104961Y233465D02*
X126614D01*
X104961Y192913D02*
Y233465D01*
X126614Y192913D02*
Y233465D01*
X311614Y192913D02*
Y233465D01*
X289961Y192913D02*
Y233465D01*
X311614D01*
X289961Y192913D02*
X311614D01*
X274614D02*
Y233465D01*
X252961Y192913D02*
Y233465D01*
X274614D01*
X252961Y192913D02*
X274614D01*
X237614D02*
Y233465D01*
X215961Y192913D02*
Y233465D01*
X237614D01*
X215961Y192913D02*
X237614D01*
X200614D02*
Y233465D01*
X178961Y192913D02*
Y233465D01*
X200614D01*
X178961Y192913D02*
X200614D01*
X163614D02*
Y233465D01*
X141961Y192913D02*
Y233465D01*
X163614D01*
X141961Y192913D02*
X163614D01*
X68000Y223000D02*
Y225999D01*
X69000Y224999D01*
X69999Y225999D01*
Y223000D01*
X71499D02*
X72499D01*
X72998Y223500D01*
Y224500D01*
X72499Y224999D01*
X71499D01*
X70999Y224500D01*
Y223500D01*
X71499Y223000D01*
X74498Y225499D02*
Y224999D01*
X73998D01*
X74998D01*
X74498D01*
Y223500D01*
X74998Y223000D01*
X76997D02*
X77997D01*
X78497Y223500D01*
Y224500D01*
X77997Y224999D01*
X76997D01*
X76497Y224500D01*
Y223500D01*
X76997Y223000D01*
X79496Y224999D02*
Y223000D01*
Y224000D01*
X79996Y224500D01*
X80496Y224999D01*
X80996D01*
X85494Y223000D02*
Y225999D01*
X86994D01*
X87494Y225499D01*
Y224500D01*
X86994Y224000D01*
X85494D01*
X88493Y223000D02*
X89493D01*
X88993D01*
Y224999D01*
X88493D01*
X93992Y225999D02*
Y223000D01*
Y224500D01*
X95991D01*
Y225999D01*
Y223000D01*
X97491Y224999D02*
X98490D01*
X98990Y224500D01*
Y223000D01*
X97491D01*
X96991Y223500D01*
X97491Y224000D01*
X98990D01*
X100489Y225499D02*
Y224999D01*
X99990D01*
X100989D01*
X100489D01*
Y223500D01*
X100989Y223000D01*
X69999Y238999D02*
X69499Y239499D01*
X68500D01*
X68000Y238999D01*
Y238499D01*
X68500Y237999D01*
X69499D01*
X69999Y237499D01*
Y237000D01*
X69499Y236500D01*
X68500D01*
X68000Y237000D01*
X70999Y235500D02*
Y238499D01*
X72499D01*
X72998Y237999D01*
Y237000D01*
X72499Y236500D01*
X70999D01*
X73998Y238499D02*
Y236500D01*
Y237499D01*
X74498Y237999D01*
X74998Y238499D01*
X75498D01*
X76997Y236500D02*
X77997D01*
X77497D01*
Y238499D01*
X76997D01*
X79496Y236500D02*
Y238499D01*
X80996D01*
X81496Y237999D01*
Y236500D01*
X83495Y235500D02*
X83995D01*
X84495Y236000D01*
Y238499D01*
X82995D01*
X82495Y237999D01*
Y237000D01*
X82995Y236500D01*
X84495D01*
X90493D02*
X88493D01*
X90493Y238499D01*
Y238999D01*
X89993Y239499D01*
X88993D01*
X88493Y238999D01*
X91492D02*
X91992Y239499D01*
X92992D01*
X93492Y238999D01*
Y237000D01*
X92992Y236500D01*
X91992D01*
X91492Y237000D01*
Y238999D01*
X96491Y236500D02*
X94491D01*
X96491Y238499D01*
Y238999D01*
X95991Y239499D01*
X94991D01*
X94491Y238999D01*
X99490Y239499D02*
X97491D01*
Y237999D01*
X98490Y238499D01*
X98990D01*
X99490Y237999D01*
Y237000D01*
X98990Y236500D01*
X97990D01*
X97491Y237000D01*
X68000Y233499D02*
Y230500D01*
Y231999D01*
X69999D01*
Y233499D01*
Y230500D01*
X71499Y232499D02*
X72499D01*
X72998Y231999D01*
Y230500D01*
X71499D01*
X70999Y231000D01*
X71499Y231500D01*
X72998D01*
X73998Y230500D02*
Y232499D01*
X75498D01*
X75997Y231999D01*
Y230500D01*
X76997D02*
Y232499D01*
X78497D01*
X78996Y231999D01*
Y230500D01*
X80496Y232499D02*
X81496D01*
X81995Y231999D01*
Y230500D01*
X80496D01*
X79996Y231000D01*
X80496Y231500D01*
X81995D01*
X82995Y233499D02*
Y230500D01*
Y231999D01*
X83495Y232499D01*
X84495D01*
X84995Y231999D01*
Y230500D01*
X90993Y232999D02*
X90493Y233499D01*
X89493D01*
X88993Y232999D01*
Y231000D01*
X89493Y230500D01*
X90493D01*
X90993Y231000D01*
X91992Y233499D02*
Y230500D01*
Y231999D01*
X92492Y232499D01*
X93492D01*
X93992Y231999D01*
Y230500D01*
X95491D02*
X96491D01*
X96991Y231000D01*
Y231999D01*
X96491Y232499D01*
X95491D01*
X94991Y231999D01*
Y231000D01*
X95491Y230500D01*
X279000Y201499D02*
X279500Y201999D01*
X280500D01*
X280999Y201499D01*
Y200999D01*
X280500Y200500D01*
X280000D01*
X280500D01*
X280999Y200000D01*
Y199500D01*
X280500Y199000D01*
X279500D01*
X279000Y199500D01*
X281999Y201999D02*
Y200000D01*
X282999Y199000D01*
X283998Y200000D01*
Y201999D01*
X284998Y201499D02*
X285498Y201999D01*
X286498D01*
X286997Y201499D01*
Y200999D01*
X286498Y200500D01*
X285998D01*
X286498D01*
X286997Y200000D01*
Y199500D01*
X286498Y199000D01*
X285498D01*
X284998Y199500D01*
X130000Y201499D02*
X130500Y201999D01*
X131500D01*
X131999Y201499D01*
Y200999D01*
X131500Y200500D01*
X131000D01*
X131500D01*
X131999Y200000D01*
Y199500D01*
X131500Y199000D01*
X130500D01*
X130000Y199500D01*
X132999Y201999D02*
Y200000D01*
X133999Y199000D01*
X134998Y200000D01*
Y201999D01*
X135998Y201499D02*
X136498Y201999D01*
X137498D01*
X137997Y201499D01*
Y200999D01*
X137498Y200500D01*
X136998D01*
X137498D01*
X137997Y200000D01*
Y199500D01*
X137498Y199000D01*
X136498D01*
X135998Y199500D01*
X130000Y210166D02*
X131000D01*
X130500D01*
Y207167D01*
X130000D01*
X131000D01*
X132499D02*
Y210166D01*
X134499Y207167D01*
Y210166D01*
X135498Y207167D02*
X136498D01*
X135998D01*
Y210166D01*
X135498Y209666D01*
X130000Y218332D02*
X131000D01*
X130500D01*
Y215333D01*
X130000D01*
X131000D01*
X132499D02*
Y218332D01*
X134499Y215333D01*
Y218332D01*
X137498Y215333D02*
X135498D01*
X137498Y217333D01*
Y217832D01*
X136998Y218332D01*
X135998D01*
X135498Y217832D01*
X131999Y225999D02*
X131500Y226499D01*
X130500D01*
X130000Y225999D01*
Y224000D01*
X130500Y223500D01*
X131500D01*
X131999Y224000D01*
Y224999D01*
X131000D01*
X132999Y223500D02*
Y226499D01*
X134998Y223500D01*
Y226499D01*
X135998D02*
Y223500D01*
X137498D01*
X137997Y224000D01*
Y225999D01*
X137498Y226499D01*
X135998D01*
X166500Y218332D02*
X167500D01*
X167000D01*
Y215333D01*
X166500D01*
X167500D01*
X168999D02*
Y218332D01*
X170999Y215333D01*
Y218332D01*
X173998Y215333D02*
X171998D01*
X173998Y217333D01*
Y217832D01*
X173498Y218332D01*
X172498D01*
X171998Y217832D01*
X166500Y201499D02*
X167000Y201999D01*
X167999D01*
X168499Y201499D01*
Y200999D01*
X167999Y200500D01*
X167500D01*
X167999D01*
X168499Y200000D01*
Y199500D01*
X167999Y199000D01*
X167000D01*
X166500Y199500D01*
X169499Y201999D02*
Y200000D01*
X170499Y199000D01*
X171498Y200000D01*
Y201999D01*
X172498Y201499D02*
X172998Y201999D01*
X173998D01*
X174497Y201499D01*
Y200999D01*
X173998Y200500D01*
X173498D01*
X173998D01*
X174497Y200000D01*
Y199500D01*
X173998Y199000D01*
X172998D01*
X172498Y199500D01*
X166500Y210166D02*
X167500D01*
X167000D01*
Y207167D01*
X166500D01*
X167500D01*
X168999D02*
Y210166D01*
X170999Y207167D01*
Y210166D01*
X171998Y207167D02*
X172998D01*
X172498D01*
Y210166D01*
X171998Y209666D01*
X168499Y225999D02*
X167999Y226499D01*
X167000D01*
X166500Y225999D01*
Y224000D01*
X167000Y223500D01*
X167999D01*
X168499Y224000D01*
Y224999D01*
X167500D01*
X169499Y223500D02*
Y226499D01*
X171498Y223500D01*
Y226499D01*
X172498D02*
Y223500D01*
X173998D01*
X174497Y224000D01*
Y225999D01*
X173998Y226499D01*
X172498D01*
X204000Y210166D02*
X205000D01*
X204500D01*
Y207167D01*
X204000D01*
X205000D01*
X206499D02*
Y210166D01*
X208499Y207167D01*
Y210166D01*
X209498Y207167D02*
X210498D01*
X209998D01*
Y210166D01*
X209498Y209666D01*
X204000Y218332D02*
X205000D01*
X204500D01*
Y215333D01*
X204000D01*
X205000D01*
X206499D02*
Y218332D01*
X208499Y215333D01*
Y218332D01*
X211498Y215333D02*
X209498D01*
X211498Y217333D01*
Y217832D01*
X210998Y218332D01*
X209998D01*
X209498Y217832D01*
X204000Y201499D02*
X204500Y201999D01*
X205500D01*
X205999Y201499D01*
Y200999D01*
X205500Y200500D01*
X205000D01*
X205500D01*
X205999Y200000D01*
Y199500D01*
X205500Y199000D01*
X204500D01*
X204000Y199500D01*
X206999Y201999D02*
Y200000D01*
X207999Y199000D01*
X208998Y200000D01*
Y201999D01*
X209998Y201499D02*
X210498Y201999D01*
X211498D01*
X211997Y201499D01*
Y200999D01*
X211498Y200500D01*
X210998D01*
X211498D01*
X211997Y200000D01*
Y199500D01*
X211498Y199000D01*
X210498D01*
X209998Y199500D01*
X205999Y225999D02*
X205500Y226499D01*
X204500D01*
X204000Y225999D01*
Y224000D01*
X204500Y223500D01*
X205500D01*
X205999Y224000D01*
Y224999D01*
X205000D01*
X206999Y223500D02*
Y226499D01*
X208998Y223500D01*
Y226499D01*
X209998D02*
Y223500D01*
X211498D01*
X211997Y224000D01*
Y225999D01*
X211498Y226499D01*
X209998D01*
X279000Y210166D02*
X280000D01*
X279500D01*
Y207167D01*
X279000D01*
X280000D01*
X281499D02*
Y210166D01*
X283499Y207167D01*
Y210166D01*
X284498Y207167D02*
X285498D01*
X284998D01*
Y210166D01*
X284498Y209666D01*
X280999Y225999D02*
X280500Y226499D01*
X279500D01*
X279000Y225999D01*
Y224000D01*
X279500Y223500D01*
X280500D01*
X280999Y224000D01*
Y224999D01*
X280000D01*
X281999Y223500D02*
Y226499D01*
X283998Y223500D01*
Y226499D01*
X284998D02*
Y223500D01*
X286498D01*
X286997Y224000D01*
Y225999D01*
X286498Y226499D01*
X284998D01*
X279000Y218332D02*
X280000D01*
X279500D01*
Y215333D01*
X279000D01*
X280000D01*
X281499D02*
Y218332D01*
X283499Y215333D01*
Y218332D01*
X286498Y215333D02*
X284498D01*
X286498Y217333D01*
Y217832D01*
X285998Y218332D01*
X284998D01*
X284498Y217832D01*
X241500Y210166D02*
X242500D01*
X242000D01*
Y207167D01*
X241500D01*
X242500D01*
X243999D02*
Y210166D01*
X245999Y207167D01*
Y210166D01*
X246998Y207167D02*
X247998D01*
X247498D01*
Y210166D01*
X246998Y209666D01*
X241500Y218332D02*
X242500D01*
X242000D01*
Y215333D01*
X241500D01*
X242500D01*
X243999D02*
Y218332D01*
X245999Y215333D01*
Y218332D01*
X248998Y215333D02*
X246998D01*
X248998Y217333D01*
Y217832D01*
X248498Y218332D01*
X247498D01*
X246998Y217832D01*
X243499Y225999D02*
X243000Y226499D01*
X242000D01*
X241500Y225999D01*
Y224000D01*
X242000Y223500D01*
X243000D01*
X243499Y224000D01*
Y224999D01*
X242500D01*
X244499Y223500D02*
Y226499D01*
X246498Y223500D01*
Y226499D01*
X247498D02*
Y223500D01*
X248998D01*
X249497Y224000D01*
Y225999D01*
X248998Y226499D01*
X247498D01*
X241500Y201499D02*
X242000Y201999D01*
X243000D01*
X243499Y201499D01*
Y200999D01*
X243000Y200500D01*
X242500D01*
X243000D01*
X243499Y200000D01*
Y199500D01*
X243000Y199000D01*
X242000D01*
X241500Y199500D01*
X244499Y201999D02*
Y200000D01*
X245499Y199000D01*
X246498Y200000D01*
Y201999D01*
X247498Y201499D02*
X247998Y201999D01*
X248998D01*
X249497Y201499D01*
Y200999D01*
X248998Y200500D01*
X248498D01*
X248998D01*
X249497Y200000D01*
Y199500D01*
X248998Y199000D01*
X247998D01*
X247498Y199500D01*
X308899Y239999D02*
X307900D01*
X308400D01*
Y237500D01*
X307900Y237000D01*
X307400D01*
X306900Y237500D01*
X311898Y239999D02*
X310899Y239499D01*
X309899Y238499D01*
Y237500D01*
X310399Y237000D01*
X311399D01*
X311898Y237500D01*
Y238000D01*
X311399Y238499D01*
X309899D01*
X271899Y239999D02*
X270900D01*
X271399D01*
Y237500D01*
X270900Y237000D01*
X270400D01*
X269900Y237500D01*
X274898Y239999D02*
X272899D01*
Y238499D01*
X273899Y238999D01*
X274398D01*
X274898Y238499D01*
Y237500D01*
X274398Y237000D01*
X273399D01*
X272899Y237500D01*
X234400Y239999D02*
X233400D01*
X233900D01*
Y237500D01*
X233400Y237000D01*
X232900D01*
X232400Y237500D01*
X236899Y237000D02*
Y239999D01*
X235399Y238499D01*
X237399D01*
X197899Y239999D02*
X196900D01*
X197399D01*
Y237500D01*
X196900Y237000D01*
X196400D01*
X195900Y237500D01*
X198899Y239499D02*
X199399Y239999D01*
X200399D01*
X200898Y239499D01*
Y238999D01*
X200399Y238499D01*
X199899D01*
X200399D01*
X200898Y238000D01*
Y237500D01*
X200399Y237000D01*
X199399D01*
X198899Y237500D01*
X160899Y239999D02*
X159900D01*
X160399D01*
Y237500D01*
X159900Y237000D01*
X159400D01*
X158900Y237500D01*
X163898Y237000D02*
X161899D01*
X163898Y238999D01*
Y239499D01*
X163399Y239999D01*
X162399D01*
X161899Y239499D01*
X123899Y239999D02*
X122900D01*
X123399D01*
Y237500D01*
X122900Y237000D01*
X122400D01*
X121900Y237500D01*
X124899Y237000D02*
X125899D01*
X125399D01*
Y239999D01*
X124899Y239499D01*
D12*
X97500Y254016D02*
Y255182D01*
Y254599D01*
X94001D01*
X94584Y254016D01*
X107084D02*
X106501Y254599D01*
Y255765D01*
X107084Y256348D01*
X107667D01*
X108251Y255765D01*
Y255182D01*
Y255765D01*
X108834Y256348D01*
X109417D01*
X110000Y255765D01*
Y254599D01*
X109417Y254016D01*
X116501Y256348D02*
Y254016D01*
X118251D01*
X117667Y255182D01*
Y255765D01*
X118251Y256348D01*
X119417D01*
X120000Y255765D01*
Y254599D01*
X119417Y254016D01*
X126501D02*
Y256348D01*
X127084D01*
X129417Y254016D01*
X130000D01*
X139417D02*
X140000Y254599D01*
Y255765D01*
X139417Y256348D01*
X137084D01*
X136501Y255765D01*
Y254599D01*
X137084Y254016D01*
X137667D01*
X138251Y254599D01*
Y256348D01*
X150000Y254016D02*
Y255182D01*
Y254599D01*
X146501D01*
X147084Y254016D01*
X150000Y256931D02*
Y258098D01*
Y257515D01*
X146501D01*
X147084Y256931D01*
X160000Y254016D02*
Y255182D01*
Y254599D01*
X156501D01*
X157084Y254016D01*
Y256931D02*
X156501Y257515D01*
Y258681D01*
X157084Y259264D01*
X157667D01*
X158251Y258681D01*
Y258098D01*
Y258681D01*
X158834Y259264D01*
X159417D01*
X160000Y258681D01*
Y257515D01*
X159417Y256931D01*
X170000Y254016D02*
Y255182D01*
Y254599D01*
X166501D01*
X167084Y254016D01*
X166501Y259264D02*
Y256931D01*
X168251D01*
X167667Y258098D01*
Y258681D01*
X168251Y259264D01*
X169417D01*
X170000Y258681D01*
Y257515D01*
X169417Y256931D01*
X180000Y254016D02*
Y255182D01*
Y254599D01*
X176501D01*
X177084Y254016D01*
X176501Y256931D02*
Y259264D01*
X177084D01*
X179417Y256931D01*
X180000D01*
X190000Y254016D02*
Y255182D01*
Y254599D01*
X186501D01*
X187084Y254016D01*
X189417Y256931D02*
X190000Y257515D01*
Y258681D01*
X189417Y259264D01*
X187084D01*
X186501Y258681D01*
Y257515D01*
X187084Y256931D01*
X187667D01*
X188251Y257515D01*
Y259264D01*
X200000Y256348D02*
Y254016D01*
X197667Y256348D01*
X197084D01*
X196501Y255765D01*
Y254599D01*
X197084Y254016D01*
X200000Y257515D02*
Y258681D01*
Y258098D01*
X196501D01*
X197084Y257515D01*
X210000Y256348D02*
Y254016D01*
X207667Y256348D01*
X207084D01*
X206501Y255765D01*
Y254599D01*
X207084Y254016D01*
Y257515D02*
X206501Y258098D01*
Y259264D01*
X207084Y259847D01*
X207667D01*
X208251Y259264D01*
Y258681D01*
Y259264D01*
X208834Y259847D01*
X209417D01*
X210000Y259264D01*
Y258098D01*
X209417Y257515D01*
X220000Y256348D02*
Y254016D01*
X217667Y256348D01*
X217084D01*
X216501Y255765D01*
Y254599D01*
X217084Y254016D01*
X216501Y259847D02*
Y257515D01*
X218251D01*
X217667Y258681D01*
Y259264D01*
X218251Y259847D01*
X219417D01*
X220000Y259264D01*
Y258098D01*
X219417Y257515D01*
X230000Y256348D02*
Y254016D01*
X227667Y256348D01*
X227084D01*
X226501Y255765D01*
Y254599D01*
X227084Y254016D01*
X226501Y257515D02*
Y259847D01*
X227084D01*
X229417Y257515D01*
X230000D01*
X240000Y256348D02*
Y254016D01*
X237667Y256348D01*
X237084D01*
X236501Y255765D01*
Y254599D01*
X237084Y254016D01*
X239417Y257515D02*
X240000Y258098D01*
Y259264D01*
X239417Y259847D01*
X237084D01*
X236501Y259264D01*
Y258098D01*
X237084Y257515D01*
X237667D01*
X238251Y258098D01*
Y259847D01*
X247084Y254016D02*
X246501Y254599D01*
Y255765D01*
X247084Y256348D01*
X247667D01*
X248251Y255765D01*
Y255182D01*
Y255765D01*
X248834Y256348D01*
X249417D01*
X250000Y255765D01*
Y254599D01*
X249417Y254016D01*
X250000Y257515D02*
Y258681D01*
Y258098D01*
X246501D01*
X247084Y257515D01*
X257084Y254016D02*
X256501Y254599D01*
Y255765D01*
X257084Y256348D01*
X257667D01*
X258251Y255765D01*
Y255182D01*
Y255765D01*
X258834Y256348D01*
X259417D01*
X260000Y255765D01*
Y254599D01*
X259417Y254016D01*
X257084Y257515D02*
X256501Y258098D01*
Y259264D01*
X257084Y259847D01*
X257667D01*
X258251Y259264D01*
Y258681D01*
Y259264D01*
X258834Y259847D01*
X259417D01*
X260000Y259264D01*
Y258098D01*
X259417Y257515D01*
X267084Y254016D02*
X266501Y254599D01*
Y255765D01*
X267084Y256348D01*
X267667D01*
X268251Y255765D01*
Y255182D01*
Y255765D01*
X268834Y256348D01*
X269417D01*
X270000Y255765D01*
Y254599D01*
X269417Y254016D01*
X266501Y259847D02*
Y257515D01*
X268251D01*
X267667Y258681D01*
Y259264D01*
X268251Y259847D01*
X269417D01*
X270000Y259264D01*
Y258098D01*
X269417Y257515D01*
X277084Y254016D02*
X276501Y254599D01*
Y255765D01*
X277084Y256348D01*
X277667D01*
X278251Y255765D01*
Y255182D01*
Y255765D01*
X278834Y256348D01*
X279417D01*
X280000Y255765D01*
Y254599D01*
X279417Y254016D01*
X276501Y257515D02*
Y259847D01*
X277084D01*
X279417Y257515D01*
X280000D01*
X287084Y254016D02*
X286501Y254599D01*
Y255765D01*
X287084Y256348D01*
X287667D01*
X288251Y255765D01*
Y255182D01*
Y255765D01*
X288834Y256348D01*
X289417D01*
X290000Y255765D01*
Y254599D01*
X289417Y254016D01*
Y257515D02*
X290000Y258098D01*
Y259264D01*
X289417Y259847D01*
X287084D01*
X286501Y259264D01*
Y258098D01*
X287084Y257515D01*
X287667D01*
X288251Y258098D01*
Y259847D01*
M02*
