M48
;Layer_Color=9474304
;FILE_FORMAT=4:3
METRIC,LZ
;TYPE=PLATED
T01F00S00C0.175
T02F00S00C0.200
T03F00S00C0.762
T04F00S00C0.800
T05F00S00C0.900
T06F00S00C0.950
T07F00S00C1.000
T08F00S00C1.200
T09F00S00C1.300
T10F00S00C1.500
T11F00S00C1.600
T12F00S00C2.300
T13F00S00C3.500
;TYPE=NON_PLATED
T14F00S00C2.650
%
T01
X002975Y0010204
X0035687
X003311Y001375
X0093715Y00335
Y00465
X0086Y00435
Y004
Y00365
X0072897
X0068Y0035
X00668
X0067249Y00291
X00682
Y00266
X0067249
X0063119Y0027
X006175Y00237
X006075
X005715Y00235
X00545Y0026625
X0054Y0032
Y003494
X0058Y003165
Y002995
X006Y00313
X006096Y003306
X005886Y004431
X0074803Y0044216
X0068Y002275
X00505Y00215
X0046482Y00205
X00455Y00226
X00447
X00439Y0022627
X00415Y0022584
X00406
X004125Y00205
X004225Y00185
Y0017653
X00385Y001875
X003575Y0017
X0036422Y0021249
X0036576Y0025273
X003773Y003044
X003856
X0039751Y00317
X0040994
X0041756
X00426
X00418Y00325
X003937Y00336
X0036576Y0034365
X0036Y0033097
X0035241
X0034481Y00336
X0033722Y0033097
X0032963Y0033095
Y0036905
X0036
X0035246Y0035635
X0040994Y00365
X00435
X00485Y003475
Y0034
X0048514Y003325
X0052324
X00505Y003
X00465Y003025
Y002925
Y00284
X00463Y00258
Y00245
X0032Y0022
Y003
X003401
X00295Y0036905
Y003825
X0029Y00425
Y004525
X002025Y004019
X001325Y003828
Y003672
X0007493Y0051
X001406Y00675
X00155Y00725
X001778Y00745
X00195Y0068675
X002215Y0066
X0032Y006975
X00354Y00725
X0036322Y0067
X00385
Y006845
X004075Y007
X00456Y00685
X0044Y006306
X00625Y00745
X00695Y0055485
X0074Y00555
X00785Y0055485
X0083Y00555
T02
X00206Y00026
X00216
X00226
X00236
X00246
X00256
X00266
X00276
X00286
X00296
X00306
X00316
X00321Y00036
X00311
X00301
X00291
X00281
X00271
X00261
X00251
X00241
X00231
X00221
X00211
X00236Y00046
X00246
X00241Y00056
X00231
X00226Y00066
X00236
X00246
X00241Y00076
X00231
X00236Y00086
X00246
X00251Y00096
X00241
X00231
X00236Y00106
X00246
X00251Y00116
X00241
X00231
X00281
Y00096
Y00076
X00276Y00066
X00281Y00056
X00291
X00301
X00296Y00046
X00286
X00341Y00036
X00351
X00361
X00371
X00381
X00391
X00386Y00046
X00396
X00391Y00056
X00381
X00371
X00361
X00356Y00046
X00366
X00376
Y00026
X00386
X00396
X00366
X00356
X00346
X00336
X00436
X00431Y00036
X00436Y00046
X00431Y00056
Y00076
X00441
X00436Y00086
X00446
X00456
X00461Y00096
X00451
X00441
X00431
X00421
X00411
X00401
X00391
X00396Y00106
X00391Y00116
X00396Y00126
X00391Y00136
X00431
X00436Y00126
X00431Y00116
X00426Y00106
X00436
X00426Y00086
X00416
X00406
X00396
X00401Y00076
X00391
X00396Y00066
X00421Y00076
X00461
X00491
X00486Y00086
X00496
X00506
X00516
X00526
X00536
X00531Y00096
X00521
X00511
X00501
X00491
X00486Y00106
X00516
Y00126
X00521Y00136
Y00076
X00511
X00516Y00066
Y00046
Y00026
X00486
X00556
X00561Y00036
X00571
X00581
X00591
X00601
X00611
X00621
X00631
X00641
X00651
X00661
X00671
X00681
X00691
X00666Y00046
X00656
X00646
X00651Y00056
X00661
X00656Y00066
X00666
X00661Y00076
X00651
X00646Y00086
X00656
X00666
X00661Y00096
X00651
X00646Y00106
X00656
X00661Y00116
X00671
X00691
X00651
X00641
X00621
X00611
X00601
X00591
X00581
X00571
X00561
X00556Y00126
X00561Y00136
X00551
X00556Y00106
X00566
X00576
X00586
X00596
X00606
X00611Y00096
X00601
X00591
X00581
X00571
X00561
X00551
X00541
X00546Y00086
X00556
X00566
X00576
X00586
X00596
X00606
X00616
X00611Y00076
X00601
X00591
X00581
X00571
X00561
X00551
X00556Y00066
X00566
X00576
X00586
X00596
X00606
X00616
X00611Y00056
X00601
X00591
X00581
X00571
X00561
X00551
X00556Y00046
X00566
X00576
X00586
X00596
X00606
X00646Y00066
X00556Y00146
X00561Y00156
X00551
X00521
X00511
X00516Y00146
X00491Y00156
X00461
X00441
X00431
X00401
X00391
X00396Y00146
T03
X0043688Y0054786
X0046228
X0048768
X0051308
X0053848
Y0076786
X0051308
X0048768
X0046228
X0043688
X0056388
Y0054786
T04
X008875Y0014
X009375
T05
X00695Y004746
Y005
X0074
Y004746
X00785
Y005
X0083
Y004746
X00155Y004525
Y004275
X00135
Y004525
T06
X005632Y00405
X005886
X00614
X006394
Y004812
X00614
X005886
X005632
X005378
X005124
X00487
X004616
X004362
X004108
X003854
X0036
Y00405
X003854
X004108
X004362
X004616
X00487
X005124
X005378
T07
X002025Y003725
Y004175
Y004575
Y005025
X002675
Y004575
Y004175
Y003725
T08
X0092Y0058
Y006054
Y006308
T09
X00045Y001276
Y001784
Y002292
Y0028
Y005892
Y0064
T10
X0093Y002215
Y005285
T11
X001196Y000521
Y000775
Y001029
X001704
Y000775
Y000521
X002146
Y000775
Y001029
X002654
Y000775
Y000521
X004146Y000616
Y000366
X004496
Y000616
X005004
Y000366
X005354
Y000616
Y001175
Y001425
X005004
Y001175
X004496
Y001425
X004146
Y001175
X006296Y001029
Y000775
Y000521
X006804
Y000775
Y001029
X007246
Y000775
Y000521
X007754
Y000775
Y001029
T12
X00108Y003798
Y005002
T13
X00045Y00045
X00925
X00045Y0078
X00925
T14
X00475Y0004955
Y0013045
M30
