%TF.GenerationSoftware,Altium Limited,Altium Designer,25.2.1 (25)*%
G04 Layer_Color=16711833*
%FSLAX43Y43*%
%MOMM*%
%TF.SameCoordinates,14BE83A4-B3EB-4770-8DB1-726BE69DDD70*%
%TF.FilePolarity,Positive*%
%TF.FileFunction,Other,Mechanical_13*%
%TF.Part,Single*%
G01*
G75*
%TA.AperFunction,NonConductor*%
%ADD67C,0.254*%
%ADD68C,0.200*%
%ADD69C,0.100*%
%ADD76C,0.127*%
D67*
X20505Y50995D02*
X26495D01*
Y45005D02*
Y50995D01*
X20505Y45005D02*
X26495D01*
X20505D02*
Y50995D01*
Y42495D02*
X26495D01*
Y36505D02*
Y42495D01*
X20505Y36505D02*
X26495D01*
X20505D02*
Y42495D01*
D68*
X39300Y31470D02*
G03*
X39300Y31470I-100J0D01*
G01*
X15600Y37250D02*
G03*
X15600Y37250I-100J0D01*
G01*
X12850Y69050D02*
G03*
X12850Y69050I-100J0D01*
G01*
X23720Y70455D02*
G03*
X23720Y70455I-100J0D01*
G01*
X70000Y30100D02*
Y32100D01*
X66000Y30100D02*
X70000D01*
X66000D02*
Y32100D01*
X70000D01*
X84321Y45080D02*
X92961D01*
X84321Y34920D02*
Y45080D01*
Y34920D02*
X92961D01*
Y45080D01*
X11000Y4250D02*
Y11250D01*
Y4250D02*
X18000D01*
Y11250D01*
X11000D02*
X18000D01*
X20500Y4250D02*
Y11250D01*
Y4250D02*
X27500D01*
Y11250D01*
X20500D02*
X27500D01*
X62000Y4250D02*
Y11250D01*
Y4250D02*
X69000D01*
Y11250D01*
X62000D02*
X69000D01*
X37500Y16000D02*
X57500D01*
Y10000D02*
Y16000D01*
X37500Y10000D02*
X57500D01*
X37500D02*
Y16000D01*
X71500Y4250D02*
Y11250D01*
Y4250D02*
X78500D01*
Y11250D01*
X71500D02*
X78500D01*
X37500Y7910D02*
X57500D01*
Y1910D02*
Y7910D01*
X37500Y1910D02*
X57500D01*
X37500D02*
Y7910D01*
D69*
X96500Y14000D02*
G03*
X96500Y14000I-5250J0D01*
G01*
X33821Y5545D02*
X35091Y6815D01*
X30187Y5545D02*
X35091D01*
X30187D02*
Y9441D01*
X35091D01*
Y5545D02*
Y9441D01*
X37625Y8300D02*
Y10300D01*
X36375D02*
X37625D01*
X36375Y8300D02*
Y10300D01*
Y8300D02*
X37625D01*
X65800Y34375D02*
X67800D01*
X65800Y33125D02*
Y34375D01*
Y33125D02*
X67800D01*
Y34375D01*
X67375Y23559D02*
Y25559D01*
Y23559D02*
X68625D01*
Y25559D01*
X67375D02*
X68625D01*
X58750Y28750D02*
X59250Y29250D01*
X58750D02*
X61750D01*
Y26250D02*
Y29250D01*
X58750Y26250D02*
X61750D01*
X58750D02*
Y29250D01*
X53850Y24500D02*
Y27000D01*
X50650Y24500D02*
X53850D01*
X50650D02*
Y27000D01*
X53850D01*
X400Y50050D02*
X16600D01*
X400Y37950D02*
Y50050D01*
Y37950D02*
X16600D01*
Y50050D01*
X31885Y32385D02*
X37116D01*
Y37615D01*
X31885D02*
X37116D01*
X31885Y32385D02*
Y37615D01*
Y33655D02*
X33155Y32385D01*
X40940Y64500D02*
X42190D01*
X40940D02*
Y66500D01*
X42190D01*
Y64500D02*
Y66500D01*
X19315Y63375D02*
Y64625D01*
X17315Y63375D02*
X19315D01*
X17315D02*
Y64625D01*
X19315D01*
X57250Y26125D02*
Y27375D01*
X55250Y26125D02*
X57250D01*
X55250D02*
Y27375D01*
X57250D01*
X49465Y29375D02*
Y30625D01*
X47465Y29375D02*
X49465D01*
X47465D02*
Y30625D01*
X49465D01*
X41700Y68110D02*
X42160Y67650D01*
X41700D02*
Y69350D01*
X44300D01*
Y67650D02*
Y69350D01*
X41700Y67650D02*
X44300D01*
X37250Y71250D02*
X39750D01*
X37250Y68750D02*
Y71250D01*
Y68750D02*
X39750D01*
Y71250D01*
X39125D02*
X39750Y70625D01*
X33500Y70375D02*
Y71625D01*
X35500D01*
Y70375D02*
Y71625D01*
X33500Y70375D02*
X35500D01*
X17155Y73528D02*
X18405D01*
Y71528D02*
Y73528D01*
X17155Y71528D02*
X18405D01*
X17155D02*
Y73528D01*
X63744Y23750D02*
Y25750D01*
X62494D02*
X63744D01*
X62494Y23750D02*
Y25750D01*
Y23750D02*
X63744D01*
X33010Y22375D02*
X35010D01*
Y23625D01*
X33010D02*
X35010D01*
X33010Y22375D02*
Y23625D01*
X33010Y17625D02*
X35010D01*
X33010Y16375D02*
Y17625D01*
Y16375D02*
X35010D01*
Y17625D01*
X38625Y19500D02*
Y21500D01*
Y19500D02*
X39875D01*
Y21500D01*
X38625D02*
X39875D01*
X55250Y25375D02*
X57250D01*
X55250Y24125D02*
Y25375D01*
Y24125D02*
X57250D01*
Y25375D01*
X6868Y52085D02*
Y54085D01*
Y52085D02*
X8118D01*
Y54085D01*
X6868D02*
X8118D01*
X39875Y33500D02*
Y35500D01*
Y33500D02*
X41125D01*
Y35500D01*
X39875D02*
X41125D01*
X47465Y23125D02*
X49465D01*
X47465Y21875D02*
Y23125D01*
Y21875D02*
X49465D01*
Y23125D01*
X43875Y19500D02*
Y21500D01*
X42625D02*
X43875D01*
X42625Y19500D02*
Y21500D01*
Y19500D02*
X43875D01*
X43875Y33500D02*
Y35500D01*
Y33500D02*
X45125D01*
Y35500D01*
X43875D02*
X45125D01*
X33010Y20375D02*
X35010D01*
Y21625D01*
X33010D02*
X35010D01*
X33010Y20375D02*
Y21625D01*
X41875Y33500D02*
Y35500D01*
Y33500D02*
X43125D01*
Y35500D01*
X41875D02*
X43125D01*
X33010Y28375D02*
X35010D01*
Y29625D01*
X33010D02*
X35010D01*
X33010Y28375D02*
Y29625D01*
Y30375D02*
X35010D01*
Y31625D01*
X33010D02*
X35010D01*
X33010Y30375D02*
Y31625D01*
X45875Y33500D02*
Y35500D01*
Y33500D02*
X47125D01*
Y35500D01*
X45875D02*
X47125D01*
X41875Y19500D02*
Y21500D01*
X40625D02*
X41875D01*
X40625Y19500D02*
Y21500D01*
Y19500D02*
X41875D01*
X45875D02*
Y21500D01*
X44625D02*
X45875D01*
X44625Y19500D02*
Y21500D01*
Y19500D02*
X45875D01*
X47465Y21125D02*
X49465D01*
X47465Y19875D02*
Y21125D01*
Y19875D02*
X49465D01*
Y21125D01*
X93000Y42250D02*
X95650Y39600D01*
X93000Y42250D02*
Y52850D01*
X95650Y32750D02*
Y42250D01*
X90350Y32750D02*
X95650D01*
X90350D02*
Y42250D01*
X95650D01*
X93000Y22150D02*
Y32750D01*
D76*
X69267Y37990D02*
Y43290D01*
X66367Y37990D02*
X69267D01*
X66367D02*
Y43290D01*
X69267D01*
X65280Y23199D02*
X66720D01*
X65280Y25399D02*
X66720D01*
Y23199D02*
Y25399D01*
X65280Y23199D02*
Y25399D01*
X58780Y32900D02*
Y35100D01*
X60220Y32900D02*
Y35100D01*
X58780D02*
X60220D01*
X58780Y32900D02*
X60220D01*
X56780D02*
Y35100D01*
X58220Y32900D02*
Y35100D01*
X56780D02*
X58220D01*
X56780Y32900D02*
X58220D01*
X75620Y41020D02*
Y44480D01*
X78380Y41020D02*
Y44480D01*
X75620D02*
X78380D01*
X75620Y41020D02*
X78380D01*
X38500Y30500D02*
X45500D01*
X38500Y23500D02*
X45500D01*
X38500D02*
Y30500D01*
X45500Y23500D02*
Y30500D01*
X54780Y32900D02*
Y35100D01*
X56220Y32900D02*
Y35100D01*
X54780D02*
X56220D01*
X54780Y32900D02*
X56220D01*
X48030Y24650D02*
X49470D01*
X48030Y26850D02*
X49470D01*
Y24650D02*
Y26850D01*
X48030Y24650D02*
Y26850D01*
X43280Y64140D02*
X44720D01*
X43280Y66340D02*
X44720D01*
Y64140D02*
Y66340D01*
X43280Y64140D02*
Y66340D01*
X29900Y11580D02*
Y13020D01*
X32100Y11580D02*
Y13020D01*
X29900Y11580D02*
X32100D01*
X29900Y13020D02*
X32100D01*
X33400Y11580D02*
Y13020D01*
X35600Y11580D02*
Y13020D01*
X33400Y11580D02*
X35600D01*
X33400Y13020D02*
X35600D01*
X48870Y43590D02*
Y45030D01*
X51070Y43590D02*
Y45030D01*
X48870Y43590D02*
X51070D01*
X48870Y45030D02*
X51070D01*
X70220Y52400D02*
Y54600D01*
X68780Y52400D02*
Y54600D01*
Y52400D02*
X70220D01*
X68780Y54600D02*
X70220D01*
X83720Y52400D02*
Y54600D01*
X82280Y52400D02*
Y54600D01*
Y52400D02*
X83720D01*
X82280Y54600D02*
X83720D01*
X79220Y52400D02*
Y54600D01*
X77780Y52400D02*
Y54600D01*
Y52400D02*
X79220D01*
X77780Y54600D02*
X79220D01*
X74720Y52400D02*
Y54600D01*
X73280Y52400D02*
Y54600D01*
Y52400D02*
X74720D01*
X73280Y54600D02*
X74720D01*
X17475Y65280D02*
X19675D01*
X17475Y66720D02*
X19675D01*
X17475Y65280D02*
Y66720D01*
X19675Y65280D02*
Y66720D01*
X41370Y70770D02*
X43130D01*
X41370D02*
Y71730D01*
X43130D01*
Y70770D02*
Y71730D01*
X33140Y69220D02*
X35340D01*
X33140Y67780D02*
X35340D01*
Y69220D01*
X33140Y67780D02*
Y69220D01*
X22780Y49100D02*
X24220D01*
X22780Y46900D02*
X24220D01*
X22780D02*
Y49100D01*
X24220Y46900D02*
Y49100D01*
X14100Y68550D02*
Y71450D01*
X15400D01*
Y68550D02*
Y71450D01*
X14100Y68550D02*
X15400D01*
X13900Y65280D02*
X16100D01*
X13900Y66720D02*
X16100D01*
X13900Y65280D02*
Y66720D01*
X16100Y65280D02*
Y66720D01*
X18450Y70550D02*
X21550D01*
X18450Y67450D02*
X21550D01*
Y70550D01*
X18450Y67450D02*
Y70550D01*
X32650Y14280D02*
X34850D01*
X32650Y15720D02*
X34850D01*
X32650Y14280D02*
Y15720D01*
X34850Y14280D02*
Y15720D01*
X22780Y38150D02*
Y40350D01*
X24220Y38150D02*
Y40350D01*
X22780D02*
X24220D01*
X22780Y38150D02*
X24220D01*
X34850Y26280D02*
Y27720D01*
X32650Y26280D02*
Y27720D01*
X34850D01*
X32650Y26280D02*
X34850D01*
Y24280D02*
Y25720D01*
X32650Y24280D02*
Y25720D01*
X34850D01*
X32650Y24280D02*
X34850D01*
X5700Y42320D02*
X7300D01*
Y43180D01*
X5700D02*
X7300D01*
X5700Y42320D02*
Y43180D01*
Y44820D02*
X7300D01*
Y45680D01*
X5700D02*
X7300D01*
X5700Y44820D02*
Y45680D01*
X33095Y18520D02*
Y19480D01*
Y18520D02*
X34855D01*
Y19480D01*
X33095D02*
X34855D01*
%TF.MD5,9d110f1c992ecbd454006cc0dcf7884d*%
M02*
