%TF.GenerationSoftware,Altium Limited,Altium Designer,25.2.1 (25)*%
G04 Layer_Color=6809061*
%FSLAX43Y43*%
%MOMM*%
%TF.SameCoordinates,14BE83A4-B3EB-4770-8DB1-726BE69DDD70*%
%TF.FilePolarity,Positive*%
%TF.FileFunction,Legend,Bot*%
%TF.Part,Single*%
G01*
G75*
%TA.AperFunction,NonConductor*%
%ADD67C,0.254*%
%ADD68C,0.200*%
%ADD69C,0.100*%
%ADD71C,0.300*%
%ADD74C,0.250*%
%ADD75C,0.000*%
%ADD76C,0.127*%
%ADD77C,0.220*%
G36*
X70699Y79190D02*
X72362D01*
Y78360D01*
X72361D01*
Y78359D01*
X71530D01*
Y77528D01*
X72361D01*
Y77527D01*
X72362D01*
Y76696D01*
X73193D01*
Y75034D01*
X72362D01*
Y75865D01*
X71531D01*
Y75866D01*
X71530D01*
Y76696D01*
X70699D01*
Y75866D01*
X70698D01*
Y75865D01*
X69868D01*
Y76696D01*
X67374D01*
Y75865D01*
X68204D01*
Y75864D01*
X68205D01*
Y75034D01*
X67374D01*
Y75865D01*
X66544D01*
Y75866D01*
X66543D01*
Y76696D01*
X65711D01*
Y75866D01*
X65710D01*
Y75865D01*
X64880D01*
Y75034D01*
X64049D01*
Y76696D01*
X64880D01*
Y77527D01*
X64881D01*
Y77528D01*
X65711D01*
Y78359D01*
X64881D01*
Y78360D01*
X64880D01*
Y79190D01*
X64049D01*
Y79787D01*
Y79789D01*
Y80022D01*
X64879D01*
Y80021D01*
X64880D01*
Y79190D01*
X66543D01*
Y77528D01*
X67374D01*
Y79190D01*
X66543D01*
Y80853D01*
X67374D01*
Y80022D01*
X69868D01*
Y80853D01*
X70699D01*
Y79190D01*
D02*
G37*
G36*
X73193D02*
X72362D01*
Y79445D01*
Y79446D01*
Y80021D01*
X72363D01*
Y80022D01*
X73193D01*
Y79190D01*
D02*
G37*
G36*
X85506Y80874D02*
X85556D01*
Y80870D01*
X85601D01*
Y80865D01*
X85614D01*
Y80861D01*
X85650D01*
Y80856D01*
X85664D01*
Y80852D01*
X85686D01*
Y80847D01*
X85704D01*
Y80843D01*
X85718D01*
Y80838D01*
X85736D01*
Y80834D01*
X85745D01*
Y80829D01*
X85763D01*
Y80825D01*
X85776D01*
Y80820D01*
X85790D01*
Y80816D01*
X85803D01*
Y80811D01*
X85812D01*
Y80807D01*
X85826D01*
Y80802D01*
X85835D01*
Y80798D01*
X85844D01*
Y80793D01*
X85857D01*
Y80789D01*
X85862D01*
Y80784D01*
X85875D01*
Y80780D01*
X85884D01*
Y80775D01*
X85893D01*
Y80771D01*
X85902D01*
Y80766D01*
X85911D01*
Y80762D01*
X85920D01*
Y80757D01*
X85924D01*
Y80753D01*
X85938D01*
Y80748D01*
X85942D01*
Y80744D01*
X85951D01*
Y80739D01*
X85960D01*
Y80735D01*
X85965D01*
Y80730D01*
X85974D01*
Y80726D01*
X85978D01*
Y80721D01*
X85987D01*
Y80717D01*
X85992D01*
Y80712D01*
X86001D01*
Y80708D01*
X86010D01*
Y80703D01*
X86014D01*
Y80699D01*
X86019D01*
Y80694D01*
X86028D01*
Y80690D01*
X86032D01*
Y80685D01*
X86037D01*
Y80681D01*
X86046D01*
Y80676D01*
X86050D01*
Y80672D01*
X86055D01*
Y80667D01*
X86064D01*
Y80663D01*
X86068D01*
Y80658D01*
X86073D01*
Y80654D01*
X86077D01*
Y80649D01*
X86082D01*
Y80645D01*
X86091D01*
Y80640D01*
X86095D01*
Y80636D01*
X86100D01*
Y80631D01*
X86104D01*
Y80627D01*
X86109D01*
Y80622D01*
X86118D01*
Y80618D01*
X86122D01*
Y80613D01*
X86127D01*
Y80609D01*
X86131D01*
Y80604D01*
X86136D01*
Y80600D01*
X86140D01*
Y80595D01*
X86145D01*
Y80591D01*
X86149D01*
Y80586D01*
X86154D01*
Y80582D01*
X86158D01*
Y80577D01*
X86163D01*
Y80573D01*
X86167D01*
Y80568D01*
X86172D01*
Y80564D01*
X86176D01*
Y80559D01*
X86181D01*
Y80555D01*
X86185D01*
Y80546D01*
X86190D01*
Y80541D01*
X86194D01*
Y80537D01*
X86199D01*
Y80532D01*
X86203D01*
Y80528D01*
X86208D01*
Y80519D01*
X86212D01*
Y80514D01*
X86217D01*
Y80510D01*
X86221D01*
Y80505D01*
X86226D01*
Y80501D01*
X86230D01*
Y80492D01*
X86235D01*
Y80487D01*
X86239D01*
Y80483D01*
X86244D01*
Y80474D01*
X86248D01*
Y80469D01*
X86253D01*
Y80465D01*
X86257D01*
Y80456D01*
X86262D01*
Y80451D01*
X86266D01*
Y80447D01*
X86271D01*
Y80438D01*
X86275D01*
Y80429D01*
X86280D01*
Y80424D01*
X86284D01*
Y80415D01*
X86289D01*
Y80411D01*
X86293D01*
Y80402D01*
X86298D01*
Y80397D01*
X86302D01*
Y80388D01*
X86307D01*
Y80379D01*
X86311D01*
Y80370D01*
X86316D01*
Y80361D01*
X86320D01*
Y80357D01*
X86325D01*
Y80343D01*
X86329D01*
Y80339D01*
X86334D01*
Y80330D01*
X86338D01*
Y80321D01*
X86343D01*
Y80312D01*
X86347D01*
Y80298D01*
X86352D01*
Y80294D01*
X86356D01*
Y80280D01*
X86361D01*
Y80271D01*
X86365D01*
Y80262D01*
X86370D01*
Y80244D01*
X86374D01*
Y80240D01*
X86379D01*
Y80222D01*
X86383D01*
Y80213D01*
X86388D01*
Y80199D01*
X86392D01*
Y80181D01*
X86397D01*
Y80172D01*
X86401D01*
Y80150D01*
X86406D01*
Y80141D01*
X86410D01*
Y80118D01*
X86415D01*
Y80100D01*
X86419D01*
Y80087D01*
X86424D01*
Y80051D01*
X86428D01*
Y80033D01*
X86433D01*
Y79988D01*
X86437D01*
Y79943D01*
X86442D01*
Y76057D01*
X86437D01*
Y76012D01*
X86433D01*
Y75967D01*
X86428D01*
Y75949D01*
X86424D01*
Y75917D01*
X86419D01*
Y75899D01*
X86415D01*
Y75881D01*
X86410D01*
Y75859D01*
X86406D01*
Y75850D01*
X86401D01*
Y75827D01*
X86397D01*
Y75818D01*
X86392D01*
Y75800D01*
X86388D01*
Y75787D01*
X86383D01*
Y75778D01*
X86379D01*
Y75760D01*
X86374D01*
Y75755D01*
X86370D01*
Y75737D01*
X86365D01*
Y75728D01*
X86361D01*
Y75719D01*
X86356D01*
Y75706D01*
X86352D01*
Y75701D01*
X86347D01*
Y75688D01*
X86343D01*
Y75679D01*
X86338D01*
Y75670D01*
X86334D01*
Y75661D01*
X86329D01*
Y75656D01*
X86325D01*
Y75643D01*
X86320D01*
Y75638D01*
X86316D01*
Y75629D01*
X86311D01*
Y75620D01*
X86307D01*
Y75611D01*
X86302D01*
Y75602D01*
X86298D01*
Y75598D01*
X86293D01*
Y75589D01*
X86289D01*
Y75584D01*
X86284D01*
Y75576D01*
X86280D01*
Y75571D01*
X86275D01*
Y75562D01*
X86271D01*
Y75553D01*
X86266D01*
Y75549D01*
X86262D01*
Y75544D01*
X86257D01*
Y75540D01*
X86253D01*
Y75531D01*
X86248D01*
Y75526D01*
X86244D01*
Y75517D01*
X86239D01*
Y75513D01*
X86235D01*
Y75508D01*
X86230D01*
Y75499D01*
X86226D01*
Y75495D01*
X86221D01*
Y75490D01*
X86217D01*
Y75486D01*
X86212D01*
Y75481D01*
X86208D01*
Y75472D01*
X86203D01*
Y75468D01*
X86199D01*
Y75463D01*
X86194D01*
Y75459D01*
X86190D01*
Y75454D01*
X86185D01*
Y75445D01*
X86181D01*
Y75441D01*
X86176D01*
Y75436D01*
X86172D01*
Y75432D01*
X86167D01*
Y75427D01*
X86163D01*
Y75423D01*
X86158D01*
Y75418D01*
X86154D01*
Y75414D01*
X86149D01*
Y75409D01*
X86145D01*
Y75405D01*
X86140D01*
Y75400D01*
X86136D01*
Y75396D01*
X86131D01*
Y75391D01*
X86127D01*
Y75387D01*
X86122D01*
Y75382D01*
X86118D01*
Y75378D01*
X86109D01*
Y75373D01*
X86104D01*
Y75369D01*
X86100D01*
Y75364D01*
X86095D01*
Y75360D01*
X86091D01*
Y75355D01*
X86082D01*
Y75351D01*
X86077D01*
Y75346D01*
X86073D01*
Y75342D01*
X86068D01*
Y75337D01*
X86064D01*
Y75333D01*
X86055D01*
Y75328D01*
X86050D01*
Y75324D01*
X86046D01*
Y75319D01*
X86037D01*
Y75315D01*
X86032D01*
Y75310D01*
X86023D01*
Y75306D01*
X86019D01*
Y75301D01*
X86014D01*
Y75297D01*
X86010D01*
Y75292D01*
X86001D01*
Y75288D01*
X85992D01*
Y75283D01*
X85987D01*
Y75279D01*
X85978D01*
Y75274D01*
X85974D01*
Y75270D01*
X85965D01*
Y75265D01*
X85956D01*
Y75261D01*
X85951D01*
Y75256D01*
X85942D01*
Y75252D01*
X85938D01*
Y75247D01*
X85924D01*
Y75243D01*
X85920D01*
Y75238D01*
X85911D01*
Y75234D01*
X85902D01*
Y75229D01*
X85893D01*
Y75225D01*
X85880D01*
Y75220D01*
X85875D01*
Y75216D01*
X85862D01*
Y75211D01*
X85857D01*
Y75207D01*
X85844D01*
Y75202D01*
X85835D01*
Y75198D01*
X85826D01*
Y75193D01*
X85812D01*
Y75189D01*
X85803D01*
Y75184D01*
X85790D01*
Y75180D01*
X85776D01*
Y75175D01*
X85763D01*
Y75171D01*
X85745D01*
Y75166D01*
X85736D01*
Y75162D01*
X85718D01*
Y75157D01*
X85704D01*
Y75153D01*
X85686D01*
Y75148D01*
X85664D01*
Y75144D01*
X85650D01*
Y75139D01*
X85614D01*
Y75135D01*
X85596D01*
Y75130D01*
X85556D01*
Y75126D01*
X85506D01*
Y75121D01*
X79848D01*
Y75126D01*
X79798D01*
Y75130D01*
X79758D01*
Y75135D01*
X79740D01*
Y75139D01*
X79704D01*
Y75144D01*
X79690D01*
Y75148D01*
X79668D01*
Y75153D01*
X79650D01*
Y75157D01*
X79636D01*
Y75162D01*
X79618D01*
Y75166D01*
X79609D01*
Y75171D01*
X79591D01*
Y75175D01*
X79578D01*
Y75180D01*
X79564D01*
Y75184D01*
X79551D01*
Y75189D01*
X79546D01*
Y75193D01*
X79528D01*
Y75198D01*
X79519D01*
Y75202D01*
X79510D01*
Y75207D01*
X79501D01*
Y75211D01*
X79492D01*
Y75216D01*
X79479D01*
Y75220D01*
X79470D01*
Y75225D01*
X79461D01*
Y75229D01*
X79452D01*
Y75234D01*
X79443D01*
Y75238D01*
X79434D01*
Y75243D01*
X79429D01*
Y75247D01*
X79421D01*
Y75252D01*
X79412D01*
Y75256D01*
X79403D01*
Y75261D01*
X79394D01*
Y75265D01*
X79389D01*
Y75270D01*
X79380D01*
Y75274D01*
X79376D01*
Y75279D01*
X79367D01*
Y75283D01*
X79362D01*
Y75288D01*
X79353D01*
Y75292D01*
X79344D01*
Y75297D01*
X79340D01*
Y75301D01*
X79335D01*
Y75306D01*
X79331D01*
Y75310D01*
X79322D01*
Y75315D01*
X79317D01*
Y75319D01*
X79308D01*
Y75324D01*
X79304D01*
Y75328D01*
X79299D01*
Y75333D01*
X79290D01*
Y75337D01*
X79286D01*
Y75342D01*
X79281D01*
Y75346D01*
X79277D01*
Y75351D01*
X79272D01*
Y75355D01*
X79263D01*
Y75360D01*
X79259D01*
Y75364D01*
X79254D01*
Y75369D01*
X79250D01*
Y75373D01*
X79245D01*
Y75378D01*
X79236D01*
Y75382D01*
X79232D01*
Y75387D01*
X79227D01*
Y75391D01*
X79223D01*
Y75396D01*
X79218D01*
Y75400D01*
X79214D01*
Y75405D01*
X79209D01*
Y75409D01*
X79205D01*
Y75414D01*
X79200D01*
Y75418D01*
X79196D01*
Y75423D01*
X79191D01*
Y75427D01*
X79187D01*
Y75432D01*
X79182D01*
Y75436D01*
X79178D01*
Y75441D01*
X79173D01*
Y75445D01*
X79169D01*
Y75454D01*
X79164D01*
Y75459D01*
X79160D01*
Y75463D01*
X79155D01*
Y75468D01*
X79151D01*
Y75472D01*
X79146D01*
Y75481D01*
X79142D01*
Y75486D01*
X79137D01*
Y75490D01*
X79133D01*
Y75495D01*
X79128D01*
Y75499D01*
X79124D01*
Y75508D01*
X79119D01*
Y75513D01*
X79115D01*
Y75517D01*
X79110D01*
Y75526D01*
X79106D01*
Y75531D01*
X79101D01*
Y75540D01*
X79097D01*
Y75544D01*
X79092D01*
Y75549D01*
X79088D01*
Y75553D01*
X79083D01*
Y75562D01*
X79079D01*
Y75571D01*
X79074D01*
Y75576D01*
X79070D01*
Y75584D01*
X79065D01*
Y75589D01*
X79061D01*
Y75598D01*
X79056D01*
Y75602D01*
X79052D01*
Y75611D01*
X79047D01*
Y75620D01*
X79043D01*
Y75629D01*
X79038D01*
Y75638D01*
X79034D01*
Y75643D01*
X79029D01*
Y75656D01*
X79025D01*
Y75661D01*
X79020D01*
Y75670D01*
X79016D01*
Y75679D01*
X79011D01*
Y75688D01*
X79007D01*
Y75701D01*
X79002D01*
Y75706D01*
X78998D01*
Y75719D01*
X78993D01*
Y75728D01*
X78989D01*
Y75737D01*
X78984D01*
Y75755D01*
X78980D01*
Y75760D01*
X78975D01*
Y75778D01*
X78971D01*
Y75787D01*
X78966D01*
Y75800D01*
X78962D01*
Y75814D01*
X78957D01*
Y75827D01*
X78953D01*
Y75850D01*
X78948D01*
Y75859D01*
X78944D01*
Y75881D01*
X78939D01*
Y75899D01*
X78935D01*
Y75913D01*
X78930D01*
Y75949D01*
X78926D01*
Y75967D01*
X78921D01*
Y76012D01*
X78917D01*
Y76057D01*
X78912D01*
Y79943D01*
X78917D01*
Y79988D01*
X78921D01*
Y80033D01*
X78926D01*
Y80051D01*
X78930D01*
Y80087D01*
X78935D01*
Y80100D01*
X78939D01*
Y80118D01*
X78944D01*
Y80141D01*
X78948D01*
Y80150D01*
X78953D01*
Y80172D01*
X78957D01*
Y80186D01*
X78962D01*
Y80199D01*
X78966D01*
Y80213D01*
X78971D01*
Y80222D01*
X78975D01*
Y80240D01*
X78980D01*
Y80244D01*
X78984D01*
Y80262D01*
X78989D01*
Y80271D01*
X78993D01*
Y80280D01*
X78998D01*
Y80294D01*
X79002D01*
Y80298D01*
X79007D01*
Y80312D01*
X79011D01*
Y80321D01*
X79016D01*
Y80330D01*
X79020D01*
Y80339D01*
X79025D01*
Y80343D01*
X79029D01*
Y80357D01*
X79034D01*
Y80361D01*
X79038D01*
Y80375D01*
X79043D01*
Y80379D01*
X79047D01*
Y80388D01*
X79052D01*
Y80397D01*
X79056D01*
Y80402D01*
X79061D01*
Y80411D01*
X79065D01*
Y80415D01*
X79070D01*
Y80424D01*
X79074D01*
Y80429D01*
X79079D01*
Y80438D01*
X79083D01*
Y80447D01*
X79088D01*
Y80451D01*
X79092D01*
Y80456D01*
X79097D01*
Y80465D01*
X79101D01*
Y80469D01*
X79106D01*
Y80478D01*
X79110D01*
Y80483D01*
X79115D01*
Y80487D01*
X79119D01*
Y80492D01*
X79124D01*
Y80501D01*
X79128D01*
Y80505D01*
X79133D01*
Y80510D01*
X79137D01*
Y80514D01*
X79142D01*
Y80519D01*
X79146D01*
Y80528D01*
X79151D01*
Y80532D01*
X79155D01*
Y80537D01*
X79160D01*
Y80541D01*
X79164D01*
Y80546D01*
X79169D01*
Y80555D01*
X79173D01*
Y80559D01*
X79178D01*
Y80564D01*
X79182D01*
Y80568D01*
X79187D01*
Y80573D01*
X79191D01*
Y80577D01*
X79196D01*
Y80582D01*
X79200D01*
Y80586D01*
X79205D01*
Y80591D01*
X79209D01*
Y80595D01*
X79214D01*
Y80600D01*
X79218D01*
Y80604D01*
X79223D01*
Y80609D01*
X79227D01*
Y80613D01*
X79232D01*
Y80618D01*
X79236D01*
Y80622D01*
X79245D01*
Y80627D01*
X79250D01*
Y80631D01*
X79254D01*
Y80636D01*
X79259D01*
Y80640D01*
X79263D01*
Y80645D01*
X79272D01*
Y80649D01*
X79277D01*
Y80654D01*
X79281D01*
Y80658D01*
X79286D01*
Y80663D01*
X79290D01*
Y80667D01*
X79299D01*
Y80672D01*
X79304D01*
Y80676D01*
X79308D01*
Y80681D01*
X79313D01*
Y80685D01*
X79322D01*
Y80690D01*
X79331D01*
Y80694D01*
X79335D01*
Y80699D01*
X79340D01*
Y80703D01*
X79344D01*
Y80708D01*
X79353D01*
Y80712D01*
X79362D01*
Y80717D01*
X79367D01*
Y80721D01*
X79376D01*
Y80726D01*
X79380D01*
Y80730D01*
X79389D01*
Y80735D01*
X79394D01*
Y80739D01*
X79403D01*
Y80744D01*
X79412D01*
Y80748D01*
X79416D01*
Y80753D01*
X79429D01*
Y80757D01*
X79434D01*
Y80762D01*
X79443D01*
Y80766D01*
X79452D01*
Y80771D01*
X79461D01*
Y80775D01*
X79470D01*
Y80780D01*
X79479D01*
Y80784D01*
X79492D01*
Y80789D01*
X79501D01*
Y80793D01*
X79510D01*
Y80798D01*
X79519D01*
Y80802D01*
X79528D01*
Y80807D01*
X79546D01*
Y80811D01*
X79551D01*
Y80816D01*
X79564D01*
Y80820D01*
X79578D01*
Y80825D01*
X79587D01*
Y80829D01*
X79605D01*
Y80834D01*
X79618D01*
Y80838D01*
X79636D01*
Y80843D01*
X79650D01*
Y80847D01*
X79668D01*
Y80852D01*
X79690D01*
Y80856D01*
X79704D01*
Y80861D01*
X79740D01*
Y80865D01*
X79753D01*
Y80870D01*
X79798D01*
Y80874D01*
X79848D01*
Y80879D01*
X85506D01*
Y80874D01*
D02*
G37*
G36*
X69868Y75800D02*
Y75799D01*
Y75034D01*
X69037D01*
Y75864D01*
X69038D01*
Y75865D01*
X69868D01*
Y75800D01*
D02*
G37*
%LPC*%
G36*
X70699Y79190D02*
X69868D01*
Y77528D01*
X70699D01*
Y79190D01*
D02*
G37*
G36*
X85475Y80438D02*
X79879D01*
Y80433D01*
X79843D01*
Y80429D01*
X79803D01*
Y80424D01*
X79789D01*
Y80420D01*
X79767D01*
Y80415D01*
X79749D01*
Y80411D01*
X79740D01*
Y80406D01*
X79722D01*
Y80402D01*
X79713D01*
Y80397D01*
X79699D01*
Y80393D01*
X79690D01*
Y80388D01*
X79677D01*
Y80384D01*
X79668D01*
Y80379D01*
X79663D01*
Y80375D01*
X79650D01*
Y80370D01*
X79645D01*
Y80366D01*
X79632D01*
Y80361D01*
X79627D01*
Y80357D01*
X79618D01*
Y80352D01*
X79614D01*
Y80348D01*
X79605D01*
Y80343D01*
X79596D01*
Y80339D01*
X79591D01*
Y80334D01*
X79587D01*
Y80330D01*
X79578D01*
Y80325D01*
X79573D01*
Y80321D01*
X79569D01*
Y80316D01*
X79564D01*
Y80312D01*
X79555D01*
Y80307D01*
X79551D01*
Y80303D01*
X79546D01*
Y80298D01*
X79537D01*
Y80289D01*
X79528D01*
Y80285D01*
X79524D01*
Y80280D01*
X79519D01*
Y80276D01*
X79515D01*
Y80271D01*
X79510D01*
Y80267D01*
X79506D01*
Y80262D01*
X79501D01*
Y80253D01*
X79492D01*
Y80244D01*
X79488D01*
Y80240D01*
X79483D01*
Y80235D01*
X79479D01*
Y80231D01*
X79474D01*
Y80222D01*
X79470D01*
Y80217D01*
X79465D01*
Y80213D01*
X79461D01*
Y80204D01*
X79456D01*
Y80199D01*
X79452D01*
Y80195D01*
X79448D01*
Y80186D01*
X79443D01*
Y80181D01*
X79438D01*
Y80172D01*
X79434D01*
Y80163D01*
X79429D01*
Y80154D01*
X79425D01*
Y80150D01*
X79421D01*
Y80141D01*
X79416D01*
Y80127D01*
X79412D01*
Y80123D01*
X79407D01*
Y80109D01*
X79403D01*
Y80100D01*
X79398D01*
Y80091D01*
X79394D01*
Y80078D01*
X79389D01*
Y80069D01*
X79385D01*
Y80051D01*
X79380D01*
Y80042D01*
X79376D01*
Y80019D01*
X79371D01*
Y80006D01*
X79367D01*
Y79988D01*
X79362D01*
Y79947D01*
X79358D01*
Y79907D01*
X79353D01*
Y76093D01*
X79358D01*
Y76052D01*
X79362D01*
Y76012D01*
X79367D01*
Y75998D01*
X79371D01*
Y75980D01*
X79376D01*
Y75958D01*
X79380D01*
Y75949D01*
X79385D01*
Y75931D01*
X79389D01*
Y75922D01*
X79394D01*
Y75908D01*
X79398D01*
Y75899D01*
X79403D01*
Y75890D01*
X79407D01*
Y75877D01*
X79412D01*
Y75872D01*
X79416D01*
Y75859D01*
X79421D01*
Y75854D01*
X79425D01*
Y75845D01*
X79429D01*
Y75836D01*
X79434D01*
Y75832D01*
X79438D01*
Y75818D01*
X79443D01*
Y75814D01*
X79448D01*
Y75805D01*
X79452D01*
Y75800D01*
X79456D01*
Y75796D01*
X79461D01*
Y75787D01*
X79465D01*
Y75782D01*
X79470D01*
Y75778D01*
X79474D01*
Y75773D01*
X79479D01*
Y75764D01*
X79483D01*
Y75760D01*
X79488D01*
Y75755D01*
X79492D01*
Y75751D01*
X79497D01*
Y75746D01*
X79501D01*
Y75742D01*
X79506D01*
Y75733D01*
X79510D01*
Y75728D01*
X79515D01*
Y75724D01*
X79519D01*
Y75719D01*
X79524D01*
Y75715D01*
X79528D01*
Y75710D01*
X79537D01*
Y75701D01*
X79546D01*
Y75697D01*
X79551D01*
Y75692D01*
X79555D01*
Y75688D01*
X79564D01*
Y75683D01*
X79569D01*
Y75679D01*
X79573D01*
Y75674D01*
X79578D01*
Y75670D01*
X79587D01*
Y75665D01*
X79591D01*
Y75661D01*
X79596D01*
Y75656D01*
X79605D01*
Y75652D01*
X79614D01*
Y75647D01*
X79618D01*
Y75643D01*
X79627D01*
Y75638D01*
X79636D01*
Y75634D01*
X79645D01*
Y75629D01*
X79650D01*
Y75625D01*
X79663D01*
Y75620D01*
X79668D01*
Y75616D01*
X79681D01*
Y75611D01*
X79690D01*
Y75607D01*
X79699D01*
Y75602D01*
X79713D01*
Y75598D01*
X79722D01*
Y75593D01*
X79740D01*
Y75589D01*
X79749D01*
Y75584D01*
X79767D01*
Y75580D01*
X79789D01*
Y75576D01*
X79803D01*
Y75571D01*
X79843D01*
Y75566D01*
X79879D01*
Y75562D01*
X85475D01*
Y75566D01*
X85511D01*
Y75571D01*
X85551D01*
Y75576D01*
X85565D01*
Y75580D01*
X85587D01*
Y75584D01*
X85605D01*
Y75589D01*
X85614D01*
Y75593D01*
X85632D01*
Y75598D01*
X85641D01*
Y75602D01*
X85655D01*
Y75607D01*
X85664D01*
Y75611D01*
X85673D01*
Y75616D01*
X85686D01*
Y75620D01*
X85691D01*
Y75625D01*
X85704D01*
Y75629D01*
X85709D01*
Y75634D01*
X85718D01*
Y75638D01*
X85727D01*
Y75643D01*
X85736D01*
Y75647D01*
X85745D01*
Y75652D01*
X85749D01*
Y75656D01*
X85758D01*
Y75661D01*
X85763D01*
Y75665D01*
X85767D01*
Y75670D01*
X85776D01*
Y75674D01*
X85781D01*
Y75679D01*
X85785D01*
Y75683D01*
X85790D01*
Y75688D01*
X85799D01*
Y75692D01*
X85803D01*
Y75697D01*
X85808D01*
Y75701D01*
X85812D01*
Y75706D01*
X85817D01*
Y75710D01*
X85826D01*
Y75715D01*
X85830D01*
Y75719D01*
X85835D01*
Y75724D01*
X85839D01*
Y75728D01*
X85844D01*
Y75733D01*
X85848D01*
Y75737D01*
X85853D01*
Y75746D01*
X85857D01*
Y75751D01*
X85862D01*
Y75755D01*
X85866D01*
Y75760D01*
X85871D01*
Y75764D01*
X85875D01*
Y75773D01*
X85880D01*
Y75778D01*
X85884D01*
Y75782D01*
X85889D01*
Y75787D01*
X85893D01*
Y75796D01*
X85898D01*
Y75800D01*
X85902D01*
Y75809D01*
X85907D01*
Y75814D01*
X85911D01*
Y75818D01*
X85915D01*
Y75832D01*
X85920D01*
Y75836D01*
X85924D01*
Y75845D01*
X85929D01*
Y75854D01*
X85933D01*
Y75859D01*
X85938D01*
Y75872D01*
X85942D01*
Y75877D01*
X85947D01*
Y75890D01*
X85951D01*
Y75899D01*
X85956D01*
Y75908D01*
X85960D01*
Y75922D01*
X85965D01*
Y75931D01*
X85969D01*
Y75949D01*
X85974D01*
Y75958D01*
X85978D01*
Y75980D01*
X85983D01*
Y75998D01*
X85987D01*
Y76016D01*
X85992D01*
Y76057D01*
X85996D01*
Y76097D01*
X86001D01*
Y79902D01*
X85996D01*
Y79943D01*
X85992D01*
Y79983D01*
X85987D01*
Y80001D01*
X85983D01*
Y80019D01*
X85978D01*
Y80042D01*
X85974D01*
Y80051D01*
X85969D01*
Y80069D01*
X85965D01*
Y80078D01*
X85960D01*
Y80091D01*
X85956D01*
Y80100D01*
X85951D01*
Y80109D01*
X85947D01*
Y80123D01*
X85942D01*
Y80127D01*
X85938D01*
Y80141D01*
X85933D01*
Y80145D01*
X85929D01*
Y80154D01*
X85924D01*
Y80163D01*
X85920D01*
Y80168D01*
X85915D01*
Y80181D01*
X85911D01*
Y80186D01*
X85907D01*
Y80190D01*
X85902D01*
Y80199D01*
X85898D01*
Y80204D01*
X85893D01*
Y80213D01*
X85889D01*
Y80217D01*
X85884D01*
Y80222D01*
X85880D01*
Y80226D01*
X85875D01*
Y80235D01*
X85871D01*
Y80240D01*
X85866D01*
Y80244D01*
X85862D01*
Y80253D01*
X85853D01*
Y80262D01*
X85848D01*
Y80267D01*
X85844D01*
Y80271D01*
X85839D01*
Y80276D01*
X85835D01*
Y80280D01*
X85830D01*
Y80285D01*
X85826D01*
Y80289D01*
X85817D01*
Y80298D01*
X85808D01*
Y80303D01*
X85803D01*
Y80307D01*
X85799D01*
Y80312D01*
X85790D01*
Y80316D01*
X85785D01*
Y80321D01*
X85781D01*
Y80325D01*
X85776D01*
Y80330D01*
X85767D01*
Y80334D01*
X85763D01*
Y80339D01*
X85758D01*
Y80343D01*
X85749D01*
Y80348D01*
X85745D01*
Y80352D01*
X85736D01*
Y80357D01*
X85727D01*
Y80361D01*
X85722D01*
Y80366D01*
X85709D01*
Y80370D01*
X85704D01*
Y80375D01*
X85691D01*
Y80379D01*
X85686D01*
Y80384D01*
X85673D01*
Y80388D01*
X85664D01*
Y80393D01*
X85655D01*
Y80397D01*
X85641D01*
Y80402D01*
X85632D01*
Y80406D01*
X85614D01*
Y80411D01*
X85605D01*
Y80415D01*
X85587D01*
Y80420D01*
X85565D01*
Y80424D01*
X85551D01*
Y80429D01*
X85511D01*
Y80433D01*
X85475D01*
Y80438D01*
D02*
G37*
%LPD*%
G36*
X82565Y80096D02*
X82569D01*
Y76232D01*
X82565D01*
Y76228D01*
X81903D01*
Y76237D01*
X81899D01*
Y76246D01*
X81903D01*
Y76430D01*
X81899D01*
Y76439D01*
X81903D01*
Y76448D01*
X82340D01*
Y76453D01*
X82344D01*
Y77892D01*
X82340D01*
Y77896D01*
X82335D01*
Y77901D01*
X82331D01*
Y77905D01*
X82326D01*
Y77910D01*
X82322D01*
Y77914D01*
X82313D01*
Y77919D01*
X82308D01*
Y77923D01*
X82304D01*
Y77928D01*
X82299D01*
Y77932D01*
X82295D01*
Y77937D01*
X82290D01*
Y77941D01*
X82286D01*
Y77946D01*
X82281D01*
Y77950D01*
X82277D01*
Y77955D01*
X82272D01*
Y77959D01*
X82268D01*
Y77964D01*
X82259D01*
Y77968D01*
X82254D01*
Y77973D01*
X82250D01*
Y77977D01*
X82245D01*
Y77982D01*
X82241D01*
Y77986D01*
X82236D01*
Y77991D01*
X82232D01*
Y77995D01*
X82227D01*
Y78000D01*
X82218D01*
Y78004D01*
X82214D01*
Y78009D01*
X82209D01*
Y78013D01*
X82205D01*
Y78018D01*
X82200D01*
Y78022D01*
X82196D01*
Y78027D01*
X82191D01*
Y78031D01*
X82187D01*
Y78036D01*
X82182D01*
Y78040D01*
X82178D01*
Y78045D01*
X82169D01*
Y78054D01*
X82160D01*
Y78058D01*
X82155D01*
Y78063D01*
X82151D01*
Y78067D01*
X82146D01*
Y78072D01*
X82142D01*
Y78076D01*
X82137D01*
Y78081D01*
X82133D01*
Y78085D01*
X82128D01*
Y78090D01*
X82124D01*
Y78094D01*
X82119D01*
Y78099D01*
X82110D01*
Y78103D01*
X82106D01*
Y78108D01*
X82101D01*
Y78112D01*
X82097D01*
Y78117D01*
X82092D01*
Y78121D01*
X82088D01*
Y78126D01*
X82083D01*
Y78130D01*
X82074D01*
Y78139D01*
X82065D01*
Y78144D01*
X82061D01*
Y78148D01*
X82056D01*
Y78153D01*
X82052D01*
Y78157D01*
X82047D01*
Y78162D01*
X82043D01*
Y78166D01*
X82038D01*
Y78171D01*
X82034D01*
Y78175D01*
X82029D01*
Y78180D01*
X82025D01*
Y78184D01*
X82016D01*
Y78193D01*
X82007D01*
Y78198D01*
X82002D01*
Y78202D01*
X81998D01*
Y78207D01*
X81993D01*
Y78211D01*
X81989D01*
Y78216D01*
X81984D01*
Y78220D01*
X81980D01*
Y78225D01*
X81971D01*
Y78229D01*
X81966D01*
Y78234D01*
X81962D01*
Y78238D01*
X81957D01*
Y78243D01*
X81953D01*
Y78247D01*
X81948D01*
Y78252D01*
X81944D01*
Y78256D01*
X81939D01*
Y78261D01*
X81935D01*
Y78265D01*
X81930D01*
Y78270D01*
X81921D01*
Y78279D01*
X81912D01*
Y78283D01*
X81908D01*
Y78288D01*
X81903D01*
Y78292D01*
X81899D01*
Y78297D01*
X81894D01*
Y78301D01*
X81890D01*
Y78306D01*
X81885D01*
Y78310D01*
X81881D01*
Y78315D01*
X81876D01*
Y78319D01*
X81872D01*
Y78324D01*
X81863D01*
Y78328D01*
X81858D01*
Y78333D01*
X81854D01*
Y78337D01*
X81849D01*
Y78342D01*
X81845D01*
Y78346D01*
X81840D01*
Y78351D01*
X81836D01*
Y78355D01*
X81827D01*
Y78360D01*
X81822D01*
Y78364D01*
X81818D01*
Y78369D01*
X81813D01*
Y78373D01*
X81809D01*
Y78378D01*
X81804D01*
Y78382D01*
X81800D01*
Y78387D01*
X81795D01*
Y78391D01*
X81791D01*
Y78396D01*
X81786D01*
Y78400D01*
X81782D01*
Y78405D01*
X81777D01*
Y78409D01*
X81773D01*
Y78414D01*
X81768D01*
Y78418D01*
X81759D01*
Y78423D01*
X81755D01*
Y78427D01*
X81750D01*
Y78432D01*
X81746D01*
Y78436D01*
X81741D01*
Y78441D01*
X81737D01*
Y78445D01*
X81732D01*
Y78450D01*
X81728D01*
Y78454D01*
X81719D01*
Y78459D01*
X81714D01*
Y78463D01*
X81710D01*
Y78468D01*
X81705D01*
Y78472D01*
X81701D01*
Y78477D01*
X81696D01*
Y78481D01*
X81692D01*
Y78486D01*
X81687D01*
Y78490D01*
X81683D01*
Y78495D01*
X81678D01*
Y78499D01*
X81674D01*
Y78504D01*
X81665D01*
Y78508D01*
X81660D01*
Y78513D01*
X81656D01*
Y78517D01*
X81651D01*
Y78522D01*
X81647D01*
Y78526D01*
X81642D01*
Y78531D01*
X81638D01*
Y78535D01*
X81633D01*
Y78540D01*
X81624D01*
Y78544D01*
X81620D01*
Y78549D01*
X81615D01*
Y78553D01*
X81611D01*
Y78558D01*
X81606D01*
Y78562D01*
X81602D01*
Y78567D01*
X81598D01*
Y78571D01*
X81593D01*
Y78576D01*
X81589D01*
Y78580D01*
X81584D01*
Y78585D01*
X81575D01*
Y78594D01*
X81566D01*
Y78598D01*
X81562D01*
Y78603D01*
X81557D01*
Y78607D01*
X81553D01*
Y78612D01*
X81548D01*
Y78616D01*
X81544D01*
Y78621D01*
X81539D01*
Y78625D01*
X81535D01*
Y78630D01*
X81530D01*
Y78634D01*
X81526D01*
Y78639D01*
X81517D01*
Y78643D01*
X81512D01*
Y78648D01*
X81508D01*
Y78652D01*
X81503D01*
Y78657D01*
X81499D01*
Y78661D01*
X81494D01*
Y78666D01*
X81490D01*
Y78670D01*
X81481D01*
Y78679D01*
X81472D01*
Y78684D01*
X81467D01*
Y78688D01*
X81463D01*
Y78693D01*
X81458D01*
Y78697D01*
X81454D01*
Y78702D01*
X81449D01*
Y78706D01*
X81445D01*
Y78711D01*
X81440D01*
Y78715D01*
X81436D01*
Y78720D01*
X81431D01*
Y78724D01*
X81422D01*
Y78733D01*
X81413D01*
Y78738D01*
X81409D01*
Y78742D01*
X81404D01*
Y78747D01*
X81400D01*
Y78751D01*
X81395D01*
Y78756D01*
X81391D01*
Y78760D01*
X81386D01*
Y78765D01*
X81377D01*
Y78769D01*
X81373D01*
Y78774D01*
X81368D01*
Y78778D01*
X81364D01*
Y78783D01*
X81359D01*
Y78787D01*
X81355D01*
Y78792D01*
X81350D01*
Y78796D01*
X81346D01*
Y78800D01*
X81341D01*
Y78805D01*
X81337D01*
Y78810D01*
X81328D01*
Y78818D01*
X81319D01*
Y78823D01*
X81314D01*
Y78827D01*
X81310D01*
Y78832D01*
X81305D01*
Y78836D01*
X81301D01*
Y78841D01*
X81296D01*
Y78845D01*
X81292D01*
Y78850D01*
X81287D01*
Y78854D01*
X81283D01*
Y78859D01*
X81278D01*
Y78863D01*
X81269D01*
Y78868D01*
X81265D01*
Y78872D01*
X81260D01*
Y78877D01*
X81256D01*
Y78881D01*
X81251D01*
Y78886D01*
X81247D01*
Y78890D01*
X81242D01*
Y78895D01*
X81238D01*
Y78899D01*
X81233D01*
Y78904D01*
X81224D01*
Y78908D01*
X81220D01*
Y78913D01*
X81215D01*
Y78917D01*
X81211D01*
Y78922D01*
X81206D01*
Y78926D01*
X81202D01*
Y78931D01*
X81197D01*
Y78935D01*
X81193D01*
Y78940D01*
X81188D01*
Y78944D01*
X81184D01*
Y78949D01*
X81179D01*
Y78953D01*
X81175D01*
Y78958D01*
X81166D01*
Y78962D01*
X81161D01*
Y78967D01*
X81157D01*
Y78971D01*
X81152D01*
Y78976D01*
X81148D01*
Y78980D01*
X81143D01*
Y78985D01*
X81139D01*
Y78989D01*
X81130D01*
Y78994D01*
X81125D01*
Y78989D01*
X81121D01*
Y78967D01*
X81116D01*
Y78958D01*
X81112D01*
Y78940D01*
X81107D01*
Y78931D01*
X81103D01*
Y78913D01*
X81098D01*
Y78899D01*
X81094D01*
Y78886D01*
X81089D01*
Y78868D01*
X81085D01*
Y78859D01*
X81080D01*
Y78841D01*
X81076D01*
Y78827D01*
X81071D01*
Y78814D01*
X81067D01*
Y78800D01*
X81062D01*
Y78787D01*
X81058D01*
Y78769D01*
X81053D01*
Y78760D01*
X81049D01*
Y78742D01*
X81044D01*
Y78729D01*
X81040D01*
Y78720D01*
X81035D01*
Y78697D01*
X81031D01*
Y78688D01*
X81026D01*
Y78670D01*
X81022D01*
Y78661D01*
X81017D01*
Y78648D01*
X81013D01*
Y78630D01*
X81008D01*
Y78621D01*
X81004D01*
Y78598D01*
X80999D01*
Y78589D01*
X80995D01*
Y78571D01*
X80990D01*
Y78558D01*
X80986D01*
Y78549D01*
X80981D01*
Y78531D01*
X80977D01*
Y78522D01*
X80972D01*
Y78499D01*
X80968D01*
Y78490D01*
X80963D01*
Y78477D01*
X80959D01*
Y78459D01*
X80954D01*
Y78450D01*
X80950D01*
Y78432D01*
X80945D01*
Y78418D01*
X80941D01*
Y78405D01*
X80936D01*
Y78391D01*
X80932D01*
Y78378D01*
X80927D01*
Y78360D01*
X80923D01*
Y78351D01*
X80918D01*
Y78333D01*
X80914D01*
Y78319D01*
X80909D01*
Y78306D01*
X80905D01*
Y78288D01*
X80900D01*
Y78279D01*
X80896D01*
Y78261D01*
X80891D01*
Y78252D01*
X80887D01*
Y78234D01*
X80882D01*
Y78220D01*
X80878D01*
Y78207D01*
X80873D01*
Y78189D01*
X80869D01*
Y78180D01*
X80864D01*
Y78162D01*
X80860D01*
Y78148D01*
X80855D01*
Y78135D01*
X80851D01*
Y78121D01*
X80846D01*
Y78108D01*
X80842D01*
Y78090D01*
X80837D01*
Y78081D01*
X80833D01*
Y78063D01*
X80828D01*
Y78049D01*
X80824D01*
Y78040D01*
X80819D01*
Y78018D01*
X80815D01*
Y78009D01*
X80810D01*
Y77991D01*
X80806D01*
Y77982D01*
X80801D01*
Y77968D01*
X80797D01*
Y77950D01*
X80792D01*
Y77941D01*
X80788D01*
Y77919D01*
X80783D01*
Y77910D01*
X80779D01*
Y77892D01*
X80774D01*
Y77878D01*
X80770D01*
Y77869D01*
X80765D01*
Y77851D01*
X80761D01*
Y77842D01*
X80756D01*
Y77824D01*
X80752D01*
Y77811D01*
X80747D01*
Y77797D01*
X80743D01*
Y77779D01*
X80738D01*
Y77770D01*
X80734D01*
Y77752D01*
X80729D01*
Y77743D01*
X80725D01*
Y77726D01*
X80720D01*
Y77712D01*
X80716D01*
Y77699D01*
X80711D01*
Y77681D01*
X80707D01*
Y77672D01*
X80702D01*
Y77654D01*
X80698D01*
Y77640D01*
X80693D01*
Y77627D01*
X80689D01*
Y77613D01*
X80684D01*
Y77600D01*
X80680D01*
Y77582D01*
X80675D01*
Y77573D01*
X80671D01*
Y77555D01*
X80666D01*
Y77541D01*
X80662D01*
Y77532D01*
X80657D01*
Y77510D01*
X80653D01*
Y77501D01*
X80648D01*
Y77483D01*
X80644D01*
Y77474D01*
X80639D01*
Y77460D01*
X80635D01*
Y77442D01*
X80630D01*
Y77433D01*
X80626D01*
Y77411D01*
X80621D01*
Y77402D01*
X80617D01*
Y77384D01*
X80612D01*
Y77370D01*
X80608D01*
Y77361D01*
X80603D01*
Y77343D01*
X80599D01*
Y77334D01*
X80594D01*
Y77312D01*
X80590D01*
Y77303D01*
X80585D01*
Y77289D01*
X80581D01*
Y77271D01*
X80576D01*
Y77262D01*
X80572D01*
Y77244D01*
X80567D01*
Y77231D01*
X80563D01*
Y77217D01*
X80558D01*
Y77204D01*
X80554D01*
Y77190D01*
X80549D01*
Y77172D01*
X80545D01*
Y77163D01*
X80540D01*
Y77145D01*
X80536D01*
Y77132D01*
X80532D01*
Y77118D01*
X80527D01*
Y77100D01*
X80522D01*
Y77091D01*
X80518D01*
Y77073D01*
X80513D01*
Y77064D01*
X80509D01*
Y77046D01*
X80505D01*
Y77033D01*
X80500D01*
Y77019D01*
X80496D01*
Y77001D01*
X80491D01*
Y76992D01*
X80487D01*
Y76974D01*
X80482D01*
Y76961D01*
X80478D01*
Y76947D01*
X80473D01*
Y76934D01*
X80469D01*
Y76920D01*
X80464D01*
Y76902D01*
X80460D01*
Y76893D01*
X80455D01*
Y76875D01*
X80451D01*
Y76862D01*
X80446D01*
Y76853D01*
X80442D01*
Y76830D01*
X80437D01*
Y76821D01*
X80433D01*
Y76803D01*
X80428D01*
Y76794D01*
X80424D01*
Y76781D01*
X80419D01*
Y76763D01*
X80415D01*
Y76754D01*
X80410D01*
Y76731D01*
X80406D01*
Y76722D01*
X80401D01*
Y76704D01*
X80397D01*
Y76695D01*
X80392D01*
Y76682D01*
X80388D01*
Y76664D01*
X80383D01*
Y76655D01*
X80379D01*
Y76637D01*
X80374D01*
Y76624D01*
X80370D01*
Y76610D01*
X80365D01*
Y76592D01*
X80361D01*
Y76583D01*
X80356D01*
Y76561D01*
X80572D01*
Y76340D01*
X80563D01*
Y76336D01*
X80558D01*
Y76340D01*
X79690D01*
Y76345D01*
X79686D01*
Y76556D01*
X79690D01*
Y76561D01*
X80235D01*
Y76565D01*
X80244D01*
Y76574D01*
X80248D01*
Y76592D01*
X80253D01*
Y76601D01*
X80257D01*
Y76619D01*
X80262D01*
Y76633D01*
X80266D01*
Y76642D01*
X80271D01*
Y76659D01*
X80275D01*
Y76673D01*
X80280D01*
Y76691D01*
X80284D01*
Y76700D01*
X80289D01*
Y76713D01*
X80293D01*
Y76731D01*
X80298D01*
Y76740D01*
X80302D01*
Y76758D01*
X80307D01*
Y76767D01*
X80311D01*
Y76785D01*
X80316D01*
Y76799D01*
X80320D01*
Y76812D01*
X80325D01*
Y76830D01*
X80329D01*
Y76839D01*
X80334D01*
Y76857D01*
X80338D01*
Y76866D01*
X80343D01*
Y76880D01*
X80347D01*
Y76898D01*
X80352D01*
Y76907D01*
X80356D01*
Y76929D01*
X80361D01*
Y76938D01*
X80365D01*
Y76952D01*
X80370D01*
Y76970D01*
X80374D01*
Y76979D01*
X80379D01*
Y76997D01*
X80383D01*
Y77006D01*
X80388D01*
Y77024D01*
X80392D01*
Y77037D01*
X80397D01*
Y77051D01*
X80401D01*
Y77069D01*
X80406D01*
Y77078D01*
X80410D01*
Y77096D01*
X80415D01*
Y77105D01*
X80419D01*
Y77123D01*
X80424D01*
Y77136D01*
X80428D01*
Y77145D01*
X80433D01*
Y77163D01*
X80437D01*
Y77177D01*
X80442D01*
Y77195D01*
X80446D01*
Y77204D01*
X80451D01*
Y77217D01*
X80455D01*
Y77235D01*
X80460D01*
Y77244D01*
X80464D01*
Y77262D01*
X80469D01*
Y77271D01*
X80473D01*
Y77289D01*
X80478D01*
Y77303D01*
X80482D01*
Y77316D01*
X80487D01*
Y77334D01*
X80491D01*
Y77343D01*
X80496D01*
Y77361D01*
X80500D01*
Y77370D01*
X80505D01*
Y77384D01*
X80509D01*
Y77402D01*
X80513D01*
Y77411D01*
X80518D01*
Y77433D01*
X80522D01*
Y77442D01*
X80527D01*
Y77460D01*
X80532D01*
Y77474D01*
X80536D01*
Y77483D01*
X80540D01*
Y77501D01*
X80545D01*
Y77510D01*
X80549D01*
Y77528D01*
X80554D01*
Y77541D01*
X80558D01*
Y77555D01*
X80563D01*
Y77573D01*
X80567D01*
Y77582D01*
X80572D01*
Y77600D01*
X80576D01*
Y77609D01*
X80581D01*
Y77627D01*
X80585D01*
Y77640D01*
X80590D01*
Y77649D01*
X80594D01*
Y77667D01*
X80599D01*
Y77681D01*
X80603D01*
Y77699D01*
X80608D01*
Y77708D01*
X80612D01*
Y77721D01*
X80617D01*
Y77739D01*
X80621D01*
Y77748D01*
X80626D01*
Y77766D01*
X80630D01*
Y77775D01*
X80635D01*
Y77793D01*
X80639D01*
Y77806D01*
X80644D01*
Y77815D01*
X80648D01*
Y77838D01*
X80653D01*
Y77847D01*
X80657D01*
Y77865D01*
X80662D01*
Y77878D01*
X80666D01*
Y77892D01*
X80671D01*
Y77905D01*
X80675D01*
Y77914D01*
X80680D01*
Y77937D01*
X80684D01*
Y77946D01*
X80689D01*
Y77959D01*
X80693D01*
Y77973D01*
X80698D01*
Y77986D01*
X80702D01*
Y78004D01*
X80707D01*
Y78013D01*
X80711D01*
Y78031D01*
X80716D01*
Y78045D01*
X80720D01*
Y78058D01*
X80725D01*
Y78076D01*
X80729D01*
Y78085D01*
X80734D01*
Y78103D01*
X80738D01*
Y78112D01*
X80743D01*
Y78130D01*
X80747D01*
Y78144D01*
X80752D01*
Y78153D01*
X80756D01*
Y78175D01*
X80761D01*
Y78180D01*
X80765D01*
Y78202D01*
X80770D01*
Y78211D01*
X80774D01*
Y78225D01*
X80779D01*
Y78243D01*
X80783D01*
Y78252D01*
X80788D01*
Y78270D01*
X80792D01*
Y78279D01*
X80797D01*
Y78297D01*
X80801D01*
Y78310D01*
X80806D01*
Y78324D01*
X80810D01*
Y78342D01*
X80815D01*
Y78351D01*
X80819D01*
Y78369D01*
X80824D01*
Y78378D01*
X80828D01*
Y78391D01*
X80833D01*
Y78409D01*
X80837D01*
Y78418D01*
X80842D01*
Y78441D01*
X80846D01*
Y78450D01*
X80851D01*
Y78463D01*
X80855D01*
Y78481D01*
X80860D01*
Y78490D01*
X80864D01*
Y78508D01*
X80869D01*
Y78517D01*
X80873D01*
Y78535D01*
X80878D01*
Y78549D01*
X80882D01*
Y78562D01*
X80887D01*
Y78576D01*
X80891D01*
Y78589D01*
X80896D01*
Y78607D01*
X80900D01*
Y78616D01*
X80905D01*
Y78634D01*
X80909D01*
Y78648D01*
X80914D01*
Y78657D01*
X80918D01*
Y78675D01*
X80923D01*
Y78688D01*
X80927D01*
Y78706D01*
X80932D01*
Y78715D01*
X80936D01*
Y78729D01*
X80941D01*
Y78747D01*
X80945D01*
Y78756D01*
X80950D01*
Y78774D01*
X80954D01*
Y78783D01*
X80959D01*
Y78800D01*
X80963D01*
Y78814D01*
X80968D01*
Y78827D01*
X80972D01*
Y78845D01*
X80977D01*
Y78854D01*
X80981D01*
Y78872D01*
X80986D01*
Y78881D01*
X80990D01*
Y78895D01*
X80995D01*
Y78913D01*
X80999D01*
Y78922D01*
X81004D01*
Y78931D01*
Y78935D01*
Y78944D01*
X81008D01*
Y78953D01*
X81013D01*
Y78971D01*
X81017D01*
Y78985D01*
X81022D01*
Y78994D01*
X81026D01*
Y79012D01*
X81031D01*
Y79021D01*
X81035D01*
Y79039D01*
X81040D01*
Y79052D01*
X81044D01*
Y79066D01*
X81049D01*
Y79084D01*
X81053D01*
Y79093D01*
X81058D01*
Y79111D01*
X81062D01*
Y79120D01*
X81067D01*
Y79138D01*
X81071D01*
Y79151D01*
X81076D01*
Y79160D01*
X81080D01*
Y79178D01*
X81085D01*
Y79192D01*
X81089D01*
Y79210D01*
X81094D01*
Y79219D01*
X81098D01*
Y79232D01*
X81103D01*
Y79250D01*
X81107D01*
Y79259D01*
X81112D01*
Y79277D01*
X81116D01*
Y79286D01*
X81121D01*
Y79304D01*
X81125D01*
Y79318D01*
X81130D01*
Y79327D01*
X81134D01*
Y79349D01*
X81139D01*
Y79358D01*
X81143D01*
Y79376D01*
X81148D01*
Y79385D01*
X81152D01*
Y79399D01*
X81157D01*
Y79417D01*
X81161D01*
Y79426D01*
X81166D01*
Y79448D01*
X81170D01*
Y79457D01*
X81175D01*
Y79471D01*
X81179D01*
Y79484D01*
X81184D01*
Y79498D01*
X81188D01*
Y79516D01*
X81193D01*
Y79525D01*
X81197D01*
Y79543D01*
X81202D01*
Y79556D01*
X81206D01*
Y79570D01*
X81211D01*
Y79588D01*
X81215D01*
Y79597D01*
X81220D01*
Y79615D01*
X81224D01*
Y79624D01*
X81229D01*
Y79642D01*
X81233D01*
Y79651D01*
X81238D01*
Y79655D01*
X81242D01*
Y79651D01*
X81251D01*
Y79646D01*
X81256D01*
Y79642D01*
X81260D01*
Y79637D01*
X81265D01*
Y79633D01*
X81269D01*
Y79628D01*
X81274D01*
Y79624D01*
X81278D01*
Y79619D01*
X81283D01*
Y79615D01*
X81287D01*
Y79610D01*
X81292D01*
Y79606D01*
X81296D01*
Y79601D01*
X81301D01*
Y79597D01*
X81305D01*
Y79592D01*
X81310D01*
Y79588D01*
X81314D01*
Y79583D01*
X81319D01*
Y79579D01*
X81323D01*
Y79574D01*
X81328D01*
Y79570D01*
X81332D01*
Y79565D01*
X81337D01*
Y79561D01*
X81341D01*
Y79556D01*
X81346D01*
Y79552D01*
X81350D01*
Y79547D01*
X81355D01*
Y79543D01*
X81359D01*
Y79538D01*
X81364D01*
Y79534D01*
X81368D01*
Y79529D01*
X81373D01*
Y79525D01*
X81377D01*
Y79520D01*
X81382D01*
Y79516D01*
X81386D01*
Y79511D01*
X81391D01*
Y79507D01*
X81395D01*
Y79502D01*
X81400D01*
Y79498D01*
X81404D01*
Y79493D01*
X81409D01*
Y79489D01*
X81413D01*
Y79484D01*
X81418D01*
Y79480D01*
X81422D01*
Y79475D01*
X81427D01*
Y79471D01*
X81431D01*
Y79466D01*
X81436D01*
Y79462D01*
X81440D01*
Y79457D01*
X81445D01*
Y79453D01*
X81449D01*
Y79448D01*
X81454D01*
Y79444D01*
X81458D01*
Y79439D01*
X81463D01*
Y79435D01*
X81467D01*
Y79430D01*
X81472D01*
Y79426D01*
X81476D01*
Y79421D01*
X81481D01*
Y79417D01*
X81485D01*
Y79412D01*
X81490D01*
Y79408D01*
X81494D01*
Y79403D01*
X81499D01*
Y79399D01*
X81503D01*
Y79394D01*
X81508D01*
Y79390D01*
X81512D01*
Y79385D01*
X81517D01*
Y79381D01*
X81521D01*
Y79376D01*
X81526D01*
Y79372D01*
X81530D01*
Y79367D01*
X81535D01*
Y79363D01*
X81539D01*
Y79358D01*
X81544D01*
Y79354D01*
X81548D01*
Y79349D01*
X81553D01*
Y79345D01*
X81557D01*
Y79340D01*
X81562D01*
Y79336D01*
X81566D01*
Y79331D01*
X81571D01*
Y79327D01*
X81575D01*
Y79322D01*
X81580D01*
Y79318D01*
X81584D01*
Y79313D01*
X81589D01*
Y79309D01*
X81593D01*
Y79304D01*
X81598D01*
Y79300D01*
X81602D01*
Y79295D01*
X81606D01*
Y79291D01*
X81611D01*
Y79286D01*
X81615D01*
Y79282D01*
X81620D01*
Y79277D01*
X81624D01*
Y79273D01*
X81629D01*
Y79268D01*
X81633D01*
Y79264D01*
X81638D01*
Y79259D01*
X81642D01*
Y79255D01*
X81647D01*
Y79250D01*
X81651D01*
Y79246D01*
X81656D01*
Y79241D01*
X81660D01*
Y79237D01*
X81665D01*
Y79232D01*
X81669D01*
Y79228D01*
X81674D01*
Y79223D01*
X81678D01*
Y79219D01*
X81683D01*
Y79214D01*
X81687D01*
Y79210D01*
X81692D01*
Y79205D01*
X81696D01*
Y79201D01*
X81701D01*
Y79196D01*
X81705D01*
Y79192D01*
X81710D01*
Y79187D01*
X81714D01*
Y79183D01*
X81719D01*
Y79178D01*
X81723D01*
Y79174D01*
X81728D01*
Y79169D01*
X81732D01*
Y79165D01*
X81737D01*
Y79160D01*
X81741D01*
Y79156D01*
X81746D01*
Y79151D01*
X81750D01*
Y79147D01*
X81755D01*
Y79142D01*
X81759D01*
Y79138D01*
X81764D01*
Y79133D01*
X81768D01*
Y79129D01*
X81773D01*
Y79124D01*
X81777D01*
Y79120D01*
X81782D01*
Y79115D01*
X81786D01*
Y79111D01*
X81791D01*
Y79106D01*
X81795D01*
Y79102D01*
X81800D01*
Y79097D01*
X81804D01*
Y79093D01*
X81809D01*
Y79088D01*
X81813D01*
Y79084D01*
X81818D01*
Y79079D01*
X81822D01*
Y79075D01*
X81827D01*
Y79070D01*
X81831D01*
Y79066D01*
X81836D01*
Y79061D01*
X81840D01*
Y79057D01*
X81845D01*
Y79052D01*
X81849D01*
Y79048D01*
X81854D01*
Y79043D01*
X81858D01*
Y79039D01*
X81863D01*
Y79034D01*
X81867D01*
Y79030D01*
X81872D01*
Y79025D01*
X81876D01*
Y79021D01*
X81881D01*
Y79016D01*
X81885D01*
Y79012D01*
X81890D01*
Y79007D01*
X81894D01*
Y79003D01*
X81899D01*
Y78998D01*
X81903D01*
Y78994D01*
X81908D01*
Y78989D01*
X81912D01*
Y78985D01*
X81917D01*
Y78980D01*
X81921D01*
Y78976D01*
X81926D01*
Y78971D01*
X81930D01*
Y78967D01*
X81935D01*
Y78962D01*
X81939D01*
Y78958D01*
X81944D01*
Y78953D01*
X81948D01*
Y78949D01*
X81953D01*
Y78944D01*
X81957D01*
Y78940D01*
X81962D01*
Y78935D01*
X81966D01*
Y78931D01*
X81971D01*
Y78926D01*
X81975D01*
Y78922D01*
X81980D01*
Y78917D01*
X81984D01*
Y78913D01*
X81989D01*
Y78908D01*
X81993D01*
Y78904D01*
X81998D01*
Y78899D01*
X82002D01*
Y78895D01*
X82007D01*
Y78890D01*
X82011D01*
Y78886D01*
X82016D01*
Y78881D01*
X82020D01*
Y78877D01*
X82025D01*
Y78872D01*
X82029D01*
Y78868D01*
X82034D01*
Y78863D01*
X82038D01*
Y78859D01*
X82043D01*
Y78854D01*
X82047D01*
Y78850D01*
X82052D01*
Y78845D01*
X82056D01*
Y78841D01*
X82061D01*
Y78836D01*
X82065D01*
Y78832D01*
X82070D01*
Y78827D01*
X82074D01*
Y78823D01*
X82079D01*
Y78818D01*
X82083D01*
Y78814D01*
X82088D01*
Y78810D01*
X82092D01*
Y78805D01*
X82097D01*
Y78800D01*
X82101D01*
Y78796D01*
X82106D01*
Y78792D01*
X82110D01*
Y78787D01*
X82115D01*
Y78783D01*
X82119D01*
Y78778D01*
X82124D01*
Y78774D01*
X82128D01*
Y78769D01*
X82133D01*
Y78765D01*
X82137D01*
Y78760D01*
X82142D01*
Y78756D01*
X82146D01*
Y78751D01*
X82151D01*
Y78747D01*
X82155D01*
Y78742D01*
X82160D01*
Y78738D01*
X82164D01*
Y78733D01*
X82169D01*
Y78729D01*
X82173D01*
Y78724D01*
X82178D01*
Y78720D01*
X82182D01*
Y78715D01*
X82187D01*
Y78711D01*
X82191D01*
Y78706D01*
X82196D01*
Y78702D01*
X82200D01*
Y78697D01*
X82205D01*
Y78693D01*
X82209D01*
Y78688D01*
X82214D01*
Y78684D01*
X82218D01*
Y78679D01*
X82223D01*
Y78675D01*
X82227D01*
Y78670D01*
X82232D01*
Y78666D01*
X82236D01*
Y78661D01*
X82241D01*
Y78657D01*
X82245D01*
Y78652D01*
X82250D01*
Y78648D01*
X82254D01*
Y78643D01*
X82259D01*
Y78639D01*
X82263D01*
Y78634D01*
X82268D01*
Y78630D01*
X82272D01*
Y78625D01*
X82277D01*
Y78621D01*
X82281D01*
Y78616D01*
X82286D01*
Y78612D01*
X82290D01*
Y78607D01*
X82295D01*
Y78603D01*
X82299D01*
Y78598D01*
X82304D01*
Y78594D01*
X82308D01*
Y78589D01*
X82313D01*
Y78585D01*
X82317D01*
Y78580D01*
X82322D01*
Y78576D01*
X82326D01*
Y78571D01*
X82331D01*
Y78562D01*
X82344D01*
Y79876D01*
X82340D01*
Y79880D01*
X81795D01*
Y79884D01*
X81791D01*
Y80100D01*
X81795D01*
Y80105D01*
X82565D01*
Y80096D01*
D02*
G37*
G36*
X83559Y80100D02*
X83563D01*
Y79884D01*
X83559D01*
Y79880D01*
X83014D01*
Y79876D01*
X83010D01*
Y78562D01*
X83023D01*
Y78571D01*
X83028D01*
Y78576D01*
X83032D01*
Y78580D01*
X83037D01*
Y78585D01*
X83041D01*
Y78589D01*
X83046D01*
Y78594D01*
X83050D01*
Y78598D01*
X83055D01*
Y78603D01*
X83059D01*
Y78607D01*
X83064D01*
Y78612D01*
X83068D01*
Y78616D01*
X83073D01*
Y78621D01*
X83077D01*
Y78625D01*
X83082D01*
Y78630D01*
X83086D01*
Y78634D01*
X83091D01*
Y78639D01*
X83095D01*
Y78643D01*
X83100D01*
Y78648D01*
X83104D01*
Y78652D01*
X83109D01*
Y78657D01*
X83113D01*
Y78661D01*
X83118D01*
Y78666D01*
X83122D01*
Y78670D01*
X83127D01*
Y78675D01*
X83131D01*
Y78679D01*
X83136D01*
Y78684D01*
X83140D01*
Y78688D01*
X83145D01*
Y78693D01*
X83149D01*
Y78697D01*
X83154D01*
Y78702D01*
X83158D01*
Y78706D01*
X83163D01*
Y78711D01*
X83167D01*
Y78715D01*
X83172D01*
Y78720D01*
X83176D01*
Y78724D01*
X83181D01*
Y78729D01*
X83185D01*
Y78733D01*
X83190D01*
Y78738D01*
X83194D01*
Y78742D01*
X83199D01*
Y78747D01*
X83203D01*
Y78751D01*
X83208D01*
Y78756D01*
X83212D01*
Y78760D01*
X83217D01*
Y78765D01*
X83221D01*
Y78769D01*
X83226D01*
Y78774D01*
X83230D01*
Y78778D01*
X83235D01*
Y78783D01*
X83239D01*
Y78787D01*
X83244D01*
Y78792D01*
X83248D01*
Y78796D01*
X83253D01*
Y78800D01*
X83257D01*
Y78805D01*
X83262D01*
Y78810D01*
X83266D01*
Y78814D01*
X83271D01*
Y78818D01*
X83275D01*
Y78823D01*
X83280D01*
Y78827D01*
X83284D01*
Y78832D01*
X83289D01*
Y78836D01*
X83293D01*
Y78841D01*
X83298D01*
Y78845D01*
X83302D01*
Y78850D01*
X83307D01*
Y78854D01*
X83311D01*
Y78859D01*
X83316D01*
Y78863D01*
X83320D01*
Y78868D01*
X83325D01*
Y78872D01*
X83329D01*
Y78877D01*
X83334D01*
Y78881D01*
X83338D01*
Y78886D01*
X83343D01*
Y78890D01*
X83347D01*
Y78895D01*
X83352D01*
Y78899D01*
X83356D01*
Y78904D01*
X83361D01*
Y78908D01*
X83365D01*
Y78913D01*
X83370D01*
Y78917D01*
X83374D01*
Y78922D01*
X83379D01*
Y78926D01*
X83383D01*
Y78931D01*
X83388D01*
Y78935D01*
X83392D01*
Y78940D01*
X83397D01*
Y78944D01*
X83401D01*
Y78949D01*
X83406D01*
Y78953D01*
X83410D01*
Y78958D01*
X83415D01*
Y78962D01*
X83419D01*
Y78967D01*
X83424D01*
Y78971D01*
X83428D01*
Y78976D01*
X83433D01*
Y78980D01*
X83437D01*
Y78985D01*
X83442D01*
Y78989D01*
X83446D01*
Y78994D01*
X83451D01*
Y78998D01*
X83455D01*
Y79003D01*
X83460D01*
Y79007D01*
X83464D01*
Y79012D01*
X83469D01*
Y79016D01*
X83473D01*
Y79021D01*
X83478D01*
Y79025D01*
X83482D01*
Y79030D01*
X83487D01*
Y79034D01*
X83491D01*
Y79039D01*
X83496D01*
Y79043D01*
X83500D01*
Y79048D01*
X83505D01*
Y79052D01*
X83509D01*
Y79057D01*
X83514D01*
Y79061D01*
X83518D01*
Y79066D01*
X83523D01*
Y79070D01*
X83527D01*
Y79075D01*
X83532D01*
Y79079D01*
X83536D01*
Y79084D01*
X83541D01*
Y79088D01*
X83545D01*
Y79093D01*
X83550D01*
Y79097D01*
X83554D01*
Y79102D01*
X83559D01*
Y79106D01*
X83563D01*
Y79111D01*
X83568D01*
Y79115D01*
X83572D01*
Y79120D01*
X83577D01*
Y79124D01*
X83581D01*
Y79129D01*
X83586D01*
Y79133D01*
X83590D01*
Y79138D01*
X83595D01*
Y79142D01*
X83599D01*
Y79147D01*
X83604D01*
Y79151D01*
X83608D01*
Y79156D01*
X83613D01*
Y79160D01*
X83617D01*
Y79165D01*
X83622D01*
Y79169D01*
X83626D01*
Y79174D01*
X83631D01*
Y79178D01*
X83635D01*
Y79183D01*
X83640D01*
Y79187D01*
X83644D01*
Y79192D01*
X83649D01*
Y79196D01*
X83653D01*
Y79201D01*
X83658D01*
Y79205D01*
X83662D01*
Y79210D01*
X83667D01*
Y79214D01*
X83671D01*
Y79219D01*
X83676D01*
Y79223D01*
X83680D01*
Y79228D01*
X83685D01*
Y79232D01*
X83689D01*
Y79237D01*
X83694D01*
Y79241D01*
X83698D01*
Y79246D01*
X83703D01*
Y79250D01*
X83707D01*
Y79255D01*
X83712D01*
Y79259D01*
X83716D01*
Y79264D01*
X83721D01*
Y79268D01*
X83725D01*
Y79273D01*
X83730D01*
Y79277D01*
X83734D01*
Y79282D01*
X83739D01*
Y79286D01*
X83743D01*
Y79291D01*
X83747D01*
Y79295D01*
X83752D01*
Y79300D01*
X83757D01*
Y79304D01*
X83761D01*
Y79309D01*
X83766D01*
Y79313D01*
X83770D01*
Y79318D01*
X83774D01*
Y79322D01*
X83779D01*
Y79327D01*
X83783D01*
Y79331D01*
X83788D01*
Y79336D01*
X83792D01*
Y79340D01*
X83797D01*
Y79345D01*
X83801D01*
Y79349D01*
X83806D01*
Y79354D01*
X83810D01*
Y79358D01*
X83815D01*
Y79363D01*
X83819D01*
Y79367D01*
X83824D01*
Y79372D01*
X83828D01*
Y79376D01*
X83833D01*
Y79381D01*
X83837D01*
Y79385D01*
X83842D01*
Y79390D01*
X83846D01*
Y79394D01*
X83851D01*
Y79399D01*
X83855D01*
Y79403D01*
X83860D01*
Y79408D01*
X83864D01*
Y79412D01*
X83869D01*
Y79417D01*
X83873D01*
Y79421D01*
X83878D01*
Y79426D01*
X83882D01*
Y79430D01*
X83887D01*
Y79435D01*
X83891D01*
Y79439D01*
X83896D01*
Y79444D01*
X83900D01*
Y79448D01*
X83905D01*
Y79453D01*
X83909D01*
Y79457D01*
X83914D01*
Y79462D01*
X83918D01*
Y79466D01*
X83923D01*
Y79471D01*
X83927D01*
Y79475D01*
X83932D01*
Y79480D01*
X83936D01*
Y79484D01*
X83941D01*
Y79489D01*
X83945D01*
Y79493D01*
X83950D01*
Y79498D01*
X83954D01*
Y79502D01*
X83959D01*
Y79507D01*
X83963D01*
Y79511D01*
X83968D01*
Y79516D01*
X83972D01*
Y79520D01*
X83977D01*
Y79525D01*
X83981D01*
Y79529D01*
X83986D01*
Y79534D01*
X83990D01*
Y79538D01*
X83995D01*
Y79543D01*
X83999D01*
Y79547D01*
X84004D01*
Y79552D01*
X84008D01*
Y79556D01*
X84013D01*
Y79561D01*
X84017D01*
Y79565D01*
X84022D01*
Y79570D01*
X84026D01*
Y79574D01*
X84031D01*
Y79579D01*
X84035D01*
Y79583D01*
X84040D01*
Y79588D01*
X84044D01*
Y79592D01*
X84049D01*
Y79597D01*
X84053D01*
Y79601D01*
X84058D01*
Y79606D01*
X84062D01*
Y79610D01*
X84067D01*
Y79615D01*
X84071D01*
Y79619D01*
X84076D01*
Y79624D01*
X84080D01*
Y79628D01*
X84085D01*
Y79633D01*
X84089D01*
Y79637D01*
X84094D01*
Y79642D01*
X84098D01*
Y79646D01*
X84103D01*
Y79651D01*
X84112D01*
Y79655D01*
X84116D01*
Y79651D01*
X84121D01*
Y79642D01*
X84125D01*
Y79624D01*
X84130D01*
Y79615D01*
X84134D01*
Y79597D01*
X84139D01*
Y79583D01*
X84143D01*
Y79570D01*
X84148D01*
Y79556D01*
X84152D01*
Y79543D01*
X84157D01*
Y79525D01*
X84161D01*
Y79516D01*
X84166D01*
Y79498D01*
X84170D01*
Y79484D01*
X84175D01*
Y79475D01*
X84179D01*
Y79457D01*
X84184D01*
Y79448D01*
X84188D01*
Y79426D01*
X84193D01*
Y79417D01*
X84197D01*
Y79403D01*
X84202D01*
Y79385D01*
X84206D01*
Y79376D01*
X84211D01*
Y79358D01*
X84215D01*
Y79349D01*
X84220D01*
Y79331D01*
X84224D01*
Y79318D01*
X84229D01*
Y79304D01*
X84233D01*
Y79286D01*
X84238D01*
Y79277D01*
X84242D01*
Y79259D01*
X84247D01*
Y79250D01*
X84251D01*
Y79232D01*
X84256D01*
Y79219D01*
X84260D01*
Y79210D01*
X84265D01*
Y79187D01*
X84269D01*
Y79178D01*
X84274D01*
Y79160D01*
X84278D01*
Y79151D01*
X84283D01*
Y79138D01*
X84287D01*
Y79120D01*
X84292D01*
Y79111D01*
X84296D01*
Y79093D01*
X84301D01*
Y79084D01*
X84305D01*
Y79066D01*
X84310D01*
Y79052D01*
X84314D01*
Y79039D01*
X84319D01*
Y79021D01*
X84323D01*
Y79012D01*
X84328D01*
Y78994D01*
X84332D01*
Y78980D01*
X84337D01*
Y78971D01*
X84341D01*
Y78953D01*
X84346D01*
Y78944D01*
X84350D01*
Y78922D01*
X84355D01*
Y78913D01*
X84359D01*
Y78895D01*
X84364D01*
Y78881D01*
X84368D01*
Y78872D01*
X84373D01*
Y78854D01*
X84377D01*
Y78845D01*
X84382D01*
Y78827D01*
X84386D01*
Y78814D01*
X84391D01*
Y78800D01*
X84395D01*
Y78783D01*
X84400D01*
Y78774D01*
X84404D01*
Y78756D01*
X84409D01*
Y78747D01*
X84413D01*
Y78729D01*
X84418D01*
Y78715D01*
X84422D01*
Y78706D01*
X84427D01*
Y78688D01*
X84431D01*
Y78675D01*
X84436D01*
Y78657D01*
X84440D01*
Y78648D01*
X84445D01*
Y78634D01*
X84449D01*
Y78616D01*
X84454D01*
Y78607D01*
X84458D01*
Y78589D01*
X84463D01*
Y78576D01*
X84467D01*
Y78562D01*
X84472D01*
Y78549D01*
X84476D01*
Y78535D01*
X84481D01*
Y78517D01*
X84485D01*
Y78508D01*
X84490D01*
Y78490D01*
X84494D01*
Y78477D01*
X84499D01*
Y78463D01*
X84503D01*
Y78450D01*
X84508D01*
Y78441D01*
X84512D01*
Y78418D01*
X84517D01*
Y78409D01*
X84521D01*
Y78391D01*
X84526D01*
Y78378D01*
X84530D01*
Y78369D01*
X84535D01*
Y78351D01*
X84539D01*
Y78342D01*
X84544D01*
Y78324D01*
X84548D01*
Y78310D01*
X84553D01*
Y78297D01*
X84557D01*
Y78279D01*
X84562D01*
Y78270D01*
X84566D01*
Y78252D01*
X84571D01*
Y78243D01*
X84575D01*
Y78225D01*
X84580D01*
Y78211D01*
X84584D01*
Y78202D01*
X84589D01*
Y78184D01*
X84593D01*
Y78171D01*
X84598D01*
Y78153D01*
X84602D01*
Y78144D01*
X84607D01*
Y78130D01*
X84611D01*
Y78112D01*
X84616D01*
Y78103D01*
X84620D01*
Y78085D01*
X84625D01*
Y78072D01*
X84629D01*
Y78058D01*
X84634D01*
Y78045D01*
X84638D01*
Y78031D01*
X84643D01*
Y78013D01*
X84647D01*
Y78004D01*
X84652D01*
Y77986D01*
X84656D01*
Y77973D01*
X84661D01*
Y77964D01*
X84665D01*
Y77946D01*
X84670D01*
Y77937D01*
X84674D01*
Y77914D01*
X84679D01*
Y77905D01*
X84683D01*
Y77892D01*
X84688D01*
Y77874D01*
X84692D01*
Y77865D01*
X84697D01*
Y77847D01*
X84701D01*
Y77838D01*
X84706D01*
Y77820D01*
X84710D01*
Y77806D01*
X84715D01*
Y77793D01*
X84719D01*
Y77775D01*
X84724D01*
Y77766D01*
X84728D01*
Y77748D01*
X84733D01*
Y77739D01*
X84737D01*
Y77721D01*
X84742D01*
Y77708D01*
X84746D01*
Y77699D01*
X84751D01*
Y77676D01*
X84755D01*
Y77667D01*
X84760D01*
Y77649D01*
X84764D01*
Y77640D01*
X84769D01*
Y77627D01*
X84773D01*
Y77609D01*
X84778D01*
Y77600D01*
X84782D01*
Y77582D01*
X84787D01*
Y77573D01*
X84791D01*
Y77555D01*
X84796D01*
Y77541D01*
X84800D01*
Y77528D01*
X84805D01*
Y77510D01*
X84809D01*
Y77501D01*
X84814D01*
Y77483D01*
X84818D01*
Y77469D01*
X84823D01*
Y77460D01*
X84827D01*
Y77442D01*
X84831D01*
Y77433D01*
X84836D01*
Y77411D01*
X84840D01*
Y77402D01*
X84845D01*
Y77384D01*
X84850D01*
Y77370D01*
X84854D01*
Y77361D01*
X84858D01*
Y77343D01*
X84863D01*
Y77334D01*
X84867D01*
Y77316D01*
X84872D01*
Y77303D01*
X84876D01*
Y77289D01*
X84881D01*
Y77271D01*
X84885D01*
Y77262D01*
X84890D01*
Y77244D01*
X84894D01*
Y77235D01*
X84899D01*
Y77217D01*
X84903D01*
Y77204D01*
X84908D01*
Y77195D01*
X84912D01*
Y77177D01*
X84917D01*
Y77163D01*
X84921D01*
Y77145D01*
X84926D01*
Y77136D01*
X84930D01*
Y77123D01*
X84935D01*
Y77105D01*
X84939D01*
Y77096D01*
X84944D01*
Y77078D01*
X84948D01*
Y77064D01*
X84953D01*
Y77051D01*
X84957D01*
Y77037D01*
X84962D01*
Y77024D01*
X84966D01*
Y77006D01*
X84971D01*
Y76997D01*
X84975D01*
Y76979D01*
X84980D01*
Y76965D01*
X84984D01*
Y76952D01*
X84989D01*
Y76938D01*
X84993D01*
Y76929D01*
X84998D01*
Y76907D01*
X85002D01*
Y76898D01*
X85007D01*
Y76884D01*
X85011D01*
Y76866D01*
X85016D01*
Y76857D01*
X85020D01*
Y76839D01*
X85025D01*
Y76830D01*
X85029D01*
Y76812D01*
X85034D01*
Y76799D01*
X85038D01*
Y76785D01*
X85043D01*
Y76767D01*
X85047D01*
Y76758D01*
X85052D01*
Y76740D01*
X85056D01*
Y76731D01*
X85061D01*
Y76713D01*
X85065D01*
Y76700D01*
X85070D01*
Y76691D01*
X85074D01*
Y76673D01*
X85079D01*
Y76659D01*
X85083D01*
Y76642D01*
X85088D01*
Y76633D01*
X85092D01*
Y76619D01*
X85097D01*
Y76601D01*
X85101D01*
Y76592D01*
X85106D01*
Y76574D01*
X85110D01*
Y76565D01*
X85119D01*
Y76561D01*
X85664D01*
Y76556D01*
X85668D01*
Y76340D01*
X84796D01*
Y76336D01*
X84791D01*
Y76340D01*
X84782D01*
Y76561D01*
X84998D01*
Y76583D01*
X84993D01*
Y76592D01*
X84989D01*
Y76610D01*
X84984D01*
Y76624D01*
X84980D01*
Y76637D01*
X84975D01*
Y76655D01*
X84971D01*
Y76664D01*
X84966D01*
Y76682D01*
X84962D01*
Y76691D01*
X84957D01*
Y76704D01*
X84953D01*
Y76722D01*
X84948D01*
Y76731D01*
X84944D01*
Y76754D01*
X84939D01*
Y76763D01*
X84935D01*
Y76781D01*
X84930D01*
Y76794D01*
X84926D01*
Y76803D01*
X84921D01*
Y76821D01*
X84917D01*
Y76830D01*
X84912D01*
Y76853D01*
X84908D01*
Y76862D01*
X84903D01*
Y76875D01*
X84899D01*
Y76893D01*
X84894D01*
Y76902D01*
X84890D01*
Y76925D01*
X84885D01*
Y76934D01*
X84881D01*
Y76947D01*
X84876D01*
Y76961D01*
X84872D01*
Y76974D01*
X84867D01*
Y76992D01*
X84863D01*
Y77001D01*
X84858D01*
Y77019D01*
X84854D01*
Y77033D01*
X84850D01*
Y77046D01*
X84845D01*
Y77064D01*
X84840D01*
Y77073D01*
X84836D01*
Y77091D01*
X84831D01*
Y77100D01*
X84827D01*
Y77118D01*
X84823D01*
Y77132D01*
X84818D01*
Y77145D01*
X84814D01*
Y77163D01*
X84809D01*
Y77172D01*
X84805D01*
Y77190D01*
X84800D01*
Y77204D01*
X84796D01*
Y77217D01*
X84791D01*
Y77231D01*
X84787D01*
Y77244D01*
X84782D01*
Y77262D01*
X84778D01*
Y77271D01*
X84773D01*
Y77289D01*
X84769D01*
Y77303D01*
X84764D01*
Y77312D01*
X84760D01*
Y77334D01*
X84755D01*
Y77343D01*
X84751D01*
Y77361D01*
X84746D01*
Y77370D01*
X84742D01*
Y77384D01*
X84737D01*
Y77402D01*
X84733D01*
Y77411D01*
X84728D01*
Y77433D01*
X84724D01*
Y77442D01*
X84719D01*
Y77460D01*
X84715D01*
Y77474D01*
X84710D01*
Y77483D01*
X84706D01*
Y77501D01*
X84701D01*
Y77510D01*
X84697D01*
Y77532D01*
X84692D01*
Y77541D01*
X84688D01*
Y77555D01*
X84683D01*
Y77573D01*
X84679D01*
Y77582D01*
X84674D01*
Y77600D01*
X84670D01*
Y77609D01*
X84665D01*
Y77627D01*
X84661D01*
Y77640D01*
X84656D01*
Y77654D01*
X84652D01*
Y77672D01*
X84647D01*
Y77681D01*
X84643D01*
Y77699D01*
X84638D01*
Y77712D01*
X84634D01*
Y77726D01*
X84629D01*
Y77743D01*
X84625D01*
Y77752D01*
X84620D01*
Y77770D01*
X84616D01*
Y77779D01*
X84611D01*
Y77797D01*
X84607D01*
Y77811D01*
X84602D01*
Y77824D01*
X84598D01*
Y77842D01*
X84593D01*
Y77851D01*
X84589D01*
Y77869D01*
X84584D01*
Y77878D01*
X84580D01*
Y77892D01*
X84575D01*
Y77910D01*
X84571D01*
Y77919D01*
X84566D01*
Y77941D01*
X84562D01*
Y77950D01*
X84557D01*
Y77968D01*
X84553D01*
Y77982D01*
X84548D01*
Y77991D01*
X84544D01*
Y78009D01*
X84539D01*
Y78018D01*
X84535D01*
Y78040D01*
X84530D01*
Y78049D01*
X84526D01*
Y78063D01*
X84521D01*
Y78081D01*
X84517D01*
Y78090D01*
X84512D01*
Y78112D01*
X84508D01*
Y78121D01*
X84503D01*
Y78135D01*
X84499D01*
Y78148D01*
X84494D01*
Y78162D01*
X84490D01*
Y78180D01*
X84485D01*
Y78189D01*
X84481D01*
Y78207D01*
X84476D01*
Y78220D01*
X84472D01*
Y78234D01*
X84467D01*
Y78252D01*
X84463D01*
Y78261D01*
X84458D01*
Y78279D01*
X84454D01*
Y78288D01*
X84449D01*
Y78306D01*
X84445D01*
Y78319D01*
X84440D01*
Y78333D01*
X84436D01*
Y78351D01*
X84431D01*
Y78360D01*
X84427D01*
Y78378D01*
X84422D01*
Y78391D01*
X84418D01*
Y78405D01*
X84413D01*
Y78418D01*
X84409D01*
Y78432D01*
X84404D01*
Y78450D01*
X84400D01*
Y78459D01*
X84395D01*
Y78477D01*
X84391D01*
Y78490D01*
X84386D01*
Y78499D01*
X84382D01*
Y78522D01*
X84377D01*
Y78531D01*
X84373D01*
Y78549D01*
X84368D01*
Y78558D01*
X84364D01*
Y78571D01*
X84359D01*
Y78589D01*
X84355D01*
Y78598D01*
X84350D01*
Y78621D01*
X84346D01*
Y78630D01*
X84341D01*
Y78648D01*
X84337D01*
Y78661D01*
X84332D01*
Y78670D01*
X84328D01*
Y78688D01*
X84323D01*
Y78697D01*
X84319D01*
Y78720D01*
X84314D01*
Y78729D01*
X84310D01*
Y78742D01*
X84305D01*
Y78760D01*
X84301D01*
Y78769D01*
X84296D01*
Y78787D01*
X84292D01*
Y78796D01*
X84287D01*
Y78814D01*
X84283D01*
Y78827D01*
X84278D01*
Y78841D01*
X84274D01*
Y78859D01*
X84269D01*
Y78868D01*
X84265D01*
Y78886D01*
X84260D01*
Y78899D01*
X84256D01*
Y78913D01*
X84251D01*
Y78931D01*
X84247D01*
Y78940D01*
X84242D01*
Y78958D01*
X84238D01*
Y78967D01*
X84233D01*
Y78989D01*
X84229D01*
Y78994D01*
X84224D01*
Y78989D01*
X84220D01*
Y78985D01*
X84211D01*
Y78980D01*
X84206D01*
Y78976D01*
X84202D01*
Y78971D01*
X84197D01*
Y78967D01*
X84193D01*
Y78962D01*
X84188D01*
Y78958D01*
X84184D01*
Y78953D01*
X84179D01*
Y78949D01*
X84170D01*
Y78944D01*
X84166D01*
Y78940D01*
X84161D01*
Y78935D01*
X84157D01*
Y78931D01*
X84152D01*
Y78926D01*
X84148D01*
Y78922D01*
X84143D01*
Y78917D01*
X84139D01*
Y78913D01*
X84134D01*
Y78908D01*
X84130D01*
Y78904D01*
X84125D01*
Y78899D01*
X84121D01*
Y78895D01*
X84112D01*
Y78890D01*
X84107D01*
Y78886D01*
X84103D01*
Y78881D01*
X84098D01*
Y78877D01*
X84094D01*
Y78872D01*
X84089D01*
Y78868D01*
X84085D01*
Y78863D01*
X84080D01*
Y78859D01*
X84076D01*
Y78854D01*
X84067D01*
Y78850D01*
X84062D01*
Y78845D01*
X84058D01*
Y78841D01*
X84053D01*
Y78836D01*
X84049D01*
Y78832D01*
X84044D01*
Y78827D01*
X84040D01*
Y78823D01*
X84035D01*
Y78818D01*
X84026D01*
Y78810D01*
X84017D01*
Y78805D01*
X84013D01*
Y78800D01*
X84008D01*
Y78796D01*
X84004D01*
Y78792D01*
X83999D01*
Y78787D01*
X83995D01*
Y78783D01*
X83990D01*
Y78778D01*
X83986D01*
Y78774D01*
X83981D01*
Y78769D01*
X83977D01*
Y78765D01*
X83972D01*
Y78760D01*
X83963D01*
Y78756D01*
X83959D01*
Y78751D01*
X83954D01*
Y78747D01*
X83950D01*
Y78742D01*
X83945D01*
Y78738D01*
X83941D01*
Y78733D01*
X83936D01*
Y78729D01*
X83932D01*
Y78724D01*
X83923D01*
Y78720D01*
X83918D01*
Y78715D01*
X83914D01*
Y78711D01*
X83909D01*
Y78706D01*
X83905D01*
Y78702D01*
X83900D01*
Y78697D01*
X83896D01*
Y78693D01*
X83891D01*
Y78688D01*
X83887D01*
Y78684D01*
X83882D01*
Y78679D01*
X83873D01*
Y78670D01*
X83864D01*
Y78666D01*
X83860D01*
Y78661D01*
X83855D01*
Y78657D01*
X83851D01*
Y78652D01*
X83846D01*
Y78648D01*
X83842D01*
Y78643D01*
X83837D01*
Y78639D01*
X83833D01*
Y78634D01*
X83824D01*
Y78630D01*
X83819D01*
Y78625D01*
X83815D01*
Y78621D01*
X83810D01*
Y78616D01*
X83806D01*
Y78612D01*
X83801D01*
Y78607D01*
X83797D01*
Y78603D01*
X83792D01*
Y78598D01*
X83788D01*
Y78594D01*
X83779D01*
Y78585D01*
X83770D01*
Y78580D01*
X83766D01*
Y78576D01*
X83761D01*
Y78571D01*
X83757D01*
Y78567D01*
X83752D01*
Y78562D01*
X83747D01*
Y78558D01*
X83743D01*
Y78553D01*
X83739D01*
Y78549D01*
X83734D01*
Y78544D01*
X83730D01*
Y78540D01*
X83721D01*
Y78535D01*
X83716D01*
Y78531D01*
X83712D01*
Y78526D01*
X83707D01*
Y78522D01*
X83703D01*
Y78517D01*
X83698D01*
Y78513D01*
X83694D01*
Y78508D01*
X83689D01*
Y78504D01*
X83685D01*
Y78499D01*
X83680D01*
Y78495D01*
X83671D01*
Y78490D01*
X83667D01*
Y78486D01*
X83662D01*
Y78481D01*
X83658D01*
Y78477D01*
X83653D01*
Y78472D01*
X83649D01*
Y78468D01*
X83644D01*
Y78463D01*
X83640D01*
Y78459D01*
X83635D01*
Y78454D01*
X83631D01*
Y78450D01*
X83626D01*
Y78445D01*
X83617D01*
Y78441D01*
X83613D01*
Y78436D01*
X83608D01*
Y78432D01*
X83604D01*
Y78427D01*
X83599D01*
Y78423D01*
X83595D01*
Y78418D01*
X83590D01*
Y78414D01*
X83586D01*
Y78409D01*
X83577D01*
Y78405D01*
X83572D01*
Y78400D01*
X83568D01*
Y78396D01*
X83563D01*
Y78391D01*
X83559D01*
Y78387D01*
X83554D01*
Y78382D01*
X83550D01*
Y78378D01*
X83545D01*
Y78373D01*
X83541D01*
Y78369D01*
X83536D01*
Y78364D01*
X83532D01*
Y78360D01*
X83527D01*
Y78355D01*
X83518D01*
Y78351D01*
X83514D01*
Y78346D01*
X83509D01*
Y78342D01*
X83505D01*
Y78337D01*
X83500D01*
Y78333D01*
X83496D01*
Y78328D01*
X83491D01*
Y78324D01*
X83487D01*
Y78319D01*
X83482D01*
Y78315D01*
X83473D01*
Y78310D01*
X83469D01*
Y78306D01*
X83464D01*
Y78301D01*
X83460D01*
Y78297D01*
X83455D01*
Y78292D01*
X83451D01*
Y78288D01*
X83446D01*
Y78283D01*
X83442D01*
Y78279D01*
X83433D01*
Y78270D01*
X83424D01*
Y78265D01*
X83419D01*
Y78261D01*
X83415D01*
Y78256D01*
X83410D01*
Y78252D01*
X83406D01*
Y78247D01*
X83401D01*
Y78243D01*
X83397D01*
Y78238D01*
X83392D01*
Y78234D01*
X83388D01*
Y78229D01*
X83383D01*
Y78225D01*
X83379D01*
Y78220D01*
X83370D01*
Y78216D01*
X83365D01*
Y78211D01*
X83361D01*
Y78207D01*
X83356D01*
Y78202D01*
X83352D01*
Y78198D01*
X83347D01*
Y78193D01*
X83343D01*
Y78189D01*
X83338D01*
Y78184D01*
X83329D01*
Y78180D01*
X83325D01*
Y78175D01*
X83320D01*
Y78171D01*
X83316D01*
Y78166D01*
X83311D01*
Y78162D01*
X83307D01*
Y78157D01*
X83302D01*
Y78153D01*
X83298D01*
Y78148D01*
X83293D01*
Y78144D01*
X83289D01*
Y78139D01*
X83280D01*
Y78130D01*
X83271D01*
Y78126D01*
X83266D01*
Y78121D01*
X83262D01*
Y78117D01*
X83257D01*
Y78112D01*
X83253D01*
Y78108D01*
X83248D01*
Y78103D01*
X83244D01*
Y78099D01*
X83239D01*
Y78094D01*
X83230D01*
Y78090D01*
X83226D01*
Y78085D01*
X83221D01*
Y78081D01*
X83217D01*
Y78076D01*
X83212D01*
Y78072D01*
X83208D01*
Y78067D01*
X83203D01*
Y78063D01*
X83199D01*
Y78058D01*
X83194D01*
Y78054D01*
X83185D01*
Y78045D01*
X83176D01*
Y78040D01*
X83172D01*
Y78036D01*
X83167D01*
Y78031D01*
X83163D01*
Y78027D01*
X83158D01*
Y78022D01*
X83154D01*
Y78018D01*
X83149D01*
Y78013D01*
X83145D01*
Y78009D01*
X83140D01*
Y78004D01*
X83136D01*
Y78000D01*
X83127D01*
Y77995D01*
X83122D01*
Y77991D01*
X83118D01*
Y77986D01*
X83113D01*
Y77982D01*
X83109D01*
Y77977D01*
X83104D01*
Y77973D01*
X83100D01*
Y77968D01*
X83095D01*
Y77964D01*
X83091D01*
Y77959D01*
X83086D01*
Y77955D01*
X83077D01*
Y77950D01*
X83073D01*
Y77946D01*
X83068D01*
Y77941D01*
X83064D01*
Y77937D01*
X83059D01*
Y77932D01*
X83055D01*
Y77928D01*
X83050D01*
Y77923D01*
X83046D01*
Y77919D01*
X83041D01*
Y77914D01*
X83037D01*
Y77910D01*
X83032D01*
Y77905D01*
X83023D01*
Y77901D01*
X83019D01*
Y77896D01*
X83014D01*
Y77892D01*
X83010D01*
Y76453D01*
X83014D01*
Y76448D01*
X83451D01*
Y76439D01*
X83455D01*
Y76430D01*
X83451D01*
Y76246D01*
X83455D01*
Y76237D01*
X83451D01*
Y76228D01*
X82789D01*
Y76232D01*
X82785D01*
Y80096D01*
X82789D01*
Y80105D01*
X83559D01*
Y80100D01*
D02*
G37*
G36*
X85664Y76111D02*
X85668D01*
Y75899D01*
X85664D01*
Y75895D01*
X79690D01*
Y75899D01*
X79686D01*
Y76111D01*
X79690D01*
Y76120D01*
X85664D01*
Y76111D01*
D02*
G37*
D67*
X35737Y6477D02*
G03*
X35737Y6477I-50J0D01*
G01*
X66928Y40196D02*
X67817Y41085D01*
X68706Y40196D01*
X85800Y4500D02*
X87500D01*
X86992Y4000D02*
X87500Y4508D01*
X85000Y26742D02*
X85508Y27250D01*
X85500D02*
X86008Y26742D01*
X86992Y5008D02*
X87500Y4500D01*
X78250Y20000D02*
X85500D01*
X78250Y20000D02*
X78758Y20508D01*
X78250Y20008D02*
X78758Y19500D01*
X85500Y20000D02*
Y27250D01*
X36321Y34500D02*
Y35500D01*
X35821D01*
X35654Y35333D01*
Y35000D01*
X35821Y34833D01*
X36321D01*
X35321Y34500D02*
Y35500D01*
X34655Y34500D01*
Y35500D01*
X34321Y34500D02*
Y35167D01*
X33988Y35500D01*
X33655Y35167D01*
Y34500D01*
Y35000D01*
X34321D01*
X33322Y34500D02*
Y35500D01*
X32822D01*
X32655Y35333D01*
Y35000D01*
X32822Y34833D01*
X33322D01*
X32988D02*
X32655Y34500D01*
D68*
X39300Y31470D02*
G03*
X39300Y31470I-100J0D01*
G01*
X23720Y70455D02*
G03*
X23720Y70455I-100J0D01*
G01*
X12850Y69050D02*
G03*
X12850Y69050I-100J0D01*
G01*
X79387Y35428D02*
G03*
X79387Y35428I-126J0D01*
G01*
X35091Y6350D02*
Y9091D01*
X36475Y9300D02*
X37525D01*
X30187Y9091D02*
X35091D01*
X32500Y5895D02*
X32700D01*
X30187Y6350D02*
Y9091D01*
X70747Y38617D02*
Y41842D01*
X66800Y33225D02*
Y34275D01*
X67475Y24559D02*
X68525D01*
X75047Y38617D02*
Y41842D01*
X34500Y70475D02*
Y71525D01*
X17255Y72528D02*
X18305D01*
X34010Y30475D02*
Y31525D01*
X45975Y34500D02*
X47025D01*
X34010Y28475D02*
Y29525D01*
X43975Y34500D02*
X45025D01*
X34010Y20475D02*
Y21525D01*
X41975Y34500D02*
X43025D01*
X44725Y20500D02*
X45775D01*
X48465Y19975D02*
Y21025D01*
X34010Y22475D02*
Y23525D01*
X62594Y24750D02*
X63644D01*
X39975Y34500D02*
X41025D01*
X48465Y21975D02*
Y23025D01*
X42725Y20500D02*
X43775D01*
X6968Y53085D02*
X8018D01*
X34010Y16475D02*
Y17525D01*
X38725Y20500D02*
X39775D01*
X56250Y24225D02*
Y25275D01*
X58750Y29250D02*
Y30650D01*
Y28900D02*
X61750D01*
Y26600D02*
Y28900D01*
X58750Y26600D02*
X61750D01*
X58750D02*
Y28900D01*
X84321Y34920D02*
X92205D01*
X84321Y45080D02*
X92205D01*
X84321Y34920D02*
Y45080D01*
X41040Y65500D02*
X42090D01*
X18315Y63475D02*
Y64525D01*
X48465Y29475D02*
Y30525D01*
X41700Y69350D02*
X44300D01*
X41700Y67650D02*
X44300D01*
X56250Y26225D02*
Y27275D01*
X52050Y24500D02*
X52450D01*
X52050Y27000D02*
X52450D01*
X32100Y32385D02*
X36901D01*
X30150Y32420D02*
X31750D01*
X36901Y34677D02*
Y37615D01*
Y32385D02*
Y34053D01*
X32100Y37615D02*
X36901D01*
X32100Y32385D02*
Y37615D01*
X27861Y41083D02*
X27694Y40916D01*
Y40583D01*
X27861Y40416D01*
X28027D01*
X28194Y40583D01*
Y40750D01*
Y40583D01*
X28361Y40416D01*
X28527D01*
X28694Y40583D01*
Y40916D01*
X28527Y41083D01*
X27694Y40083D02*
X28361D01*
X28694Y39750D01*
X28361Y39417D01*
X27694D01*
X27861Y39084D02*
X27694Y38917D01*
Y38584D01*
X27861Y38417D01*
X28027D01*
X28194Y38584D01*
Y38750D01*
Y38584D01*
X28361Y38417D01*
X28527D01*
X28694Y38584D01*
Y38917D01*
X28527Y39084D01*
X39282Y42878D02*
X39449Y43045D01*
X39782D01*
X39949Y42878D01*
Y42212D01*
X39782Y42045D01*
X39449D01*
X39282Y42212D01*
Y42545D01*
X39615D01*
X38949Y42045D02*
Y43045D01*
X38449D01*
X38282Y42878D01*
Y42545D01*
X38449Y42378D01*
X38949D01*
X37949Y43045D02*
X37616D01*
X37783D01*
Y42045D01*
X37949D01*
X37616D01*
X36616Y43045D02*
X36950D01*
X37116Y42878D01*
Y42212D01*
X36950Y42045D01*
X36616D01*
X36450Y42212D01*
Y42878D01*
X36616Y43045D01*
X36116Y42878D02*
X35950Y43045D01*
X35617D01*
X35450Y42878D01*
Y42212D01*
X35617Y42045D01*
X35950D01*
X36116Y42212D01*
Y42878D01*
X41281Y44962D02*
Y45629D01*
X41448Y45795D01*
X41781D01*
X41948Y45629D01*
Y44962D01*
X41781Y44795D01*
X41448D01*
X41615Y45129D02*
X41281Y44795D01*
X41448D02*
X41281Y44962D01*
X40282Y45629D02*
X40448Y45795D01*
X40782D01*
X40948Y45629D01*
Y45462D01*
X40782Y45295D01*
X40448D01*
X40282Y45129D01*
Y44962D01*
X40448Y44795D01*
X40782D01*
X40948Y44962D01*
X39949Y44795D02*
Y45795D01*
X39449D01*
X39282Y45629D01*
Y45295D01*
X39449Y45129D01*
X39949D01*
X38949Y45795D02*
X38616D01*
X38782D01*
Y44795D01*
X38949D01*
X38616D01*
X38116Y44629D02*
X37449D01*
X36450Y45629D02*
X36616Y45795D01*
X36950D01*
X37116Y45629D01*
Y45462D01*
X36950Y45295D01*
X36616D01*
X36450Y45129D01*
Y44962D01*
X36616Y44795D01*
X36950D01*
X37116Y44962D01*
X35450Y45629D02*
X35617Y45795D01*
X35950D01*
X36116Y45629D01*
Y45462D01*
X35950Y45295D01*
X35617D01*
X35450Y45129D01*
Y44962D01*
X35617Y44795D01*
X35950D01*
X36116Y44962D01*
X33583Y48200D02*
X34249D01*
Y47700D01*
X33916D01*
X34249D01*
Y47200D01*
X33249D02*
X32916D01*
X33083D01*
Y48200D01*
X33249D01*
X32250Y47866D02*
X31916D01*
X31750Y47700D01*
Y47200D01*
X32250D01*
X32416Y47367D01*
X32250Y47533D01*
X31750D01*
X31417Y47200D02*
X30917D01*
X30750Y47367D01*
X30917Y47533D01*
X31250D01*
X31417Y47700D01*
X31250Y47866D01*
X30750D01*
X30417Y48200D02*
Y47200D01*
Y47700D01*
X30250Y47866D01*
X29917D01*
X29750Y47700D01*
Y47200D01*
X28751Y48033D02*
X28917Y48200D01*
X29251D01*
X29417Y48033D01*
Y47866D01*
X29251Y47700D01*
X28917D01*
X28751Y47533D01*
Y47367D01*
X28917Y47200D01*
X29251D01*
X29417Y47367D01*
X27751Y48033D02*
X27918Y48200D01*
X28251D01*
X28417Y48033D01*
Y47866D01*
X28251Y47700D01*
X27918D01*
X27751Y47533D01*
Y47367D01*
X27918Y47200D01*
X28251D01*
X28417Y47367D01*
X19709Y33520D02*
Y32687D01*
X19542Y32520D01*
X19209D01*
X19042Y32687D01*
Y33520D01*
X18043Y33353D02*
X18209Y33520D01*
X18542D01*
X18709Y33353D01*
Y33187D01*
X18542Y33020D01*
X18209D01*
X18043Y32853D01*
Y32687D01*
X18209Y32520D01*
X18542D01*
X18709Y32687D01*
X17709Y33520D02*
Y32520D01*
X17210D01*
X17043Y32687D01*
Y32853D01*
X17210Y33020D01*
X17709D01*
X17210D01*
X17043Y33187D01*
Y33353D01*
X17210Y33520D01*
X17709D01*
X16043Y33353D02*
X16210Y33520D01*
X16543D01*
X16710Y33353D01*
Y32687D01*
X16543Y32520D01*
X16210D01*
X16043Y32687D01*
Y33020D01*
X16377D01*
X15710Y32520D02*
Y33520D01*
X15044Y32520D01*
Y33520D01*
X14710D02*
Y32520D01*
X14211D01*
X14044Y32687D01*
Y33353D01*
X14211Y33520D01*
X14710D01*
X13711Y33020D02*
X13044D01*
X12045Y33353D02*
X12211Y33520D01*
X12544D01*
X12711Y33353D01*
Y32687D01*
X12544Y32520D01*
X12211D01*
X12045Y32687D01*
Y33020D01*
X12378D01*
X11711Y32520D02*
Y33520D01*
X11045Y32520D01*
Y33520D01*
X10712D02*
Y32520D01*
X10212D01*
X10045Y32687D01*
Y33353D01*
X10212Y33520D01*
X10712D01*
X37623Y7699D02*
X37790Y7866D01*
X38123D01*
X38290Y7699D01*
Y7033D01*
X38123Y6866D01*
X37790D01*
X37623Y7033D01*
X36624Y6866D02*
X37290D01*
X36624Y7533D01*
Y7699D01*
X36790Y7866D01*
X37124D01*
X37290Y7699D01*
X36291Y7033D02*
X36124Y6866D01*
X35791D01*
X35624Y7033D01*
Y7699D01*
X35791Y7866D01*
X36124D01*
X36291Y7699D01*
Y7533D01*
X36124Y7366D01*
X35624D01*
X72207Y31615D02*
Y30782D01*
X72040Y30615D01*
X71707D01*
X71541Y30782D01*
Y31615D01*
X71207Y31448D02*
X71041Y31615D01*
X70708D01*
X70541Y31448D01*
Y31282D01*
X70708Y31115D01*
X70541Y30948D01*
Y30782D01*
X70708Y30615D01*
X71041D01*
X71207Y30782D01*
Y30948D01*
X71041Y31115D01*
X71207Y31282D01*
Y31448D01*
X71041Y31115D02*
X70708D01*
X67889Y21090D02*
Y22090D01*
X67389D01*
X67223Y21923D01*
Y21590D01*
X67389Y21423D01*
X67889D01*
X67556D02*
X67223Y21090D01*
X66889Y21923D02*
X66723Y22090D01*
X66390D01*
X66223Y21923D01*
Y21757D01*
X66390Y21590D01*
X66223Y21423D01*
Y21257D01*
X66390Y21090D01*
X66723D01*
X66889Y21257D01*
Y21423D01*
X66723Y21590D01*
X66889Y21757D01*
Y21923D01*
X66723Y21590D02*
X66390D01*
X70466Y34215D02*
X70633Y34382D01*
X70966D01*
X71132Y34215D01*
Y33549D01*
X70966Y33382D01*
X70633D01*
X70466Y33549D01*
X69466Y33382D02*
X70133D01*
X69466Y34049D01*
Y34215D01*
X69633Y34382D01*
X69966D01*
X70133Y34215D01*
X69133D02*
X68967Y34382D01*
X68633D01*
X68467Y34215D01*
Y34049D01*
X68633Y33882D01*
X68467Y33715D01*
Y33549D01*
X68633Y33382D01*
X68967D01*
X69133Y33549D01*
Y33715D01*
X68967Y33882D01*
X69133Y34049D01*
Y34215D01*
X68967Y33882D02*
X68633D01*
X71278Y24209D02*
X71445Y24376D01*
X71778D01*
X71945Y24209D01*
Y23543D01*
X71778Y23376D01*
X71445D01*
X71278Y23543D01*
X70279Y23376D02*
X70945D01*
X70279Y24043D01*
Y24209D01*
X70445Y24376D01*
X70779D01*
X70945Y24209D01*
X69946Y24376D02*
X69279D01*
Y24209D01*
X69946Y23543D01*
Y23376D01*
X28837Y8453D02*
X29670D01*
X29837Y8286D01*
Y7953D01*
X29670Y7787D01*
X28837D01*
Y6787D02*
X29004Y7120D01*
X29337Y7453D01*
X29670D01*
X29837Y7287D01*
Y6954D01*
X29670Y6787D01*
X29504D01*
X29337Y6954D01*
Y7453D01*
X63952Y30853D02*
Y30020D01*
X63785Y29853D01*
X63452D01*
X63286Y30020D01*
Y30853D01*
X62286D02*
X62952D01*
Y30353D01*
X62619Y30520D01*
X62453D01*
X62286Y30353D01*
Y30020D01*
X62453Y29853D01*
X62786D01*
X62952Y30020D01*
X30249Y13470D02*
Y14470D01*
X29749D01*
X29583Y14303D01*
Y13970D01*
X29749Y13803D01*
X30249D01*
X29916D02*
X29583Y13470D01*
X28583D02*
X29250D01*
X28583Y14137D01*
Y14303D01*
X28750Y14470D01*
X29083D01*
X29250Y14303D01*
X28250Y13470D02*
X27917D01*
X28083D01*
Y14470D01*
X28250Y14303D01*
X38417Y13470D02*
Y14470D01*
X37917D01*
X37750Y14303D01*
Y13970D01*
X37917Y13803D01*
X38417D01*
X38084D02*
X37750Y13470D01*
X36751D02*
X37417D01*
X36751Y14137D01*
Y14303D01*
X36917Y14470D01*
X37251D01*
X37417Y14303D01*
X36418D02*
X36251Y14470D01*
X35918D01*
X35751Y14303D01*
Y13637D01*
X35918Y13470D01*
X36251D01*
X36418Y13637D01*
Y14303D01*
X45976Y32310D02*
Y31477D01*
X45809Y31311D01*
X45476D01*
X45309Y31477D01*
Y32310D01*
X44976Y31311D02*
X44643D01*
X44809D01*
Y32310D01*
X44976Y32144D01*
X92146Y34282D02*
Y33449D01*
X91979Y33282D01*
X91646D01*
X91480Y33449D01*
Y34282D01*
X91146Y33449D02*
X90980Y33282D01*
X90647D01*
X90480Y33449D01*
Y34115D01*
X90647Y34282D01*
X90980D01*
X91146Y34115D01*
Y33949D01*
X90980Y33782D01*
X90480D01*
X69969Y58654D02*
X68969D01*
Y58154D01*
X69136Y57987D01*
X69469D01*
X69636Y58154D01*
Y58654D01*
Y58320D02*
X69969Y57987D01*
Y57654D02*
Y57321D01*
Y57487D01*
X68969D01*
X69136Y57654D01*
X69802Y56821D02*
X69969Y56654D01*
Y56321D01*
X69802Y56154D01*
X69136D01*
X68969Y56321D01*
Y56654D01*
X69136Y56821D01*
X69302D01*
X69469Y56654D01*
Y56154D01*
X74541Y58654D02*
X73541D01*
Y58154D01*
X73708Y57987D01*
X74041D01*
X74208Y58154D01*
Y58654D01*
Y58320D02*
X74541Y57987D01*
Y57654D02*
Y57321D01*
Y57487D01*
X73541D01*
X73708Y57654D01*
Y56821D02*
X73541Y56654D01*
Y56321D01*
X73708Y56154D01*
X73874D01*
X74041Y56321D01*
X74208Y56154D01*
X74374D01*
X74541Y56321D01*
Y56654D01*
X74374Y56821D01*
X74208D01*
X74041Y56654D01*
X73874Y56821D01*
X73708D01*
X74041Y56654D02*
Y56321D01*
X78986Y58654D02*
X77986D01*
Y58154D01*
X78153Y57987D01*
X78486D01*
X78653Y58154D01*
Y58654D01*
Y58320D02*
X78986Y57987D01*
Y57654D02*
Y57321D01*
Y57487D01*
X77986D01*
X78153Y57654D01*
X77986Y56821D02*
Y56154D01*
X78153D01*
X78819Y56821D01*
X78986D01*
X7310Y47363D02*
X6644D01*
Y47196D01*
X7310Y46530D01*
Y46363D01*
X6644D01*
X5644D02*
X6310D01*
X5644Y47030D01*
Y47196D01*
X5811Y47363D01*
X6144D01*
X6310Y47196D01*
X7103Y41670D02*
X6437D01*
Y41503D01*
X7103Y40837D01*
Y40670D01*
X6437D01*
X6104D02*
X5770D01*
X5937D01*
Y41670D01*
X6104Y41503D01*
X36975Y39027D02*
Y38194D01*
X36808Y38028D01*
X36475D01*
X36308Y38194D01*
Y39027D01*
X35309Y38028D02*
X35975D01*
X35309Y38694D01*
Y38861D01*
X35475Y39027D01*
X35809D01*
X35975Y38861D01*
X39441Y72763D02*
Y71930D01*
X39274Y71763D01*
X38941D01*
X38775Y71930D01*
Y72763D01*
X38441Y72596D02*
X38275Y72763D01*
X37942D01*
X37775Y72596D01*
Y72430D01*
X37942Y72263D01*
X38108D01*
X37942D01*
X37775Y72096D01*
Y71930D01*
X37942Y71763D01*
X38275D01*
X38441Y71930D01*
X23017Y72047D02*
Y71214D01*
X22851Y71048D01*
X22518D01*
X22351Y71214D01*
Y72047D01*
X21518Y71048D02*
Y72047D01*
X22018Y71548D01*
X21351D01*
X54717Y43823D02*
Y44823D01*
X54217D01*
X54050Y44656D01*
Y44323D01*
X54217Y44156D01*
X54717D01*
X54383D02*
X54050Y43823D01*
X53717D02*
X53384D01*
X53550D01*
Y44823D01*
X53717Y44656D01*
X52884D02*
X52717Y44823D01*
X52384D01*
X52217Y44656D01*
Y44490D01*
X52384Y44323D01*
X52551D01*
X52384D01*
X52217Y44156D01*
Y43990D01*
X52384Y43823D01*
X52717D01*
X52884Y43990D01*
X55873Y37790D02*
X54873D01*
Y37290D01*
X55040Y37124D01*
X55373D01*
X55540Y37290D01*
Y37790D01*
Y37457D02*
X55873Y37124D01*
X54873Y36124D02*
Y36790D01*
X55373D01*
X55206Y36457D01*
Y36291D01*
X55373Y36124D01*
X55706D01*
X55873Y36291D01*
Y36624D01*
X55706Y36790D01*
X31821Y14867D02*
Y15867D01*
X31321D01*
X31155Y15700D01*
Y15367D01*
X31321Y15200D01*
X31821D01*
X31488D02*
X31155Y14867D01*
X30322D02*
Y15867D01*
X30821Y15367D01*
X30155D01*
X31821Y26551D02*
Y27551D01*
X31321D01*
X31155Y27384D01*
Y27051D01*
X31321Y26884D01*
X31821D01*
X31488D02*
X31155Y26551D01*
X30155D02*
X30821D01*
X30155Y27218D01*
Y27384D01*
X30322Y27551D01*
X30655D01*
X30821Y27384D01*
X31821Y24392D02*
Y25392D01*
X31321D01*
X31155Y25225D01*
Y24892D01*
X31321Y24725D01*
X31821D01*
X31488D02*
X31155Y24392D01*
X30821Y25225D02*
X30655Y25392D01*
X30322D01*
X30155Y25225D01*
Y25059D01*
X30322Y24892D01*
X30488D01*
X30322D01*
X30155Y24725D01*
Y24559D01*
X30322Y24392D01*
X30655D01*
X30821Y24559D01*
X22083Y38750D02*
Y39750D01*
X21583D01*
X21416Y39583D01*
Y39250D01*
X21583Y39083D01*
X22083D01*
X21749D02*
X21416Y38750D01*
X21083D02*
X20750D01*
X20916D01*
Y39750D01*
X21083Y39583D01*
X19583Y39750D02*
X20250D01*
Y39250D01*
X19917Y39417D01*
X19750D01*
X19583Y39250D01*
Y38917D01*
X19750Y38750D01*
X20083D01*
X20250Y38917D01*
X49434Y27694D02*
Y28694D01*
X48935D01*
X48768Y28527D01*
Y28194D01*
X48935Y28027D01*
X49434D01*
X49101D02*
X48768Y27694D01*
X48435D02*
X48102D01*
X48268D01*
Y28694D01*
X48435Y28527D01*
X22083Y47500D02*
Y48500D01*
X21583D01*
X21416Y48333D01*
Y48000D01*
X21583Y47833D01*
X22083D01*
X21749D02*
X21416Y47500D01*
X21083D02*
X20750D01*
X20916D01*
Y48500D01*
X21083Y48333D01*
X19750Y47500D02*
Y48500D01*
X20250Y48000D01*
X19583D01*
X32492Y67953D02*
Y68953D01*
X31992D01*
X31825Y68786D01*
Y68453D01*
X31992Y68286D01*
X32492D01*
X32158D02*
X31825Y67953D01*
X31492D02*
X31159D01*
X31325D01*
Y68953D01*
X31492Y68786D01*
X30659D02*
X30492Y68953D01*
X30159D01*
X29992Y68786D01*
Y68120D01*
X30159Y67953D01*
X30492D01*
X30659Y68120D01*
Y68786D01*
X22967Y65540D02*
Y66540D01*
X22467D01*
X22300Y66373D01*
Y66040D01*
X22467Y65873D01*
X22967D01*
X22633D02*
X22300Y65540D01*
X21967D02*
X21634D01*
X21800D01*
Y66540D01*
X21967Y66373D01*
X20467Y65540D02*
X21134D01*
X20467Y66207D01*
Y66373D01*
X20634Y66540D01*
X20967D01*
X21134Y66373D01*
X47315Y64778D02*
Y65778D01*
X46815D01*
X46649Y65611D01*
Y65278D01*
X46815Y65111D01*
X47315D01*
X46982D02*
X46649Y64778D01*
X46315Y64945D02*
X46149Y64778D01*
X45816D01*
X45649Y64945D01*
Y65611D01*
X45816Y65778D01*
X46149D01*
X46315Y65611D01*
Y65445D01*
X46149Y65278D01*
X45649D01*
X12894Y65413D02*
Y66413D01*
X12394D01*
X12228Y66246D01*
Y65913D01*
X12394Y65746D01*
X12894D01*
X12561D02*
X12228Y65413D01*
X11894D02*
X11561D01*
X11728D01*
Y66413D01*
X11894Y66246D01*
X11061Y65413D02*
X10728D01*
X10895D01*
Y66413D01*
X11061Y66246D01*
X83558Y58654D02*
X82558D01*
Y58154D01*
X82725Y57987D01*
X83058D01*
X83225Y58154D01*
Y58654D01*
Y58320D02*
X83558Y57987D01*
Y57654D02*
Y57321D01*
Y57487D01*
X82558D01*
X82725Y57654D01*
X82558Y56154D02*
X82725Y56488D01*
X83058Y56821D01*
X83391D01*
X83558Y56654D01*
Y56321D01*
X83391Y56154D01*
X83225D01*
X83058Y56321D01*
Y56821D01*
X60031Y37738D02*
X59031D01*
Y37238D01*
X59198Y37072D01*
X59531D01*
X59698Y37238D01*
Y37738D01*
Y37405D02*
X60031Y37072D01*
X59031Y36738D02*
Y36072D01*
X59198D01*
X59864Y36738D01*
X60031D01*
X57936Y37738D02*
X56936D01*
Y37238D01*
X57103Y37072D01*
X57436D01*
X57603Y37238D01*
Y37738D01*
Y37405D02*
X57936Y37072D01*
X56936Y36072D02*
X57103Y36405D01*
X57436Y36738D01*
X57769D01*
X57936Y36572D01*
Y36239D01*
X57769Y36072D01*
X57603D01*
X57436Y36239D01*
Y36738D01*
X12191Y70777D02*
Y71443D01*
X12357Y71610D01*
X12690D01*
X12857Y71443D01*
Y70777D01*
X12690Y70610D01*
X12357D01*
X12524Y70944D02*
X12191Y70610D01*
X12357D02*
X12191Y70777D01*
X11857Y70610D02*
X11524D01*
X11691D01*
Y71610D01*
X11857Y71443D01*
X52364Y28821D02*
X52697D01*
X52863Y28654D01*
Y27988D01*
X52697Y27821D01*
X52364D01*
X52197Y27988D01*
Y28654D01*
X52364Y28821D01*
X51864Y27821D02*
X51531D01*
X51697D01*
Y28821D01*
X51864Y28654D01*
X77795Y46347D02*
Y45347D01*
X77129D01*
X76296D02*
Y46347D01*
X76795Y45847D01*
X76129D01*
X4279Y46923D02*
Y45923D01*
X3612D01*
X3279Y46756D02*
X3112Y46923D01*
X2779D01*
X2613Y46756D01*
Y46590D01*
X2779Y46423D01*
X2946D01*
X2779D01*
X2613Y46256D01*
Y46090D01*
X2779Y45923D01*
X3112D01*
X3279Y46090D01*
X31821Y19550D02*
Y18550D01*
X31155D01*
X30155D02*
X30821D01*
X30155Y19217D01*
Y19383D01*
X30322Y19550D01*
X30655D01*
X30821Y19383D01*
X42933Y73196D02*
Y72196D01*
X42267D01*
X41934D02*
X41600D01*
X41767D01*
Y73196D01*
X41934Y73029D01*
X15044Y35079D02*
X15377D01*
X15210D01*
Y34246D01*
X15377Y34079D01*
X15543D01*
X15710Y34246D01*
X14211Y34079D02*
Y35079D01*
X14710Y34579D01*
X14044D01*
X33949Y45712D02*
X34282D01*
X34115D01*
Y44879D01*
X34282Y44712D01*
X34448D01*
X34615Y44879D01*
X33615Y45545D02*
X33449Y45712D01*
X33116D01*
X32949Y45545D01*
Y45379D01*
X33116Y45212D01*
X33282D01*
X33116D01*
X32949Y45045D01*
Y44879D01*
X33116Y44712D01*
X33449D01*
X33615Y44879D01*
X33949Y43045D02*
X34282D01*
X34115D01*
Y42212D01*
X34282Y42045D01*
X34448D01*
X34615Y42212D01*
X32949Y42045D02*
X33615D01*
X32949Y42712D01*
Y42878D01*
X33116Y43045D01*
X33449D01*
X33615Y42878D01*
X33655Y40251D02*
X33988D01*
X33822D01*
Y39418D01*
X33988Y39251D01*
X34155D01*
X34321Y39418D01*
X33322Y39251D02*
X32989D01*
X33155D01*
Y40251D01*
X33322Y40084D01*
X4297Y56093D02*
X4963D01*
Y55594D01*
X4630D01*
X4963D01*
Y55094D01*
X3964D02*
X3630D01*
X3797D01*
Y56093D01*
X3964Y55927D01*
X68593Y36903D02*
Y35904D01*
X68093D01*
X67927Y36070D01*
Y36737D01*
X68093Y36903D01*
X68593D01*
X66927D02*
X67260Y36737D01*
X67594Y36403D01*
Y36070D01*
X67427Y35904D01*
X67094D01*
X66927Y36070D01*
Y36237D01*
X67094Y36403D01*
X67594D01*
X46680Y70858D02*
Y69858D01*
X46180D01*
X46014Y70025D01*
Y70691D01*
X46180Y70858D01*
X46680D01*
X45014D02*
X45680D01*
Y70358D01*
X45347Y70525D01*
X45181D01*
X45014Y70358D01*
Y70025D01*
X45181Y69858D01*
X45514D01*
X45680Y70025D01*
X73580Y35766D02*
X73747Y35933D01*
X74080D01*
X74247Y35766D01*
Y35100D01*
X74080Y34933D01*
X73747D01*
X73580Y35100D01*
X72581Y34933D02*
X73247D01*
X72581Y35600D01*
Y35766D01*
X72747Y35933D01*
X73081D01*
X73247Y35766D01*
X71581Y35933D02*
X72248D01*
Y35433D01*
X71914Y35600D01*
X71748D01*
X71581Y35433D01*
Y35100D01*
X71748Y34933D01*
X72081D01*
X72248Y35100D01*
X64464Y27257D02*
X64631Y27424D01*
X64964D01*
X65131Y27257D01*
Y26591D01*
X64964Y26424D01*
X64631D01*
X64464Y26591D01*
X64131Y26424D02*
X63798D01*
X63964D01*
Y27424D01*
X64131Y27257D01*
X63298Y26591D02*
X63131Y26424D01*
X62798D01*
X62631Y26591D01*
Y27257D01*
X62798Y27424D01*
X63131D01*
X63298Y27257D01*
Y27091D01*
X63131Y26924D01*
X62631D01*
X31155Y21288D02*
X31321Y21455D01*
X31654D01*
X31821Y21288D01*
Y20622D01*
X31654Y20455D01*
X31321D01*
X31155Y20622D01*
X30821D02*
X30655Y20455D01*
X30322D01*
X30155Y20622D01*
Y21288D01*
X30322Y21455D01*
X30655D01*
X30821Y21288D01*
Y21122D01*
X30655Y20955D01*
X30155D01*
X42085Y37124D02*
X41918Y37290D01*
Y37623D01*
X42085Y37790D01*
X42751D01*
X42918Y37623D01*
Y37290D01*
X42751Y37124D01*
X42918Y36291D02*
X41918D01*
X42418Y36790D01*
Y36124D01*
X31155Y29416D02*
X31321Y29583D01*
X31654D01*
X31821Y29416D01*
Y28750D01*
X31654Y28583D01*
X31321D01*
X31155Y28750D01*
X30821Y29583D02*
X30155D01*
Y29416D01*
X30821Y28750D01*
Y28583D01*
X31155Y31321D02*
X31321Y31488D01*
X31654D01*
X31821Y31321D01*
Y30655D01*
X31654Y30488D01*
X31321D01*
X31155Y30655D01*
X30155Y31488D02*
X30488Y31321D01*
X30821Y30988D01*
Y30655D01*
X30655Y30488D01*
X30322D01*
X30155Y30655D01*
Y30821D01*
X30322Y30988D01*
X30821D01*
X46149Y37124D02*
X45982Y37290D01*
Y37623D01*
X46149Y37790D01*
X46815D01*
X46982Y37623D01*
Y37290D01*
X46815Y37124D01*
X46982Y36124D02*
Y36790D01*
X46315Y36124D01*
X46149D01*
X45982Y36291D01*
Y36624D01*
X46149Y36790D01*
X41608Y17070D02*
X41775Y16903D01*
Y16570D01*
X41608Y16403D01*
X40942D01*
X40775Y16570D01*
Y16903D01*
X40942Y17070D01*
X40775Y17403D02*
Y17736D01*
Y17570D01*
X41775D01*
X41608Y17403D01*
X40775Y18903D02*
Y18236D01*
X41442Y18903D01*
X41608D01*
X41775Y18736D01*
Y18403D01*
X41608Y18236D01*
X45672Y17070D02*
X45839Y16903D01*
Y16570D01*
X45672Y16403D01*
X45006D01*
X44839Y16570D01*
Y16903D01*
X45006Y17070D01*
X44839Y17403D02*
Y17736D01*
Y17570D01*
X45839D01*
X45672Y17403D01*
X44839Y18736D02*
X45839D01*
X45339Y18236D01*
Y18903D01*
X48414Y32006D02*
X48581Y32173D01*
X48914D01*
X49081Y32006D01*
Y31340D01*
X48914Y31173D01*
X48581D01*
X48414Y31340D01*
X48081Y31173D02*
X47748D01*
X47914D01*
Y32173D01*
X48081Y32006D01*
X52018Y20907D02*
X52185Y21074D01*
X52518D01*
X52685Y20907D01*
Y20241D01*
X52518Y20074D01*
X52185D01*
X52018Y20241D01*
X51685Y20074D02*
X51352D01*
X51518D01*
Y21074D01*
X51685Y20907D01*
X50185Y21074D02*
X50852D01*
Y20574D01*
X50519Y20741D01*
X50352D01*
X50185Y20574D01*
Y20241D01*
X50352Y20074D01*
X50685D01*
X50852Y20241D01*
X31190Y17351D02*
X31357Y17518D01*
X31690D01*
X31857Y17351D01*
Y16685D01*
X31690Y16518D01*
X31357D01*
X31190Y16685D01*
X30857Y16518D02*
X30524D01*
X30690D01*
Y17518D01*
X30857Y17351D01*
X30024D02*
X29857Y17518D01*
X29524D01*
X29357Y17351D01*
Y16685D01*
X29524Y16518D01*
X29857D01*
X30024Y16685D01*
Y17351D01*
X52018Y22812D02*
X52185Y22979D01*
X52518D01*
X52685Y22812D01*
Y22146D01*
X52518Y21979D01*
X52185D01*
X52018Y22146D01*
X51685Y21979D02*
X51352D01*
X51518D01*
Y22979D01*
X51685Y22812D01*
X50185Y22979D02*
X50519Y22812D01*
X50852Y22479D01*
Y22146D01*
X50685Y21979D01*
X50352D01*
X50185Y22146D01*
Y22312D01*
X50352Y22479D01*
X50852D01*
X43640Y17070D02*
X43807Y16903D01*
Y16570D01*
X43640Y16403D01*
X42974D01*
X42807Y16570D01*
Y16903D01*
X42974Y17070D01*
X42807Y17403D02*
Y17736D01*
Y17570D01*
X43807D01*
X43640Y17403D01*
Y18236D02*
X43807Y18403D01*
Y18736D01*
X43640Y18903D01*
X43474D01*
X43307Y18736D01*
Y18569D01*
Y18736D01*
X43140Y18903D01*
X42974D01*
X42807Y18736D01*
Y18403D01*
X42974Y18236D01*
X44117Y37124D02*
X43950Y37290D01*
Y37623D01*
X44117Y37790D01*
X44783D01*
X44950Y37623D01*
Y37290D01*
X44783Y37124D01*
X44117Y36790D02*
X43950Y36624D01*
Y36291D01*
X44117Y36124D01*
X44283D01*
X44450Y36291D01*
Y36457D01*
Y36291D01*
X44617Y36124D01*
X44783D01*
X44950Y36291D01*
Y36624D01*
X44783Y36790D01*
X31155Y23447D02*
X31321Y23614D01*
X31654D01*
X31821Y23447D01*
Y22781D01*
X31654Y22614D01*
X31321D01*
X31155Y22781D01*
X30821Y23447D02*
X30655Y23614D01*
X30322D01*
X30155Y23447D01*
Y23281D01*
X30322Y23114D01*
X30155Y22947D01*
Y22781D01*
X30322Y22614D01*
X30655D01*
X30821Y22781D01*
Y22947D01*
X30655Y23114D01*
X30821Y23281D01*
Y23447D01*
X30655Y23114D02*
X30322D01*
X39576Y17363D02*
X39743Y17197D01*
Y16864D01*
X39576Y16697D01*
X38910D01*
X38743Y16864D01*
Y17197D01*
X38910Y17363D01*
X38743Y17697D02*
Y18030D01*
Y17863D01*
X39743D01*
X39576Y17697D01*
X38743Y18530D02*
Y18863D01*
Y18696D01*
X39743D01*
X39576Y18530D01*
X56844Y28654D02*
X57011Y28821D01*
X57344D01*
X57511Y28654D01*
Y27988D01*
X57344Y27821D01*
X57011D01*
X56844Y27988D01*
X56511Y27821D02*
X56178D01*
X56344D01*
Y28821D01*
X56511Y28654D01*
X55678D02*
X55511Y28821D01*
X55178D01*
X55011Y28654D01*
Y28488D01*
X55178Y28321D01*
X55011Y28154D01*
Y27988D01*
X55178Y27821D01*
X55511D01*
X55678Y27988D01*
Y28154D01*
X55511Y28321D01*
X55678Y28488D01*
Y28654D01*
X55511Y28321D02*
X55178D01*
X56717Y22812D02*
X56884Y22979D01*
X57217D01*
X57384Y22812D01*
Y22146D01*
X57217Y21979D01*
X56884D01*
X56717Y22146D01*
X56384Y21979D02*
X56051D01*
X56217D01*
Y22979D01*
X56384Y22812D01*
X55551Y22979D02*
X54884D01*
Y22812D01*
X55551Y22146D01*
Y21979D01*
X8667Y55705D02*
X8834Y55872D01*
X9167D01*
X9334Y55705D01*
Y55039D01*
X9167Y54872D01*
X8834D01*
X8667Y55039D01*
X7668Y54872D02*
X8334D01*
X7668Y55539D01*
Y55705D01*
X7834Y55872D01*
X8168D01*
X8334Y55705D01*
X7335D02*
X7168Y55872D01*
X6835D01*
X6668Y55705D01*
Y55039D01*
X6835Y54872D01*
X7168D01*
X7335Y55039D01*
Y55705D01*
X40181Y37163D02*
X40014Y37329D01*
Y37663D01*
X40181Y37829D01*
X40847D01*
X41014Y37663D01*
Y37329D01*
X40847Y37163D01*
X40014Y36163D02*
Y36829D01*
X40514D01*
X40348Y36496D01*
Y36330D01*
X40514Y36163D01*
X40847D01*
X41014Y36330D01*
Y36663D01*
X40847Y36829D01*
X22510Y64341D02*
X22677Y64508D01*
X23010D01*
X23177Y64341D01*
Y63675D01*
X23010Y63508D01*
X22677D01*
X22510Y63675D01*
X21511Y63508D02*
X22177D01*
X21511Y64175D01*
Y64341D01*
X21677Y64508D01*
X22011D01*
X22177Y64341D01*
X20678Y63508D02*
Y64508D01*
X21178Y64008D01*
X20511D01*
X31781Y71326D02*
X31948Y71493D01*
X32281D01*
X32448Y71326D01*
Y70660D01*
X32281Y70493D01*
X31948D01*
X31781Y70660D01*
X30782Y70493D02*
X31448D01*
X30782Y71160D01*
Y71326D01*
X30948Y71493D01*
X31282D01*
X31448Y71326D01*
X29782Y70493D02*
X30449D01*
X29782Y71160D01*
Y71326D01*
X29949Y71493D01*
X30282D01*
X30449Y71326D01*
X39616Y64976D02*
X39782Y65143D01*
X40116D01*
X40282Y64976D01*
Y64310D01*
X40116Y64143D01*
X39782D01*
X39616Y64310D01*
X38616Y64143D02*
X39283D01*
X38616Y64810D01*
Y64976D01*
X38783Y65143D01*
X39116D01*
X39283Y64976D01*
X38283Y64143D02*
X37950D01*
X38116D01*
Y65143D01*
X38283Y64976D01*
X16033Y74120D02*
X16200Y74287D01*
X16533D01*
X16700Y74120D01*
Y73454D01*
X16533Y73287D01*
X16200D01*
X16033Y73454D01*
X15034Y73287D02*
X15700D01*
X15034Y73954D01*
Y74120D01*
X15200Y74287D01*
X15534D01*
X15700Y74120D01*
X14701D02*
X14534Y74287D01*
X14201D01*
X14034Y74120D01*
Y73954D01*
X14201Y73787D01*
X14367D01*
X14201D01*
X14034Y73620D01*
Y73454D01*
X14201Y73287D01*
X14534D01*
X14701Y73454D01*
D69*
X69750Y29550D02*
G03*
X69850Y29550I50J0D01*
G01*
X53400Y23950D02*
G03*
X53400Y23850I0J-50D01*
G01*
D02*
G03*
X53400Y23950I0J50D01*
G01*
X66000Y30825D02*
Y31375D01*
X70000Y30925D02*
Y31375D01*
D71*
X70992Y43934D02*
Y42934D01*
X70492Y43434D02*
X71492D01*
X17299Y14500D02*
Y13300D01*
X16499D01*
X15900D02*
X15500D01*
X15300Y13500D01*
Y13900D01*
X15500Y14100D01*
X15900D01*
X16099Y13900D01*
Y13500D01*
X15900Y13300D01*
X14700Y14100D02*
X14300D01*
X14100Y13900D01*
Y13300D01*
X14700D01*
X14900Y13500D01*
X14700Y13700D01*
X14100D01*
X12901Y14500D02*
Y13300D01*
X13500D01*
X13700Y13500D01*
Y13900D01*
X13500Y14100D01*
X12901D01*
X12501Y13900D02*
X11701D01*
X26799Y14500D02*
Y13300D01*
X25999D01*
X25400D02*
X25000D01*
X24800Y13500D01*
Y13900D01*
X25000Y14100D01*
X25400D01*
X25599Y13900D01*
Y13500D01*
X25400Y13300D01*
X24200Y14100D02*
X23800D01*
X23600Y13900D01*
Y13300D01*
X24200D01*
X24400Y13500D01*
X24200Y13700D01*
X23600D01*
X22401Y14500D02*
Y13300D01*
X23000D01*
X23200Y13500D01*
Y13900D01*
X23000Y14100D01*
X22401D01*
X22001Y13900D02*
X21201D01*
X21601Y14300D02*
Y13500D01*
X77599Y14500D02*
Y13300D01*
X76999D01*
X76799Y13500D01*
Y13700D01*
X76999Y13900D01*
X77599D01*
X76999D01*
X76799Y14100D01*
Y14300D01*
X76999Y14500D01*
X77599D01*
X76200Y14100D02*
X75800D01*
X75600Y13900D01*
Y13300D01*
X76200D01*
X76400Y13500D01*
X76200Y13700D01*
X75600D01*
X75000Y14300D02*
Y14100D01*
X75200D01*
X74800D01*
X75000D01*
Y13500D01*
X74800Y13300D01*
X74000Y14300D02*
Y14100D01*
X74200D01*
X73800D01*
X74000D01*
Y13500D01*
X73800Y13300D01*
X73201Y13900D02*
X72401D01*
X68099Y14500D02*
Y13300D01*
X67499D01*
X67299Y13500D01*
Y13700D01*
X67499Y13900D01*
X68099D01*
X67499D01*
X67299Y14100D01*
Y14300D01*
X67499Y14500D01*
X68099D01*
X66700Y14100D02*
X66300D01*
X66100Y13900D01*
Y13300D01*
X66700D01*
X66900Y13500D01*
X66700Y13700D01*
X66100D01*
X65500Y14300D02*
Y14100D01*
X65700D01*
X65300D01*
X65500D01*
Y13500D01*
X65300Y13300D01*
X64500Y14300D02*
Y14100D01*
X64700D01*
X64300D01*
X64500D01*
Y13500D01*
X64300Y13300D01*
X63701Y13900D02*
X62901D01*
X63301Y14300D02*
Y13500D01*
X73719Y71600D02*
Y72800D01*
X73319Y72400D01*
X72920Y72800D01*
Y71600D01*
X72320Y72400D02*
X71920D01*
X71720Y72200D01*
Y71600D01*
X72320D01*
X72520Y71800D01*
X72320Y72000D01*
X71720D01*
X70520Y72400D02*
X71120D01*
X71320Y72200D01*
Y71800D01*
X71120Y71600D01*
X70520D01*
X69321Y72600D02*
X69521Y72800D01*
X69920D01*
X70120Y72600D01*
Y71800D01*
X69920Y71600D01*
X69521D01*
X69321Y71800D01*
Y72200D01*
X69721D01*
X68921Y72400D02*
Y71600D01*
Y72000D01*
X68721Y72200D01*
X68521Y72400D01*
X68321D01*
X67121Y71600D02*
X67521D01*
X67721Y71800D01*
Y72200D01*
X67521Y72400D01*
X67121D01*
X66921Y72200D01*
Y72000D01*
X67721D01*
X66122Y71200D02*
X65922D01*
X65722Y71400D01*
Y72400D01*
X66322D01*
X66522Y72200D01*
Y71800D01*
X66322Y71600D01*
X65722D01*
X65122D02*
X64722D01*
X64522Y71800D01*
Y72200D01*
X64722Y72400D01*
X65122D01*
X65322Y72200D01*
Y71800D01*
X65122Y71600D01*
X64122Y72400D02*
Y71600D01*
Y72000D01*
X63922Y72200D01*
X63722Y72400D01*
X63523D01*
X72320Y73400D02*
Y74600D01*
X71720D01*
X71520Y74400D01*
Y74000D01*
X71720Y73800D01*
X72320D01*
X71920D02*
X71520Y73400D01*
X71120Y74200D02*
Y73600D01*
X70920Y73400D01*
X70320D01*
Y74200D01*
X69920Y73400D02*
X69321D01*
X69121Y73600D01*
X69321Y73800D01*
X69721D01*
X69920Y74000D01*
X69721Y74200D01*
X69121D01*
X68721Y73400D02*
X68121D01*
X67921Y73600D01*
X68121Y73800D01*
X68521D01*
X68721Y74000D01*
X68521Y74200D01*
X67921D01*
X66921Y73400D02*
X67321D01*
X67521Y73600D01*
Y74000D01*
X67321Y74200D01*
X66921D01*
X66722Y74000D01*
Y73800D01*
X67521D01*
X66322Y73400D02*
X65922D01*
X66122D01*
Y74600D01*
X66322D01*
X65322Y73400D02*
X64922D01*
X65122D01*
Y74600D01*
X65322D01*
X87375Y72500D02*
X87575Y72700D01*
X87975D01*
X88175Y72500D01*
Y72300D01*
X87975Y72100D01*
X87575D01*
X87375Y71900D01*
Y71700D01*
X87575Y71500D01*
X87975D01*
X88175Y71700D01*
X86976Y71100D02*
Y72300D01*
X86376D01*
X86176Y72100D01*
Y71700D01*
X86376Y71500D01*
X86976D01*
X85776Y72300D02*
Y71500D01*
Y71900D01*
X85576Y72100D01*
X85376Y72300D01*
X85176D01*
X84576Y71500D02*
X84177D01*
X84376D01*
Y72300D01*
X84576D01*
X83577Y71500D02*
Y72300D01*
X82977D01*
X82777Y72100D01*
Y71500D01*
X81977Y71100D02*
X81777D01*
X81577Y71300D01*
Y72300D01*
X82177D01*
X82377Y72100D01*
Y71700D01*
X82177Y71500D01*
X81577D01*
X79778Y72900D02*
Y72500D01*
X79978Y72300D01*
X78378Y71500D02*
X79178D01*
X78378Y72300D01*
Y72500D01*
X78578Y72700D01*
X78978D01*
X79178Y72500D01*
X77179Y72700D02*
X77979D01*
Y72100D01*
X77579Y72300D01*
X77379D01*
X77179Y72100D01*
Y71700D01*
X77379Y71500D01*
X77779D01*
X77979Y71700D01*
X84177Y73400D02*
Y74600D01*
X83777Y74200D01*
X83377Y74600D01*
Y73400D01*
X82977Y74600D02*
X82577D01*
X82777D01*
Y73400D01*
X82977D01*
X82577D01*
X81977Y74600D02*
Y73400D01*
X81177D01*
D74*
X40275Y71650D02*
G03*
X40275Y71650I-125J0D01*
G01*
X84750Y21950D02*
Y20750D01*
X84150D01*
X83950Y20950D01*
Y21750D01*
X84150Y21950D01*
X84750D01*
X83550Y20750D02*
X83151D01*
X83350D01*
Y21550D01*
X83550D01*
X82551Y20750D02*
Y21550D01*
X82351D01*
X82151Y21350D01*
Y20750D01*
Y21350D01*
X81951Y21550D01*
X81751Y21350D01*
Y20750D01*
X84750Y23750D02*
Y22550D01*
X84150D01*
X83950Y22750D01*
Y22950D01*
X84150Y23150D01*
X84750D01*
X84150D01*
X83950Y23350D01*
Y23550D01*
X84150Y23750D01*
X84750D01*
X83350Y22550D02*
X82951D01*
X82751Y22750D01*
Y23150D01*
X82951Y23350D01*
X83350D01*
X83550Y23150D01*
Y22750D01*
X83350Y22550D01*
X82151Y23350D02*
X81751D01*
X81551Y23150D01*
Y22550D01*
X82151D01*
X82351Y22750D01*
X82151Y22950D01*
X81551D01*
X81151Y23350D02*
Y22550D01*
Y22950D01*
X80951Y23150D01*
X80751Y23350D01*
X80551D01*
X79152Y23750D02*
Y22550D01*
X79752D01*
X79952Y22750D01*
Y23150D01*
X79752Y23350D01*
X79152D01*
X87750Y20326D02*
X87950Y20526D01*
Y20926D01*
X87750Y21126D01*
X87550D01*
X87350Y20926D01*
X87150Y21126D01*
X86950D01*
X86750Y20926D01*
Y20526D01*
X86950Y20326D01*
X87150D01*
X87350Y20526D01*
X87550Y20326D01*
X87750D01*
X87350Y20526D02*
Y20926D01*
X86750Y22325D02*
Y21526D01*
X87550Y22325D01*
X87750D01*
X87950Y22125D01*
Y21726D01*
X87750Y21526D01*
X86750Y22725D02*
X86950D01*
Y22925D01*
X86750D01*
Y22725D01*
X87950Y24525D02*
Y23725D01*
X87350D01*
X87550Y24125D01*
Y24325D01*
X87350Y24525D01*
X86950D01*
X86750Y24325D01*
Y23925D01*
X86950Y23725D01*
X86750Y24925D02*
X87550D01*
Y25125D01*
X87350Y25324D01*
X86750D01*
X87350D01*
X87550Y25524D01*
X87350Y25724D01*
X86750D01*
Y26124D02*
X87550D01*
Y26324D01*
X87350Y26524D01*
X86750D01*
X87350D01*
X87550Y26724D01*
X87350Y26924D01*
X86750D01*
X84074Y17750D02*
X83874Y17550D01*
X83474D01*
X83275Y17750D01*
Y18550D01*
X83474Y18750D01*
X83874D01*
X84074Y18550D01*
Y18350D01*
X83874Y18150D01*
X83275D01*
X82875Y18750D02*
X82075D01*
Y18550D01*
X82875Y17750D01*
Y17550D01*
X81675D02*
Y18350D01*
X81475D01*
X81275Y18150D01*
Y17550D01*
Y18150D01*
X81075Y18350D01*
X80875Y18150D01*
Y17550D01*
X80475D02*
Y18350D01*
X80276D01*
X80076Y18150D01*
Y17550D01*
Y18150D01*
X79876Y18350D01*
X79676Y18150D01*
Y17550D01*
X85250Y3900D02*
Y5100D01*
X84850Y4700D01*
X84450Y5100D01*
Y3900D01*
X84050Y4900D02*
X83850Y5100D01*
X83451D01*
X83251Y4900D01*
Y4700D01*
X83451Y4500D01*
X83651D01*
X83451D01*
X83251Y4300D01*
Y4100D01*
X83451Y3900D01*
X83850D01*
X84050Y4100D01*
X82851Y3900D02*
Y4100D01*
X82651D01*
Y3900D01*
X82851D01*
X81051Y5100D02*
X81851D01*
Y4500D01*
X81451Y4700D01*
X81251D01*
X81051Y4500D01*
Y4100D01*
X81251Y3900D01*
X81651D01*
X81851Y4100D01*
D75*
X5950Y48235D02*
G03*
X5950Y48235I-127J0D01*
G01*
D76*
X78380Y42220D02*
Y43280D01*
X75620Y42220D02*
Y43280D01*
X2611Y42349D02*
Y45651D01*
X56780Y33900D02*
Y34100D01*
X60220Y33900D02*
Y34100D01*
X58780Y33900D02*
Y34100D01*
X58220Y33900D02*
Y34100D01*
X2611Y45651D02*
X4389D01*
X38500Y23500D02*
X38770D01*
X45230D02*
X45500D01*
X45230Y30500D02*
X45500D01*
X4389Y42349D02*
Y45651D01*
X2611Y42349D02*
X4389D01*
X66367Y37990D02*
X66717D01*
X66367D02*
Y43290D01*
X66717D01*
X68917D02*
X69267D01*
X68917Y37990D02*
X69267D01*
Y43290D01*
X66720Y24199D02*
Y24399D01*
X65280Y24199D02*
Y24399D01*
X45500Y30230D02*
Y30500D01*
X29390Y40650D02*
X32610D01*
X13850Y35850D02*
X15650D01*
X13850Y39150D02*
X15650D01*
X29350Y38850D02*
X32650D01*
X18450Y67450D02*
X21550D01*
X29350Y38850D02*
Y40650D01*
X32650Y38850D02*
Y40650D01*
X15650Y35850D02*
Y39150D01*
X29390Y43400D02*
X32610D01*
X33650Y15720D02*
X33850D01*
X33650Y14280D02*
X33850D01*
X29350Y41600D02*
X32650D01*
X13850Y35890D02*
Y39110D01*
X29350Y42720D02*
Y43400D01*
Y41600D02*
Y42280D01*
X32650Y41600D02*
Y43400D01*
X24220Y47900D02*
Y48100D01*
X22780Y47900D02*
Y48100D01*
X34140Y69220D02*
X34340D01*
X41450Y70585D02*
X43050D01*
X41450Y71915D02*
X43050D01*
X34140Y67780D02*
X34340D01*
X14715Y71450D02*
X15400D01*
X14900Y65280D02*
X15100D01*
X18450Y70550D02*
X21550D01*
X14900Y66720D02*
X15100D01*
X15400Y68550D02*
Y69280D01*
Y70720D02*
Y71450D01*
X14715Y68550D02*
X15400D01*
X5700Y46080D02*
X7300D01*
X33175Y18335D02*
X34775D01*
X33175Y19665D02*
X34775D01*
X5700Y44420D02*
X7300D01*
X5700Y41920D02*
X7300D01*
X5700Y43580D02*
X7300D01*
X33650Y26280D02*
X33850D01*
X33650Y27720D02*
X33850D01*
X33650Y24280D02*
X33850D01*
X24220Y39150D02*
Y39350D01*
X22780Y39150D02*
Y39350D01*
X33650Y25720D02*
X33850D01*
X34400Y13020D02*
X34600D01*
X34400Y11580D02*
X34600D01*
X49870Y45030D02*
X50070D01*
X30900Y11580D02*
X31100D01*
X30900Y13020D02*
X31100D01*
X56220Y33900D02*
Y34100D01*
X54780Y33900D02*
Y34100D01*
X38500Y23500D02*
Y23770D01*
X45500Y23500D02*
Y23770D01*
X48030Y25650D02*
Y25850D01*
X49470Y25650D02*
Y25850D01*
X43280Y65140D02*
Y65340D01*
X44720Y65140D02*
Y65340D01*
X74720Y53400D02*
Y53600D01*
X73280Y53400D02*
Y53600D01*
X83720Y53400D02*
Y53600D01*
X77780Y53400D02*
Y53600D01*
X79220Y53400D02*
Y53600D01*
X18475Y66720D02*
X18675D01*
X18475Y65280D02*
X18675D01*
X2622Y50335D02*
Y52535D01*
X5823Y50335D02*
Y52535D01*
X29350Y44350D02*
X32650D01*
Y46150D01*
X29350Y45470D02*
Y46150D01*
Y44350D02*
Y45030D01*
X29390Y46150D02*
X32610D01*
X49870Y43590D02*
X50070D01*
X68780Y53400D02*
Y53600D01*
X70220Y53400D02*
Y53600D01*
X82280Y53400D02*
Y53600D01*
D77*
X8886Y28000D02*
X8219D01*
X8553Y28333D02*
Y27667D01*
X7220Y28500D02*
X7886D01*
Y28000D01*
X7553Y28167D01*
X7386D01*
X7220Y28000D01*
Y27667D01*
X7386Y27500D01*
X7720D01*
X7886Y27667D01*
X6886Y28500D02*
Y27833D01*
X6553Y27500D01*
X6220Y27833D01*
Y28500D01*
X8886Y22920D02*
X8219D01*
X8553Y23253D02*
Y22587D01*
X7220Y23420D02*
X7886D01*
Y22920D01*
X7553Y23087D01*
X7386D01*
X7220Y22920D01*
Y22587D01*
X7386Y22420D01*
X7720D01*
X7886Y22587D01*
X6886Y23420D02*
Y22753D01*
X6553Y22420D01*
X6220Y22753D01*
Y23420D01*
X8219Y13093D02*
X8386Y13260D01*
X8719D01*
X8886Y13093D01*
Y12427D01*
X8719Y12260D01*
X8386D01*
X8219Y12427D01*
Y12760D01*
X8553D01*
X7886Y12260D02*
Y13260D01*
X7220Y12260D01*
Y13260D01*
X6886D02*
Y12260D01*
X6387D01*
X6220Y12427D01*
Y13093D01*
X6387Y13260D01*
X6886D01*
X8219Y18173D02*
X8386Y18340D01*
X8719D01*
X8886Y18173D01*
Y17507D01*
X8719Y17340D01*
X8386D01*
X8219Y17507D01*
Y17840D01*
X8553D01*
X7886Y17340D02*
Y18340D01*
X7220Y17340D01*
Y18340D01*
X6886D02*
Y17340D01*
X6387D01*
X6220Y17507D01*
Y18173D01*
X6387Y18340D01*
X6886D01*
X8219Y59253D02*
X8386Y59420D01*
X8719D01*
X8886Y59253D01*
Y58587D01*
X8719Y58420D01*
X8386D01*
X8219Y58587D01*
Y58920D01*
X8553D01*
X7886Y58420D02*
Y59420D01*
X7220Y58420D01*
Y59420D01*
X6886D02*
Y58420D01*
X6387D01*
X6220Y58587D01*
Y59253D01*
X6387Y59420D01*
X6886D01*
X9885Y64000D02*
X9219D01*
X9552Y64333D02*
Y63667D01*
X8886Y64333D02*
X8719Y64500D01*
X8386D01*
X8219Y64333D01*
Y64167D01*
X8386Y64000D01*
X8553D01*
X8386D01*
X8219Y63833D01*
Y63667D01*
X8386Y63500D01*
X8719D01*
X8886Y63667D01*
X7886Y64500D02*
Y63833D01*
X7553Y63500D01*
X7220Y63833D01*
Y64500D01*
X6886Y64333D02*
X6720Y64500D01*
X6387D01*
X6220Y64333D01*
Y64167D01*
X6387Y64000D01*
X6553D01*
X6387D01*
X6220Y63833D01*
Y63667D01*
X6387Y63500D01*
X6720D01*
X6886Y63667D01*
X89780Y58500D02*
X89114D01*
X89447D01*
Y57500D01*
X88780Y58500D02*
X88114Y57500D01*
Y58500D02*
X88780Y57500D01*
X87781Y58500D02*
Y57500D01*
X87281D01*
X87114Y57667D01*
Y58333D01*
X87281Y58500D01*
X87781D01*
X89780Y60040D02*
Y61040D01*
X89280D01*
X89114Y60873D01*
Y60540D01*
X89280Y60373D01*
X89780D01*
X89447D02*
X89114Y60040D01*
X88780Y61040D02*
X88114Y60040D01*
Y61040D02*
X88780Y60040D01*
X87781Y61040D02*
Y60040D01*
X87281D01*
X87114Y60207D01*
Y60873D01*
X87281Y61040D01*
X87781D01*
X89114Y63413D02*
X89280Y63580D01*
X89613D01*
X89780Y63413D01*
Y62747D01*
X89613Y62580D01*
X89280D01*
X89114Y62747D01*
Y63080D01*
X89447D01*
X88780Y62580D02*
Y63580D01*
X88114Y62580D01*
Y63580D01*
X87781D02*
Y62580D01*
X87281D01*
X87114Y62747D01*
Y63413D01*
X87281Y63580D01*
X87781D01*
%TF.MD5,4200a5c740aebb0a1c1c58ce8f20a540*%
M02*
