%TF.GenerationSoftware,Altium Limited,Altium Designer,25.2.1 (25)*%
G04 Layer_Physical_Order=1*
G04 Layer_Color=255*
%FSLAX43Y43*%
%MOMM*%
%TF.SameCoordinates,14BE83A4-B3EB-4770-8DB1-726BE69DDD70*%
%TF.FilePolarity,Positive*%
%TF.FileFunction,Copper,L1,Top,Signal*%
%TF.Part,Single*%
G01*
G75*
%TA.AperFunction,NonConductor*%
%ADD10C,0.203*%
%TA.AperFunction,Conductor*%
%ADD11C,0.203*%
%ADD12C,0.250*%
%ADD13C,0.200*%
%ADD14C,0.300*%
%ADD15C,0.400*%
%TA.AperFunction,ComponentPad*%
%ADD16C,1.500*%
%ADD17R,1.500X1.500*%
%ADD18C,1.524*%
%ADD19R,1.524X1.524*%
%ADD20C,2.300*%
%ADD21C,1.200*%
%ADD22R,1.200X1.200*%
%ADD23C,2.400*%
%ADD24C,1.325*%
%ADD25C,1.800*%
%ADD26C,2.000*%
%ADD27C,1.425*%
%ADD28C,2.250*%
%ADD29R,1.408X1.408*%
%ADD30C,3.316*%
%ADD31C,1.408*%
%TA.AperFunction,ViaPad*%
%ADD32C,6.000*%
%TA.AperFunction,ComponentPad*%
%ADD33R,1.425X1.425*%
%ADD34R,2.250X2.250*%
%TA.AperFunction,ViaPad*%
%ADD35C,0.550*%
G36*
X28750Y6250D02*
X32400D01*
Y1500D01*
X19500D01*
Y12290D01*
X28750D01*
Y6250D01*
D02*
G37*
G36*
X47000Y14434D02*
X46801Y14352D01*
X46560Y14191D01*
X46354Y13985D01*
X46193Y13744D01*
X46082Y13475D01*
X46025Y13190D01*
Y12900D01*
X46082Y12615D01*
X46193Y12346D01*
X46354Y12105D01*
X46560Y11899D01*
X46801Y11738D01*
X47000Y11656D01*
Y6344D01*
X46801Y6262D01*
X46560Y6101D01*
X46354Y5895D01*
X46193Y5654D01*
X46082Y5385D01*
X46025Y5100D01*
Y4810D01*
X46082Y4525D01*
X46193Y4256D01*
X46354Y4015D01*
X46560Y3809D01*
X46801Y3648D01*
X47000Y3566D01*
Y1500D01*
X32800D01*
Y6250D01*
X38500D01*
Y16400D01*
X47000D01*
Y14434D01*
D02*
G37*
G36*
X56500Y12290D02*
X70040D01*
Y3210D01*
X56500D01*
Y1500D01*
X48000D01*
Y3566D01*
X48199Y3648D01*
X48440Y3809D01*
X48646Y4015D01*
X48807Y4256D01*
X48918Y4525D01*
X48975Y4810D01*
Y5100D01*
X48918Y5385D01*
X48807Y5654D01*
X48646Y5895D01*
X48440Y6101D01*
X48199Y6262D01*
X48000Y6344D01*
Y11656D01*
X48199Y11738D01*
X48440Y11899D01*
X48646Y12105D01*
X48807Y12346D01*
X48918Y12615D01*
X48975Y12900D01*
Y13190D01*
X48918Y13475D01*
X48807Y13744D01*
X48646Y13985D01*
X48440Y14191D01*
X48199Y14352D01*
X48000Y14434D01*
Y16400D01*
X56500D01*
Y12290D01*
D02*
G37*
D10*
X96345Y75440D02*
X96521Y75745D01*
X96391Y75519D02*
X96521Y75389D01*
X96442Y75608D02*
X96521Y75687D01*
X95978Y74960D02*
X96337Y75428D01*
X95747Y74727D02*
X96521Y73952D01*
X95366Y74389D02*
X96521Y73234D01*
X96088Y75104D02*
X96521Y74671D01*
X95551Y74532D02*
X95968Y74949D01*
X95072Y74163D02*
X95540Y74522D01*
X94550Y73860D02*
X95060Y74155D01*
X89940Y74155D02*
X90450Y73860D01*
X90463Y73854D02*
X91008Y73628D01*
X81268Y82021D02*
X96521Y66768D01*
X89571Y74437D02*
X96521Y67486D01*
X94947Y74090D02*
X96521Y72515D01*
X93992Y73628D02*
X94537Y73854D01*
X93408Y73471D02*
X93978Y73623D01*
X92809Y73391D02*
X93394Y73468D01*
X92500Y73390D02*
X92795Y73390D01*
X93410Y73471D02*
X96521Y70360D01*
X92773Y73390D02*
X96521Y69642D01*
X94486Y73833D02*
X96521Y71797D01*
X93977Y73623D02*
X96521Y71078D01*
X92033Y73412D02*
X96521Y68923D01*
X92205Y73390D02*
X92500D01*
X91022Y73623D02*
X91592Y73471D01*
X91606Y73468D02*
X92191Y73391D01*
X91132Y73594D02*
X96521Y68205D01*
X91965Y61792D02*
X96521Y66348D01*
X91374Y61792D02*
X92626D01*
X89889Y82021D02*
X90019Y81891D01*
X89940Y81845D02*
X90245Y82021D01*
X89171D02*
X89604Y81588D01*
X89460Y81478D02*
X89928Y81837D01*
X88452Y82021D02*
X89227Y81247D01*
X89032Y81051D02*
X89449Y81468D01*
X87015Y82021D02*
X88590Y80447D01*
X87734Y82021D02*
X88889Y80866D01*
X85578Y82021D02*
X88123Y79477D01*
X86297Y82021D02*
X88333Y79986D01*
X84142Y82021D02*
X87890Y78273D01*
X84860Y82021D02*
X87971Y78910D01*
X82705Y82021D02*
X88094Y76632D01*
X81986Y82021D02*
X88937Y75071D01*
X83423Y82021D02*
X87912Y77533D01*
X88663Y80572D02*
X89022Y81040D01*
X88360Y75950D02*
X88655Y75440D01*
X88360Y80050D02*
X88655Y80560D01*
X88128Y76508D02*
X88354Y75963D01*
X89032Y74949D02*
X89449Y74532D01*
X89460Y74522D02*
X89928Y74163D01*
X88663Y75428D02*
X89022Y74960D01*
X88128Y79492D02*
X88354Y80037D01*
X87971Y78908D02*
X88123Y79478D01*
X87891Y78309D02*
X87968Y78894D01*
X87890Y78295D02*
X87890Y78000D01*
X87891Y77691D02*
X87968Y77106D01*
X87971Y77092D02*
X88123Y76522D01*
X87890Y77705D02*
Y78000D01*
X93252Y60923D02*
X96521Y64192D01*
X93635Y60588D02*
X96521Y63474D01*
X92655Y61763D02*
X96521Y65629D01*
X93014Y61403D02*
X96521Y64911D01*
X87190Y58453D02*
X96521Y67785D01*
X87908Y58453D02*
X96521Y67066D01*
X86472Y58453D02*
X96521Y68503D01*
X93994Y60229D02*
X96521Y62756D01*
X82880Y58453D02*
X96521Y72095D01*
X83598Y58453D02*
X96521Y71377D01*
X81443Y58453D02*
X96521Y73532D01*
X82161Y58453D02*
X96521Y72813D01*
X85035Y58453D02*
X96521Y69940D01*
X85753Y58453D02*
X96521Y69221D01*
X84316Y58453D02*
X96521Y70658D01*
X95195Y58556D02*
X96521Y59882D01*
X95195Y57837D02*
X96521Y59164D01*
X95195Y58574D02*
Y59028D01*
Y58574D02*
Y59028D01*
Y58755D02*
X96521Y57429D01*
X95195Y58036D02*
X96521Y56710D01*
X95195Y57631D02*
Y58574D01*
X94713Y59510D02*
X96521Y61319D01*
X95072Y59151D02*
X96521Y60600D01*
X94354Y59869D02*
X96521Y62037D01*
X93658Y60565D02*
X94969Y59254D01*
X95195Y59028D01*
X92403Y54327D02*
X96521Y58445D01*
X94969Y59254D02*
X95195Y59028D01*
X93252Y60791D02*
X93431D01*
X93658Y60565D01*
X93252Y60791D02*
Y61166D01*
Y60791D02*
X93431D01*
X93100Y59763D02*
X94289Y58574D01*
X92925Y59588D02*
X94289Y58224D01*
X93431Y60791D02*
X93658Y60565D01*
X92822Y59056D02*
X93314Y59549D01*
X92626Y61792D02*
X93252Y61166D01*
X90748Y59914D02*
X91374Y59288D01*
X90748Y61166D02*
X91374Y61792D01*
X90748Y59914D02*
Y61166D01*
X89345Y58453D02*
X90777Y59885D01*
X92626Y59288D02*
X93100Y59763D01*
X88627Y58453D02*
X90748Y60575D01*
X93252Y58049D02*
X94033Y58830D01*
X94289Y57631D02*
Y58574D01*
X92626Y59252D02*
X93252Y58626D01*
X93181Y58697D02*
X93674Y59189D01*
X93252Y58543D02*
X94226Y57568D01*
X93252Y57825D02*
X93867Y57209D01*
X93252Y57374D02*
Y58626D01*
X91374Y59252D02*
X92626D01*
X92543D02*
X93252Y58543D01*
X91374Y59288D02*
X92626D01*
X90748Y58626D02*
X91374Y59252D01*
X90064Y58453D02*
X91137Y59526D01*
X92254Y56333D02*
X94289Y58368D01*
X90748Y58453D02*
Y58626D01*
X71210Y82021D02*
X91440Y61792D01*
X71928Y82021D02*
X92158Y61792D01*
X69773Y82021D02*
X90748Y61046D01*
X70492Y82021D02*
X91048Y61465D01*
X67618Y82021D02*
X90881Y58758D01*
X68336Y82021D02*
X91240Y59118D01*
X62589Y82021D02*
X86157Y58453D01*
X69055Y82021D02*
X90748Y60328D01*
X58997Y82021D02*
X82565Y58453D01*
X59715Y82021D02*
X83284Y58453D01*
X57560Y82021D02*
X81128Y58453D01*
X58278Y82021D02*
X81847Y58453D01*
X61152Y82021D02*
X84720Y58453D01*
X61871Y82021D02*
X85439Y58453D01*
X60434Y82021D02*
X84002Y58453D01*
X79113Y82021D02*
X96521Y64613D01*
X78394Y82021D02*
X96521Y63894D01*
X80550Y82021D02*
X96521Y66050D01*
X79831Y82021D02*
X96521Y65331D01*
X80006Y58453D02*
X96521Y74969D01*
X80724Y58453D02*
X96521Y74250D01*
X77676Y82021D02*
X96521Y63176D01*
X76957Y82021D02*
X96521Y62457D01*
X74802Y82021D02*
X96521Y60302D01*
X74084Y82021D02*
X96521Y59584D01*
X76239Y82021D02*
X96521Y61739D01*
X75521Y82021D02*
X96521Y61021D01*
X73365Y82021D02*
X96521Y58865D01*
X75695Y58453D02*
X90911Y73669D01*
X63295Y73413D02*
X78255Y58453D01*
X62367Y76017D02*
X68371Y82021D01*
X63024Y75956D02*
X69090Y82021D01*
X60930Y76017D02*
X66935Y82021D01*
X61648Y76017D02*
X67653Y82021D01*
X63952Y74728D02*
X71245Y82021D01*
X60753Y73081D02*
X75381Y58453D01*
X63384Y75597D02*
X69808Y82021D01*
X63743Y75238D02*
X70527Y82021D01*
X50490Y60548D02*
X71964Y82021D01*
X50490Y59829D02*
X72682Y82021D01*
X59493Y76017D02*
X65498Y82021D01*
X60211Y76017D02*
X66216Y82021D01*
X59316Y73081D02*
X73944Y58453D01*
X60034Y73081D02*
X74662Y58453D01*
X50490Y59111D02*
X73400Y82021D01*
X58939Y72740D02*
X73226Y58453D01*
X58580Y72381D02*
X72507Y58453D01*
X58221Y72021D02*
X71789Y58453D01*
X57861Y71662D02*
X71070Y58453D01*
X62190Y73081D02*
X76818Y58453D01*
X62908Y73081D02*
X77536Y58453D01*
X61471Y73081D02*
X76099Y58453D01*
X56425Y70225D02*
X68197Y58453D01*
X56065Y69866D02*
X67478Y58453D01*
X55706Y69507D02*
X66760Y58453D01*
X55347Y69148D02*
X66041Y58453D01*
X57502Y71303D02*
X70352Y58453D01*
X57143Y70944D02*
X69634Y58453D01*
X56784Y70584D02*
X68915Y58453D01*
X66356D02*
X89924Y82021D01*
X66900D02*
X90468Y58453D01*
X66181Y82021D02*
X89749Y58453D01*
X67074D02*
X88139Y79518D01*
X72647Y82021D02*
X96521Y58147D01*
X69230Y58453D02*
X87958Y77182D01*
X67793Y58453D02*
X87928Y78588D01*
X68511Y58453D02*
X87890Y77832D01*
X65463Y82021D02*
X89031Y58453D01*
X65637D02*
X89206Y82021D01*
X64026D02*
X87594Y58453D01*
X64744Y82021D02*
X88312Y58453D01*
X56840Y51092D02*
X87769Y82021D01*
X56840Y50374D02*
X88487Y82021D01*
X56840Y51811D02*
X87050Y82021D01*
X76414Y58453D02*
X91465Y73505D01*
X77132Y58453D02*
X92084Y73405D01*
X74258Y58453D02*
X89953Y74148D01*
X74977Y58453D02*
X90408Y73885D01*
X79287Y58453D02*
X94892Y74058D01*
X78569Y58453D02*
X93652Y73536D01*
X77851Y58453D02*
X92787Y73390D01*
X71385Y58453D02*
X88551Y75620D01*
X65847Y58453D02*
X90748D01*
X69948D02*
X88101Y76606D01*
X70666Y58453D02*
X88302Y76089D01*
X72822Y58453D02*
X89174Y74806D01*
X73540Y58453D02*
X89544Y74457D01*
X72103Y58453D02*
X88843Y75193D01*
X55900Y55900D02*
X82021Y82021D01*
X56618Y55900D02*
X82740Y82021D01*
X53744Y55900D02*
X79866Y82021D01*
X55900Y55900D02*
X82021Y82021D01*
X54793Y55511D02*
X81303Y82021D01*
X57336Y55900D02*
X83458Y82021D01*
X52422Y55295D02*
X79148Y82021D01*
X54434Y55871D02*
X80585Y82021D01*
X50490Y56955D02*
X75556Y82021D01*
X50490Y56237D02*
X76274Y82021D01*
X50490Y58392D02*
X74119Y82021D01*
X50490Y57674D02*
X74837Y82021D01*
X51589Y55900D02*
X77711Y82021D01*
X52086Y55678D02*
X78429Y82021D01*
X50871Y55900D02*
X76992Y82021D01*
X63952Y74911D02*
X80410Y58453D01*
X63952Y74193D02*
X79691Y58453D01*
X63654Y73772D02*
X78973Y58453D01*
X65393D02*
X65847D01*
X65167Y58227D02*
X65393Y58453D01*
X65847D01*
X65167Y58227D02*
X65393Y58453D01*
X57502Y54628D02*
X84895Y82021D01*
X63307D02*
X86876Y58453D01*
X57502Y55346D02*
X84177Y82021D01*
X54988Y68788D02*
X65358Y58418D01*
X57502Y53909D02*
X85614Y82021D01*
X56840Y52529D02*
X86332Y82021D01*
X57304Y50364D02*
X65167Y58227D01*
X94969Y56951D02*
X95195Y57177D01*
X94969Y56951D02*
X95195Y57177D01*
Y57631D01*
Y57177D02*
Y57631D01*
Y57318D02*
X96521Y55992D01*
X94906Y56888D02*
X96521Y55273D01*
X93118Y57240D02*
X93508Y56850D01*
X93671Y55653D02*
X94969Y56951D01*
X90748Y57454D02*
X91454Y56748D01*
X92626D02*
X93252Y57374D01*
X90748D02*
X91374Y56748D01*
X90692Y56926D02*
X90944Y57178D01*
X92973Y56333D02*
X94289Y57649D01*
X92991Y56333D02*
X94289Y57631D01*
X90072Y57547D02*
X91286Y56333D01*
X92758Y56881D02*
X93149Y56491D01*
X92173Y56748D02*
X92588Y56333D01*
X91454Y56748D02*
X91869Y56333D01*
X91536D02*
X91951Y56748D01*
X93445Y55427D02*
X93671Y55653D01*
X93445Y55427D02*
X93671Y55653D01*
X92991Y55427D02*
X93445D01*
X92991D02*
X93445D01*
X91374Y56748D02*
X92626D01*
X91286Y56333D02*
X92991D01*
X91052Y56567D02*
X91303Y56819D01*
X90606Y55653D02*
X90832Y55427D01*
X91286D01*
X92991D01*
X90832D02*
X91286D01*
X90656Y57547D02*
X90748Y57454D01*
Y57374D02*
Y57547D01*
X90333Y57286D02*
X90594Y57547D01*
X90072D02*
X90748D01*
X83627Y55608D02*
X85096Y57078D01*
X89181D02*
X90606Y55653D01*
X82708Y56127D02*
X83659Y57078D01*
X83370Y56070D02*
X84378Y57078D01*
X81785D02*
X82736Y56127D01*
X78820Y56338D02*
X78953Y56205D01*
X78727Y56432D02*
X78820Y56338D01*
X78953Y56205D01*
X79127Y55419D02*
X80786Y57078D01*
X81067D02*
X82373Y55771D01*
X78957Y55968D02*
X80067Y57078D01*
X83627Y55187D02*
Y55813D01*
X90606Y55653D02*
X90832Y55427D01*
X82687Y56127D02*
X83313D01*
X83627Y55813D01*
X83313Y54873D02*
X83627Y55187D01*
X82687Y54873D02*
X83313D01*
X82373Y55187D02*
X82687Y54873D01*
X82373Y55813D02*
X82687Y56127D01*
X78953Y55972D02*
X79127Y55798D01*
X78953Y55972D02*
Y56205D01*
Y55972D02*
Y56205D01*
X82373Y55792D02*
X82708Y56127D01*
X82373Y55187D02*
Y55813D01*
X79127Y55172D02*
Y55798D01*
X93840Y54327D02*
X96521Y57008D01*
X94477Y54245D02*
X96521Y56290D01*
X93121Y54327D02*
X96521Y57727D01*
X94547Y56529D02*
X96521Y54555D01*
X93829Y55811D02*
X96521Y53118D01*
X93469Y55452D02*
X96521Y52400D01*
X94188Y56170D02*
X96521Y53836D01*
X94477Y53527D02*
X96521Y55571D01*
X85377Y57078D02*
X96521Y45934D01*
X92057Y55427D02*
X93158Y54327D01*
X91339Y55427D02*
X92439Y54327D01*
X91685D02*
X92785Y55427D01*
X83941Y57078D02*
X96521Y44497D01*
X83222Y57078D02*
X96521Y43778D01*
X84659Y57078D02*
X96521Y45215D01*
X94477Y52090D02*
X96521Y54135D01*
X94477Y53726D02*
X96521Y51681D01*
X94477Y52808D02*
X96521Y54853D01*
X94477Y51373D02*
Y54327D01*
Y52289D02*
X96521Y50244D01*
X94477Y51571D02*
X96521Y49526D01*
X94477Y53008D02*
X96521Y50963D01*
X91523Y51373D02*
X94477D01*
X93955D02*
X96521Y48807D01*
X92776Y55427D02*
X93876Y54327D01*
X91523D02*
X94477D01*
X92519Y51373D02*
X96521Y47371D01*
X91800Y51373D02*
X96521Y46652D01*
X93237Y51373D02*
X96521Y48089D01*
X86814Y57078D02*
X91523Y52369D01*
X88969Y57078D02*
X91721Y54327D01*
X88251Y57078D02*
X91523Y53805D01*
X87533Y57078D02*
X91523Y53087D01*
X86096Y57078D02*
X91523Y51650D01*
X84102Y49617D02*
X90372Y55887D01*
X83850Y50803D02*
X89653Y56606D01*
X84102Y50336D02*
X90012Y56247D01*
X82712Y51102D02*
X88688Y57078D01*
X79127Y55426D02*
X83451Y51102D01*
X78813Y54858D02*
X79127Y55172D01*
X78895Y54940D02*
X82732Y51102D01*
X79602Y50146D02*
X86533Y57078D01*
X83431Y51102D02*
X89294Y56965D01*
X79445Y50708D02*
X85815Y57078D01*
X91523Y51373D02*
Y54327D01*
Y54165D02*
X91685Y54327D01*
X82449Y51102D02*
X83551D01*
X84102Y50551D01*
Y49449D02*
Y50551D01*
X83551Y48898D02*
X84102Y49449D01*
X82449Y48898D02*
X83551D01*
X79085Y51067D02*
X82892Y54873D01*
X81898Y50551D02*
X82449Y51102D01*
X79051D02*
X79602Y50551D01*
Y49449D02*
Y50551D01*
X81898Y49449D02*
Y50551D01*
Y49449D02*
X82449Y48898D01*
X79051D02*
X79602Y49449D01*
X78715Y56444D02*
X79349Y57078D01*
X78081D02*
X89181D01*
X78356Y56803D02*
X78630Y57078D01*
X78594Y56565D02*
X78727Y56432D01*
X78727D02*
X78820Y56338D01*
X78727Y56432D02*
X78820Y56338D01*
X78594Y56565D02*
X78727Y56432D01*
X78594Y56565D02*
X78727Y56432D01*
X78081Y57078D02*
X78594Y56565D01*
X77229Y56570D02*
X77914Y55885D01*
X74087Y56127D02*
X74530Y56570D01*
X73610D02*
X77229D01*
X74627Y55229D02*
X75967Y56570D01*
X76546D02*
X77873Y55242D01*
X74559Y55880D02*
X75249Y56570D01*
X78727Y56432D02*
X78820Y56338D01*
X77873Y55172D02*
X78187Y54858D01*
X77873Y55798D02*
X77937Y55862D01*
X77873Y55172D02*
Y55798D01*
X78402Y51102D02*
X82430Y55130D01*
X77949Y51102D02*
X79051D01*
X78187Y54858D02*
X78813D01*
X74271Y54873D02*
X74627Y55229D01*
X74313Y54873D02*
X74627Y55187D01*
X74313Y56127D02*
X74627Y55813D01*
Y55187D02*
Y55813D01*
X74482Y55042D02*
X78422Y51102D01*
X74091D02*
X78017Y55028D01*
X73449Y51102D02*
X74551D01*
X73711Y56469D02*
X73812Y56570D01*
X73672D02*
X74115Y56127D01*
X73610Y56570D02*
X73692Y56488D01*
X73610Y56570D02*
X73692Y56488D01*
X74053Y56127D01*
X74313D01*
X73373Y55187D02*
Y55447D01*
Y55187D02*
X73687Y54873D01*
X73012Y55808D02*
X73373Y55447D01*
X72997Y55808D02*
X73373Y55432D01*
X70117Y55808D02*
X73012D01*
X70127Y55172D02*
Y55798D01*
X67001Y51196D02*
X71613Y55808D01*
X69062Y51102D02*
X73373Y55413D01*
X67001Y51914D02*
X70895Y55808D01*
X69813Y54858D02*
X70127Y55172D01*
X73687Y54873D02*
X74313D01*
X69013Y55032D02*
X69187Y54858D01*
X69813D01*
X70084Y55129D02*
X74111Y51102D01*
X69781D02*
X73620Y54941D01*
X68949Y51102D02*
X70051D01*
X67001Y53351D02*
X68682Y55032D01*
X67396D02*
X69013D01*
X67001Y54637D02*
X67396Y55032D01*
X67001Y54070D02*
X67963Y55032D01*
X67001Y52633D02*
X69227Y54858D01*
X67001Y53901D02*
X69801Y51102D01*
X67001Y53183D02*
X69082Y51102D01*
X75827Y56570D02*
X81898Y50499D01*
X78257Y54858D02*
X82232Y50884D01*
X75039Y50613D02*
X81504Y57078D01*
X74680Y50972D02*
X78566Y54858D01*
X75016Y44843D02*
X87251Y57078D01*
X75426Y44533D02*
X87970Y57078D01*
X75102Y49957D02*
X82223Y57078D01*
X75109Y56570D02*
X81898Y49780D01*
X72279Y55808D02*
X77467Y50620D01*
X73932Y54873D02*
X77826Y50979D01*
X70602Y50486D02*
X76686Y56570D01*
X71561Y55808D02*
X77398Y49970D01*
X67001Y45449D02*
X77676Y56123D01*
X67001Y44730D02*
X77873Y55602D01*
X70602Y49767D02*
X77317Y56482D01*
X77398Y49449D02*
X77949Y48898D01*
X79051D01*
X77398Y50551D02*
X77949Y51102D01*
X77398Y49449D02*
Y50551D01*
X75430Y43903D02*
Y44529D01*
X75116Y43589D02*
X75430Y43903D01*
X75116Y44843D02*
X75430Y44529D01*
X75102Y49449D02*
Y50551D01*
X74551Y48898D02*
X75102Y49449D01*
X74551Y51102D02*
X75102Y50551D01*
X73449Y48898D02*
X74551D01*
X74490Y44843D02*
X75116D01*
X74490Y43589D02*
X75116D01*
X70309Y49157D02*
X74623Y44843D01*
X70275Y50878D02*
X74271Y54873D01*
X69636Y54858D02*
X73421Y51074D01*
X68744Y55032D02*
X73062Y50714D01*
X70051Y51102D02*
X70602Y50551D01*
X72898D02*
X73449Y51102D01*
X72898Y49449D02*
Y50551D01*
X68398Y49449D02*
Y50551D01*
X70602Y49449D02*
Y50551D01*
X67001Y50478D02*
X72331Y55808D01*
X68398Y50551D02*
X68949Y51102D01*
X67001Y52464D02*
X68657Y50809D01*
X67001Y51746D02*
X68398Y50349D01*
X67001Y49759D02*
X73031Y55789D01*
X68026Y55032D02*
X72898Y50159D01*
X67001Y51028D02*
X68398Y49630D01*
X72898Y49449D02*
X73449Y48898D01*
X69849D02*
X74197Y44550D01*
X70051Y48898D02*
X70602Y49449D01*
X68949Y48898D02*
X70051D01*
X74176Y44529D02*
X74490Y44843D01*
X74176Y43903D02*
X74490Y43589D01*
X74176Y43903D02*
Y44529D01*
X68398Y49449D02*
X68949Y48898D01*
X67001Y47604D02*
X68622Y49225D01*
X67001Y49041D02*
X68398Y50438D01*
X67001Y48322D02*
X68398Y49719D01*
X67001Y44012D02*
X72898Y49909D01*
X67001Y46167D02*
X69733Y48898D01*
X67001Y46885D02*
X69014Y48898D01*
X57364Y77480D02*
X61906Y82021D01*
X57502Y76899D02*
X62624Y82021D01*
X56347Y77900D02*
X60469Y82021D01*
X57005Y77839D02*
X61187Y82021D01*
X56842D02*
X62846Y76017D01*
X57338D02*
X63342Y82021D01*
X55405D02*
X61410Y76017D01*
X56123Y82021D02*
X62128Y76017D01*
X54910Y77900D02*
X59032Y82021D01*
X54962Y77233D02*
X59750Y82021D01*
X53473Y77900D02*
X57595Y82021D01*
X54192Y77900D02*
X58313Y82021D01*
X53968D02*
X59973Y76017D01*
X54686Y82021D02*
X60691Y76017D01*
X53250Y82021D02*
X59254Y76017D01*
X62964D02*
X63190Y75791D01*
X62964Y76017D02*
X63190Y75791D01*
X62512Y76017D02*
X62964D01*
X62512D02*
X62964D01*
X63726Y75255D02*
X63952Y75029D01*
Y74577D02*
Y75029D01*
X63190Y75791D02*
X63726Y75255D01*
X63952Y75029D01*
X57502Y77051D02*
X58536Y76017D01*
X57289D02*
X62512D01*
X56945Y77900D02*
X57502Y77343D01*
X57289Y76017D02*
X57502Y76229D01*
X58056Y76017D02*
X64061Y82021D01*
X58774Y76017D02*
X64779Y82021D01*
X57502Y76332D02*
X57818Y76017D01*
X52755Y77900D02*
X56877Y82021D01*
X55831Y77900D02*
X56945D01*
X52531Y82021D02*
X56653Y77900D01*
X52734D02*
X54962D01*
Y76350D02*
Y77900D01*
X55274Y77343D02*
X55831Y77900D01*
X52734Y76039D02*
Y77900D01*
X52422Y77820D02*
X52734Y77508D01*
X51813Y82021D02*
X55935Y77900D01*
X52036D02*
X56158Y82021D01*
X51318Y77900D02*
X55440Y82021D01*
X52342Y77900D02*
X52422Y77820D01*
X51094Y82021D02*
X55524Y77592D01*
X52422Y77566D02*
X52734Y77879D01*
X52422Y76352D02*
Y77900D01*
X57502Y76229D02*
Y77343D01*
X55239Y76073D02*
X55335Y76169D01*
X55274Y76229D02*
Y77343D01*
X54962Y76717D02*
X55274Y76404D01*
Y76229D02*
X55487Y76017D01*
X55295D02*
X55487D01*
X54962Y76350D02*
X55295Y76017D01*
X54962Y77436D02*
X55274Y77123D01*
X54962Y76514D02*
X55274Y76827D01*
X52422Y76848D02*
X52734Y77161D01*
X52422Y77102D02*
X52734Y76789D01*
X52422Y76384D02*
X52734Y76071D01*
X52422Y76352D02*
X52734Y76039D01*
X52533Y76241D02*
X52734Y76442D01*
X63952Y74069D02*
Y74521D01*
Y74069D02*
Y74521D01*
Y74577D02*
Y75029D01*
X62013Y74047D02*
X62076Y73985D01*
X63726Y73843D02*
X63952Y74069D01*
X63726Y73843D02*
X63952Y74069D01*
X63190Y73307D02*
X63726Y73843D01*
X62964Y73081D02*
X63190Y73307D01*
X53821Y74047D02*
X62013D01*
X59281Y73985D02*
X62076D01*
X60506Y74047D02*
X60568Y73985D01*
X61053D02*
X61115Y74047D01*
X61771Y73985D02*
X61834Y74047D01*
X61943D02*
X62005Y73985D01*
X61224Y74047D02*
X61286Y73985D01*
X62964Y73081D02*
X63190Y73307D01*
X62512Y73081D02*
X62964D01*
X59281D02*
X62512D01*
X62964D01*
X54629Y68429D02*
X64999Y58059D01*
X54269Y68070D02*
X64640Y57700D01*
X53910Y67711D02*
X64281Y57340D01*
X53551Y67352D02*
X63921Y56981D01*
X53192Y66992D02*
X63562Y56622D01*
X52833Y66633D02*
X63203Y56263D01*
X52473Y66274D02*
X62844Y55904D01*
X52114Y65915D02*
X62485Y55544D01*
X51755Y65556D02*
X62125Y55185D01*
X51396Y65196D02*
X61766Y54826D01*
X58898Y73985D02*
X58960Y74047D01*
X59069D02*
X59131Y73985D01*
X57632Y74047D02*
X58262Y73417D01*
X58350Y74047D02*
X58621Y73776D01*
X56195Y74047D02*
X57543Y72699D01*
X56914Y74047D02*
X57903Y73058D01*
X54758Y74047D02*
X56825Y71980D01*
X55477Y74047D02*
X57184Y72339D01*
X53141Y74273D02*
X53367Y74047D01*
X53821D01*
X51742Y75672D02*
X53141Y74273D01*
X53367Y74047D01*
X51696Y75672D02*
X56106Y71262D01*
X54040Y74047D02*
X56466Y71621D01*
X53367Y74047D02*
X53821D01*
X59616Y73985D02*
X59678Y74047D01*
X59787D02*
X59849Y73985D01*
X58829D02*
X59281D01*
X58829D02*
X59281D01*
X60335D02*
X60397Y74047D01*
X58603Y73759D02*
X58829Y73985D01*
X58603Y73759D02*
X58829Y73985D01*
X53291Y55900D02*
X54405D01*
X55274D02*
X57502D01*
X51865D02*
X52422Y55343D01*
X52734D02*
X53291Y55900D01*
X55274Y53672D02*
Y55900D01*
X57502Y53672D02*
Y55900D01*
X54405D02*
X54962Y55343D01*
X49163Y77900D02*
X53285Y82021D01*
X49657D02*
X53779Y77900D01*
X48939Y82021D02*
X53061Y77900D01*
X50194D02*
X52422D01*
X50600D02*
X54721Y82021D01*
X49433Y75780D02*
X55029Y70184D01*
X49603Y77621D02*
X54003Y82021D01*
X50376D02*
X54498Y77900D01*
X48221Y82021D02*
X52342Y77900D01*
X48444D02*
X52566Y82021D01*
X47502D02*
X51624Y77900D01*
X47255Y77429D02*
X51848Y82021D01*
X47342Y76435D02*
X54310Y69466D01*
X47085Y75973D02*
X53951Y69107D01*
X46673Y71099D02*
X51246Y75672D01*
X50259D02*
X55388Y70543D01*
X50977Y75672D02*
X55747Y70903D01*
X50194Y75672D02*
X51742D01*
X48822D02*
X54670Y69825D01*
X48458Y66418D02*
X56086Y74047D01*
X48458Y65700D02*
X56805Y74047D01*
X48458Y67855D02*
X54649Y74047D01*
X48458Y67137D02*
X55368Y74047D01*
X47751Y70022D02*
X52572Y74843D01*
X48110Y69663D02*
X52931Y74483D01*
X47032Y70740D02*
X51853Y75561D01*
X47392Y70381D02*
X52212Y75202D01*
X46667Y75672D02*
X53592Y68747D01*
X48458Y68573D02*
X53931Y74047D01*
X48458Y69292D02*
X53290Y74124D01*
X49882Y77182D02*
X50194Y77494D01*
X49882Y76463D02*
X50194Y76776D01*
X48211Y77900D02*
X49325D01*
X49882Y77343D01*
X50194Y75672D02*
Y77900D01*
X49882Y76768D02*
X50194Y76455D01*
X47654Y76229D02*
Y77343D01*
X49882Y76229D02*
Y77343D01*
X46784Y82021D02*
X50906Y77900D01*
X46896Y77788D02*
X51129Y82021D01*
X46785Y77900D02*
X47342Y77343D01*
X47654D02*
X48211Y77900D01*
X47342Y77153D02*
X47654Y76840D01*
X47342Y76797D02*
X47654Y77110D01*
X47342Y76229D02*
Y77343D01*
X50194Y75737D02*
X50259Y75672D01*
X48458Y68853D02*
X51078Y66233D01*
X49325Y75672D02*
X49882Y76229D01*
X49792Y76140D02*
X50194Y75737D01*
X48458Y68134D02*
X50718Y65874D01*
X48458Y67416D02*
X50359Y65514D01*
X48458Y66698D02*
X50000Y65155D01*
X48211Y75672D02*
X49325D01*
X48232Y69541D02*
X48458Y69315D01*
X46785Y75672D02*
X47342Y76229D01*
X47654D02*
X48211Y75672D01*
X48458Y68863D02*
Y69315D01*
Y68863D02*
Y69315D01*
X48232Y69541D02*
X48458Y69315D01*
X50490Y62703D02*
X60868Y73081D01*
X50490Y61984D02*
X61587Y73081D01*
X50490Y64140D02*
X59431Y73081D01*
X50490Y63421D02*
X60150Y73081D01*
X50490Y61266D02*
X62305Y73081D01*
X51036Y64837D02*
X61407Y54467D01*
X50677Y64478D02*
X61048Y54107D01*
X50490Y55638D02*
Y64290D01*
X48458Y64981D02*
X57523Y74047D01*
X49812Y64968D02*
X58603Y73759D01*
X48458Y65979D02*
X49641Y64796D01*
X49586Y64742D02*
X49812Y64968D01*
X48458Y64263D02*
X58242Y74047D01*
X50490Y64290D02*
X59281Y73081D01*
X49586Y64742D02*
X49812Y64968D01*
X50490Y59637D02*
X54227Y55900D01*
X50490Y58918D02*
X53508Y55900D01*
X50490Y56763D02*
X51353Y55900D01*
X50490Y56044D02*
X50693Y55841D01*
X50490Y58200D02*
X53040Y55649D01*
X50490Y57481D02*
X52734Y55237D01*
X50490Y55638D02*
X50751Y55900D01*
X50490Y62510D02*
X57100Y55900D01*
X50490Y61792D02*
X56382Y55900D01*
X50490Y61073D02*
X55663Y55900D01*
X47032Y55653D02*
X49586Y58207D01*
X50490Y63947D02*
X60688Y53748D01*
X50490Y63229D02*
X60329Y53389D01*
X50490Y60355D02*
X55274Y55570D01*
X48458Y62826D02*
X49586Y63955D01*
X48458Y63824D02*
X49586Y62695D01*
Y64290D02*
Y64742D01*
Y64290D02*
Y64742D01*
Y55638D02*
Y64290D01*
X48458Y63105D02*
X49586Y61977D01*
X48458Y62512D02*
Y62964D01*
Y62512D02*
Y62964D01*
Y63544D02*
X49586Y64673D01*
X48458Y64542D02*
X49586Y63413D01*
X47554Y62964D02*
Y68863D01*
X48458Y65261D02*
X49586Y64132D01*
X48232Y62286D02*
X48458Y62512D01*
X48232Y62286D02*
X48458Y62512D01*
Y62964D02*
Y68863D01*
X48036Y62090D02*
X49586Y60540D01*
X47677Y61731D02*
X49586Y59821D01*
X48395Y62450D02*
X49586Y61258D01*
X48211Y55900D02*
X49325D01*
X49379Y55845D02*
X49586Y56052D01*
X49325Y55900D02*
X49586Y55638D01*
X48715Y55900D02*
X49586Y56771D01*
X46599Y60654D02*
X49586Y57666D01*
X46560Y55900D02*
X49586Y58926D01*
X47317Y61372D02*
X49586Y59103D01*
X46958Y61013D02*
X49586Y58385D01*
X47342Y55244D02*
X49586Y57489D01*
X47654Y55343D02*
X48211Y55900D01*
X46785D02*
X47342Y55343D01*
X63968Y54779D02*
X64825Y53922D01*
X63609Y54420D02*
X64825Y53204D01*
X64686Y55498D02*
X64825Y55359D01*
X64327Y55138D02*
X64825Y54641D01*
X60524Y49748D02*
X64825Y54048D01*
X62531Y53342D02*
X64825Y51049D01*
X63250Y54061D02*
X64825Y52486D01*
X62890Y53702D02*
X64825Y51767D01*
X57502Y55498D02*
X59970Y53030D01*
X57502Y54780D02*
X59611Y52671D01*
X57502Y54061D02*
X59252Y52311D01*
X57172Y53672D02*
X58892Y51952D01*
X60524Y51185D02*
X64825Y55485D01*
X60524Y50466D02*
X64825Y54767D01*
X60524Y51335D02*
X64825Y55636D01*
X61813Y52624D02*
X64825Y49612D01*
X63552Y49184D02*
X64825Y50456D01*
X62172Y52983D02*
X64825Y50330D01*
X63408Y49184D02*
X64472D01*
X61454Y52265D02*
X64825Y48894D01*
X64731Y48926D02*
X64825Y49020D01*
X62024Y49092D02*
X64825Y51893D01*
X64271Y49184D02*
X64825Y49738D01*
X61094Y51906D02*
X63816Y49184D01*
X60868D02*
X61932D01*
X60524Y50320D02*
X61661Y49184D01*
X60524Y49602D02*
X60942Y49184D01*
X60524Y49029D02*
X64825Y53330D01*
X61397Y49184D02*
X64825Y52612D01*
X60735Y51546D02*
X63253Y49029D01*
X56840Y52568D02*
X58174Y51234D01*
X56840Y51850D02*
X57815Y50875D01*
X56840Y51131D02*
X57456Y50515D01*
X56840Y50320D02*
Y50772D01*
X57078Y50138D02*
X57304Y50364D01*
X57078Y50138D02*
X57304Y50364D01*
X56840Y50320D02*
Y50772D01*
Y50413D02*
X57096Y50156D01*
X56840Y53672D02*
X57502D01*
X56840Y53287D02*
X58533Y51593D01*
X55735Y53672D02*
X55936Y53471D01*
X56840Y53247D02*
X57265Y53672D01*
X56840Y50772D02*
Y53672D01*
X56614Y50094D02*
X56840Y50320D01*
X55936Y50772D02*
Y53672D01*
X57078Y49684D02*
Y50138D01*
X56527Y50007D02*
X57078Y49456D01*
X56614Y50094D02*
X56840Y50320D01*
X57078Y49684D02*
Y50138D01*
Y48959D02*
Y49684D01*
X56852Y49184D02*
X57078Y48959D01*
X56969Y49067D02*
X57078Y49175D01*
X56368Y49184D02*
X57078Y49894D01*
X55788Y49184D02*
X56852D01*
X56168Y49648D02*
X56632Y49184D01*
X55808Y49289D02*
X55913Y49184D01*
X55570Y49050D02*
X56614Y50094D01*
X55570Y48965D02*
X55788Y49184D01*
X55570Y48965D02*
Y49050D01*
X64825Y48832D02*
Y55636D01*
X64472Y49184D02*
X64825Y48832D01*
X62876Y48652D02*
X63408Y49184D01*
X62464Y48096D02*
X62876Y48508D01*
Y47588D02*
Y48652D01*
X62464Y47662D02*
X64825Y45301D01*
X62464Y47588D02*
Y48652D01*
Y48380D02*
X62876Y47968D01*
X62383Y48733D02*
X64825Y51175D01*
X60524Y51039D02*
X62894Y48669D01*
X60524Y48840D02*
Y51335D01*
Y48840D02*
X60868Y49184D01*
X60524Y45437D02*
X62876Y47789D01*
X61932Y47056D02*
X62464Y47588D01*
X61932Y49184D02*
X62464Y48652D01*
X64472Y47056D02*
X64825Y47408D01*
X64490Y47073D02*
X64825Y46738D01*
X62876Y47588D02*
X63408Y47056D01*
X64472D01*
X62142Y47266D02*
X64825Y44583D01*
X61634Y47056D02*
X64825Y43865D01*
X63789Y47056D02*
X64825Y46020D01*
X60524Y46156D02*
X61424Y47056D01*
X60868D02*
X61932D01*
X60524Y47400D02*
X60868Y47056D01*
X60524Y46874D02*
X60787Y47137D01*
X60524Y44719D02*
X63135Y47329D01*
X60524Y44001D02*
X63579Y47056D01*
X57984Y47113D02*
X59618Y45479D01*
X57984Y47400D02*
X58328Y47056D01*
X59392D01*
X57984Y47208D02*
X58080Y47304D01*
X56852Y47056D02*
X57078Y47281D01*
X59392Y47056D02*
X59618Y47281D01*
X59435Y47099D02*
X59618Y46916D01*
X57984Y46489D02*
X58551Y47056D01*
X57984Y45771D02*
X59269Y47056D01*
X55788D02*
X56852D01*
X56605D02*
X57078Y46583D01*
X55570Y47274D02*
X55788Y47056D01*
X55570Y46949D02*
X55733Y47111D01*
X55570Y46230D02*
X56395Y47056D01*
X55886D02*
X57078Y45864D01*
X55570Y44603D02*
Y47274D01*
X57984Y46395D02*
X59618Y44761D01*
X57984Y44334D02*
X59618Y45968D01*
X58760Y47056D02*
X59618Y46198D01*
X57984Y45053D02*
X59618Y46686D01*
X57984Y45676D02*
X59618Y44043D01*
X57984Y43616D02*
X59618Y45249D01*
X55570Y44152D02*
Y44603D01*
Y44793D02*
X57078Y46301D01*
X55570Y45936D02*
X57078Y44427D01*
X55570Y45512D02*
X57078Y47020D01*
X55570Y46654D02*
X57078Y45146D01*
X55570Y45217D02*
X57078Y43709D01*
X55344Y43926D02*
X55570Y44152D01*
Y44603D01*
X54962Y55165D02*
X55274Y54852D01*
X54962Y54243D02*
X55274Y54556D01*
X54962Y54962D02*
X55274Y55274D01*
X54962Y54962D02*
X55274Y55274D01*
X54962Y54446D02*
X55274Y54133D01*
X54711Y53978D02*
X55936Y52753D01*
X54962Y54229D02*
Y55343D01*
X54405Y53672D02*
X54962Y54229D01*
X54391Y53672D02*
X54962Y54243D01*
X52363Y54171D02*
X55849Y50685D01*
X52734Y54229D02*
X53291Y53672D01*
X50490Y51208D02*
X53123Y53841D01*
X50490Y53889D02*
X54772Y49607D01*
X52004Y53812D02*
X55490Y50326D01*
X50490Y50490D02*
X53672Y53672D01*
X53580D02*
X55936Y51316D01*
X54892Y49728D02*
X55936Y50772D01*
X55274Y53672D02*
X55936D01*
X54299D02*
X55936Y52035D01*
X54213Y49184D02*
X55936Y50907D01*
X54666Y49502D02*
X54892Y49728D01*
X54666Y49502D02*
X54892Y49728D01*
X53291Y53672D02*
X54405D01*
X51425D02*
X55131Y49966D01*
X50490Y50490D02*
X53672Y53672D01*
X50490Y49771D02*
X54391Y53672D01*
X53495Y49184D02*
X55936Y51626D01*
X53248Y49184D02*
X54312D01*
X50490Y52452D02*
X53758Y49184D01*
X52422Y54577D02*
X52734Y54890D01*
X52422Y54831D02*
X52734Y54518D01*
X50751Y55900D02*
X51865D01*
X52422Y54229D02*
Y55343D01*
X52734Y54229D02*
Y55343D01*
X50490Y51926D02*
X52763Y54200D01*
X51865Y53672D02*
X52422Y54229D01*
X49325Y53672D02*
X49586Y53934D01*
X47654Y54229D02*
Y55343D01*
X47342Y54526D02*
X47654Y54839D01*
X47342Y54229D02*
Y55343D01*
Y54882D02*
X47654Y54569D01*
Y54229D02*
X48211Y53672D01*
X47309Y54196D02*
X49586Y51919D01*
X46785Y53672D02*
X47342Y54229D01*
X50490Y53363D02*
X50799Y53672D01*
X50751D02*
X51865D01*
X50490Y53934D02*
X50751Y53672D01*
X49270D02*
X49586Y53356D01*
X50490Y52645D02*
X51517Y53672D01*
X50490Y50297D02*
X51603Y49184D01*
X50490Y49579D02*
X50884Y49184D01*
X46950Y53837D02*
X49586Y51200D01*
X48551Y53672D02*
X49586Y52637D01*
X48211Y53672D02*
X49325D01*
X48168Y49184D02*
X49232D01*
X49184D02*
X49586Y49586D01*
X49184Y49184D02*
X49586Y49586D01*
X48466Y49184D02*
X49586Y50305D01*
X54312Y49184D02*
X54666Y48830D01*
Y49050D01*
Y49502D01*
Y49050D02*
Y49502D01*
X52716Y48652D02*
X53248Y49184D01*
X52716Y47588D02*
Y48652D01*
X52304Y48482D02*
X52716Y48071D01*
X52304Y47994D02*
X52716Y48406D01*
X51339Y49184D02*
X55828Y53672D01*
X51915Y49041D02*
X55936Y53063D01*
X50490Y49053D02*
X55274Y53838D01*
X50490Y51734D02*
X53144Y49080D01*
X50490Y53171D02*
X54666Y48994D01*
X52274Y48682D02*
X55936Y52344D01*
X50490Y51016D02*
X52785Y48720D01*
X54312Y47056D02*
X54666Y47410D01*
X54381Y47124D02*
X54666Y46839D01*
X52716Y47588D02*
X53248Y47056D01*
X54312D01*
X54666Y44603D02*
Y47410D01*
X55344Y43926D02*
X55570Y44152D01*
X53731Y47056D02*
X54666Y46120D01*
X52304Y47764D02*
X54666Y45402D01*
X52033Y47317D02*
X54666Y44683D01*
X50490Y45461D02*
X52716Y47687D01*
X50490Y44742D02*
X53026Y47278D01*
X50857Y47056D02*
X53988Y43925D01*
X51576Y47056D02*
X54347Y44284D01*
X50490Y44024D02*
X53522Y47056D01*
X50490Y48965D02*
X50708Y49184D01*
X51772D01*
X50490Y48965D02*
Y53934D01*
X49232Y49184D02*
X49586Y48830D01*
X51772Y49184D02*
X52304Y48652D01*
Y47588D02*
Y48652D01*
X49586Y48830D02*
Y53934D01*
X47636Y47588D02*
Y48652D01*
X46861Y49016D02*
X49586Y51742D01*
X47220Y48657D02*
X49586Y51023D01*
X46692Y49184D02*
X47224Y48652D01*
X47636D02*
X48168Y49184D01*
X47224Y48533D02*
X47636Y48122D01*
X47224Y47943D02*
X47636Y48355D01*
X47224Y47588D02*
Y48652D01*
X51772Y47056D02*
X52304Y47588D01*
X50708Y47056D02*
X51772D01*
X49232D02*
X49586Y47410D01*
X50490Y47274D02*
X50708Y47056D01*
X50490Y46897D02*
X50678Y47086D01*
X50490Y46179D02*
X51366Y47056D01*
X49326Y47150D02*
X49586Y46890D01*
X48168Y47056D02*
X49232D01*
X48702D02*
X49586Y46171D01*
X46692Y47056D02*
X47224Y47588D01*
X47636D02*
X48168Y47056D01*
X46979Y47342D02*
X49586Y44735D01*
X46547Y47056D02*
X49586Y44016D01*
X47224Y47815D02*
X49586Y45453D01*
X80348Y57078D02*
X96521Y40905D01*
X83271Y54873D02*
X96521Y41623D01*
X82504Y57078D02*
X96521Y43060D01*
X83627Y55236D02*
X96521Y42342D01*
X78193Y57078D02*
X96521Y38750D01*
X74627Y55615D02*
X96521Y33721D01*
X79630Y57078D02*
X96521Y40186D01*
X78912Y57078D02*
X96521Y39468D01*
X74391Y56570D02*
X96521Y34439D01*
X70842Y55808D02*
X96521Y30128D01*
X67001Y41138D02*
X82941Y57078D01*
X67001Y40420D02*
X82373Y55792D01*
X70124Y55808D02*
X96521Y29410D01*
X67683Y29606D02*
X91523Y53447D01*
X67085Y29727D02*
X91523Y54165D01*
X83884Y49232D02*
X96521Y36594D01*
X83499Y48898D02*
X96521Y35876D01*
X84102Y50451D02*
X96521Y38031D01*
X84102Y49732D02*
X96521Y37313D01*
X79479Y49326D02*
X96521Y32284D01*
X79120Y48967D02*
X96521Y31565D01*
X79602Y49922D02*
X96521Y33002D01*
X82780Y48898D02*
X96521Y35157D01*
X64969Y30485D02*
X83383Y48898D01*
X78470D02*
X96521Y30847D01*
X68494Y35446D02*
X82197Y49150D01*
X68627Y34861D02*
X82664Y48898D01*
X68826Y29313D02*
X91523Y52010D01*
X75102Y50111D02*
X96521Y28692D01*
X68517Y29722D02*
X91523Y52729D01*
X67001Y38983D02*
X77433Y49415D01*
X67001Y41856D02*
X74043Y48898D01*
X67001Y43293D02*
X73028Y49320D01*
X67001Y42575D02*
X73387Y48961D01*
X67956Y35627D02*
X81898Y49569D01*
X67373Y35313D02*
X67687Y35627D01*
X67001Y38889D02*
Y39343D01*
Y38889D02*
Y39343D01*
Y39701D02*
X77398Y50098D01*
X66775Y38663D02*
X67001Y38889D01*
Y39343D02*
Y54637D01*
X66775Y38663D02*
X67001Y38889D01*
X65886Y37774D02*
X68034Y35627D01*
X65527Y37415D02*
X67501Y35441D01*
X65168Y37056D02*
X67373Y34850D01*
X68627Y34687D02*
Y35313D01*
X68313Y34373D02*
X68627Y34687D01*
X68313Y35627D02*
X68627Y35313D01*
X67687Y34373D02*
X68313D01*
X67886Y29727D02*
X68513D01*
X68826Y29413D01*
X67724Y29565D02*
X67886Y29727D01*
X67687Y35627D02*
X68313D01*
X64969Y31203D02*
X68139Y34373D01*
X67373Y34687D02*
Y35313D01*
Y34687D02*
X67687Y34373D01*
X64969Y32944D02*
X68186Y29727D01*
X66936D02*
X67562D01*
X66622Y29413D02*
X66936Y29727D01*
X67967Y12648D02*
X96521Y41203D01*
X68685Y12648D02*
X96521Y40485D01*
X75074Y49421D02*
X96521Y27973D01*
X67248Y12648D02*
X96521Y41921D01*
Y6755D02*
Y75745D01*
X67001Y39533D02*
X96521Y10013D01*
X69404Y12648D02*
X96521Y39766D01*
X70109Y12635D02*
X96521Y39048D01*
X65812Y12648D02*
X96521Y43358D01*
X66530Y12648D02*
X96521Y42640D01*
X65093Y12648D02*
X96521Y44077D01*
X67001Y42407D02*
X96521Y12886D01*
X67001Y40970D02*
X96521Y11450D01*
X67001Y40251D02*
X96521Y10731D01*
X67001Y41688D02*
X96521Y12168D01*
X70398Y7177D02*
X96521Y33300D01*
X70398Y6459D02*
X96521Y32582D01*
X70398Y8614D02*
X96521Y34737D01*
X70398Y7896D02*
X96521Y34019D01*
X70398Y5022D02*
X96521Y31145D01*
X70398Y4304D02*
X96521Y30427D01*
X70398Y5741D02*
X96521Y31863D01*
X70398Y10770D02*
X96521Y36892D01*
X70398Y10051D02*
X96521Y36174D01*
X70398Y12206D02*
X96521Y38329D01*
X70398Y11488D02*
X96521Y37611D01*
X66964Y38852D02*
X96521Y9294D01*
X66605Y38493D02*
X96521Y8576D01*
X70398Y9333D02*
X96521Y35456D01*
X74714Y49062D02*
X96521Y27255D01*
X74159Y48898D02*
X96521Y26536D01*
X68676Y27726D02*
X92323Y51373D01*
X68704Y27036D02*
X93042Y51373D01*
X70602Y49583D02*
X96521Y23663D01*
X69130Y48898D02*
X96521Y21507D01*
X68826Y26439D02*
X93760Y51373D01*
X70602Y50301D02*
X96521Y24381D01*
X67001Y54620D02*
X96521Y25100D01*
X67001Y50309D02*
X96521Y20789D01*
X67352Y54988D02*
X96521Y25818D01*
X68676Y28445D02*
X91605Y51373D01*
X67001Y48872D02*
X96521Y19352D01*
X67001Y48154D02*
X96521Y18634D01*
X67001Y49591D02*
X96521Y20071D01*
X75430Y44036D02*
X96521Y22944D01*
X75137Y43610D02*
X96521Y22226D01*
X68627Y35034D02*
X88709Y14952D01*
X68441Y34501D02*
X87990Y14952D01*
X67001Y43843D02*
X96521Y14323D01*
X67001Y43125D02*
X96521Y13605D01*
X67850Y34373D02*
X87798Y14425D01*
X67001Y45999D02*
X96521Y16478D01*
X67001Y45280D02*
X96521Y15760D01*
X67001Y47436D02*
X96521Y17915D01*
X67001Y46717D02*
X96521Y17197D01*
X67001Y44562D02*
X96521Y15042D01*
X64969Y33662D02*
X90160Y8472D01*
X66245Y38134D02*
X89427Y14952D01*
X64825Y41212D02*
Y47408D01*
X62165Y41331D02*
X64825Y43991D01*
X60961Y41564D02*
X64825Y45427D01*
X61680Y41564D02*
X64825Y44709D01*
X64969Y36232D02*
X77792Y49055D01*
X64969Y35514D02*
X78354Y48898D01*
X64969Y34796D02*
X74176Y44003D01*
X64969Y34077D02*
X74486Y43593D01*
X60524Y42564D02*
X64825Y46864D01*
X60524Y46728D02*
X64825Y42428D01*
X60524Y43282D02*
X64298Y47056D01*
X60915D02*
X64825Y43146D01*
X60524Y41845D02*
X64825Y46146D01*
X60524Y46010D02*
X64825Y41709D01*
X60524Y45291D02*
X64252Y41564D01*
X64472D02*
X64825Y41212D01*
X64708Y39671D02*
X64825Y39554D01*
X63835Y41564D02*
X64825Y42554D01*
X64513Y41523D02*
X64825Y41835D01*
Y39343D02*
Y39788D01*
X64969Y36857D02*
X66775Y38663D01*
X64472Y39436D02*
X64825Y39788D01*
X64225Y39436D02*
X64571Y39089D01*
X62464Y40912D02*
X64825Y43272D01*
X63408Y39436D02*
X64472D01*
X63408Y41564D02*
X64472D01*
X63506Y39436D02*
X64212Y38730D01*
X58658Y33513D02*
X64825Y39680D01*
X63527Y38045D02*
X64825Y39343D01*
X62360Y39863D02*
X63853Y38371D01*
X62876Y41032D02*
X63408Y41564D01*
X62464Y40478D02*
X62876Y40066D01*
X62464Y39968D02*
Y41032D01*
Y40193D02*
X62876Y40605D01*
Y39968D02*
X63408Y39436D01*
X62001Y39504D02*
X63494Y38011D01*
X62876Y39968D02*
Y41032D01*
X61932Y39436D02*
X62464Y39968D01*
X60524Y44573D02*
X63533Y41564D01*
X60524Y43855D02*
X63112Y41267D01*
X60868Y41564D02*
X61932D01*
X62464Y41032D01*
X60524Y43136D02*
X62876Y40784D01*
X60470Y39598D02*
X63301Y36768D01*
X60868Y39436D02*
X61932D01*
X63301Y37819D02*
X63527Y38045D01*
X63301Y37819D02*
X63527Y38045D01*
X61351Y39436D02*
X63301Y37486D01*
Y37365D02*
Y37819D01*
Y37365D02*
Y37819D01*
X61489Y33471D02*
X63301Y35282D01*
X61273Y33687D02*
X61587Y33373D01*
X59393Y38520D02*
X63301Y34612D01*
X59033Y38161D02*
X63301Y33894D01*
X60111Y39239D02*
X63301Y36049D01*
X59752Y38880D02*
X63301Y35331D01*
X59376Y33513D02*
X63301Y37438D01*
X60095Y33513D02*
X63301Y36719D01*
X60987Y33687D02*
X63301Y36001D01*
X64969Y29048D02*
X91348Y55427D01*
X64969Y28330D02*
X92066Y55427D01*
X64969Y29767D02*
X90731Y55528D01*
X64969Y33359D02*
X81898Y50288D01*
X62220Y12648D02*
X96521Y46950D01*
X62938Y12648D02*
X96521Y46232D01*
X60783Y12648D02*
X96521Y48387D01*
X61501Y12648D02*
X96521Y47669D01*
X57191Y12648D02*
X96521Y51979D01*
X57909Y12648D02*
X96521Y51261D01*
X56858Y13753D02*
X96521Y53416D01*
X56858Y13035D02*
X96521Y52698D01*
X59346Y12648D02*
X96521Y49824D01*
X60064Y12648D02*
X96521Y49106D01*
X58627Y12648D02*
X96521Y50542D01*
X64969Y31922D02*
X67554Y34506D01*
X64969Y32225D02*
X67468Y29727D01*
X64969Y32640D02*
X67373Y35044D01*
X64969Y31507D02*
X66843Y29634D01*
X64969Y34381D02*
X90633Y8717D01*
X64969Y30070D02*
X66796Y28244D01*
X64969Y30789D02*
X66622Y29135D01*
X63656Y12648D02*
X96521Y45514D01*
X64969Y36536D02*
X87798Y13707D01*
X56552Y32126D02*
X63862Y39436D01*
X64969Y22444D02*
Y36857D01*
X64375Y12648D02*
X96521Y44795D01*
X64969Y35818D02*
X91737Y9049D01*
X64969Y35099D02*
X91156Y8912D01*
X61587Y32850D02*
X63301Y34564D01*
X60627Y31171D02*
X63301Y33846D01*
X61587Y32747D02*
Y33373D01*
X61273Y32433D02*
X61587Y32747D01*
X63301Y23313D02*
Y37365D01*
X60277Y32607D02*
X63301Y29583D01*
X61580Y32741D02*
X63301Y31020D01*
X61169Y32433D02*
X63301Y30302D01*
X58674Y37802D02*
X63301Y33175D01*
X58315Y37443D02*
X63301Y32457D01*
X55441Y32452D02*
X62917Y39927D01*
X54723Y32452D02*
X61707Y39436D01*
X57956Y37084D02*
X63301Y31739D01*
X49550Y19376D02*
X63301Y33127D01*
X56160Y32452D02*
X63276Y39568D01*
X60056Y30673D02*
X63301Y27428D01*
X59347Y30663D02*
X63301Y26710D01*
X60627Y31539D02*
X63301Y28865D01*
X60544Y30904D02*
X63301Y28147D01*
X57910Y30663D02*
X63301Y25273D01*
X57192Y30663D02*
X63301Y24554D01*
X58629Y30663D02*
X63301Y25991D01*
X55588Y31548D02*
X63301Y23836D01*
X55642Y23313D02*
X63301Y30972D01*
X54870Y31548D02*
X63105Y23313D01*
X54320Y31380D02*
X61405Y24295D01*
X50268Y19376D02*
X63301Y32409D01*
X50987Y19376D02*
X63301Y31690D01*
X56361Y23313D02*
X63301Y30253D01*
X91657Y9039D02*
X96521Y13903D01*
X93720Y8946D02*
X96521Y11748D01*
X92447Y9110D02*
X96521Y13185D01*
X93123Y9068D02*
X96521Y12466D01*
X89701Y14678D02*
X96521Y7857D01*
X89701Y13959D02*
X96521Y7139D01*
X90605Y8705D02*
X96521Y14621D01*
X89701Y13241D02*
X94125Y8816D01*
X89667Y14952D02*
X96521Y21806D01*
X89701Y14267D02*
X96521Y21087D01*
X88231Y14952D02*
X96521Y23242D01*
X88949Y14952D02*
X96521Y22524D01*
X70398Y3585D02*
X96521Y29708D01*
X89701Y13549D02*
X96521Y20369D01*
X89175Y13048D02*
X93161Y9063D01*
X95583Y7936D02*
X96521Y8874D01*
X95943Y7577D02*
X96521Y8156D01*
X95182Y8253D02*
X96521Y9592D01*
X95072Y8337D02*
X95540Y7978D01*
X96259Y7174D02*
X96521Y7437D01*
X96345Y7060D02*
X96521Y6755D01*
X95551Y7968D02*
X95968Y7551D01*
X95978Y7540D02*
X96337Y7072D01*
X94255Y8763D02*
X96521Y11029D01*
X93408Y9029D02*
X93978Y8877D01*
X92500Y9110D02*
X92795Y9110D01*
X92809Y9109D02*
X93394Y9032D01*
X94740Y8530D02*
X96521Y10311D01*
X94550Y8640D02*
X95060Y8345D01*
X93992Y8872D02*
X94537Y8646D01*
X89701Y13048D02*
Y14952D01*
X87798Y13048D02*
X89701D01*
X87798D02*
Y14952D01*
X89701D01*
X88457Y13048D02*
X92395Y9110D01*
X92205Y9110D02*
X92500Y9110D01*
X70293Y12543D02*
X70371Y12427D01*
X70398Y12290D01*
X70040Y12648D02*
X70177Y12621D01*
X70293Y12543D01*
X68826Y28787D02*
Y29413D01*
Y26287D02*
Y26913D01*
Y29087D02*
X89729Y8184D01*
X68676Y27082D02*
X88673Y7085D01*
X68789Y26250D02*
X88408Y6632D01*
X91606Y9032D02*
X92191Y9109D01*
X91022Y8877D02*
X91592Y9029D01*
X90463Y8646D02*
X91008Y8872D01*
X89940Y8345D02*
X90450Y8640D01*
X89460Y7978D02*
X89928Y8337D01*
X89032Y7551D02*
X89449Y7968D01*
X88663Y7072D02*
X89022Y7540D01*
X88360Y6550D02*
X88655Y7060D01*
X88128Y5992D02*
X88354Y6537D01*
X87971Y5408D02*
X88123Y5978D01*
X87891Y4809D02*
X87968Y5394D01*
X87890Y4205D02*
Y4500D01*
X87891Y4191D02*
X87968Y3606D01*
X87890Y4795D02*
X87890Y4500D01*
X78068Y479D02*
X96521Y18932D01*
X78787Y479D02*
X96521Y18213D01*
X77350Y479D02*
X96521Y19650D01*
X75913Y479D02*
X88483Y13048D01*
X80942Y479D02*
X96521Y16058D01*
X81660Y479D02*
X96521Y15340D01*
X79505Y479D02*
X96521Y17495D01*
X80223Y479D02*
X96521Y16777D01*
X70165Y479D02*
X96521Y26835D01*
X70884Y479D02*
X96521Y26116D01*
X68729Y479D02*
X96521Y28271D01*
X69447Y479D02*
X96521Y27553D01*
X72321Y479D02*
X96521Y24679D01*
X73039Y479D02*
X96521Y23961D01*
X71602Y479D02*
X96521Y25398D01*
X89032Y1449D02*
X89449Y1032D01*
X89460Y1022D02*
X89928Y663D01*
X88360Y2450D02*
X88655Y1940D01*
X88663Y1928D02*
X89022Y1460D01*
X89563Y479D02*
X89826Y741D01*
X89940Y655D02*
X90245Y479D01*
X88844D02*
X89423Y1057D01*
X76631Y479D02*
X89201Y13048D01*
X88128Y3008D02*
X88354Y2463D01*
X82379Y479D02*
X88295Y6395D01*
X85971Y479D02*
X88237Y2745D01*
X87408Y479D02*
X88747Y1818D01*
X88126Y479D02*
X89064Y1417D01*
X86689Y479D02*
X88470Y2260D01*
X70398Y8117D02*
X78037Y479D01*
X70398Y7399D02*
X77319Y479D01*
X70398Y6680D02*
X76600Y479D01*
X70398Y5962D02*
X75882Y479D01*
X75194D02*
X87798Y13082D01*
X83097Y479D02*
X87961Y5343D01*
X73758Y479D02*
X87798Y14519D01*
X74476Y479D02*
X87798Y13801D01*
X70315Y12511D02*
X82348Y479D01*
X70398Y11709D02*
X81629Y479D01*
X70398Y3210D02*
Y12290D01*
Y10991D02*
X80911Y479D01*
X70398Y10273D02*
X80192Y479D01*
X70398Y9554D02*
X79474Y479D01*
X70398Y8836D02*
X78756Y479D01*
X70398Y5244D02*
X75163Y479D01*
X87971Y3592D02*
X88123Y3022D01*
X70398Y4525D02*
X74445Y479D01*
X70398Y3807D02*
X73727Y479D01*
X84534D02*
X87932Y3877D01*
X85252Y479D02*
X88054Y3280D01*
X83815Y479D02*
X87890Y4553D01*
X70371Y3073D02*
X70398Y3210D01*
X70293Y2957D02*
X70371Y3073D01*
X70177Y2879D02*
X70293Y2957D01*
X70040Y2852D02*
X70177Y2879D01*
X70378Y3109D02*
X73008Y479D01*
X69917Y2852D02*
X72290Y479D01*
X69198Y2852D02*
X71571Y479D01*
X67562Y29727D02*
X67724Y29565D01*
X68676Y28637D02*
X68826Y28787D01*
X66622D02*
X66796Y28613D01*
Y27087D02*
Y28613D01*
X68676Y27063D02*
Y28637D01*
Y27063D02*
X68826Y26913D01*
X66622D02*
X66796Y27087D01*
X66622Y26287D02*
Y26913D01*
X64969Y29352D02*
X66796Y27525D01*
X64969Y28633D02*
X66656Y26947D01*
X66622Y28787D02*
Y29413D01*
X64969Y27611D02*
X66622Y29264D01*
X64969Y26174D02*
X66796Y28001D01*
X64969Y25456D02*
X66796Y27283D01*
X64969Y26893D02*
X66743Y28666D01*
X67724Y26135D02*
X67886Y25973D01*
X67562D02*
X67724Y26135D01*
X66622Y26287D02*
X66936Y25973D01*
X67562D01*
X68513D02*
X68826Y26287D01*
X67886Y25973D02*
X68513D01*
X64969Y21990D02*
Y22444D01*
Y23301D02*
X67764Y26096D01*
X64969Y22582D02*
X68360Y25973D01*
X64969Y24738D02*
X66622Y26391D01*
X64969Y24019D02*
X66930Y25980D01*
X64850Y21871D02*
X64969Y21990D01*
X64850Y21871D02*
X64969Y21990D01*
Y22444D01*
X62233Y24157D02*
X63301Y25224D01*
X62377Y23582D02*
X63301Y24506D01*
X61685Y24327D02*
X63301Y25943D01*
X62063Y24327D02*
X62377Y24013D01*
X62826Y23313D02*
X63301Y23788D01*
X62303Y23313D02*
X63301D01*
X62377Y23387D02*
Y24013D01*
X62303Y23313D02*
X62377Y23387D01*
X57079Y23313D02*
X63301Y29535D01*
X57797Y23313D02*
X63301Y28817D01*
X61123Y24013D02*
X61437Y24327D01*
X62063D01*
X59234Y23313D02*
X63301Y27380D01*
X59953Y23313D02*
X63301Y26661D01*
X58516Y23313D02*
X63301Y28098D01*
X64743Y21764D02*
X64850Y21871D01*
X64743Y21764D02*
X64850Y21871D01*
X64743Y21764D02*
X64850Y21871D01*
X64170Y21645D02*
X64624D01*
X64743Y21764D01*
X64624Y21645D02*
X64743Y21764D01*
X64170Y21645D02*
X64624D01*
X56858Y15190D02*
X63313Y21645D01*
X56361D02*
X64170D01*
X56806Y16575D02*
X61876Y21645D01*
X56858Y15908D02*
X62595Y21645D01*
X56858Y14472D02*
X64032Y21645D01*
X55179Y20463D02*
X62994Y12648D01*
X54820Y20104D02*
X62275Y12648D01*
X68676Y28518D02*
X89338Y7857D01*
X68676Y27800D02*
X88985Y7492D01*
X67596Y26007D02*
X88018Y5585D01*
X68348Y25973D02*
X88187Y6134D01*
X68010Y479D02*
X96521Y28990D01*
X64969Y23604D02*
X88095Y479D01*
X64969Y22886D02*
X87377Y479D01*
X64969Y22168D02*
X86658Y479D01*
X64969Y26478D02*
X88013Y3434D01*
X64969Y25760D02*
X88472Y2257D01*
X64969Y27915D02*
X87912Y4972D01*
X64969Y27197D02*
X87890Y4276D01*
X64969Y25041D02*
X89532Y479D01*
X64969Y24323D02*
X88813Y479D01*
X64699Y21720D02*
X85940Y479D01*
X63337Y21645D02*
X84503Y479D01*
X64055Y21645D02*
X85221Y479D01*
X66573D02*
X68946Y2852D01*
X67043D02*
X69416Y479D01*
X67762Y2852D02*
X70135Y479D01*
X68480Y2852D02*
X70853Y479D01*
X67292D02*
X69665Y2852D01*
X61181Y21645D02*
X70261Y12565D01*
X56858Y12648D02*
X70040D01*
X59745Y21645D02*
X68741Y12648D01*
X60463Y21645D02*
X69459Y12648D01*
X61900Y21645D02*
X83066Y479D01*
X62618Y21645D02*
X83785Y479D01*
X56858Y2852D02*
X70040D01*
X59026Y21645D02*
X68023Y12648D01*
X59859Y2852D02*
X62232Y479D01*
X59141Y2852D02*
X61513Y479D01*
X59389D02*
X61762Y2852D01*
X60826Y479D02*
X63199Y2852D01*
X61296D02*
X63669Y479D01*
X60108D02*
X62480Y2852D01*
X60577D02*
X62950Y479D01*
X56257Y21541D02*
X65149Y12648D01*
X55897Y21182D02*
X64430Y12648D01*
X55538Y20822D02*
X63712Y12648D01*
X54461Y19745D02*
X61557Y12648D01*
X57589Y21645D02*
X66586Y12648D01*
X58308Y21645D02*
X67304Y12648D01*
X56871Y21645D02*
X65867Y12648D01*
X64888Y2852D02*
X67261Y479D01*
X65137D02*
X67509Y2852D01*
X64170D02*
X66542Y479D01*
X64418D02*
X66791Y2852D01*
X65855Y479D02*
X68228Y2852D01*
X66325D02*
X68698Y479D01*
X65606Y2852D02*
X67979Y479D01*
X62263D02*
X64636Y2852D01*
X62733D02*
X65106Y479D01*
X61544D02*
X63917Y2852D01*
X62014D02*
X64387Y479D01*
X63451Y2852D02*
X65824Y479D01*
X63700D02*
X66073Y2852D01*
X62981Y479D02*
X65354Y2852D01*
X60524Y42418D02*
X61378Y41564D01*
X59458Y41498D02*
X59618Y41657D01*
X58806Y41564D02*
X59618Y42376D01*
X57984Y42084D02*
X58504Y41564D01*
X60524Y41220D02*
Y47400D01*
Y41699D02*
X60764Y41460D01*
X59618Y41339D02*
Y47281D01*
X57984Y41220D02*
X58328Y41564D01*
X57984Y44239D02*
X59618Y42606D01*
X57984Y42179D02*
X59618Y43813D01*
X57984Y44958D02*
X59618Y43324D01*
X57984Y42897D02*
X59618Y44531D01*
X57984Y43521D02*
X59618Y41887D01*
X57984Y41461D02*
X59618Y43094D01*
X57984Y42803D02*
X59223Y41564D01*
X60524Y41220D02*
X60868Y41564D01*
X60524Y39652D02*
Y39780D01*
X59392Y41564D02*
X59618Y41339D01*
X60524Y39652D02*
Y39780D01*
X60868Y39436D01*
X60298Y39425D02*
X60524Y39652D01*
X60298Y39425D02*
X60524Y39652D01*
X58477Y39436D02*
X58713Y39200D01*
X58328Y41564D02*
X59392D01*
X58328Y39436D02*
X58948D01*
X57984Y41366D02*
X58057Y41293D01*
X57984Y39780D02*
X58328Y39436D01*
X57758Y39163D02*
X57984Y39389D01*
X57895Y39300D02*
X58354Y38841D01*
X57758Y39163D02*
X57984Y39389D01*
Y41220D02*
Y47400D01*
X55025Y43607D02*
X57078Y41554D01*
X55570Y44499D02*
X57078Y42991D01*
X55384Y43966D02*
X57078Y42272D01*
Y39843D02*
Y47281D01*
X54844Y40476D02*
X57078Y42709D01*
X54763Y41113D02*
X57078Y43428D01*
X54844Y39968D02*
Y41032D01*
X53777Y41564D02*
X57078Y44865D01*
X54404Y41472D02*
X57078Y44146D01*
X53588Y42170D02*
X54194Y41564D01*
X54312D02*
X54844Y41032D01*
X54665Y43248D02*
X57078Y40835D01*
X54306Y42888D02*
X57078Y40117D01*
X53947Y42529D02*
X56856Y39621D01*
X56677Y39442D02*
X57078Y39843D01*
X57984Y39389D02*
Y39780D01*
X56034Y39442D02*
X56488D01*
X56677D01*
X57984Y39389D02*
Y39780D01*
X57357Y38762D02*
X57758Y39163D01*
X57131Y38536D02*
X57357Y38762D01*
X54844Y40913D02*
X56316Y39442D01*
X56034D02*
X56488D01*
X54844Y40195D02*
X55816Y39224D01*
X54312Y39436D02*
X54844Y39968D01*
X55808Y39216D02*
X56034Y39442D01*
X55808Y39216D02*
X56034Y39442D01*
X54599Y39722D02*
X55457Y38864D01*
X57536Y38941D02*
X57994Y38482D01*
X57597Y36724D02*
X60641Y33681D01*
X57131Y38536D02*
X57357Y38762D01*
X57176Y38582D02*
X57635Y38123D01*
X57237Y36365D02*
X60089Y33513D01*
X56878Y36006D02*
X59371Y33513D01*
X56519Y35647D02*
X58652Y33513D01*
X56160Y35288D02*
X58147Y33300D01*
X54627Y35229D02*
X58833Y39436D01*
X54627Y35114D02*
X58948Y39436D01*
X54246Y35567D02*
X58222Y39543D01*
X55801Y34928D02*
X57788Y32941D01*
X54179Y32627D02*
X60988Y39436D01*
X55441Y34569D02*
X57547Y32464D01*
X55082Y34210D02*
X57373Y31919D01*
X60647Y33687D02*
X61273D01*
X58814Y33513D02*
X60473D01*
X58360D02*
X58814D01*
X58360D02*
X58814D01*
X60473D02*
X60647Y33687D01*
X60473Y32607D02*
X60647Y32433D01*
X59559Y32607D02*
X60239Y31927D01*
X58134Y33287D02*
X58360Y33513D01*
X58134Y33287D02*
X58360Y33513D01*
X57773Y32926D02*
X58134Y33287D01*
X57547Y32700D02*
X57773Y32926D01*
X57547Y32700D02*
X57773Y32926D01*
X57547Y32246D02*
Y32700D01*
Y32246D02*
Y32700D01*
X56677Y38536D02*
X57131D01*
X56504D02*
X57276Y37763D01*
X56488Y38536D02*
X56677D01*
X57131D01*
X56136Y38185D02*
X56917Y37404D01*
X55777Y37825D02*
X56558Y37045D01*
X55418Y37466D02*
X56198Y36686D01*
X55059Y37107D02*
X55839Y36327D01*
X54700Y36748D02*
X55480Y35967D01*
X54340Y36389D02*
X55121Y35608D01*
X53448Y39436D02*
X54738Y38146D01*
X54167Y39436D02*
X55097Y38505D01*
X53981Y36029D02*
X54762Y35249D01*
X53622Y35670D02*
X53725Y35567D01*
X53373Y35253D02*
X53687Y35567D01*
X54627Y35114D02*
Y35253D01*
X54005Y33132D02*
X54685Y32452D01*
X54313Y35567D02*
X54627Y35253D01*
X53687Y32627D02*
X54313D01*
X54723Y33851D02*
X56122Y32452D01*
X54364Y33491D02*
X55404Y32452D01*
X54313Y32627D02*
X54488Y32452D01*
X53687Y35567D02*
X54313D01*
X53373Y34627D02*
X53687Y34313D01*
X53263Y35311D02*
X53373Y35200D01*
Y34627D02*
Y35253D01*
X53687Y34313D02*
X53826D01*
X53645Y32773D02*
X53792Y32627D01*
X53373Y32313D02*
X53687Y32627D01*
X50903Y41564D02*
X54666Y45327D01*
X50490Y43831D02*
X52192Y42129D01*
X50490Y43113D02*
X51833Y41770D01*
X50490Y42395D02*
X51320Y41564D01*
X52304Y40810D02*
X57078Y45583D01*
X52304Y40887D02*
X55344Y43926D01*
X51622Y41564D02*
X54666Y44609D01*
X51627Y41564D02*
X54666Y44603D01*
X50490Y43305D02*
X54240Y47056D01*
X50490Y46705D02*
X53629Y43566D01*
X50490Y45987D02*
X53270Y43207D01*
X50490Y45268D02*
X52910Y42847D01*
X50490Y42587D02*
X54666Y46764D01*
X50490Y41869D02*
X54666Y46045D01*
X50490Y44550D02*
X52551Y42488D01*
X53229Y41811D02*
X53475Y41564D01*
X53248D02*
X54312D01*
X52716Y41032D02*
X53248Y41564D01*
X52869Y41452D02*
X53003Y41318D01*
X52716Y39968D02*
X53248Y39436D01*
X54312D01*
X52510Y41092D02*
X52716Y40886D01*
Y39968D02*
Y41032D01*
X50708Y41564D02*
X51627D01*
X52304Y40580D02*
X52716Y40168D01*
X50490Y41676D02*
X50655Y41511D01*
X50176Y41032D02*
X50708Y41564D01*
X52304Y40091D02*
X52716Y40503D01*
X51772Y39436D02*
X52304Y39968D01*
Y40887D01*
X50490Y41612D02*
Y42063D01*
Y41612D02*
Y42063D01*
X49586D02*
Y47410D01*
X50490Y42063D02*
Y47274D01*
X50264Y41386D02*
X50490Y41612D01*
X50264Y41386D02*
X50490Y41612D01*
X49087Y41564D02*
X49586Y42063D01*
X49764Y40887D02*
X50264Y41386D01*
X47002Y41254D02*
X49586Y43839D01*
X48748Y41564D02*
X49586Y42402D01*
X46593Y41564D02*
X49586Y44557D01*
X48168Y41564D02*
X49087D01*
X47224Y40759D02*
X49586Y43121D01*
X47636Y41032D02*
X48168Y41564D01*
X46692D02*
X47224Y41032D01*
X50163Y41285D02*
X50296Y41152D01*
X49764Y40425D02*
X50176Y40837D01*
X49803Y40926D02*
X50176Y40553D01*
X49764Y39968D02*
Y40887D01*
X50176Y39968D02*
Y41032D01*
X49232Y39436D02*
X49764Y39968D01*
X48168Y39436D02*
X49232D01*
X47636Y39968D02*
Y41032D01*
X47224Y40040D02*
X47636Y40452D01*
X47224Y39968D02*
Y41032D01*
Y40631D02*
X47636Y40219D01*
X46692Y39436D02*
X47224Y39968D01*
X47636D02*
X48168Y39436D01*
X46620D02*
X47224Y40040D01*
X52251Y39915D02*
X54379Y37787D01*
X51892Y39555D02*
X54020Y37428D01*
X50708Y39436D02*
X51772D01*
X51293D02*
X53661Y37068D01*
X49616Y33092D02*
X57078Y40554D01*
X52617Y31783D02*
X60524Y39690D01*
X49764Y40246D02*
X53301Y36709D01*
X49544Y39748D02*
X52942Y36350D01*
X48308Y35377D02*
X52808Y39876D01*
X49138Y39436D02*
X52583Y35991D01*
X47197Y39940D02*
X51865Y35272D01*
X48419Y39436D02*
X52224Y35632D01*
X49127Y34040D02*
X57078Y41991D01*
X49141Y33335D02*
X57078Y41273D01*
X48920Y35270D02*
X53167Y39517D01*
X52904Y34952D02*
X53684Y34171D01*
X52544Y34593D02*
X53325Y33812D01*
X52185Y34233D02*
X52966Y33453D01*
X51826Y33874D02*
X52606Y33094D01*
X52881Y32009D02*
X60298Y39425D01*
X52202Y32689D02*
X53826Y34313D01*
X52086Y32689D02*
X53711Y34313D01*
X49684Y33092D02*
X55808Y39216D01*
X50641Y32689D02*
X56488Y38536D01*
X49127Y34758D02*
X53804Y39436D01*
X51467Y33515D02*
X52247Y32734D01*
X50650Y32689D02*
X56496Y38536D01*
X51368Y32689D02*
X53373Y34694D01*
X50641Y32689D02*
X52202D01*
X50176Y39968D02*
X50708Y39436D01*
X49065Y34375D02*
X49127Y34313D01*
Y34437D02*
Y35063D01*
X49065Y34375D02*
X49127Y34437D01*
X49117Y34427D02*
X50068Y33476D01*
X49127Y33700D02*
X49709Y33117D01*
X49127Y33687D02*
Y34313D01*
X49072Y33632D02*
X49127Y33687D01*
X46448Y34953D02*
X50931Y39436D01*
X48813Y35377D02*
X49127Y35063D01*
X47873D02*
X48187Y35377D01*
X48813D01*
X46837Y39581D02*
X51505Y34913D01*
X47166Y34953D02*
X51649Y39436D01*
X47873Y34953D02*
Y35063D01*
X49072Y33632D02*
X49141Y33563D01*
Y33092D02*
Y33563D01*
X47827Y33562D02*
X47887Y33502D01*
Y33092D02*
Y33562D01*
X51107Y33156D02*
X51574Y32689D01*
X50748Y32796D02*
X50856Y32689D01*
X49141Y33092D02*
X49684D01*
X47109Y33562D02*
X47579Y33092D01*
X47461D02*
X47887Y33519D01*
X47017Y33092D02*
X47471D01*
X47017D02*
X47471D01*
X46791Y32866D02*
X47017Y33092D01*
X47471D02*
X47887D01*
X46791Y32866D02*
X47017Y33092D01*
X59945Y31927D02*
X60549Y32531D01*
X60647Y32433D02*
X61273D01*
X58840Y32607D02*
X59604Y31844D01*
X58814Y32607D02*
X60473D01*
X58867Y31567D02*
X59907Y32607D01*
X60488Y31752D02*
X61170Y32433D01*
X58627Y31567D02*
Y31963D01*
X59373Y31613D02*
X59687Y31927D01*
X58453Y32246D02*
X58814Y32607D01*
X58586Y32004D02*
X59188Y32607D01*
X58453Y32137D02*
Y32246D01*
Y32137D02*
X58627Y31963D01*
X58468Y32261D02*
X59162Y31567D01*
X52927Y32055D02*
X61123Y23858D01*
X56911Y31766D02*
X57547Y32402D01*
X60313Y31927D02*
X60627Y31613D01*
Y30987D02*
Y31613D01*
X59687Y31927D02*
X60313D01*
X59956Y30673D02*
X60313D01*
X60671Y23313D02*
X61123Y23765D01*
Y23387D02*
X61197Y23313D01*
X60313Y30673D02*
X60627Y30987D01*
X61123Y23387D02*
Y24013D01*
X59494Y30663D02*
X59946D01*
X59494D02*
X59946D01*
X58627Y31567D02*
X59373D01*
X57111Y30663D02*
X59494D01*
X52481Y31783D02*
X60950Y23313D01*
X55853D02*
X61197D01*
X51762Y31783D02*
X60232Y23313D01*
X56226Y32452D02*
X56452Y32226D01*
X56226Y32452D02*
X56452Y32226D01*
X55774Y32452D02*
X56226D01*
X55774D02*
X56226D01*
X57547Y32137D02*
Y32246D01*
X57373Y31963D02*
X57547Y32137D01*
X56452Y32226D02*
X57111Y31567D01*
X57373D02*
Y31963D01*
X54488Y32452D02*
X55774D01*
X53286Y32414D02*
X53380Y32320D01*
X52202Y31783D02*
X52655D01*
X52202D02*
X52655D01*
X53373Y31687D02*
Y32313D01*
X52655Y31783D02*
X52881Y32009D01*
X52655Y31783D02*
X52881Y32009D01*
X57111Y31567D02*
X57373D01*
X56433Y30889D02*
X56659Y30663D01*
X55774Y31548D02*
X56433Y30889D01*
X56659Y30663D01*
X57111D01*
X56659D02*
X57111D01*
X55399Y23313D02*
X55853D01*
X54313Y31373D02*
X54488Y31548D01*
X55774D01*
X53373Y31687D02*
X53687Y31373D01*
X54313D01*
X55173Y23087D02*
X55399Y23313D01*
X55853D01*
X55173Y23087D02*
X55399Y23313D01*
X56272Y16758D02*
X61158Y21645D01*
X56858Y15910D02*
X60120Y12648D01*
X56831Y16537D02*
X56858Y16400D01*
Y12648D02*
Y16400D01*
Y15191D02*
X59401Y12648D01*
X56858Y14473D02*
X58683Y12648D01*
X56858Y13755D02*
X57965Y12648D01*
X56858Y13036D02*
X57246Y12648D01*
X53398Y16758D02*
X58284Y21645D01*
X54116Y16758D02*
X59003Y21645D01*
X51961Y16758D02*
X56847Y21645D01*
X52680Y16758D02*
X57566Y21645D01*
X55553Y16758D02*
X60440Y21645D01*
X54101Y19386D02*
X60838Y12648D01*
X54835Y16758D02*
X59721Y21645D01*
X57234Y479D02*
X59607Y2852D01*
X57704D02*
X60077Y479D01*
X56985Y2852D02*
X59358Y479D01*
X56858Y1541D02*
X57921Y479D01*
X58422Y2852D02*
X60795Y479D01*
X58671D02*
X61044Y2852D01*
X57952Y479D02*
X60325Y2852D01*
X56858Y2258D02*
X57452Y2852D01*
X56858Y1540D02*
X58170Y2852D01*
X56858Y1500D02*
Y2852D01*
X56831Y1363D02*
X56858Y1500D01*
X56515Y479D02*
X58888Y2852D01*
X56858Y2260D02*
X58640Y479D01*
X56533Y1148D02*
X57203Y479D01*
X53742Y19026D02*
X56010Y16758D01*
X56500D02*
X56637Y16731D01*
X53383Y18667D02*
X55291Y16758D01*
X53024Y18308D02*
X54573Y16758D01*
X56753Y16653D02*
X56831Y16537D01*
X56753Y1247D02*
X56831Y1363D01*
X56637Y16731D02*
X56753Y16653D01*
X56637Y1169D02*
X56753Y1247D01*
X52668Y17952D02*
X56361Y21645D01*
X52441Y17726D02*
X52668Y17952D01*
X51988Y17726D02*
X52441D01*
X51988D02*
X52441D01*
X52664Y17949D02*
X53855Y16758D01*
X52169Y17726D02*
X53136Y16758D01*
X52441Y17726D02*
X52668Y17952D01*
X56500Y1142D02*
X56637Y1169D01*
X55079Y479D02*
X55742Y1142D01*
X54360Y479D02*
X55023Y1142D01*
X54385D02*
X55048Y479D01*
X55797D02*
X56460Y1142D01*
X55822D02*
X56485Y479D01*
X55103Y1142D02*
X55766Y479D01*
X52230Y1142D02*
X52892Y479D01*
X52923D02*
X53586Y1142D01*
X51511D02*
X52174Y479D01*
X52205D02*
X52868Y1142D01*
X53642Y479D02*
X54305Y1142D01*
X53666D02*
X54329Y479D01*
X52948Y1142D02*
X53611Y479D01*
X48170Y31783D02*
X56639Y23313D01*
X47718Y31516D02*
X55921Y23313D01*
X47718Y29758D02*
X49743Y31783D01*
X47718D02*
X52202D01*
X50325D02*
X58795Y23313D01*
X51044Y31783D02*
X59513Y23313D01*
X48888Y31783D02*
X57358Y23313D01*
X49607Y31783D02*
X58076Y23313D01*
X47141Y25589D02*
X53373Y31821D01*
X46927Y26092D02*
X52617Y31783D01*
X47127Y28448D02*
X50462Y31783D01*
X46542Y26427D02*
X51898Y31783D01*
X47443Y23735D02*
X55256Y31548D01*
X47443Y23017D02*
X55874Y31448D01*
X47443Y24454D02*
X54538Y31548D01*
X47718Y30797D02*
X55301Y23215D01*
X47443Y21580D02*
X56593Y30730D01*
X47718Y30079D02*
X54942Y22856D01*
X47524Y29555D02*
X54583Y22496D01*
X47443Y20862D02*
X57245Y30663D01*
X47443Y24607D02*
X52068Y19982D01*
X47443Y23888D02*
X51709Y19623D01*
X47443Y22298D02*
X56234Y31089D01*
X47164Y29196D02*
X54223Y22137D01*
X47443Y25172D02*
X53666Y31395D01*
X47127Y28515D02*
X53864Y21778D01*
X46982Y27942D02*
X53505Y21419D01*
X46432Y27773D02*
X53146Y21060D01*
X46927Y25842D02*
X52427Y20341D01*
X47718Y31195D02*
X48306Y31783D01*
X47718Y30476D02*
X49025Y31783D01*
X47718Y30203D02*
Y31783D01*
Y29750D02*
Y30203D01*
X47492Y29524D02*
X47718Y29750D01*
X47492Y29524D02*
X47718Y29750D01*
Y30203D01*
X47127Y28087D02*
Y28713D01*
Y29158D02*
X47492Y29524D01*
X47015Y28825D02*
X47127Y28713D01*
Y28937D02*
Y29158D01*
X47015Y28825D02*
X47127Y28937D01*
X46813Y27773D02*
X47127Y28087D01*
X46927Y25803D02*
Y26113D01*
X46613Y26427D02*
X46927Y26113D01*
X47443Y21235D02*
Y24833D01*
Y20781D02*
Y21235D01*
Y24833D02*
Y25287D01*
Y24833D02*
Y25287D01*
X47217Y20555D02*
X47443Y20781D01*
X47217Y20555D02*
X47443Y20781D01*
Y21235D01*
X47217Y25513D02*
X47443Y25287D01*
X47217Y25513D02*
X47443Y25287D01*
X46927Y25803D02*
X47217Y25513D01*
X46537Y21235D02*
Y23873D01*
X47109Y20447D02*
X47217Y20555D01*
X46795Y19873D02*
X47109Y20187D01*
Y20447D01*
X48831Y19376D02*
X60129Y30673D01*
X51462Y19376D02*
X55173Y23087D01*
X48369Y16758D02*
X49336Y17726D01*
X48577D02*
X49544Y16758D01*
X49806D02*
X50773Y17726D01*
X50014D02*
X50981Y16758D01*
X49087D02*
X50055Y17726D01*
X49295D02*
X50263Y16758D01*
X46727Y19427D02*
X57963Y30663D01*
X47395Y19376D02*
X58682Y30663D01*
X47443Y23170D02*
X51237Y19376D01*
X46779D02*
X51462D01*
X48113D02*
X59400Y30663D01*
X47443Y22452D02*
X50519Y19376D01*
X47443Y21733D02*
X49800Y19376D01*
X51243Y16758D02*
X52210Y17726D01*
X51451D02*
X52418Y16758D01*
X50524D02*
X51491Y17726D01*
X50732D02*
X51699Y16758D01*
X50793Y1142D02*
X51456Y479D01*
X51487D02*
X52149Y1142D01*
X50768Y479D02*
X51431Y1142D01*
X48000Y16758D02*
X56500D01*
X48000Y1142D02*
X56500D01*
X48637D02*
X49300Y479D01*
X49331D02*
X49994Y1142D01*
X50050Y479D02*
X50713Y1142D01*
X50074D02*
X50737Y479D01*
X49356Y1142D02*
X50019Y479D01*
X47443Y21015D02*
X49082Y19376D01*
X47859Y17726D02*
X48826Y16758D01*
X47863Y16731D02*
X48000Y16758D01*
X47747Y16653D02*
X47863Y16731D01*
X47402Y16510D02*
X48618Y17726D01*
X47669Y16537D02*
X47747Y16653D01*
X47337Y16510D02*
X47663D01*
X47310Y1331D02*
X47369Y1390D01*
X47201Y20539D02*
X48363Y19376D01*
X47140Y17726D02*
X48107Y16758D01*
X46971Y20050D02*
X47645Y19376D01*
X46932Y16758D02*
X47899Y17726D01*
X47137Y16731D02*
X47253Y16653D01*
X47331Y16537D01*
X47000Y16758D02*
X47137Y16731D01*
X47747Y1247D02*
X47863Y1169D01*
X48000Y1142D01*
X47337Y1390D02*
X47663D01*
X47669Y1363D02*
X47747Y1247D01*
X47899Y1162D02*
X48582Y479D01*
X48613D02*
X49276Y1142D01*
X47894Y479D02*
X48557Y1142D01*
X47253Y1247D02*
X47331Y1363D01*
X47137Y1169D02*
X47253Y1247D01*
X46458Y479D02*
X47169Y1190D01*
X47000Y1142D02*
X47137Y1169D01*
X47159Y1183D02*
X47863Y479D01*
X47176D02*
X47866Y1168D01*
X46482Y1142D02*
X47145Y479D01*
X46065Y82021D02*
X50194Y77892D01*
X46289Y77900D02*
X50411Y82021D01*
X44628D02*
X48750Y77900D01*
X45671D02*
X46785D01*
X44802Y77131D02*
X49692Y82021D01*
X45347D02*
X50194Y77174D01*
X44802Y77849D02*
X48974Y82021D01*
X44518Y73255D02*
X47654Y76391D01*
X42697Y77900D02*
X46819Y82021D01*
X43415Y77900D02*
X47537Y82021D01*
X41755D02*
X45877Y77900D01*
X42473Y82021D02*
X46595Y77900D01*
X43910Y82021D02*
X48122Y77810D01*
X44134Y77900D02*
X48256Y82021D01*
X43192D02*
X47762Y77451D01*
X45955Y71818D02*
X50194Y76058D01*
X46314Y71459D02*
X50528Y75672D01*
X45671D02*
X46785D01*
X45595Y72177D02*
X49091Y75672D01*
X45949D02*
X53233Y68388D01*
X46227Y68498D02*
X47073Y69344D01*
X46025Y69015D02*
X46714Y69704D01*
X45913Y69127D02*
X46227Y68813D01*
X45236Y72536D02*
X48372Y75672D01*
X44140Y73633D02*
X48232Y69541D01*
X44877Y72895D02*
X47933Y75951D01*
X44159Y73614D02*
X46217Y75672D01*
X43462Y72956D02*
X47554Y68863D01*
X45419Y69127D02*
X46355Y70063D01*
X45287Y69127D02*
X45913D01*
X45114Y77343D02*
X45671Y77900D01*
X44802Y77538D02*
X45114Y77225D01*
X42574Y77777D02*
X42697Y77900D01*
X42574D02*
X44802D01*
X45114Y76229D02*
Y77343D01*
X44802Y76412D02*
X45114Y76725D01*
X44802Y75672D02*
Y77900D01*
Y76819D02*
X45114Y76507D01*
X40318Y82021D02*
X44440Y77900D01*
X41036Y82021D02*
X45415Y77643D01*
X38881Y82021D02*
X43003Y77900D01*
X39600Y82021D02*
X43721Y77900D01*
X37444Y82021D02*
X42574Y76891D01*
Y75672D02*
Y77900D01*
X38163Y82021D02*
X42574Y77610D01*
X45114Y76229D02*
X45671Y75672D01*
X44802Y75694D02*
X45226Y76118D01*
X44140Y75032D02*
X44780Y75672D01*
X44140D02*
X44802D01*
X44140Y74313D02*
X45585Y75759D01*
X44973Y68813D02*
X45287Y69127D01*
X44140Y73633D02*
Y75672D01*
X43236Y73633D02*
Y75672D01*
Y73181D02*
Y73633D01*
X42574Y75672D02*
X43236D01*
X43075D02*
X43236Y75511D01*
Y73181D02*
X43462Y72956D01*
X43236Y73181D02*
X43462Y72956D01*
X43236Y73181D02*
Y73633D01*
X44802Y76101D02*
X52874Y68029D01*
X44512Y75672D02*
X52514Y67670D01*
X44140Y75326D02*
X52155Y67311D01*
X45913Y67873D02*
X46227Y68187D01*
X44140Y74608D02*
X51796Y66951D01*
X44140Y73889D02*
X51437Y66592D01*
X46227Y68210D02*
X47554Y66882D01*
X45845Y67873D02*
X47554Y66164D01*
X40407Y60523D02*
X47554Y67670D01*
X41125Y60523D02*
X47554Y66952D01*
X38970Y60523D02*
X47433Y68985D01*
X39688Y60523D02*
X47554Y68389D01*
X42562Y60523D02*
X47554Y65515D01*
X43280Y60523D02*
X47554Y64797D01*
X41844Y60523D02*
X47554Y66233D01*
X45791Y59845D02*
X48232Y62286D01*
X46240Y60294D02*
X49586Y56948D01*
X44717Y60523D02*
X47554Y63360D01*
X45113Y60523D02*
X47554Y62964D01*
X45881Y59935D02*
X49586Y56229D01*
X45842Y55900D02*
X49586Y59644D01*
X44759Y59619D02*
X48479Y55900D01*
X43686D02*
X49586Y61800D01*
X44325Y55820D02*
X49586Y61081D01*
X43999Y60523D02*
X47554Y64078D01*
X42604Y59619D02*
X46324Y55900D01*
X37790Y51440D02*
X49586Y63236D01*
X37790Y50721D02*
X49586Y62518D01*
X44684Y55460D02*
X49586Y60363D01*
X46227Y68187D02*
Y68813D01*
X45287Y67873D02*
X45913D01*
X44973Y68187D02*
Y68813D01*
Y68187D02*
X45287Y67873D01*
X39127Y67145D02*
X44200Y72218D01*
X39127Y66689D02*
X45203Y60613D01*
X38852Y67588D02*
X43840Y72577D01*
X39127Y66687D02*
Y67313D01*
X37998Y67453D02*
X43481Y72937D01*
X38813Y67627D02*
X39127Y67313D01*
X38013Y67453D02*
X38187Y67627D01*
X38813D01*
X38252Y60523D02*
X45602Y67873D01*
X38813Y66373D02*
X39127Y66687D01*
X38013Y66547D02*
X38187Y66373D01*
X38199Y60523D02*
X45113D01*
X45565Y59619D02*
X45791Y59845D01*
X38187Y66373D02*
X38813D01*
X38724D02*
X44575Y60523D01*
X45565Y59619D02*
X45791Y59845D01*
X40449Y59619D02*
X44169Y55900D01*
X39730Y59619D02*
X43450Y55900D01*
X37832Y66547D02*
X43856Y60523D01*
X37747D02*
X38199D01*
X37521Y60297D02*
X37747Y60523D01*
X38199D01*
X37790Y54313D02*
X43096Y59619D01*
X37790Y52876D02*
X44533Y59619D01*
X37521Y60297D02*
X37747Y60523D01*
X35289Y82021D02*
X43236Y74074D01*
X34571Y82021D02*
X43236Y73356D01*
X36726Y82021D02*
X42574Y76173D01*
X36007Y82021D02*
X43236Y74792D01*
X32415Y82021D02*
X45310Y69127D01*
X36027Y72666D02*
X45382Y82021D01*
X35741Y73099D02*
X44664Y82021D01*
X31697D02*
X44973Y68745D01*
X27386Y82021D02*
X46999Y62409D01*
X28105Y82021D02*
X47358Y62768D01*
X18047Y82021D02*
X39546Y60523D01*
X24513Y82021D02*
X45562Y60972D01*
X19484Y82021D02*
X40983Y60523D01*
X20202Y82021D02*
X41701Y60523D01*
X18765Y82021D02*
X40264Y60523D01*
X37280Y67453D02*
X43236Y73410D01*
X36027Y72663D02*
X46640Y62049D01*
X36016Y67627D02*
X43236Y74847D01*
X36685Y67577D02*
X43236Y74129D01*
X35905Y72066D02*
X46281Y61690D01*
X35379Y71873D02*
X45922Y61331D01*
X37114Y66547D02*
X43138Y60523D01*
X36569Y66373D02*
X42419Y60523D01*
X30978Y82021D02*
X47554Y65445D01*
X6755Y82021D02*
X90245D01*
X33852D02*
X47554Y68319D01*
X33134Y82021D02*
X47554Y67601D01*
X29542Y82021D02*
X47554Y64009D01*
X28823Y82021D02*
X47554Y63290D01*
X30260Y82021D02*
X47554Y64727D01*
X35087Y73127D02*
X35713D01*
X36027Y72813D01*
X26668Y82021D02*
X35563Y73127D01*
X34773Y72813D02*
X35087Y73127D01*
X23076Y82021D02*
X37644Y67453D01*
X23794Y82021D02*
X38189Y67627D01*
X36027Y72187D02*
Y72813D01*
X34773Y72187D02*
X35087Y71873D01*
X22357Y82021D02*
X36926Y67453D01*
X16610Y82021D02*
X38109Y60523D01*
X20921Y82021D02*
X35695Y67247D01*
X21639Y82021D02*
X36034Y67627D01*
X15892Y82021D02*
X37569Y60344D01*
X17328Y82021D02*
X38827Y60523D01*
X15173Y82021D02*
X37210Y59985D01*
X36809Y67453D02*
X38013D01*
X36809Y66547D02*
X38013D01*
X36635Y67627D02*
X36809Y67453D01*
X36009Y66373D02*
X36635D01*
X37112Y59888D02*
X37521Y60297D01*
X36886Y59662D02*
X37112Y59888D01*
X36635Y66373D02*
X36809Y66547D01*
X35713Y71873D02*
X36027Y72187D01*
X36009Y67627D02*
X36635D01*
X35087Y71873D02*
X35713D01*
X35695Y67313D02*
X36009Y67627D01*
X35695Y67306D02*
X36016Y67627D01*
X35695Y66687D02*
X36009Y66373D01*
X35695Y66687D02*
Y67313D01*
X12520Y51315D02*
X43227Y82021D01*
X12810Y50886D02*
X43945Y82021D01*
X11798Y52030D02*
X41790Y82021D01*
X12161Y51674D02*
X42508Y82021D01*
X11253Y45019D02*
X42574Y76340D01*
X13258Y46306D02*
X42625Y75672D01*
X11253Y46456D02*
X42574Y77777D01*
X11253Y45737D02*
X42574Y77059D01*
X11080Y52030D02*
X41071Y82021D01*
X11253Y47174D02*
X46100Y82021D01*
X479Y45021D02*
X37479Y82021D01*
X10361Y52030D02*
X40353Y82021D01*
X479Y43584D02*
X38916Y82021D01*
X479Y42865D02*
X39635Y82021D01*
X479Y44302D02*
X38198Y82021D01*
X26207Y51352D02*
X45636Y70781D01*
X26925Y51352D02*
X45996Y70422D01*
X27472Y51180D02*
X44973Y68681D01*
X36886Y59662D02*
X37112Y59888D01*
X27831Y50821D02*
X45085Y68075D01*
X21352Y50088D02*
X37810Y66547D01*
X21349Y50804D02*
X37092Y66547D01*
X16506Y43806D02*
X44559Y71859D01*
X16556Y43137D02*
X44918Y71500D01*
X13977Y46306D02*
X43236Y75565D01*
X15787Y43806D02*
X38355Y66373D01*
X5688Y73546D02*
X37839Y41395D01*
X16556Y42419D02*
X45277Y71140D01*
X6227Y73726D02*
X36886Y43066D01*
X13018Y82021D02*
X36886Y58153D01*
X12300Y82021D02*
X36886Y57435D01*
X14455Y82021D02*
X36886Y59590D01*
X13736Y82021D02*
X36886Y58871D01*
X10144Y82021D02*
X36886Y55279D01*
X9426Y82021D02*
X36886Y54561D01*
X11581Y82021D02*
X36886Y56716D01*
X10863Y82021D02*
X36886Y55998D01*
X7271Y82021D02*
X36886Y52406D01*
X9065Y77354D02*
X36886Y49532D01*
X8708Y82021D02*
X36886Y53843D01*
X7989Y82021D02*
X36886Y53124D01*
X479Y46458D02*
X36042Y82021D01*
X479Y45739D02*
X36761Y82021D01*
X479Y47176D02*
X35324Y82021D01*
X20127Y68447D02*
X36886Y51687D01*
Y59210D02*
Y59662D01*
X19741Y51352D02*
X35695Y67306D01*
X36886Y59210D02*
Y59662D01*
X19807Y68048D02*
X36886Y50969D01*
X20989Y51163D02*
X36200Y66373D01*
X20459Y51352D02*
X35745Y66637D01*
X8755Y76226D02*
X35798Y49184D01*
X15263Y71873D02*
X36886Y50250D01*
X8520Y75743D02*
X35079Y49184D01*
X12810Y49449D02*
X35234Y71873D01*
X14445Y66945D02*
X36886Y44503D01*
X13798Y66873D02*
X36886Y43785D01*
X8940Y76760D02*
X36516Y49184D01*
X45478Y59619D02*
X49198Y55900D01*
X45671D02*
X46785D01*
X45113Y59619D02*
X45565D01*
X45113D02*
X45565D01*
X45114Y54235D02*
X45677Y53672D01*
X45114Y54229D02*
X45671Y53672D01*
X45114Y55343D02*
X45671Y55900D01*
X44802Y54548D02*
X45114Y54235D01*
X43323Y59619D02*
X47654Y55288D01*
X44041Y59619D02*
X47986Y55674D01*
X41167Y59619D02*
X45279Y55508D01*
X41886Y59619D02*
X45638Y55867D01*
X42144Y48610D02*
X47709Y54175D01*
X44602Y54030D02*
X49586Y49045D01*
X44802Y54860D02*
X45114Y55172D01*
X46396Y53672D02*
X49586Y50482D01*
X45677Y53672D02*
X49586Y49763D01*
X45671Y53672D02*
X46785D01*
X45628Y49184D02*
X46692D01*
X44513Y48823D02*
X49586Y53897D01*
X44684Y48277D02*
X49586Y53179D01*
X46310Y49184D02*
X49586Y52460D01*
X45096Y48652D02*
X45628Y49184D01*
X43437D02*
X48068Y53815D01*
X44241Y53672D02*
X48729Y49184D01*
X40563D02*
X45361Y53982D01*
X41281Y49184D02*
X45770Y53672D01*
X43522D02*
X48089Y49105D01*
X44154Y49183D02*
X48643Y53672D01*
X41806Y48990D02*
X46488Y53672D01*
X44169Y55900D02*
X44802Y55267D01*
X45114Y54954D01*
X43131Y55900D02*
X44245D01*
X44802Y55343D01*
X45114Y54229D02*
Y55343D01*
X44245Y53672D02*
X44802Y54229D01*
Y55343D01*
X43131Y53672D02*
X44245D01*
X42574Y55343D02*
X43131Y55900D01*
X42574Y54229D02*
X43131Y53672D01*
X39012Y59619D02*
X42932Y55700D01*
X42574Y54229D02*
Y55343D01*
X39458Y48798D02*
X45114Y54454D01*
X39099Y49157D02*
X43614Y53672D01*
X39072Y49184D02*
X39604Y48652D01*
X43088Y49184D02*
X44152D01*
X44684Y48652D01*
X42556D02*
X43088Y49184D01*
X42144Y48585D02*
X42556Y48173D01*
Y47588D02*
Y48652D01*
X44684Y48200D02*
X45096Y47788D01*
X42144Y47892D02*
X42556Y48304D01*
X40548Y49184D02*
X41612D01*
X42144Y48652D01*
X40016D02*
X40548Y49184D01*
X40016Y48637D02*
X40563Y49184D01*
X41545D02*
X42144Y48585D01*
X39604Y48251D02*
X40016Y47839D01*
X39604Y48225D02*
X40016Y48637D01*
X45096Y47588D02*
X45628Y47056D01*
X44631Y47535D02*
X49586Y42579D01*
X45096Y47588D02*
Y48652D01*
X44152Y47056D02*
X44684Y47588D01*
X42144Y47866D02*
X48447Y41564D01*
X44272Y47175D02*
X49485Y41962D01*
X41924Y47368D02*
X47948Y41344D01*
X41947Y41229D02*
X47971Y47253D01*
X41564Y41564D02*
X47636Y47636D01*
X41564Y41564D02*
X47636Y47636D01*
X38992Y41866D02*
X45096Y47970D01*
X39577Y47560D02*
X45601Y41536D01*
X39241Y41396D02*
X45264Y47420D01*
X39600Y41037D02*
X45624Y47060D01*
X39217Y47201D02*
X45241Y41177D01*
X45828Y47056D02*
X49586Y43298D01*
X45875Y41564D02*
X49586Y45276D01*
X45628Y47056D02*
X46692D01*
X45628Y41564D02*
X46692D01*
X45096Y39968D02*
X45628Y39436D01*
X46692D01*
X45096Y39968D02*
Y41032D01*
X40846Y41564D02*
X46337Y47056D01*
X43673D02*
X49126Y41603D01*
X40799Y47056D02*
X46291Y41564D01*
X45096Y41032D02*
X45628Y41564D01*
X42144Y40708D02*
X48493Y47056D01*
X42144Y39989D02*
X49211Y47056D01*
X41518D02*
X47636Y40937D01*
X42144Y47588D02*
Y48652D01*
X44684Y47588D02*
Y48652D01*
X40016Y47588D02*
Y48652D01*
Y47588D02*
X40548Y47056D01*
X42556Y47588D02*
X43088Y47056D01*
X44152D01*
X41612D02*
X42144Y47588D01*
X40548Y47056D02*
X41612D01*
X39604Y47588D02*
Y48652D01*
X39072Y47056D02*
X39604Y47588D01*
X38766Y42175D02*
X38992Y41949D01*
X38766Y42175D02*
X38992Y41949D01*
Y41564D02*
Y41949D01*
Y41679D02*
X40016Y40655D01*
X38992Y41564D02*
Y41949D01*
X41612Y41564D02*
X42144Y41032D01*
Y39968D02*
Y41032D01*
X40548Y41564D02*
X41612D01*
X40016Y39968D02*
X40548Y39436D01*
X41591D02*
X42144Y39989D01*
X41612Y39436D02*
X42144Y39968D01*
X40548Y39436D02*
X41612D01*
X40016Y41032D02*
X40548Y41564D01*
X39604Y40323D02*
X40016Y40735D01*
X38992Y41564D02*
X39072D01*
X39604Y41032D01*
X40016Y39968D02*
Y41032D01*
X39072Y39436D02*
X39604Y39968D01*
Y41032D01*
X38199Y59619D02*
X45113D01*
X37790Y57968D02*
X46574Y49184D01*
X38294Y59619D02*
X42574Y55339D01*
X37887Y59308D02*
X42574Y54620D01*
X37790Y57250D02*
X45855Y49184D01*
X37790Y56531D02*
X45383Y48938D01*
X37790Y55813D02*
X45096Y48506D01*
X37790Y55095D02*
X43700Y49184D01*
X37790Y55750D02*
X41659Y59619D01*
X37790Y55032D02*
X42377Y59619D01*
X37790Y57187D02*
X40222Y59619D01*
X37790Y56469D02*
X40940Y59619D01*
X37790Y52158D02*
X45251Y59619D01*
X37790Y58687D02*
X47730Y48746D01*
X37790Y53595D02*
X43814Y59619D01*
X38408Y49184D02*
X43014Y53790D01*
X37790Y44974D02*
X40210Y47394D01*
X37790Y50784D02*
X40016Y48557D01*
X37790Y45692D02*
X40016Y47919D01*
X37956Y42985D02*
X42558Y47586D01*
X37790Y43537D02*
X41308Y47056D01*
X37790Y44255D02*
X40590Y47056D01*
X37790Y50003D02*
X42574Y54788D01*
X37790Y49284D02*
X42654Y54149D01*
X37790Y52939D02*
X41545Y49184D01*
X37790Y52221D02*
X40827Y49184D01*
X37790Y54376D02*
X43035Y49131D01*
X37790Y53658D02*
X42676Y48772D01*
X37790Y51502D02*
X40328Y48964D01*
X37790Y58624D02*
X38785Y59619D01*
X37790Y57905D02*
X39504Y59619D01*
X37790Y59210D02*
X38199Y59619D01*
X36252Y49184D02*
X36886Y49818D01*
X37790Y50066D02*
X38671Y49184D01*
X37790Y49347D02*
X37981Y49156D01*
X36886Y49184D02*
Y59210D01*
X37790Y48965D02*
Y59210D01*
X29333Y45857D02*
X36886Y53410D01*
X35534Y49184D02*
X36886Y50536D01*
X27852Y50123D02*
X36886Y59157D01*
X34936Y49184D02*
X36886D01*
X28901Y43988D02*
X36886Y51973D01*
X28901Y43270D02*
X36886Y51255D01*
X29627Y45432D02*
X36886Y52692D01*
X38008Y49184D02*
X39072D01*
X37790Y47274D02*
X38008Y47056D01*
X37790Y48965D02*
X38008Y49184D01*
X37790Y47129D02*
X37862Y47202D01*
X37790Y46411D02*
X38435Y47056D01*
X38008D02*
X39072D01*
X37790Y43152D02*
Y47274D01*
X36489Y47056D02*
X36886Y46658D01*
X35771Y47056D02*
X36886Y45940D01*
X34936Y47172D02*
X35052Y47056D01*
X34936D02*
X36886D01*
Y43152D02*
Y47056D01*
Y42700D02*
Y43152D01*
X35052Y47056D02*
X36886Y45221D01*
X38315Y42626D02*
X42917Y47227D01*
X38675Y42267D02*
X43464Y47056D01*
X37790Y43152D02*
X38766Y42175D01*
X37112Y42474D02*
X38023Y41564D01*
X38644Y47056D02*
X45096Y40604D01*
X37790Y45037D02*
X41262Y41564D01*
X37790Y44318D02*
X40546Y41562D01*
X37790Y43600D02*
X40187Y41203D01*
X36886Y42700D02*
X37112Y42474D01*
X36535Y41564D02*
X37279Y42308D01*
X36886Y42700D02*
X37112Y42474D01*
X34936Y41564D02*
X37064D01*
Y41375D02*
X37638Y41949D01*
X37064Y40657D02*
X37997Y41589D01*
X37064Y39436D02*
Y41564D01*
X38023D02*
X38089Y41498D01*
X38008Y39436D02*
X39072D01*
X37476Y39968D02*
Y41032D01*
Y39968D02*
X38008Y39436D01*
X37805Y37805D02*
X40016Y40016D01*
X38164Y37446D02*
X40351Y39633D01*
X37805Y37805D02*
X40016Y40016D01*
X37476Y41032D02*
X38008Y41564D01*
X37064Y41451D02*
X37480Y41036D01*
X37064Y40733D02*
X37476Y40321D01*
X37064Y39938D02*
X37476Y40350D01*
X37086Y38523D02*
X38004Y39440D01*
X37446Y38164D02*
X38717Y39436D01*
X36727Y38883D02*
X37644Y39800D01*
X31464Y42241D02*
X36279Y47056D01*
X31823Y41881D02*
X36886Y46944D01*
X27852Y49946D02*
X36233Y41564D01*
X31105Y42600D02*
X35561Y47056D01*
X32901Y40804D02*
X36886Y44789D01*
X33260Y40444D02*
X36886Y44071D01*
X32183Y41522D02*
X36886Y46226D01*
X32542Y41163D02*
X36886Y45507D01*
X21352Y42186D02*
X36886Y57721D01*
X27852Y50664D02*
X36952Y41564D01*
X21050Y42603D02*
X36886Y58439D01*
X27616Y49463D02*
X35515Y41564D01*
X20391Y38352D02*
X36886Y54847D01*
X20955Y38197D02*
X36886Y54129D01*
X21352Y41467D02*
X36886Y57002D01*
X36952Y41564D02*
X37064Y41451D01*
X36174Y39436D02*
X37064D01*
X36886Y42700D02*
Y43152D01*
X35817Y41564D02*
X36920Y42667D01*
X36174Y39436D02*
X36267Y39343D01*
X36368Y39242D02*
X36562Y39436D01*
X36174D02*
X36267Y39343D01*
X35098Y41564D02*
X36886Y43352D01*
X35194Y38282D02*
X35944Y37532D01*
X34936Y41402D02*
X35098Y41564D01*
X33882Y38282D02*
X35194D01*
X35373Y37218D02*
X35687Y37532D01*
X35944D01*
X34487Y38282D02*
X35462Y37307D01*
X16092Y72848D02*
X25266Y82021D01*
X25950D02*
X34966Y73005D01*
X15653Y73127D02*
X24548Y82021D01*
X15187Y73127D02*
X15813D01*
X20127Y68979D02*
X33169Y82021D01*
X25231D02*
X34773Y72479D01*
X19731Y69302D02*
X32450Y82021D01*
X15813Y73127D02*
X16127Y72813D01*
X8723Y79850D02*
X15447Y73127D01*
X14873Y72813D02*
X15187Y73127D01*
X8798Y76329D02*
X14490Y82021D01*
X9043Y78812D02*
X14958Y72898D01*
X14245Y68127D02*
X28140Y82021D01*
X14873Y72187D02*
Y72813D01*
X9110Y78027D02*
X14873Y72263D01*
X34773Y72187D02*
Y72813D01*
X19813Y69302D02*
X20127Y68988D01*
X19187Y69302D02*
X19813D01*
X18873Y68362D02*
Y68988D01*
X20127Y68362D02*
Y68988D01*
X19813Y68048D02*
X20127Y68362D01*
X18873D02*
X19187Y68048D01*
X19813D01*
X16127Y72187D02*
Y72813D01*
X15813Y71873D02*
X16127Y72187D01*
X14873D02*
X15187Y71873D01*
X15813D01*
X16127Y72447D02*
X19272Y69302D01*
X18873Y68988D02*
X19187Y69302D01*
X15898Y71958D02*
X18873Y68982D01*
X8482Y80324D02*
X10179Y82021D01*
X8724Y79848D02*
X10898Y82021D01*
X8196Y80756D02*
X9461Y82021D01*
X8345Y80560D02*
X8640Y80050D01*
X9110Y78078D02*
X13053Y82021D01*
X9059Y77309D02*
X13771Y82021D01*
X8918Y79323D02*
X11616Y82021D01*
X9052Y78739D02*
X12335Y82021D01*
X7506Y81504D02*
X8024Y82021D01*
X7072Y81837D02*
X7540Y81478D01*
X6755Y82021D02*
X7060Y81845D01*
X7100Y81816D02*
X7306Y82021D01*
X7870Y81149D02*
X8742Y82021D01*
X7978Y81040D02*
X8337Y80572D01*
X7551Y81468D02*
X7968Y81051D01*
X9110Y78000D02*
X9110Y78295D01*
X9110Y77705D02*
Y78000D01*
X8877Y79478D02*
X9029Y78908D01*
X9032Y78894D02*
X9109Y78309D01*
X9032Y77106D02*
X9109Y77691D01*
X13747Y68127D02*
X14373D01*
X8877Y76522D02*
X9029Y77092D01*
X8646Y80037D02*
X8872Y79492D01*
X8646Y75963D02*
X8872Y76508D01*
X8345Y75440D02*
X8640Y75950D01*
X7978Y74960D02*
X8337Y75428D01*
X7551Y74532D02*
X7968Y74949D01*
X7564Y74544D02*
X13981Y68127D01*
X7072Y74163D02*
X7540Y74522D01*
X26199Y51352D02*
X27301D01*
X27852Y50801D01*
X25648D02*
X26199Y51352D01*
X25648Y50793D02*
X26207Y51352D01*
X27852Y49699D02*
Y50801D01*
X21352Y50698D02*
X27995Y44055D01*
X21352Y49699D02*
Y50801D01*
X25648Y49699D02*
Y50801D01*
X8241Y75303D02*
X34936Y48609D01*
X12810Y50167D02*
X34801Y72159D01*
X14668Y67831D02*
X28858Y82021D01*
X20801Y51352D02*
X21352Y50801D01*
X7923Y74903D02*
X34936Y47890D01*
X14687Y67421D02*
X34936Y47172D01*
X16556Y41700D02*
X25648Y50793D01*
X27301Y49148D02*
X27852Y49699D01*
X34936Y47056D02*
Y49184D01*
X25648Y49699D02*
X26199Y49148D01*
X27301D01*
X27212D02*
X34936Y41424D01*
X26494Y49148D02*
X34936Y40706D01*
X21352Y49980D02*
X27995Y43337D01*
X20028Y49148D02*
X26325Y42852D01*
X20581D02*
X26877Y49148D01*
X20801D02*
X21352Y49699D01*
X19862Y42852D02*
X26179Y49169D01*
X21133Y49480D02*
X27995Y42618D01*
X20746Y49148D02*
X27043Y42852D01*
X14052Y38478D02*
X25648Y50075D01*
X14373Y68127D02*
X14687Y67813D01*
Y67187D02*
Y67813D01*
X13433Y67238D02*
X13798Y66873D01*
X13433Y67187D02*
X13747Y66873D01*
X19148Y50801D02*
X19699Y51352D01*
X19148Y50759D02*
X19741Y51352D01*
X14373Y66873D02*
X14687Y67187D01*
X13747Y66873D02*
X14373D01*
X7159Y74230D02*
X13505Y67885D01*
X13433Y67813D02*
X13747Y68127D01*
X6715Y73956D02*
X13433Y67238D01*
Y67187D02*
Y67813D01*
X9795Y52030D02*
X11805D01*
X12810Y51025D01*
X8790D02*
X9795Y52030D01*
X19699Y51352D02*
X20801D01*
X19699Y49148D02*
X20801D01*
X19148Y49699D02*
Y50801D01*
Y49699D02*
X19699Y49148D01*
X16439Y45894D02*
X19696Y49151D01*
X16556Y45292D02*
X20412Y49148D01*
X16080Y46254D02*
X19337Y49511D01*
X15413Y46306D02*
X19148Y50041D01*
X12810Y49182D02*
X15686Y46306D01*
X8790Y49015D02*
Y51025D01*
X12810Y49015D02*
Y51025D01*
Y50619D02*
X20577Y42852D01*
X12810Y49901D02*
X19859Y42852D01*
X14361Y45972D02*
X19148Y50759D01*
X4286Y65352D02*
X20956Y82021D01*
X5004Y65352D02*
X21674Y82021D01*
X6550Y73860D02*
X7060Y74155D01*
X5992Y73628D02*
X6537Y73854D01*
X5808Y64719D02*
X23111Y82021D01*
X5852Y64044D02*
X23829Y82021D01*
X479Y62263D02*
X20237Y82021D01*
X5449Y65078D02*
X22392Y82021D01*
X479Y65855D02*
X16645Y82021D01*
X479Y65137D02*
X17363Y82021D01*
X479Y67292D02*
X15208Y82021D01*
X479Y66573D02*
X15927Y82021D01*
X479Y63700D02*
X18800Y82021D01*
X479Y62981D02*
X19519Y82021D01*
X479Y64418D02*
X18082Y82021D01*
X5408Y73471D02*
X5978Y73623D01*
X5176Y65352D02*
X5852Y64676D01*
X4809Y73391D02*
X5394Y73468D01*
X4500Y73390D02*
X4795Y73390D01*
X5852Y63325D02*
X14873Y72347D01*
X5176Y62648D02*
X5852Y63324D01*
Y64676D01*
X5175Y62648D02*
X5852Y63325D01*
X479Y68010D02*
X6171Y73702D01*
X479Y68729D02*
X5191Y73441D01*
X4205Y73390D02*
X4500D01*
X479Y69416D02*
X4543Y65352D01*
X3824D02*
X5176D01*
X3824Y62648D02*
X5176D01*
X479Y57952D02*
X5175Y62648D01*
X1460Y74522D02*
X1928Y74163D01*
X1940Y74155D02*
X2450Y73860D01*
X663Y75428D02*
X1022Y74960D01*
X1032Y74949D02*
X1449Y74532D01*
X3022Y73623D02*
X3592Y73471D01*
X3606Y73468D02*
X4191Y73391D01*
X2463Y73854D02*
X3008Y73628D01*
X479Y70884D02*
X3177Y73582D01*
X479Y74476D02*
X996Y74994D01*
X479Y73758D02*
X1351Y74630D01*
X479Y75745D02*
X655Y75440D01*
X479Y75194D02*
X684Y75400D01*
X479Y72321D02*
X2176Y74018D01*
X479Y71602D02*
X2652Y73776D01*
X479Y73039D02*
X1744Y74304D01*
X3148Y64676D02*
X3824Y65352D01*
X3148Y63324D02*
X3824Y62648D01*
X3148Y63324D02*
Y64676D01*
X479Y60826D02*
X3148Y63496D01*
X479Y59389D02*
X3781Y62692D01*
X479Y58671D02*
X4456Y62648D01*
X479Y60108D02*
X3422Y63051D01*
X479Y69447D02*
X4422Y73390D01*
X479Y68698D02*
X3825Y65352D01*
X479Y70165D02*
X3761Y73448D01*
X479Y67979D02*
X3465Y64993D01*
X479Y66542D02*
X3148Y63873D01*
X479Y61544D02*
X3148Y64214D01*
X479Y67261D02*
X3148Y64591D01*
X3612Y73467D02*
X25963Y51116D01*
X5088Y73428D02*
X27164Y51352D01*
X479Y75163D02*
X25648Y49994D01*
X2537Y73823D02*
X25648Y50712D01*
X479Y48613D02*
X33887Y82021D01*
X479Y47894D02*
X34606Y82021D01*
X479Y74445D02*
X29047Y45877D01*
X479Y73727D02*
X28508Y45698D01*
X479Y55079D02*
X27421Y82021D01*
X479Y52923D02*
X29577Y82021D01*
X479Y56515D02*
X25985Y82021D01*
X479Y55797D02*
X26703Y82021D01*
X479Y51487D02*
X31013Y82021D01*
X479Y50768D02*
X31732Y82021D01*
X479Y52205D02*
X30295Y82021D01*
X4407Y73390D02*
X26446Y51352D01*
X5493Y62965D02*
X25903Y42555D01*
X5091Y62648D02*
X25648Y42091D01*
X4373Y62648D02*
X25648Y41373D01*
X479Y65106D02*
X27233Y38352D01*
X479Y64387D02*
X26514Y38352D01*
X479Y63669D02*
X25997Y38150D01*
X479Y71571D02*
X20698Y51352D01*
X479Y70853D02*
X19980Y51352D01*
X479Y70135D02*
X19480Y51133D01*
X479Y49331D02*
X19196Y68048D01*
X479Y73008D02*
X28279Y45208D01*
X479Y72290D02*
X27995Y44774D01*
X479Y65824D02*
X26297Y40006D01*
X5852Y64043D02*
X19148Y50746D01*
X479Y60795D02*
X9520Y51754D01*
X479Y60077D02*
X9160Y51395D01*
X479Y59358D02*
X8801Y51036D01*
X5852Y63325D02*
X19148Y50028D01*
X479Y57203D02*
X10347Y47335D01*
X479Y58640D02*
X8790Y50328D01*
X479Y57921D02*
X8790Y49610D01*
X479Y57234D02*
X15152Y71908D01*
X479Y53642D02*
X13728Y66892D01*
X479Y54360D02*
X13433Y67315D01*
X479Y62950D02*
X11399Y52030D01*
X479Y50050D02*
X18873Y68444D01*
X479Y62232D02*
X10681Y52030D01*
X479Y61513D02*
X9962Y52030D01*
X479Y51456D02*
X10347Y41587D01*
X479Y50737D02*
X10347Y40869D01*
X479Y42147D02*
X8790Y50459D01*
X479Y41429D02*
X8790Y49740D01*
X479Y50019D02*
X10347Y40151D01*
X479Y49300D02*
X9792Y39987D01*
X479Y40710D02*
X8790Y49022D01*
X479Y55048D02*
X10347Y45179D01*
X479Y54329D02*
X10347Y44461D01*
X479Y56485D02*
X10347Y46616D01*
X479Y55766D02*
X10347Y45898D01*
X479Y52892D02*
X10347Y43024D01*
X479Y52174D02*
X10347Y42306D01*
X479Y53611D02*
X10347Y43743D01*
X29627Y44937D02*
Y45563D01*
X29313Y44623D02*
X29627Y44937D01*
X29313Y45877D02*
X29627Y45563D01*
X29053Y44623D02*
X29313D01*
X30022Y42953D02*
X34936Y47868D01*
X30740Y42953D02*
X34936Y47149D01*
X29395Y43045D02*
X34936Y48586D01*
X28958Y44529D02*
X30534Y42953D01*
X28373Y45563D02*
X28687Y45877D01*
X29313D01*
X28373Y45303D02*
Y45563D01*
X28221Y45151D02*
X28373Y45303D01*
X28901Y44471D02*
X29053Y44623D01*
X28901Y43867D02*
X29815Y42953D01*
X28901Y43127D02*
Y44471D01*
X30298Y42953D02*
X30752D01*
X30298D02*
X30752D01*
X29313Y43127D02*
X29487Y42953D01*
X30298D01*
X30752D02*
X30978Y42727D01*
X33619Y40085D02*
X34936Y41402D01*
X30752Y42953D02*
X30978Y42727D01*
X29056Y41203D02*
X30507D01*
X28901Y43127D02*
X29313D01*
X28376Y41429D02*
X28602Y41203D01*
X28221Y41584D02*
X28376Y41429D01*
X28602Y41203D01*
X29056D01*
X28602D02*
X29056D01*
X27203Y40135D02*
X28437Y41368D01*
X27995Y44925D02*
X28221Y45151D01*
X27995Y44925D02*
X28221Y45151D01*
X27995Y44471D02*
Y44925D01*
Y44471D02*
Y44925D01*
Y42264D02*
Y44471D01*
X27852Y42220D02*
X27995Y42363D01*
X27533Y42620D02*
X27995Y43082D01*
X27301Y42852D02*
X27852Y42301D01*
X26328Y42852D02*
X27995Y44518D01*
X27046Y42852D02*
X27995Y43800D01*
X20801Y42852D02*
X21352Y42301D01*
X26199Y42852D02*
X27301D01*
X25648Y42301D02*
X26199Y42852D01*
X25648Y41199D02*
Y42301D01*
X21352Y41199D02*
Y42301D01*
X27995Y41810D02*
Y42264D01*
Y41810D02*
X28221Y41584D01*
X27995Y41810D02*
Y42264D01*
X27852Y42043D02*
X27995Y41900D01*
Y41810D02*
X28221Y41584D01*
X27852Y41502D02*
X28078Y41728D01*
X27852Y41199D02*
Y42301D01*
X26199Y40648D02*
X26297D01*
X27203D02*
X27301D01*
X20801D02*
X21352Y41199D01*
X25648D02*
X26199Y40648D01*
X27301D02*
X27852Y41199D01*
X27203Y40025D02*
Y40648D01*
X26297Y40025D02*
Y40648D01*
X33979Y39726D02*
X34936Y40684D01*
X34540Y39569D02*
X34936Y39965D01*
X29627Y45297D02*
X34936Y39987D01*
X30978Y42727D02*
X34136Y39569D01*
X34936D02*
Y41564D01*
X30507Y41203D02*
X33202Y38508D01*
X30034Y38655D02*
X31545Y40166D01*
X30127Y38029D02*
X31904Y39806D01*
X29448Y44758D02*
X34636Y39569D01*
X29537Y38877D02*
X31185Y40525D01*
X27867Y39361D02*
X29708Y41203D01*
X28226Y39002D02*
X30426Y41203D01*
X28692D02*
X32506Y37388D01*
X29410Y41203D02*
X33082Y37532D01*
X28585Y38643D02*
X30826Y40884D01*
X34136Y39569D02*
X34936D01*
X33428Y38282D02*
X33882D01*
X33202Y38508D02*
X33428Y38282D01*
X33202Y38508D02*
X33428Y38282D01*
X33882D01*
X33221Y37532D02*
X33971Y38282D01*
X33276Y37532D02*
X33589Y37218D01*
X29813Y38877D02*
X30127Y38563D01*
Y37937D02*
Y38563D01*
X29187Y38877D02*
X29813D01*
X29187Y37623D02*
X29813D01*
X32336Y37218D02*
X32650Y37532D01*
X33276D01*
X29813Y37623D02*
X30127Y37937D01*
X27555Y40903D02*
X29581Y38877D01*
X27203Y40536D02*
X29025Y38715D01*
X27507Y39720D02*
X28990Y41203D01*
X27203Y40025D02*
X28421Y38807D01*
X28873Y38563D02*
X29187Y38877D01*
X28421Y38807D02*
X28647Y38581D01*
X28421Y38807D02*
X28647Y38581D01*
X26857Y38352D02*
X27187Y38681D01*
X26297Y39571D02*
X26523Y39345D01*
X26297Y39571D02*
X26523Y39345D01*
X26297Y39571D02*
Y40025D01*
Y39571D02*
Y40025D01*
X21352Y42077D02*
X25648Y37781D01*
X26523Y39345D02*
X27741Y38127D01*
X21314Y37838D02*
X25648Y42172D01*
X28647Y38374D02*
X28873Y38148D01*
X28647Y37987D02*
X28873Y38213D01*
X28647Y38127D02*
Y38581D01*
Y38127D02*
Y38581D01*
X28873Y37937D02*
X29187Y37623D01*
X28647Y37268D02*
X29095Y37716D01*
X28873Y37937D02*
Y38563D01*
X27301Y38352D02*
X27741Y37912D01*
Y38127D01*
X26199Y38352D02*
X27301D01*
X27438Y38214D02*
X27546Y38322D01*
X20767Y38352D02*
X21352Y37767D01*
X25648Y37801D02*
X26199Y38352D01*
X20801D02*
X21352Y37801D01*
X16028Y46306D02*
X16556Y45778D01*
Y44722D02*
Y45778D01*
X14972Y46306D02*
X16028D01*
X14500Y45833D02*
X14556Y45778D01*
X16556Y45436D02*
X19420Y42572D01*
X16554Y44720D02*
X19148Y42125D01*
X14500Y44667D02*
X14556Y44722D01*
X16028Y44194D02*
X16556Y44722D01*
X12534Y48740D02*
X14970Y46304D01*
X14500Y45833D02*
X14972Y46306D01*
X12175Y48380D02*
X14611Y45944D01*
X14028Y46306D02*
X14500Y45833D01*
X14444Y45778D02*
X14500Y45833D01*
X14444Y44722D02*
X14500Y44667D01*
X14021Y44194D02*
X14496Y44670D01*
X15069Y43806D02*
X15458Y44194D01*
X14972D02*
X16028D01*
X14500Y44667D02*
X14972Y44194D01*
X14476Y44643D02*
X15313Y43806D01*
X19148Y42301D02*
X19699Y42852D01*
X20801D01*
X15642Y44194D02*
X16031Y43806D01*
X14189Y43644D02*
X14856Y44311D01*
X14444Y43806D02*
X16556D01*
X14028Y44194D02*
X14500Y44667D01*
X14117Y44283D02*
X14594Y43806D01*
X14052Y41718D02*
X14444Y42111D01*
X14289Y41956D02*
X14444Y41800D01*
Y43389D02*
Y43806D01*
X11816Y48021D02*
X13531Y46306D01*
X12972D02*
X14028D01*
X11805Y48010D02*
X12810Y49015D01*
X12444Y45778D02*
X12972Y46306D01*
X11253Y45710D02*
X13158Y43806D01*
X11253Y44992D02*
X12706Y43539D01*
X12444Y44722D02*
Y45778D01*
X11253Y44301D02*
X12444Y45492D01*
X11253Y47893D02*
X11371Y48010D01*
X11253D02*
X11805D01*
X8790Y49015D02*
X9795Y48010D01*
X10347D01*
X11253Y47865D02*
X12892Y46226D01*
X11253Y47147D02*
X12533Y45867D01*
X11253Y46428D02*
X12444Y45237D01*
X12972Y44194D02*
X14028D01*
X12972Y43806D02*
X14028D01*
X13487Y44194D02*
X13876Y43806D01*
X13632D02*
X14021Y44194D01*
X14028Y43806D02*
X14444Y43389D01*
X12444Y42222D02*
X12948Y41718D01*
X12444Y42222D02*
Y43278D01*
Y44722D02*
X12972Y44194D01*
X12444Y43278D02*
X12972Y43806D01*
X11253Y43582D02*
X12444Y44773D01*
X11253Y44273D02*
X12444Y43082D01*
X11253Y42864D02*
X12778Y44389D01*
X11253Y42145D02*
X13302Y44194D01*
X11253Y43555D02*
X12444Y42363D01*
X16194Y44361D02*
X19148Y41407D01*
Y41199D02*
Y42301D01*
X16556Y41694D02*
Y43806D01*
X14444Y41694D02*
X16556D01*
Y42563D02*
X20767Y38352D01*
X16556Y41844D02*
X20048Y38352D01*
X15269Y41694D02*
X19155Y37808D01*
X15987Y41694D02*
X19515Y38167D01*
X14444Y41800D02*
X14550Y41694D01*
X14052Y40633D02*
X15113Y41694D01*
X14444D02*
Y42111D01*
X14052Y41352D02*
X14444Y41744D01*
X14052Y39915D02*
X15831Y41694D01*
X14052Y39196D02*
X16550Y41694D01*
X14052Y38815D02*
Y41718D01*
X19699Y40648D02*
X20801D01*
X19699Y38352D02*
X20801D01*
X19148Y41199D02*
X19699Y40648D01*
X14052Y38264D02*
Y38815D01*
Y38264D02*
Y38815D01*
X19148Y37801D02*
X19699Y38352D01*
X13877Y37967D02*
Y38089D01*
X14052Y38264D01*
X13877Y38089D02*
X14052Y38264D01*
X11253Y40681D02*
X12948Y38986D01*
X12247Y39547D02*
X12948Y40248D01*
X13563Y37653D02*
X13877Y37967D01*
X12937Y37653D02*
X13563D01*
X12810Y37236D02*
X13227Y37653D01*
X11253Y42836D02*
X12948Y41141D01*
X11253Y42118D02*
X12948Y40423D01*
X11253Y41427D02*
X12444Y42618D01*
X11253Y40708D02*
X12606Y42061D01*
X10347Y39990D02*
Y48010D01*
X11253Y39990D02*
Y48010D01*
X479Y46427D02*
X8790Y38115D01*
X479Y45708D02*
X8790Y37396D01*
X479Y48582D02*
X9433Y39627D01*
X479Y39273D02*
X9505Y48300D01*
X479Y39992D02*
X9146Y48659D01*
X479Y47863D02*
X9074Y39268D01*
X479Y38555D02*
X9934Y48010D01*
X479Y37836D02*
X10347Y47705D01*
X479Y47145D02*
X8790Y38833D01*
X12948Y38907D02*
Y41718D01*
X12606Y39188D02*
X12948Y39530D01*
X11888Y39906D02*
X12948Y40967D01*
X11805Y39990D02*
X12810Y38985D01*
Y38780D02*
X12937Y38907D01*
X12810Y37780D02*
X12937Y37653D01*
X12810Y38780D02*
Y38985D01*
X11253Y39990D02*
X12948Y41685D01*
X11253Y39990D02*
X11805D01*
X9816D02*
X10347Y40520D01*
X9795Y39990D02*
X10347D01*
X11253Y41399D02*
X12948Y39704D01*
X8790Y38964D02*
X9816Y39990D01*
X8790Y38985D02*
X9795Y39990D01*
X42144Y40682D02*
X47873Y34953D01*
X42856D02*
X47753Y39851D01*
X42142Y39966D02*
X47155Y34953D01*
X42137D02*
X46620Y39436D01*
X45011Y34953D02*
X50176Y40118D01*
X45730Y34953D02*
X50460Y39684D01*
X43574Y34953D02*
X48113Y39492D01*
X44293Y34953D02*
X48775Y39436D01*
X40719Y37127D02*
X49586Y45994D01*
X41448Y35700D02*
X45406Y39658D01*
X41372Y37062D02*
X45096Y40786D01*
X41621Y36592D02*
X45096Y40067D01*
X41783Y39606D02*
X46436Y34953D01*
X41448Y34982D02*
X45902Y39436D01*
X41235D02*
X45718Y34953D01*
X46264Y39436D02*
X51146Y34554D01*
X44148Y33562D02*
X47887D01*
X42474Y34953D02*
X47873D01*
X46390Y33562D02*
X46939Y33014D01*
X45672Y33562D02*
X46580Y32654D01*
X46273Y32348D02*
X46791Y32866D01*
X43053Y32467D02*
X44148Y33562D01*
X44954D02*
X46220Y32295D01*
X41616Y36182D02*
X42844Y34953D01*
X42020D02*
X42474D01*
X41448Y35631D02*
X42126Y34953D01*
X42020D02*
X42474D01*
X41794Y34727D02*
X42020Y34953D01*
X41794Y34727D02*
X42020Y34953D01*
X41573Y34506D02*
X41794Y34727D01*
X41621Y36187D02*
Y36813D01*
X41448Y36013D02*
X41621Y36187D01*
X40681Y37127D02*
X41308D01*
X41621Y36813D01*
X41448Y34380D02*
Y36013D01*
Y34913D02*
X41714Y34647D01*
X40453Y34703D02*
Y35157D01*
Y34703D02*
Y35157D01*
X40368Y36813D02*
X40681Y37127D01*
X40368Y36776D02*
X40719Y37127D01*
X40368Y36187D02*
Y36813D01*
Y36187D02*
X40541Y36013D01*
X40319Y35290D02*
X40541Y35512D01*
X40227Y35383D02*
X40453Y35157D01*
X40227Y35383D02*
X40453Y35157D01*
X41448Y34380D02*
X41573Y34506D01*
X41448Y34380D02*
X41573Y34506D01*
X40453Y33987D02*
X40541Y34075D01*
X40453Y33752D02*
X40541Y33664D01*
X40453Y33061D02*
Y33514D01*
Y33269D02*
X40541Y33357D01*
X40453Y33061D02*
Y33514D01*
Y34470D02*
X40541Y34383D01*
X40440Y33047D02*
X40541Y32946D01*
X40453Y34706D02*
X40541Y34794D01*
X40453Y33514D02*
Y34703D01*
X40227Y32834D02*
X40453Y33061D01*
X40204Y32302D02*
X40541Y32639D01*
X40227Y32834D02*
X40453Y33061D01*
X46047Y32122D02*
X46273Y32348D01*
X46047Y32122D02*
X46273Y32348D01*
X46047Y31668D02*
Y32122D01*
Y31668D02*
Y32122D01*
X45873Y29937D02*
X46060Y29750D01*
X45873Y29563D02*
X46060Y29750D01*
X46047Y30737D02*
Y31668D01*
X45873Y30563D02*
X46047Y30737D01*
X44235Y33562D02*
X46047Y31751D01*
X43832Y33247D02*
X46047Y31032D01*
X43114Y32528D02*
X45976Y29666D01*
X43023Y31183D02*
X45873Y28332D01*
X42127Y22729D02*
X51180Y31783D01*
X42413Y31073D02*
X52787Y20700D01*
X41695Y31073D02*
X46342Y26427D01*
X45873Y28087D02*
X46187Y27773D01*
X46813D01*
X45873Y28937D02*
X45985Y28825D01*
X45873Y28713D02*
X45985Y28825D01*
X45987Y26427D02*
X46613D01*
X45987Y25127D02*
X46244D01*
X45987Y25173D02*
X46197D01*
X45673Y24813D02*
X45987Y25127D01*
X45673Y24221D02*
X46021Y23873D01*
X45673Y26113D02*
X45987Y26427D01*
X45673Y25487D02*
X45987Y25173D01*
X41852Y23173D02*
X46452Y27773D01*
X44088Y23254D02*
X46008Y25173D01*
X41042Y23082D02*
X45960Y28000D01*
X43053Y32277D02*
X44338Y33562D01*
X43227Y31732D02*
X45057Y33562D01*
X43053Y32187D02*
Y32467D01*
Y32187D02*
X43227Y32013D01*
X43473Y32887D02*
X45873Y30487D01*
X43227Y31697D02*
X45873Y29050D01*
X43227Y31387D02*
Y32013D01*
X42913Y31073D02*
X43227Y31387D01*
X40541Y32187D02*
Y36013D01*
X40204Y32564D02*
X40541Y32227D01*
X40204Y32187D02*
Y32812D01*
Y32187D02*
X40373Y32018D01*
Y31382D02*
X40681Y31073D01*
X42070D02*
X42178Y31182D01*
X40373Y32018D02*
X40541Y32187D01*
X45873Y29937D02*
Y30563D01*
Y28937D02*
Y29563D01*
X42178Y31182D02*
X42287Y31073D01*
X42913D01*
X45873Y28087D02*
Y28713D01*
X45673Y24187D02*
Y24813D01*
Y25487D02*
Y26113D01*
X41375Y31141D02*
X41443Y31073D01*
X42070D01*
X41308D02*
X41375Y31141D01*
X40681Y31073D02*
X41308D01*
X40977D02*
X45805Y26245D01*
X40453Y23211D02*
X45873Y28631D01*
X41242Y21127D02*
X45673Y25558D01*
X39242Y36368D02*
X49586Y46713D01*
X38883Y36727D02*
X41591Y39436D01*
X38362D02*
X40676Y37121D01*
X38523Y37086D02*
X40873Y39436D01*
X39604Y40348D02*
X44999Y34953D01*
X39435Y39799D02*
X44281Y34953D01*
X39076Y39440D02*
X43563Y34953D01*
X39601Y36009D02*
X40368Y36776D01*
X37790Y45755D02*
X48177Y35367D01*
X36925Y39436D02*
X40541Y35819D01*
X37064Y40015D02*
X40368Y36711D01*
X36267Y39343D02*
X40227Y35383D01*
X37790Y47192D02*
X50787Y34195D01*
X37790Y46474D02*
X50428Y33835D01*
X36206Y39436D02*
X40541Y35101D01*
X39960Y35650D02*
X40432Y36122D01*
X39298Y32187D02*
Y32812D01*
Y32973D01*
Y32812D02*
Y32973D01*
X40064Y31073D02*
X40373Y31382D01*
X40161Y31170D02*
X45673Y25658D01*
X39187Y30566D02*
X39694Y31073D01*
X39438D02*
X40064D01*
X39077Y32973D02*
X39298Y32752D01*
X39013Y32547D02*
X39298Y32832D01*
X39057Y32973D02*
X39298D01*
X39013Y32318D02*
X39221Y32110D01*
X39124Y31387D02*
X39438Y31073D01*
X36676Y25900D02*
X41850Y31073D01*
X39124Y32013D02*
X39298Y32187D01*
X39013Y31829D02*
X39124Y31940D01*
X37111Y31805D02*
X37267Y31649D01*
X35373Y36592D02*
X35547Y36418D01*
Y36262D02*
Y36418D01*
X39013Y30927D02*
Y33017D01*
X39124Y31387D02*
Y32013D01*
X35935Y31805D02*
X37103Y30636D01*
X36653Y31805D02*
X37267Y31191D01*
X33416Y35571D02*
X35660Y37815D01*
X34132Y31805D02*
X37111D01*
X34933Y36262D02*
X35547D01*
X34219Y30627D02*
X35397Y31805D01*
X29790Y32920D02*
X36811Y25900D01*
X29790Y32202D02*
X36178Y25814D01*
X34630Y30320D02*
X36115Y31805D01*
X39013Y31111D02*
X39207Y31304D01*
X39187Y30127D02*
Y30753D01*
X39013Y31600D02*
X39124Y31489D01*
X39013Y30927D02*
X39187Y30753D01*
X38873Y29813D02*
X39187Y30127D01*
X38247Y29813D02*
X38873D01*
X38145Y29915D02*
X38247Y29813D01*
X37103Y30753D02*
X37267Y30917D01*
X37103Y30127D02*
X37417Y29813D01*
X37267Y30917D02*
Y31649D01*
X37103Y30127D02*
Y30753D01*
X38043Y29813D02*
X38145Y29915D01*
X37417Y29813D02*
X38043D01*
X36263Y25900D02*
X36889D01*
X37203Y24989D02*
X45775Y33562D01*
X39540Y31073D02*
X45737Y24877D01*
X37142Y25647D02*
X42568Y31073D01*
X39187Y30708D02*
X45673Y24221D01*
X36244Y21876D02*
X46047Y31678D01*
X36849Y21762D02*
X46047Y30960D01*
X34498Y31805D02*
X43318Y22985D01*
X35216Y31805D02*
X43767Y23254D01*
X33779Y31805D02*
X43447Y22137D01*
X29790Y19732D02*
X41131Y31073D01*
X29790Y20451D02*
X40547Y31207D01*
X29790Y30765D02*
X38909Y21646D01*
X31126Y18195D02*
X46494Y33562D01*
X31756Y18106D02*
X47212Y33562D01*
X479Y44271D02*
X38141Y6608D01*
X39118Y30058D02*
X46537Y22639D01*
X38644Y29813D02*
X45231Y23227D01*
X37926Y29813D02*
X44513Y23227D01*
X37203Y25508D02*
X39973Y22737D01*
X37049Y21243D02*
X45873Y30068D01*
X37117Y24875D02*
X39628Y22364D01*
X36627Y24646D02*
X39269Y22005D01*
X34637Y30229D02*
X41655Y23211D01*
X34549Y29599D02*
X41062Y23086D01*
X29790Y30047D02*
X38550Y21287D01*
X34056Y29373D02*
X40252Y23177D01*
X29790Y21169D02*
X38434Y29813D01*
X34630Y18106D02*
X45873Y29350D01*
X29790Y29328D02*
X38191Y20928D01*
X29790Y22606D02*
X37207Y30023D01*
X29790Y21888D02*
X37716Y29813D01*
X29790Y31483D02*
X35949Y25324D01*
X29790Y23324D02*
X37103Y30637D01*
X29790Y28610D02*
X36524Y21876D01*
X29790Y26455D02*
X38139Y18106D01*
X29790Y27891D02*
X35957Y21724D01*
X29790Y27173D02*
X35795Y21168D01*
X5384Y24063D02*
X36886Y55565D01*
X29790Y24043D02*
X37267Y31520D01*
X4874Y24272D02*
X36886Y56284D01*
X29790Y24761D02*
X36834Y31805D01*
X479Y43553D02*
X37423Y6608D01*
X479Y42835D02*
X36705Y6608D01*
X479Y42116D02*
X35986Y6608D01*
X36889Y25900D02*
X37203Y25586D01*
Y24960D02*
Y25586D01*
X35949Y24960D02*
Y25586D01*
Y24960D02*
X36263Y24646D01*
X36860D02*
X37203Y24989D01*
X36889Y24646D02*
X37203Y24960D01*
X36263Y24646D02*
X36889D01*
X35949Y25586D02*
X36263Y25900D01*
X30767Y18554D02*
X36860Y24646D01*
X30049Y19272D02*
X35949Y25173D01*
X30408Y18913D02*
X36202Y24707D01*
X29790Y25736D02*
X37420Y18106D01*
X29790Y25018D02*
X36702Y18106D01*
X29790Y24299D02*
X35983Y18106D01*
X45987Y23873D02*
X46537D01*
X46021D02*
X46537Y23358D01*
X45673Y24187D02*
X45987Y23873D01*
X45187Y23227D02*
X45813D01*
X45498D02*
X46144Y23873D01*
X46015Y23025D02*
X46537Y23547D01*
X45100Y23140D02*
X45187Y23227D01*
X45813D02*
X46127Y22913D01*
X44779Y23227D02*
X45706Y24154D01*
X44387Y23227D02*
X45013D01*
X43587Y23254D02*
X44213D01*
X44313Y23153D01*
X44387Y23227D01*
X45013D02*
X45100Y23140D01*
X43273Y22940D02*
X43587Y23254D01*
X46328Y21902D02*
X46537Y22110D01*
X46328Y21183D02*
X46537Y21392D01*
X46328Y22130D02*
X46537Y21921D01*
X46328Y21411D02*
X46521Y21219D01*
X46429Y21127D02*
X46537Y21235D01*
X46328Y19873D02*
X46795D01*
X46328Y21127D02*
Y21898D01*
Y21127D02*
X46429D01*
X46194Y22486D02*
X46537Y22829D01*
X46127Y22553D02*
X46328Y22352D01*
X46127Y22553D02*
Y22913D01*
Y22553D02*
X46328Y22352D01*
Y21898D02*
Y22352D01*
Y21898D02*
Y22352D01*
X42127Y22739D02*
X43447Y21419D01*
X43273Y22314D02*
Y22940D01*
Y22314D02*
X43447Y22140D01*
X41813Y23211D02*
X42127Y22898D01*
Y22271D02*
Y22898D01*
X42001Y22146D02*
X43447Y20701D01*
Y20329D02*
Y22140D01*
X41762Y20928D02*
X43273Y22439D01*
X41813Y21958D02*
X42127Y22271D01*
X41050Y23074D02*
X41187Y23211D01*
X41813D01*
X40287D02*
X40913D01*
X41050Y23074D01*
X41050Y22094D02*
X41187Y21958D01*
X40913D02*
X41050Y22094D01*
X40726Y21958D02*
X40913D01*
X41471D02*
X43447Y19982D01*
X41877Y20324D02*
X43447Y21894D01*
X41563Y21127D02*
X41877Y20813D01*
Y20187D02*
Y20813D01*
X43447Y19876D02*
Y20329D01*
Y19876D02*
Y20329D01*
X41563Y19873D02*
X41877Y20187D01*
X41187Y21958D02*
X41813D01*
X40937Y21127D02*
X41563D01*
X40380Y21612D02*
X40901Y21091D01*
X40623Y20813D02*
X40937Y21127D01*
X40623Y20187D02*
X40937Y19873D01*
X41563D01*
X40623Y20187D02*
Y20813D01*
X46429Y19873D02*
X46926Y19376D01*
X46328Y19827D02*
X46779Y19376D01*
X46368Y19787D02*
X46455Y19873D01*
X45370Y17952D02*
X45597Y17726D01*
X44777Y16758D02*
X45744Y17726D01*
X45597D02*
X46050D01*
X44058Y16758D02*
X45311Y18011D01*
X45370Y17952D02*
X45597Y17726D01*
X40753Y21958D02*
X45952Y16758D01*
X43673Y19649D02*
X45370Y17952D01*
X41400Y19873D02*
X44515Y16758D01*
X42877Y17732D02*
X44234Y19089D01*
X41841Y20151D02*
X45234Y16758D01*
X43340D02*
X44952Y18370D01*
X42622Y16758D02*
X44593Y18730D01*
X46214Y16758D02*
X47181Y17726D01*
X46050D02*
X51988D01*
X45597D02*
X46050D01*
X45703D02*
X46670Y16758D01*
X46422Y17726D02*
X47637Y16510D01*
X45764Y1142D02*
X46427Y479D01*
X45739D02*
X46402Y1142D01*
X45495Y16758D02*
X46462Y17726D01*
X44302Y479D02*
X44965Y1142D01*
X43584Y479D02*
X44247Y1142D01*
X43608D02*
X44271Y479D01*
X45021D02*
X45684Y1142D01*
X45045D02*
X45708Y479D01*
X44327Y1142D02*
X44990Y479D01*
X43447Y19876D02*
X43673Y19649D01*
X42635Y18208D02*
X43874Y19448D01*
X43447Y19876D02*
X43673Y19649D01*
X41987Y18280D02*
X43515Y19807D01*
X42877Y17679D02*
X43797Y16758D01*
X42563Y17026D02*
X42877Y17340D01*
X42563Y18280D02*
X42877Y17966D01*
Y17340D02*
Y17966D01*
X40377Y18106D02*
X43447Y21176D01*
X41096Y18106D02*
X43447Y20457D01*
X41763Y18106D02*
X41937Y18280D01*
X42563D01*
X40482Y17200D02*
X40923Y16758D01*
X41185D02*
X41626Y17200D01*
X40466Y16758D02*
X40908Y17200D01*
X42687Y17150D02*
X43078Y16758D01*
X42147Y479D02*
X42810Y1142D01*
X42092Y17026D02*
X42360Y16758D01*
X41937Y17026D02*
X42563D01*
X42865Y479D02*
X43528Y1142D01*
X42890D02*
X43553Y479D01*
X42172Y1142D02*
X42835Y479D01*
X41763Y17200D02*
X41937Y17026D01*
X41903Y16758D02*
X42171Y17026D01*
X41200Y17200D02*
X41641Y16758D01*
X40710Y479D02*
X41373Y1142D01*
X41429Y479D02*
X42092Y1142D01*
X41453D02*
X42116Y479D01*
X40735Y1142D02*
X41398Y479D01*
X40021Y21253D02*
X40623Y20650D01*
X39127Y19011D02*
X40623Y20508D01*
X39973Y22898D02*
X40287Y23211D01*
X39973Y22710D02*
Y22898D01*
X39662Y20894D02*
X42276Y18280D01*
X39302Y20534D02*
X41731Y18106D01*
X39659D02*
X41426Y19873D01*
X39002Y19398D02*
X40294Y18106D01*
X39002Y20233D02*
X40726Y21958D01*
X39002Y19604D02*
X41355Y21958D01*
X38249Y20986D02*
X39973Y22710D01*
X39002Y19188D02*
Y20233D01*
Y20117D02*
X41012Y18106D01*
X38940D02*
X40822Y19988D01*
X35348Y18106D02*
X39973Y22731D01*
X39127Y18555D02*
X39575Y18106D01*
X39030Y16758D02*
X39471Y17200D01*
X39002Y19188D02*
X39127Y19063D01*
Y18437D02*
Y19063D01*
X39748Y16758D02*
X40189Y17200D01*
X39763D02*
X40205Y16758D01*
X39045Y17200D02*
X39486Y16758D01*
X31215Y18106D02*
X41763D01*
X31215Y17200D02*
X41763D01*
X38813Y18123D02*
X39127Y18437D01*
X38187Y18123D02*
X38813D01*
X38326Y17200D02*
X38768Y16758D01*
X38500D02*
X47000D01*
X38363Y16731D02*
X38500Y16758D01*
X37998Y20735D02*
X38249Y20986D01*
X37998Y20735D02*
X38249Y20986D01*
X37049Y20936D02*
Y21562D01*
X36735Y20622D02*
X37049Y20936D01*
X36897Y20784D02*
X37998Y19683D01*
Y20233D02*
Y20735D01*
X37049Y21351D02*
X37998Y20402D01*
Y20233D02*
Y20735D01*
X36109Y21876D02*
X36735D01*
X37049Y21562D01*
X35795D02*
X36109Y21876D01*
X35795Y20936D02*
Y21562D01*
Y20936D02*
X36109Y20622D01*
X33193Y18106D02*
X35909Y20822D01*
X32475Y18106D02*
X35795Y21427D01*
X37873Y19063D02*
X37998Y19188D01*
X37873Y18437D02*
X38187Y18123D01*
X37998Y19188D02*
Y20233D01*
X37873Y18437D02*
Y19063D01*
X38247Y16653D02*
X38363Y16731D01*
X38169Y16537D02*
X38247Y16653D01*
X38142Y16400D02*
X38169Y16537D01*
X36341Y20622D02*
X37887Y19077D01*
X36067Y18106D02*
X37998Y20038D01*
X33911Y18106D02*
X36428Y20622D01*
X36109D02*
X36735D01*
X36785Y18106D02*
X37998Y19319D01*
X37608Y17200D02*
X38210Y16598D01*
X37504Y18106D02*
X37873Y18476D01*
X35453Y17200D02*
X38142Y14511D01*
X34734Y17200D02*
X38142Y13793D01*
X36890Y17200D02*
X38142Y15948D01*
X36171Y17200D02*
X38142Y15230D01*
Y6608D02*
Y16400D01*
X33908Y6608D02*
X38142Y10842D01*
X34016Y17200D02*
X38142Y13074D01*
X33298Y17200D02*
X38142Y12356D01*
X29108Y7556D02*
X38752Y17200D01*
X29598Y6608D02*
X38142Y15152D01*
X32579Y17200D02*
X38142Y11637D01*
X31861Y17200D02*
X38142Y10919D01*
X31035Y6608D02*
X38142Y13715D01*
X33190Y6608D02*
X38142Y11560D01*
X30316Y6608D02*
X38142Y14434D01*
X38580Y1142D02*
X39242Y479D01*
X39273D02*
X39936Y1142D01*
X37861D02*
X38524Y479D01*
X38555D02*
X39218Y1142D01*
X39992Y479D02*
X40655Y1142D01*
X40016D02*
X40679Y479D01*
X39298Y1142D02*
X39961Y479D01*
X36064Y6608D02*
X38142Y8686D01*
X36782Y6608D02*
X38142Y7968D01*
X34627Y6608D02*
X38142Y10123D01*
X32800Y6608D02*
X38142D01*
X32800Y1142D02*
X47000D01*
X6755Y479D02*
X90245D01*
X37836D02*
X38499Y1142D01*
X35975Y10831D02*
X38142Y12997D01*
X36314Y10450D02*
X38142Y12278D01*
X35374Y10831D02*
X36000D01*
X36314Y10517D01*
X33737Y13887D02*
X38142Y9482D01*
X36000Y9577D02*
X36314Y9891D01*
Y10517D01*
X35060Y9891D02*
X35374Y9577D01*
X33737Y13621D02*
X37316Y17200D01*
X31142D02*
X38142Y10201D01*
X33056Y14377D02*
X35879Y17200D01*
X33599Y14201D02*
X36597Y17200D01*
X29108Y6837D02*
X38142Y15870D01*
X33603Y13303D02*
X38142Y8764D01*
X29108Y8274D02*
X38034Y17200D01*
X35891Y9577D02*
X38142Y7327D01*
X37501Y6608D02*
X38142Y7249D01*
X36305Y9882D02*
X38142Y8045D01*
X36400Y479D02*
X37063Y1142D01*
X37118Y479D02*
X37781Y1142D01*
X37143D02*
X37806Y479D01*
X36424Y1142D02*
X37087Y479D01*
X35374Y9577D02*
X36000D01*
X35345Y6608D02*
X38142Y9405D01*
X32460Y6597D02*
X35441Y9577D01*
X34963Y479D02*
X35626Y1142D01*
X35681Y479D02*
X36344Y1142D01*
X35706D02*
X36369Y479D01*
X34987Y1142D02*
X35650Y479D01*
X33589Y37182D02*
X34690Y38282D01*
X33768D02*
X35373Y36677D01*
X32336Y36592D02*
Y37218D01*
X33589Y36592D02*
Y37218D01*
X35373Y36592D02*
Y37218D01*
X33416Y34853D02*
X35373Y36810D01*
X33416Y36290D02*
X35301Y38175D01*
X33589Y37024D02*
X34642Y35971D01*
X30129Y41203D02*
X35070Y36262D01*
X28984Y35450D02*
X32622Y39088D01*
X30127Y38331D02*
X32510Y35948D01*
X29965Y37775D02*
X32510Y35230D01*
X29343Y35091D02*
X32981Y38729D01*
X29702Y34731D02*
X33341Y38370D01*
X29398Y37623D02*
X32510Y34511D01*
X34620Y35948D02*
X34933Y36262D01*
X34168Y34227D02*
X34793D01*
X34620Y35322D02*
Y35948D01*
Y35322D02*
X34793Y35148D01*
Y34227D02*
Y35148D01*
X34227Y34227D02*
X34793Y34793D01*
X34227Y34227D02*
X34793Y34793D01*
X33855Y33913D02*
X34168Y34227D01*
X33446Y36448D02*
X34793Y35102D01*
X33416Y35760D02*
X34793Y34383D01*
X32336Y36592D02*
X32510Y36418D01*
X33416D02*
X33589Y36592D01*
X33416Y34134D02*
X34620Y35338D01*
X33416Y35042D02*
X34231Y34227D01*
X29790Y34101D02*
X32336Y36647D01*
X27852Y41325D02*
X32336Y36840D01*
X28647Y36550D02*
X29721Y37623D01*
X25648Y36699D02*
Y37801D01*
Y36699D02*
X26199Y36148D01*
X28647Y35831D02*
X32263Y39447D01*
X28647Y35787D02*
Y38127D01*
X27301Y36148D02*
X27741Y36588D01*
Y35787D02*
Y36588D01*
X21352Y37157D02*
X25648Y41454D01*
X21352Y41359D02*
X25648Y37062D01*
X14550Y41694D02*
X19148Y37096D01*
Y36699D02*
Y37801D01*
X21352Y36699D02*
Y37801D01*
X20801Y36148D02*
X21352Y36699D01*
X19148D02*
X19699Y36148D01*
X29564Y34870D02*
X29790Y34644D01*
X29564Y34870D02*
X29790Y34644D01*
X28647Y35787D02*
X29564Y34870D01*
X27741Y35333D02*
X27967Y35107D01*
X29790Y34190D02*
Y34644D01*
Y34190D02*
Y34644D01*
X27967Y35107D02*
X28884Y34190D01*
X27650Y36497D02*
X27741Y36407D01*
X27281Y36148D02*
X27741Y35688D01*
X19699Y36148D02*
X20801D01*
X26199D02*
X27301D01*
X27741Y35333D02*
Y35787D01*
Y35333D02*
X27967Y35107D01*
X27741Y35333D02*
Y35787D01*
X33723Y33723D02*
X33855Y33855D01*
X33416Y33723D02*
X33855D01*
X33416D02*
Y36418D01*
Y34323D02*
X33855Y33885D01*
Y33723D02*
Y33913D01*
X33723Y33723D02*
X33855Y33855D01*
X33496Y31988D02*
X33679Y31805D01*
X33496Y31988D02*
X33679Y31805D01*
X28647Y36219D02*
X34239Y30627D01*
X33269Y32215D02*
X33452Y32031D01*
X32650Y32468D02*
X33269D01*
Y32215D02*
X33452Y32031D01*
X29790Y34357D02*
X33609Y30539D01*
X29790Y28353D02*
X33460Y32023D01*
X29790Y33639D02*
X33383Y30046D01*
X33697Y30627D02*
X34323D01*
X34637Y30313D01*
X33679Y31805D02*
X34132D01*
X33679D02*
X34132D01*
X34637Y29687D02*
Y30313D01*
X34323Y29373D02*
X34637Y29687D01*
X33697Y29373D02*
X34323D01*
X29790Y27635D02*
X33960Y31805D01*
X33383Y29687D02*
X33697Y29373D01*
X33383Y30313D02*
X33697Y30627D01*
X33383Y29687D02*
Y30313D01*
X29790Y26917D02*
X34678Y31805D01*
X29790Y25480D02*
X33690Y29380D01*
X29790Y26198D02*
X33383Y29791D01*
X32510Y33582D02*
Y36418D01*
X29790Y33382D02*
X32510Y36102D01*
X28647Y37655D02*
X32510Y33793D01*
X26562Y36148D02*
X28884Y33827D01*
X28647Y36937D02*
X32336Y33248D01*
X29790Y32664D02*
X32510Y35383D01*
X21352Y37767D02*
X28884Y30235D01*
X21352Y37048D02*
X28884Y29516D01*
X16556Y43281D02*
X28884Y30953D01*
X19907Y40648D02*
X28884Y31671D01*
X21072Y40920D02*
X28884Y33108D01*
X20625Y40648D02*
X28884Y32390D01*
X20808Y36155D02*
X28884Y28079D01*
X20096Y36148D02*
X28884Y27361D01*
X21167Y36515D02*
X28884Y28798D01*
X32336Y32782D02*
X32650Y32468D01*
X33116D02*
X33269Y32315D01*
X32336Y33408D02*
X32510Y33582D01*
X32336Y32782D02*
Y33408D01*
X33269Y32215D02*
Y32468D01*
Y32215D02*
Y32468D01*
X29790Y29072D02*
X33187Y32468D01*
X29790Y31227D02*
X32510Y33946D01*
X29790Y29790D02*
X32559Y32559D01*
X29790Y31945D02*
X32510Y34665D01*
X29790Y30509D02*
X32336Y33055D01*
X29790Y19531D02*
Y34190D01*
Y29790D02*
X32559Y32559D01*
X28884Y19531D02*
Y34190D01*
X5410Y29118D02*
X25820Y49528D01*
X5769Y28758D02*
X19148Y42138D01*
X479Y32089D02*
X10347Y41957D01*
X479Y31371D02*
X10347Y41239D01*
X14052Y41475D02*
X28884Y26642D01*
X14052Y40756D02*
X28884Y25924D01*
X5852Y28123D02*
X19148Y41419D01*
X5852Y27404D02*
X19397Y40950D01*
X479Y35681D02*
X10347Y45549D01*
X479Y34963D02*
X10347Y44831D01*
X479Y37118D02*
X10347Y46986D01*
X479Y36400D02*
X10347Y46268D01*
X479Y33526D02*
X10347Y43394D01*
X479Y32808D02*
X10347Y42676D01*
X479Y34244D02*
X10347Y44113D01*
X14052Y40038D02*
X28884Y25206D01*
X11805Y35970D02*
X12810Y36975D01*
Y37780D01*
X9795Y35970D02*
X11805D01*
X14052Y38601D02*
X28884Y23769D01*
X13877Y38058D02*
X28884Y23050D01*
X14052Y39319D02*
X28884Y24487D01*
X4207Y29352D02*
X10826Y35970D01*
X4925Y29352D02*
X11544Y35970D01*
X8790Y36975D02*
X9795Y35970D01*
X479Y26342D02*
X10107Y35970D01*
X4156Y24272D02*
X20533Y40648D01*
X5852Y23094D02*
X19303Y36545D01*
X5743Y23704D02*
X19148Y37109D01*
X8790Y36975D02*
Y38985D01*
X3824Y29352D02*
X5176D01*
X479Y32777D02*
X3904Y29352D01*
X479Y32058D02*
X3505Y29032D01*
X3148Y28676D02*
X3824Y29352D01*
X5176D02*
X5852Y28676D01*
X479Y31340D02*
X3148Y28670D01*
X479Y30621D02*
X3148Y27952D01*
X479Y29934D02*
X8790Y38246D01*
X479Y29215D02*
X8790Y37527D01*
X479Y30652D02*
X8790Y38964D01*
X479Y33495D02*
X4622Y29352D01*
X479Y27779D02*
X9233Y36533D01*
X479Y27060D02*
X9592Y36174D01*
X479Y28497D02*
X8874Y36892D01*
X5852Y27324D02*
Y28676D01*
X3824Y26648D02*
X5176D01*
X3148Y27324D02*
Y28676D01*
Y27324D02*
X3824Y26648D01*
X5096D02*
X5852Y27404D01*
X5176Y26648D02*
X5852Y27324D01*
X479Y22750D02*
X4377Y26648D01*
X479Y28466D02*
X4673Y24272D01*
X479Y27748D02*
X3955Y24272D01*
X479Y25623D02*
X3148Y28293D01*
X479Y24905D02*
X3148Y27575D01*
X479Y27029D02*
X3530Y23978D01*
X479Y23468D02*
X3742Y26731D01*
X479Y24187D02*
X3382Y27090D01*
X12807Y36972D02*
X28884Y20895D01*
X12447Y36613D02*
X28884Y20177D01*
X12810Y37688D02*
X28884Y21614D01*
X13562Y37653D02*
X28884Y22332D01*
X10935Y35970D02*
X32663Y14243D01*
X11653Y35970D02*
X33247Y14377D01*
X12088Y36254D02*
X28884Y19458D01*
X10216Y35970D02*
X32483Y13703D01*
X479Y44990D02*
X35060Y10408D01*
X479Y40679D02*
X28509Y12648D01*
X479Y39961D02*
X27791Y12648D01*
X479Y9100D02*
X27741Y36362D01*
X479Y41398D02*
X35268Y6608D01*
X479Y7663D02*
X27945Y35129D01*
X479Y8381D02*
X27741Y35643D01*
X7760Y7760D02*
X28884Y28884D01*
X7760Y7760D02*
X28884Y28884D01*
X6964Y8401D02*
X28884Y30321D01*
X7381Y8100D02*
X28884Y29602D01*
X8401Y6964D02*
X28884Y27447D01*
X8660Y6504D02*
X28884Y26729D01*
X8100Y7381D02*
X28884Y28165D01*
X4063Y9092D02*
X28884Y33913D01*
X5431Y9023D02*
X28884Y32476D01*
X3168Y8916D02*
X28663Y34411D01*
X4798Y9109D02*
X28884Y33194D01*
X5996Y8870D02*
X28884Y31757D01*
X6504Y8660D02*
X28884Y31039D01*
X1685Y8151D02*
X28304Y34770D01*
X479Y12692D02*
X26828Y39041D01*
X479Y38524D02*
X26354Y12648D01*
X479Y37806D02*
X25636Y12648D01*
X479Y37087D02*
X24917Y12648D01*
X479Y11255D02*
X25786Y36562D01*
X479Y10536D02*
X26145Y36203D01*
X479Y11973D02*
X25648Y37143D01*
X479Y36369D02*
X24199Y12648D01*
X479Y14847D02*
X26280Y40648D01*
X479Y14129D02*
X26297Y39947D01*
X479Y15565D02*
X25880Y40967D01*
X479Y21313D02*
X19814Y40648D01*
X479Y13410D02*
X26468Y39400D01*
X479Y39242D02*
X27073Y12648D01*
X479Y6755D02*
Y75745D01*
X5852Y28122D02*
X21325Y12648D01*
X5532Y27005D02*
X19888Y12648D01*
X5852Y22375D02*
X19662Y36186D01*
X479Y22031D02*
X5096Y26648D01*
X5852Y27404D02*
X20607Y12648D01*
X5170Y26648D02*
X19264Y12555D01*
X4452Y26648D02*
X19142Y11958D01*
X479Y35650D02*
X23480Y12648D01*
X479Y34932D02*
X22762Y12648D01*
X479Y16284D02*
X20343Y36148D01*
X479Y34213D02*
X22044Y12648D01*
X479Y9818D02*
X26809Y36148D01*
X479Y29185D02*
X19142Y10522D01*
X479Y29903D02*
X19142Y11240D01*
X29790Y22862D02*
X34546Y18106D01*
X29790Y22144D02*
X33828Y18106D01*
X29790Y21426D02*
X33110Y18106D01*
X29790Y20707D02*
X32391Y18106D01*
X29790Y19989D02*
X31673Y18106D01*
X30761Y17200D02*
X31215D01*
X29790Y19531D02*
X31215Y18106D01*
X30761Y17200D02*
X31215D01*
X29790Y23581D02*
X35265Y18106D01*
X28454Y12648D02*
X33005Y17200D01*
X27017Y12648D02*
X31568Y17200D01*
X27735Y12648D02*
X32287Y17200D01*
X29108Y11866D02*
X34442Y17200D01*
X29108Y11148D02*
X35160Y17200D01*
X29029Y12505D02*
X33723Y17200D01*
X33423Y14377D02*
X33737Y14063D01*
Y13437D02*
Y14063D01*
X32797Y14377D02*
X33423D01*
X32797Y13123D02*
X33423D01*
X33063D02*
X35365Y10822D01*
X35060Y10517D02*
X35374Y10831D01*
X33423Y13123D02*
X33737Y13437D01*
X35060Y9891D02*
Y10517D01*
X32483Y14063D02*
X32797Y14377D01*
X32483Y13437D02*
X32797Y13123D01*
X32483Y13437D02*
Y14063D01*
X29108Y10430D02*
X32483Y13804D01*
X29108Y8993D02*
X33239Y13123D01*
X29108Y12049D02*
X34549Y6608D01*
X29108Y9711D02*
X32659Y13261D01*
X28884Y19077D02*
X29110Y18851D01*
X28884Y19077D02*
X29110Y18851D01*
X28884Y19077D02*
Y19531D01*
Y19077D02*
Y19531D01*
X29110Y18851D02*
X30535Y17426D01*
X30761Y17200D01*
X24862Y12648D02*
X30087Y17874D01*
X25580Y12648D02*
X30446Y17515D01*
X21270Y12648D02*
X28884Y20263D01*
X21988Y12648D02*
X28884Y19544D01*
X19833Y12648D02*
X28884Y21700D01*
X20551Y12648D02*
X28884Y20981D01*
X23425Y12648D02*
X29369Y18592D01*
X24143Y12648D02*
X29728Y18233D01*
X22706Y12648D02*
X29010Y18952D01*
X30535Y17426D02*
X30761Y17200D01*
X29108Y6608D02*
Y12290D01*
X29003Y12543D02*
X29081Y12427D01*
X29108Y12290D01*
Y8457D02*
X30957Y6608D01*
X29108Y7739D02*
X30239Y6608D01*
X29108Y7020D02*
X29520Y6608D01*
X26298Y12648D02*
X30850Y17200D01*
X28750Y12648D02*
X28887Y12621D01*
X19363D02*
X19500Y12648D01*
X28750D01*
X19247Y12543D02*
X19363Y12621D01*
X28887D02*
X29003Y12543D01*
X19169Y12427D02*
X19247Y12543D01*
X31753Y6608D02*
X35060Y9916D01*
X32663Y6581D02*
X32800Y6608D01*
X32400D02*
X32537Y6581D01*
X32400Y1142D02*
X32537Y1169D01*
X32663D02*
X32800Y1142D01*
X32089Y479D02*
X32760Y1149D01*
X29215Y479D02*
X29878Y1142D01*
X29240D02*
X29903Y479D01*
X29108Y11331D02*
X33831Y6608D01*
X29108Y10613D02*
X33113Y6608D01*
X29108Y9894D02*
X32394Y6608D01*
X29108Y9176D02*
X31676Y6608D01*
X29108D02*
X32400D01*
X28522Y1142D02*
X29185Y479D01*
X28497D02*
X29160Y1142D01*
X32832D02*
X33495Y479D01*
X33526D02*
X34189Y1142D01*
X32114D02*
X32777Y479D01*
X32808D02*
X33470Y1142D01*
X34244Y479D02*
X34907Y1142D01*
X34269D02*
X34932Y479D01*
X33551Y1142D02*
X34213Y479D01*
X30652D02*
X31315Y1142D01*
X19500D02*
X32400D01*
X29934Y479D02*
X30597Y1142D01*
X29958D02*
X30621Y479D01*
X31371D02*
X32034Y1142D01*
X31395D02*
X32058Y479D01*
X30677Y1142D02*
X31340Y479D01*
X21313D02*
X21976Y1142D01*
X21337D02*
X22000Y479D01*
X20594D02*
X21257Y1142D01*
X20619D02*
X21282Y479D01*
X22750D02*
X23413Y1142D01*
X22774D02*
X23437Y479D01*
X22031D02*
X22694Y1142D01*
X22056D02*
X22719Y479D01*
X19247Y1247D02*
X19363Y1169D01*
X19500Y1142D01*
X19142Y1500D02*
X19169Y1363D01*
X19247Y1247D01*
X19876Y479D02*
X20539Y1142D01*
X19901D02*
X20563Y479D01*
X19158D02*
X19820Y1142D01*
X26366D02*
X27029Y479D01*
X27060D02*
X27723Y1142D01*
X25648D02*
X26311Y479D01*
X26342D02*
X27005Y1142D01*
X27779Y479D02*
X28442Y1142D01*
X27803D02*
X28466Y479D01*
X27085Y1142D02*
X27748Y479D01*
X24187D02*
X24849Y1142D01*
X24211D02*
X24874Y479D01*
X23468D02*
X24131Y1142D01*
X23493D02*
X24156Y479D01*
X24930Y1142D02*
X25592Y479D01*
X25623D02*
X26286Y1142D01*
X24905Y479D02*
X25568Y1142D01*
X5852Y23093D02*
X19142Y9803D01*
X5852Y22375D02*
X19142Y9085D01*
X5852Y22244D02*
Y23596D01*
X5176Y21568D02*
X5852Y22244D01*
X8870Y5996D02*
X28884Y26010D01*
X9023Y5431D02*
X28884Y25292D01*
X5558Y21950D02*
X19142Y8366D01*
X5198Y21591D02*
X19142Y7648D01*
X5176Y24272D02*
X5852Y23596D01*
X3824Y21568D02*
X5176D01*
X3824Y24272D02*
X5176D01*
X479Y17002D02*
X5045Y21568D01*
X479Y24874D02*
X19142Y6211D01*
X479Y24156D02*
X19142Y5493D01*
X4503Y21568D02*
X19142Y6930D01*
Y12290D02*
X19169Y12427D01*
X7551Y7968D02*
X7968Y7551D01*
X6550Y8640D02*
X7060Y8345D01*
X7072Y8337D02*
X7540Y7978D01*
X8345Y7060D02*
X8640Y6550D01*
X8646Y6537D02*
X8872Y5992D01*
X7978Y7540D02*
X8337Y7072D01*
X479Y14098D02*
X5598Y8978D01*
X4809Y9109D02*
X5394Y9032D01*
X479Y13379D02*
X4748Y9110D01*
X4500Y9110D02*
X4795Y9110D01*
X479Y14816D02*
X6799Y8496D01*
X5992Y8872D02*
X6537Y8646D01*
X5408Y9029D02*
X5978Y8877D01*
X3148Y22244D02*
X3824Y21568D01*
X479Y12661D02*
X4049Y9090D01*
X3148Y23596D02*
X3824Y24272D01*
X3148Y22244D02*
Y23596D01*
X479Y11942D02*
X3434Y8987D01*
X479Y11224D02*
X2883Y8820D01*
X479Y10506D02*
X2383Y8601D01*
X479Y9787D02*
X1929Y8337D01*
X479Y26311D02*
X3171Y23618D01*
X479Y19876D02*
X3148Y22546D01*
X479Y25592D02*
X3148Y22923D01*
X479Y20594D02*
X3148Y23264D01*
X479Y18439D02*
X3716Y21677D01*
X479Y17721D02*
X4326Y21568D01*
X479Y19158D02*
X3357Y22036D01*
X4205Y9110D02*
X4500Y9110D01*
X3606Y9032D02*
X4191Y9109D01*
X3022Y8877D02*
X3592Y9029D01*
X2463Y8646D02*
X3008Y8872D01*
X1940Y8345D02*
X2450Y8640D01*
X1460Y7978D02*
X1928Y8337D01*
X1032Y7551D02*
X1449Y7968D01*
X479Y9069D02*
X1522Y8026D01*
X479Y8350D02*
X1155Y7674D01*
X479Y7632D02*
X826Y7285D01*
X663Y7072D02*
X1022Y7540D01*
X479Y6944D02*
X849Y7315D01*
X479Y6755D02*
X655Y7060D01*
X479Y6913D02*
X537Y6855D01*
X8916Y3168D02*
X28884Y23136D01*
X8150Y1685D02*
X28884Y22418D01*
X9109Y4798D02*
X28884Y24573D01*
X9092Y4063D02*
X28884Y23855D01*
X7663Y479D02*
X19142Y11957D01*
X8381Y479D02*
X19142Y11239D01*
X479Y18408D02*
X18408Y479D01*
X19142Y1500D02*
Y12290D01*
X479Y22000D02*
X19142Y3337D01*
X479Y21282D02*
X19142Y2619D01*
X479Y23437D02*
X19142Y4774D01*
X479Y22719D02*
X19142Y4056D01*
X479Y20563D02*
X19142Y1901D01*
X479Y19845D02*
X19845Y479D01*
X479Y19127D02*
X19127Y479D01*
X15565D02*
X19142Y4055D01*
X16284Y479D02*
X19142Y3336D01*
X14129Y479D02*
X19142Y5492D01*
X14847Y479D02*
X19142Y4773D01*
X17721Y479D02*
X19142Y1899D01*
X18439Y479D02*
X19231Y1270D01*
X17002Y479D02*
X19142Y2618D01*
X10536Y479D02*
X19142Y9084D01*
X11255Y479D02*
X19142Y8365D01*
X9100Y479D02*
X19142Y10520D01*
X9818Y479D02*
X19142Y9802D01*
X12692Y479D02*
X19142Y6928D01*
X13410Y479D02*
X19142Y6210D01*
X11973Y479D02*
X19142Y7647D01*
X9110Y4500D02*
X9110Y4795D01*
X9110Y4205D02*
Y4500D01*
X9032Y5394D02*
X9109Y4809D01*
X9032Y3606D02*
X9109Y4191D01*
X8978Y5598D02*
X14098Y479D01*
X9110Y4748D02*
X13379Y479D01*
X9090Y4049D02*
X12661Y479D01*
X8987Y3434D02*
X11942Y479D01*
X479Y17690D02*
X17690Y479D01*
X479Y16971D02*
X16971Y479D01*
X8877Y5978D02*
X9029Y5408D01*
X8877Y3022D02*
X9029Y3592D01*
X479Y16253D02*
X16253Y479D01*
X479Y15535D02*
X15535Y479D01*
X8496Y6799D02*
X14816Y479D01*
X8646Y2463D02*
X8872Y3008D01*
X8026Y1522D02*
X9069Y479D01*
X8345Y1940D02*
X8640Y2450D01*
X7978Y1460D02*
X8337Y1928D01*
X8820Y2883D02*
X11224Y479D01*
X8601Y2383D02*
X10506Y479D01*
X8337Y1929D02*
X9787Y479D01*
X7551Y1032D02*
X7968Y1449D01*
X7072Y663D02*
X7540Y1022D01*
X6755Y479D02*
X7060Y655D01*
X6855Y537D02*
X6913Y479D01*
X7674Y1155D02*
X8350Y479D01*
X7285Y826D02*
X7632Y479D01*
X6944D02*
X7315Y850D01*
D11*
X66294Y57023D02*
X77456D01*
X78367Y56112D02*
X78367D01*
X77456Y57023D02*
X78367Y56112D01*
X78367D02*
X78500Y55979D01*
X67249Y26600D02*
Y29100D01*
X40994Y31700D02*
Y36500D01*
X33722Y32441D02*
X33906Y32258D01*
X37338D01*
X33722Y32441D02*
Y33097D01*
X32963Y33095D02*
Y36905D01*
X35246Y33097D02*
Y35635D01*
X60071Y39879D02*
Y51562D01*
X66040Y57531D01*
X52428Y32236D02*
X60071Y39879D01*
X29337Y19304D02*
Y34417D01*
X30988Y17653D02*
X42250D01*
X29337Y19304D02*
X30988Y17653D01*
X43900Y22593D02*
X43902Y22595D01*
X43900Y20102D02*
Y22593D01*
X28194Y35560D02*
X29337Y34417D01*
X64516Y22217D02*
Y37084D01*
X66548Y39116D01*
X56134Y22098D02*
X64397D01*
X64516Y22217D01*
X64135Y37338D02*
X65913Y39116D01*
X55880Y22479D02*
X64016D01*
X64135Y22598D01*
Y37338D01*
X63754Y22979D02*
Y37592D01*
X55626Y22860D02*
X63635D01*
X63754Y37592D02*
X65278Y39116D01*
X63635Y22860D02*
X63754Y22979D01*
X58000Y31650D02*
Y32473D01*
X58587Y33060D02*
X60960D01*
X58000Y32473D02*
X58587Y33060D01*
X52215Y18179D02*
X56134Y22098D01*
X51943Y18542D02*
X55880Y22479D01*
X51689Y18923D02*
X55626Y22860D01*
X65913Y39116D02*
Y55499D01*
X66675Y56261D01*
X65278Y39116D02*
Y56007D01*
X66294Y57023D01*
X67169Y55485D02*
X69500D01*
X66548Y39116D02*
Y54864D01*
X67169Y55485D01*
X66675Y56261D02*
X73239D01*
X66040Y57531D02*
X89408D01*
X57531Y49911D02*
X65620Y58000D01*
X92000D01*
X89408Y57531D02*
X91059Y55880D01*
X57531Y39616D02*
Y49911D01*
X56904Y38989D02*
X57531Y39616D01*
X56261Y38989D02*
X56904D01*
X49911Y32639D02*
X56261Y38989D01*
X46500Y30250D02*
Y31895D01*
X46519Y29231D02*
X47265Y29977D01*
Y32025D02*
X47476Y32236D01*
X47265Y29977D02*
Y32025D01*
X41800Y32500D02*
Y34053D01*
X45875Y19600D02*
X46552Y18923D01*
X51689D01*
X45974Y18542D02*
X51943D01*
X45466Y19050D02*
X45974Y18542D01*
X43900Y20102D02*
X45824Y18179D01*
X52215D01*
X45466Y19050D02*
Y21834D01*
X37721Y30449D02*
Y31875D01*
Y30449D02*
X37730Y30440D01*
X37338Y32258D02*
X37721Y31875D01*
X28194Y35560D02*
Y38354D01*
X26750Y39798D02*
X28194Y38354D01*
X73239Y56261D02*
X74000Y55500D01*
X78500Y55485D02*
Y55979D01*
X47476Y32236D02*
X52428D01*
X41800Y34053D02*
X42247Y34500D01*
X42600Y32694D02*
X43921Y34015D01*
X42600Y31700D02*
Y32694D01*
X48480Y34015D02*
X48498Y33998D01*
X44700Y22600D02*
X45466Y21834D01*
X10800Y37980D02*
Y50020D01*
X48250Y34500D02*
X48500Y34750D01*
X42247Y34500D02*
X48250D01*
X45875Y19600D02*
Y22125D01*
X45400Y22600D02*
X45875Y22125D01*
X39751Y31700D02*
Y33038D01*
X46500Y31895D02*
X47244Y32639D01*
X39751Y33038D02*
X40000Y33287D01*
Y34930D01*
X46250Y25800D02*
X46990Y25060D01*
X46482Y20500D02*
X46990Y21008D01*
Y25060D01*
X43921Y34015D02*
X48480D01*
X91059Y55880D02*
X93218D01*
X94742Y57404D02*
Y58801D01*
X93218Y55880D02*
X94742Y57404D01*
X47244Y32639D02*
X49911D01*
X92000Y60540D02*
X92202Y60338D01*
X93205D01*
X94742Y58801D01*
X28448Y42037D02*
X28829Y41656D01*
X28448Y44698D02*
X29000Y45250D01*
X28448Y42037D02*
Y44698D01*
X33655Y38735D02*
X35420D01*
X30734Y41656D02*
X33655Y38735D01*
X28829Y41656D02*
X30734D01*
X35420Y38735D02*
X38560Y35595D01*
Y30500D02*
Y35595D01*
X26750Y39798D02*
Y41750D01*
X36322Y67000D02*
X38500D01*
X51308Y76786D02*
X53594Y74500D01*
X62500D01*
X35814Y39116D02*
X40000Y34930D01*
X29000Y42500D02*
X30525D01*
X33909Y39116D01*
X35814D01*
X36000Y33097D02*
Y36905D01*
D12*
X68200Y26600D02*
Y29100D01*
D13*
X45339Y60071D02*
X48006Y62738D01*
X43688Y73407D02*
X48006Y69089D01*
Y62738D02*
Y69089D01*
X43688Y73407D02*
Y76786D01*
X37973Y60071D02*
X45339D01*
X37338Y59436D02*
X37973Y60071D01*
X37338Y42926D02*
Y59436D01*
Y42926D02*
X38540Y41724D01*
Y40500D02*
Y41724D01*
X50038Y64516D02*
X59055Y73533D01*
X62738D02*
X63500Y74295D01*
X59055Y73533D02*
X62738D01*
X63500Y74295D02*
Y74803D01*
X53848Y76786D02*
X55069Y75565D01*
X62738D01*
X63500Y74803D01*
X50038Y41838D02*
Y64516D01*
X48700Y40500D02*
X50038Y41838D01*
X51240Y40500D02*
X55118Y44378D01*
Y49276D01*
X56388Y50546D01*
Y54786D01*
X63706Y47886D02*
X63940Y48120D01*
X59720Y31115D02*
X59905Y31300D01*
X56000Y32000D02*
X56885Y31115D01*
X59905Y31300D02*
X60000D01*
X56885Y31115D02*
X59720D01*
X54000Y32000D02*
X56000D01*
D14*
X38500Y18750D02*
Y20484D01*
X40600Y22584D01*
D15*
X13500Y38539D02*
Y42750D01*
X13250Y38280D02*
Y38289D01*
X13500Y38539D01*
D16*
X69500Y50000D02*
D03*
X78500D02*
D03*
X83000D02*
D03*
X74000D02*
D03*
X26750Y45750D02*
D03*
X20250D02*
D03*
Y50250D02*
D03*
X26750D02*
D03*
X20250Y41750D02*
D03*
X26750D02*
D03*
X20250Y37250D02*
D03*
X26750D02*
D03*
D17*
X69500Y47460D02*
D03*
X78500D02*
D03*
X83000D02*
D03*
X74000D02*
D03*
D18*
X48768Y54786D02*
D03*
X56388Y76786D02*
D03*
X48768D02*
D03*
X46228D02*
D03*
X53848Y54786D02*
D03*
X51308D02*
D03*
X46228D02*
D03*
X43688D02*
D03*
D19*
X53848Y76786D02*
D03*
X51308D02*
D03*
X43688D02*
D03*
X56388Y54786D02*
D03*
D20*
X17040Y10290D02*
D03*
Y7750D02*
D03*
Y5210D02*
D03*
X11960D02*
D03*
Y7750D02*
D03*
Y10290D02*
D03*
X26540D02*
D03*
Y7750D02*
D03*
Y5210D02*
D03*
X21460D02*
D03*
Y7750D02*
D03*
Y10290D02*
D03*
X68040D02*
D03*
Y7750D02*
D03*
Y5210D02*
D03*
X62960D02*
D03*
Y7750D02*
D03*
Y10290D02*
D03*
X77540D02*
D03*
Y7750D02*
D03*
Y5210D02*
D03*
X72460D02*
D03*
Y7750D02*
D03*
Y10290D02*
D03*
D21*
X93750Y14000D02*
D03*
D22*
X88750D02*
D03*
D23*
X41460Y11750D02*
D03*
Y14250D02*
D03*
X44960Y11750D02*
D03*
Y14250D02*
D03*
X50040Y11750D02*
D03*
Y14250D02*
D03*
X53540Y11750D02*
D03*
Y14250D02*
D03*
X41460Y3660D02*
D03*
Y6160D02*
D03*
X44960Y3660D02*
D03*
Y6160D02*
D03*
X50040Y3660D02*
D03*
Y6160D02*
D03*
X53540Y3660D02*
D03*
Y6160D02*
D03*
D24*
X47500Y13045D02*
D03*
Y4955D02*
D03*
D25*
X92000Y63080D02*
D03*
Y60540D02*
D03*
Y58000D02*
D03*
D26*
X4500Y28000D02*
D03*
Y22920D02*
D03*
Y58920D02*
D03*
Y12760D02*
D03*
Y17840D02*
D03*
Y64000D02*
D03*
D27*
X43620Y40500D02*
D03*
X56320D02*
D03*
X48700Y48120D02*
D03*
X56320D02*
D03*
X58860D02*
D03*
X61400D02*
D03*
X63940D02*
D03*
X53780D02*
D03*
X51240D02*
D03*
X46160D02*
D03*
X43620D02*
D03*
X41080D02*
D03*
X38540D02*
D03*
X58860Y40500D02*
D03*
X61400D02*
D03*
X63940D02*
D03*
X53780D02*
D03*
X51240D02*
D03*
X48700D02*
D03*
X46160D02*
D03*
X41080D02*
D03*
X38540D02*
D03*
D28*
X93000Y22150D02*
D03*
D29*
X15500Y42750D02*
D03*
D30*
X10800Y37980D02*
D03*
Y50020D02*
D03*
D31*
X13500Y42750D02*
D03*
Y45250D02*
D03*
X15500D02*
D03*
D32*
X92500Y78000D02*
D03*
X4500D02*
D03*
Y4500D02*
D03*
X92500D02*
D03*
D33*
X36000Y48120D02*
D03*
Y40500D02*
D03*
D34*
X93000Y52850D02*
D03*
D35*
X32100Y3600D02*
D03*
X31600Y2600D02*
D03*
X31100Y3600D02*
D03*
X30600Y2600D02*
D03*
X30100Y5600D02*
D03*
X29600Y4600D02*
D03*
X30100Y3600D02*
D03*
X29600Y2600D02*
D03*
X29100Y5600D02*
D03*
X28600Y4600D02*
D03*
X29100Y3600D02*
D03*
X28600Y2600D02*
D03*
X28100Y11600D02*
D03*
Y9600D02*
D03*
Y7600D02*
D03*
X27600Y6600D02*
D03*
X28100Y5600D02*
D03*
Y3600D02*
D03*
X27600Y2600D02*
D03*
X27100Y3600D02*
D03*
X26600Y2600D02*
D03*
X26100Y3600D02*
D03*
X25600Y2600D02*
D03*
X25100Y11600D02*
D03*
X24600Y10600D02*
D03*
X25100Y9600D02*
D03*
X24600Y8600D02*
D03*
Y6600D02*
D03*
Y4600D02*
D03*
X25100Y3600D02*
D03*
X24600Y2600D02*
D03*
X24100Y11600D02*
D03*
X23600Y10600D02*
D03*
X24100Y9600D02*
D03*
X23600Y8600D02*
D03*
X24100Y7600D02*
D03*
X23600Y6600D02*
D03*
X24100Y5600D02*
D03*
X23600Y4600D02*
D03*
X24100Y3600D02*
D03*
X23600Y2600D02*
D03*
X23100Y11600D02*
D03*
Y9600D02*
D03*
Y7600D02*
D03*
X22600Y6600D02*
D03*
X23100Y5600D02*
D03*
Y3600D02*
D03*
X22600Y2600D02*
D03*
X22100Y3600D02*
D03*
X21600Y2600D02*
D03*
X21100Y3600D02*
D03*
X20600Y2600D02*
D03*
X46100Y15600D02*
D03*
Y9600D02*
D03*
X45600Y8600D02*
D03*
X46100Y7600D02*
D03*
X45100Y9600D02*
D03*
X44600Y8600D02*
D03*
X44100Y15600D02*
D03*
X43600Y12600D02*
D03*
Y10600D02*
D03*
X44100Y9600D02*
D03*
X43600Y8600D02*
D03*
X44100Y7600D02*
D03*
X43600Y4600D02*
D03*
Y2600D02*
D03*
X43100Y15600D02*
D03*
Y13600D02*
D03*
Y11600D02*
D03*
X42600Y10600D02*
D03*
X43100Y9600D02*
D03*
X42600Y8600D02*
D03*
X43100Y7600D02*
D03*
Y5600D02*
D03*
Y3600D02*
D03*
X42100Y9600D02*
D03*
X41600Y8600D02*
D03*
X42100Y7600D02*
D03*
X41100Y9600D02*
D03*
X40600Y8600D02*
D03*
X40100Y15600D02*
D03*
X39600Y14600D02*
D03*
Y12600D02*
D03*
Y10600D02*
D03*
X40100Y9600D02*
D03*
X39600Y8600D02*
D03*
X40100Y7600D02*
D03*
X39600Y6600D02*
D03*
Y4600D02*
D03*
Y2600D02*
D03*
X39100Y15600D02*
D03*
Y13600D02*
D03*
Y11600D02*
D03*
Y9600D02*
D03*
Y7600D02*
D03*
Y5600D02*
D03*
X38600Y4600D02*
D03*
X39100Y3600D02*
D03*
X38600Y2600D02*
D03*
X38100Y5600D02*
D03*
X37600Y4600D02*
D03*
X38100Y3600D02*
D03*
X37600Y2600D02*
D03*
X37100Y5600D02*
D03*
X36600Y4600D02*
D03*
X37100Y3600D02*
D03*
X36600Y2600D02*
D03*
X36100Y5600D02*
D03*
X35600Y4600D02*
D03*
X36100Y3600D02*
D03*
X35600Y2600D02*
D03*
X35100Y3600D02*
D03*
X34600Y2600D02*
D03*
X34100Y3600D02*
D03*
X33600Y2600D02*
D03*
X69100Y11600D02*
D03*
Y3600D02*
D03*
X68100D02*
D03*
X67100Y11600D02*
D03*
X66600Y8600D02*
D03*
Y6600D02*
D03*
Y4600D02*
D03*
X67100Y3600D02*
D03*
X66100Y11600D02*
D03*
X65600Y10600D02*
D03*
X66100Y9600D02*
D03*
X65600Y8600D02*
D03*
X66100Y7600D02*
D03*
X65600Y6600D02*
D03*
X66100Y5600D02*
D03*
X65600Y4600D02*
D03*
X66100Y3600D02*
D03*
X65100Y11600D02*
D03*
X64600Y10600D02*
D03*
X65100Y9600D02*
D03*
X64600Y8600D02*
D03*
X65100Y7600D02*
D03*
X64600Y6600D02*
D03*
X65100Y5600D02*
D03*
X64600Y4600D02*
D03*
X65100Y3600D02*
D03*
X64100Y11600D02*
D03*
Y3600D02*
D03*
X63100D02*
D03*
X62100Y11600D02*
D03*
X61600Y8600D02*
D03*
Y6600D02*
D03*
X62100Y3600D02*
D03*
X61100Y11600D02*
D03*
X60600Y10600D02*
D03*
X61100Y9600D02*
D03*
X60600Y8600D02*
D03*
X61100Y7600D02*
D03*
X60600Y6600D02*
D03*
X61100Y5600D02*
D03*
X60600Y4600D02*
D03*
X61100Y3600D02*
D03*
X60100Y11600D02*
D03*
X59600Y10600D02*
D03*
X60100Y9600D02*
D03*
X59600Y8600D02*
D03*
X60100Y7600D02*
D03*
X59600Y6600D02*
D03*
X60100Y5600D02*
D03*
X59600Y4600D02*
D03*
X60100Y3600D02*
D03*
X59100Y11600D02*
D03*
X58600Y10600D02*
D03*
X59100Y9600D02*
D03*
X58600Y8600D02*
D03*
X59100Y7600D02*
D03*
X58600Y6600D02*
D03*
X59100Y5600D02*
D03*
X58600Y4600D02*
D03*
X59100Y3600D02*
D03*
X58100Y11600D02*
D03*
X57600Y10600D02*
D03*
X58100Y9600D02*
D03*
X57600Y8600D02*
D03*
X58100Y7600D02*
D03*
X57600Y6600D02*
D03*
X58100Y5600D02*
D03*
X57600Y4600D02*
D03*
X58100Y3600D02*
D03*
X57100Y11600D02*
D03*
X56600Y10600D02*
D03*
X57100Y9600D02*
D03*
X56600Y8600D02*
D03*
X57100Y7600D02*
D03*
X56600Y6600D02*
D03*
X57100Y5600D02*
D03*
X56600Y4600D02*
D03*
X57100Y3600D02*
D03*
X56100Y15600D02*
D03*
X55600Y14600D02*
D03*
X56100Y13600D02*
D03*
X55600Y12600D02*
D03*
X56100Y11600D02*
D03*
X55600Y10600D02*
D03*
X56100Y9600D02*
D03*
X55600Y8600D02*
D03*
X56100Y7600D02*
D03*
X55600Y6600D02*
D03*
X56100Y5600D02*
D03*
X55600Y4600D02*
D03*
X56100Y3600D02*
D03*
X55600Y2600D02*
D03*
X55100Y15600D02*
D03*
Y13600D02*
D03*
Y9600D02*
D03*
X54600Y8600D02*
D03*
X55100Y7600D02*
D03*
Y5600D02*
D03*
X54100Y9600D02*
D03*
X53600Y8600D02*
D03*
X53100Y9600D02*
D03*
X52600Y8600D02*
D03*
X52100Y15600D02*
D03*
X51600Y14600D02*
D03*
X52100Y13600D02*
D03*
X51600Y12600D02*
D03*
Y10600D02*
D03*
X52100Y9600D02*
D03*
X51600Y8600D02*
D03*
X52100Y7600D02*
D03*
X51600Y6600D02*
D03*
Y4600D02*
D03*
Y2600D02*
D03*
X51100Y15600D02*
D03*
Y9600D02*
D03*
X50600Y8600D02*
D03*
X51100Y7600D02*
D03*
X50100Y9600D02*
D03*
X49600Y8600D02*
D03*
X49100Y15600D02*
D03*
X48600Y10600D02*
D03*
X49100Y9600D02*
D03*
X48600Y8600D02*
D03*
X49100Y7600D02*
D03*
X48600Y2600D02*
D03*
X68000Y35000D02*
D03*
X67249Y26600D02*
D03*
X68200D02*
D03*
X67249Y29100D02*
D03*
X68200D02*
D03*
X40994Y36500D02*
D03*
X66800Y35000D02*
D03*
X68000Y22750D02*
D03*
X48514Y33250D02*
D03*
X33722Y33097D02*
D03*
X32963Y33095D02*
D03*
X36576Y34365D02*
D03*
X34481Y33600D02*
D03*
X35246Y35635D02*
D03*
X35241Y33097D02*
D03*
X52324Y33250D02*
D03*
X58860Y44310D02*
D03*
X38500Y18750D02*
D03*
X35750Y17000D02*
D03*
X41250Y20500D02*
D03*
X43900Y22627D02*
D03*
X42250Y17653D02*
D03*
X35687Y10204D02*
D03*
X29750D02*
D03*
X33110Y13750D02*
D03*
X74803Y44216D02*
D03*
X72897Y36500D02*
D03*
X60960Y33060D02*
D03*
X58000Y31650D02*
D03*
X60000Y31300D02*
D03*
X40600Y22584D02*
D03*
X63119Y27000D02*
D03*
X61750Y23700D02*
D03*
X54000Y34940D02*
D03*
Y32000D02*
D03*
X60750Y23700D02*
D03*
X58000Y29950D02*
D03*
X7493Y51000D02*
D03*
X57150Y23500D02*
D03*
X46500Y30250D02*
D03*
X40994Y31700D02*
D03*
X42600D02*
D03*
X41756D02*
D03*
X41800Y32500D02*
D03*
X36576Y25273D02*
D03*
X36422Y21249D02*
D03*
X37730Y30440D02*
D03*
X32000Y30000D02*
D03*
X32963Y36905D02*
D03*
X93715Y33500D02*
D03*
Y46500D02*
D03*
X86000Y43500D02*
D03*
Y36500D02*
D03*
Y40000D02*
D03*
X69500Y55485D02*
D03*
X78500D02*
D03*
X32000Y69750D02*
D03*
X38500Y68450D02*
D03*
X41500Y22584D02*
D03*
X50500Y30000D02*
D03*
X14060Y67500D02*
D03*
X15500Y72500D02*
D03*
X45600Y68500D02*
D03*
X44000Y63060D02*
D03*
X43500Y36500D02*
D03*
X54500Y26625D02*
D03*
X50500Y21500D02*
D03*
X42250Y18500D02*
D03*
X40750Y70000D02*
D03*
X22150Y66000D02*
D03*
X17780Y74500D02*
D03*
X20250Y40190D02*
D03*
X29500Y36905D02*
D03*
X13250Y36720D02*
D03*
X32000Y22000D02*
D03*
X83000Y55500D02*
D03*
X46500Y28400D02*
D03*
X35400Y72500D02*
D03*
X39370Y33600D02*
D03*
X19500Y68675D02*
D03*
X29500Y38250D02*
D03*
X34010Y30000D02*
D03*
X29000Y42500D02*
D03*
Y45250D02*
D03*
X36000Y33097D02*
D03*
X36000Y36905D02*
D03*
X46500Y29250D02*
D03*
X46300Y25800D02*
D03*
Y24500D02*
D03*
X44700Y22600D02*
D03*
X45500D02*
D03*
X38560Y30440D02*
D03*
X39751Y31700D02*
D03*
X62500Y74500D02*
D03*
X74000Y55500D02*
D03*
X46482Y20500D02*
D03*
X38500Y67000D02*
D03*
X36322D02*
D03*
X48500Y34000D02*
D03*
Y34750D02*
D03*
X13250Y38280D02*
D03*
%TF.MD5,bc86d719dd601da7fd2818d7fe16b7e3*%
M02*
