%TF.GenerationSoftware,Altium Limited,Altium Designer,25.2.1 (25)*%
G04 Layer_Physical_Order=3*
G04 Layer_Color=16440176*
%FSLAX43Y43*%
%MOMM*%
%TF.SameCoordinates,14BE83A4-B3EB-4770-8DB1-726BE69DDD70*%
%TF.FilePolarity,Positive*%
%TF.FileFunction,Copper,L3,Inr,Signal*%
%TF.Part,Single*%
G01*
G75*
%TA.AperFunction,ComponentPad*%
%ADD16C,1.500*%
%ADD17R,1.500X1.500*%
%ADD18C,1.524*%
%ADD19R,1.524X1.524*%
%ADD20C,2.300*%
%ADD21C,1.200*%
%ADD22R,1.200X1.200*%
%ADD23C,2.400*%
%ADD24C,1.325*%
%ADD25C,1.800*%
%ADD26C,2.000*%
%ADD27C,1.425*%
%ADD28C,2.250*%
%ADD29R,1.408X1.408*%
%ADD30C,3.316*%
%ADD31C,1.408*%
%TA.AperFunction,ViaPad*%
%ADD32C,6.000*%
%TA.AperFunction,ComponentPad*%
%ADD33R,1.425X1.425*%
%ADD34R,2.250X2.250*%
%TA.AperFunction,ViaPad*%
%ADD35C,0.550*%
G36*
X56500Y12290D02*
X70040D01*
Y3210D01*
X56500D01*
Y1500D01*
X48000D01*
Y3566D01*
X48199Y3648D01*
X48440Y3809D01*
X48646Y4015D01*
X48807Y4256D01*
X48918Y4525D01*
X48975Y4810D01*
Y5100D01*
X48918Y5385D01*
X48807Y5654D01*
X48646Y5895D01*
X48440Y6101D01*
X48199Y6262D01*
X48000Y6344D01*
Y11656D01*
X48199Y11738D01*
X48440Y11899D01*
X48646Y12105D01*
X48807Y12346D01*
X48918Y12615D01*
X48975Y12900D01*
Y13190D01*
X48918Y13475D01*
X48807Y13744D01*
X48646Y13985D01*
X48440Y14191D01*
X48199Y14352D01*
X48000Y14434D01*
Y16400D01*
X56500D01*
Y12290D01*
D02*
G37*
G36*
X47000Y14434D02*
X46801Y14352D01*
X46560Y14191D01*
X46354Y13985D01*
X46193Y13744D01*
X46082Y13475D01*
X46025Y13190D01*
Y12900D01*
X46082Y12615D01*
X46193Y12346D01*
X46354Y12105D01*
X46560Y11899D01*
X46801Y11738D01*
X47000Y11656D01*
Y6344D01*
X46801Y6262D01*
X46560Y6101D01*
X46354Y5895D01*
X46193Y5654D01*
X46082Y5385D01*
X46025Y5100D01*
Y4810D01*
X46082Y4525D01*
X46193Y4256D01*
X46354Y4015D01*
X46560Y3809D01*
X46801Y3648D01*
X47000Y3566D01*
Y1500D01*
X32800D01*
Y6250D01*
X38500D01*
Y16400D01*
X47000D01*
Y14434D01*
D02*
G37*
G36*
X28750Y6250D02*
X32400D01*
Y1500D01*
X19500D01*
Y12290D01*
X28750D01*
Y6250D01*
D02*
G37*
G36*
X88000Y73500D02*
X96616D01*
Y9000D01*
X88000D01*
Y384D01*
X70500D01*
Y13500D01*
X57250D01*
Y17000D01*
X37750D01*
Y7000D01*
X29500D01*
Y13500D01*
X18500D01*
Y384D01*
X9000D01*
Y9000D01*
X384D01*
Y73500D01*
X9000D01*
Y82116D01*
X88000D01*
Y73500D01*
D02*
G37*
%LPC*%
G36*
X56521Y77798D02*
X56255D01*
X55997Y77729D01*
X55767Y77596D01*
X55578Y77407D01*
X55445Y77177D01*
X55376Y76919D01*
Y76653D01*
X55445Y76395D01*
X55578Y76165D01*
X55767Y75976D01*
X55997Y75843D01*
X56255Y75774D01*
X56521D01*
X56779Y75843D01*
X57009Y75976D01*
X57198Y76165D01*
X57331Y76395D01*
X57400Y76653D01*
Y76919D01*
X57331Y77177D01*
X57198Y77407D01*
X57009Y77596D01*
X56779Y77729D01*
X56521Y77798D01*
D02*
G37*
G36*
X54860D02*
X52836D01*
Y75774D01*
X54860D01*
Y77798D01*
D02*
G37*
G36*
X52320D02*
X50296D01*
Y75774D01*
X52320D01*
Y77798D01*
D02*
G37*
G36*
X48901D02*
X48635D01*
X48377Y77729D01*
X48147Y77596D01*
X47958Y77407D01*
X47825Y77177D01*
X47756Y76919D01*
Y76653D01*
X47825Y76395D01*
X47958Y76165D01*
X48147Y75976D01*
X48377Y75843D01*
X48635Y75774D01*
X48901D01*
X49159Y75843D01*
X49389Y75976D01*
X49578Y76165D01*
X49711Y76395D01*
X49780Y76653D01*
Y76919D01*
X49711Y77177D01*
X49578Y77407D01*
X49389Y77596D01*
X49159Y77729D01*
X48901Y77798D01*
D02*
G37*
G36*
X46361D02*
X46095D01*
X45837Y77729D01*
X45607Y77596D01*
X45418Y77407D01*
X45285Y77177D01*
X45216Y76919D01*
Y76653D01*
X45285Y76395D01*
X45418Y76165D01*
X45607Y75976D01*
X45837Y75843D01*
X46095Y75774D01*
X46361D01*
X46619Y75843D01*
X46849Y75976D01*
X47038Y76165D01*
X47171Y76395D01*
X47240Y76653D01*
Y76919D01*
X47171Y77177D01*
X47038Y77407D01*
X46849Y77596D01*
X46619Y77729D01*
X46361Y77798D01*
D02*
G37*
G36*
X44700D02*
X42676D01*
Y75774D01*
X44700D01*
Y77798D01*
D02*
G37*
G36*
X62604Y75025D02*
X62396D01*
X62203Y74945D01*
X62055Y74797D01*
X61975Y74604D01*
Y74396D01*
X62055Y74203D01*
X62203Y74055D01*
X62396Y73975D01*
X62604D01*
X62797Y74055D01*
X62945Y74203D01*
X63025Y74396D01*
Y74604D01*
X62945Y74797D01*
X62797Y74945D01*
X62604Y75025D01*
D02*
G37*
G36*
X35504Y73025D02*
X35296D01*
X35103Y72945D01*
X34955Y72797D01*
X34875Y72604D01*
Y72396D01*
X34955Y72203D01*
X35103Y72055D01*
X35296Y71975D01*
X35504D01*
X35697Y72055D01*
X35845Y72203D01*
X35925Y72396D01*
Y72604D01*
X35845Y72797D01*
X35697Y72945D01*
X35504Y73025D01*
D02*
G37*
G36*
X15604D02*
X15396D01*
X15203Y72945D01*
X15055Y72797D01*
X14975Y72604D01*
Y72396D01*
X15055Y72203D01*
X15203Y72055D01*
X15396Y71975D01*
X15604D01*
X15797Y72055D01*
X15945Y72203D01*
X16025Y72396D01*
Y72604D01*
X15945Y72797D01*
X15797Y72945D01*
X15604Y73025D01*
D02*
G37*
G36*
X19604Y69200D02*
X19396D01*
X19203Y69120D01*
X19055Y68972D01*
X18975Y68779D01*
Y68571D01*
X19055Y68378D01*
X19203Y68230D01*
X19396Y68150D01*
X19604D01*
X19797Y68230D01*
X19945Y68378D01*
X20025Y68571D01*
Y68779D01*
X19945Y68972D01*
X19797Y69120D01*
X19604Y69200D01*
D02*
G37*
G36*
X45704Y69025D02*
X45496D01*
X45303Y68945D01*
X45155Y68797D01*
X45075Y68604D01*
Y68396D01*
X45155Y68203D01*
X45303Y68055D01*
X45496Y67975D01*
X45704D01*
X45897Y68055D01*
X46045Y68203D01*
X46125Y68396D01*
Y68604D01*
X46045Y68797D01*
X45897Y68945D01*
X45704Y69025D01*
D02*
G37*
G36*
X14164Y68025D02*
X13955D01*
X13763Y67945D01*
X13615Y67797D01*
X13535Y67604D01*
Y67396D01*
X13615Y67203D01*
X13763Y67055D01*
X13955Y66975D01*
X14164D01*
X14357Y67055D01*
X14505Y67203D01*
X14585Y67396D01*
Y67604D01*
X14505Y67797D01*
X14357Y67945D01*
X14164Y68025D01*
D02*
G37*
G36*
X38604Y67525D02*
X38396D01*
X38203Y67445D01*
X38055Y67297D01*
X37975Y67104D01*
Y66896D01*
X38055Y66703D01*
X38203Y66555D01*
X38396Y66475D01*
X38604D01*
X38797Y66555D01*
X38945Y66703D01*
X39025Y66896D01*
Y67104D01*
X38945Y67297D01*
X38797Y67445D01*
X38604Y67525D01*
D02*
G37*
G36*
X36426D02*
X36218D01*
X36025Y67445D01*
X35877Y67297D01*
X35797Y67104D01*
Y66896D01*
X35877Y66703D01*
X36025Y66555D01*
X36218Y66475D01*
X36426D01*
X36619Y66555D01*
X36767Y66703D01*
X36847Y66896D01*
Y67104D01*
X36767Y67297D01*
X36619Y67445D01*
X36426Y67525D01*
D02*
G37*
G36*
X4665Y65250D02*
X4335D01*
X4018Y65165D01*
X3732Y65000D01*
X3500Y64768D01*
X3335Y64482D01*
X3250Y64165D01*
Y63835D01*
X3335Y63518D01*
X3500Y63232D01*
X3732Y63000D01*
X4018Y62835D01*
X4335Y62750D01*
X4665D01*
X4982Y62835D01*
X5268Y63000D01*
X5500Y63232D01*
X5665Y63518D01*
X5750Y63835D01*
Y64165D01*
X5665Y64482D01*
X5500Y64768D01*
X5268Y65000D01*
X4982Y65165D01*
X4665Y65250D01*
D02*
G37*
G36*
X92151Y61690D02*
X91849D01*
X91556Y61612D01*
X91294Y61460D01*
X91080Y61246D01*
X90928Y60984D01*
X90850Y60691D01*
Y60389D01*
X90928Y60096D01*
X91080Y59834D01*
X91294Y59620D01*
X91556Y59468D01*
X91849Y59390D01*
X92151D01*
X92444Y59468D01*
X92706Y59620D01*
X92920Y59834D01*
X93072Y60096D01*
X93150Y60389D01*
Y60691D01*
X93072Y60984D01*
X92920Y61246D01*
X92706Y61460D01*
X92444Y61612D01*
X92151Y61690D01*
D02*
G37*
G36*
Y59150D02*
X91849D01*
X91556Y59072D01*
X91294Y58920D01*
X91080Y58706D01*
X90928Y58444D01*
X90850Y58151D01*
Y57849D01*
X90928Y57556D01*
X91080Y57294D01*
X91294Y57080D01*
X91556Y56928D01*
X91849Y56850D01*
X92151D01*
X92444Y56928D01*
X92706Y57080D01*
X92920Y57294D01*
X93072Y57556D01*
X93150Y57849D01*
Y58151D01*
X93072Y58444D01*
X92920Y58706D01*
X92706Y58920D01*
X92444Y59072D01*
X92151Y59150D01*
D02*
G37*
G36*
X83104Y56025D02*
X82896D01*
X82703Y55945D01*
X82555Y55797D01*
X82475Y55604D01*
Y55396D01*
X82555Y55203D01*
X82703Y55055D01*
X82896Y54975D01*
X83104D01*
X83297Y55055D01*
X83445Y55203D01*
X83525Y55396D01*
Y55604D01*
X83445Y55797D01*
X83297Y55945D01*
X83104Y56025D01*
D02*
G37*
G36*
X74104D02*
X73896D01*
X73703Y55945D01*
X73555Y55797D01*
X73475Y55604D01*
Y55396D01*
X73555Y55203D01*
X73703Y55055D01*
X73896Y54975D01*
X74104D01*
X74297Y55055D01*
X74445Y55203D01*
X74525Y55396D01*
Y55604D01*
X74445Y55797D01*
X74297Y55945D01*
X74104Y56025D01*
D02*
G37*
G36*
X78604Y56010D02*
X78396D01*
X78203Y55930D01*
X78055Y55782D01*
X77975Y55589D01*
Y55380D01*
X78055Y55188D01*
X78203Y55040D01*
X78396Y54960D01*
X78604D01*
X78797Y55040D01*
X78945Y55188D01*
X79025Y55380D01*
Y55589D01*
X78945Y55782D01*
X78797Y55930D01*
X78604Y56010D01*
D02*
G37*
G36*
X69604D02*
X69396D01*
X69203Y55930D01*
X69055Y55782D01*
X68975Y55589D01*
Y55380D01*
X69055Y55188D01*
X69203Y55040D01*
X69396Y54960D01*
X69604D01*
X69797Y55040D01*
X69945Y55188D01*
X70025Y55380D01*
Y55589D01*
X69945Y55782D01*
X69797Y55930D01*
X69604Y56010D01*
D02*
G37*
G36*
X57400Y55798D02*
X55376D01*
Y53774D01*
X57400D01*
Y55798D01*
D02*
G37*
G36*
X53981D02*
X53715D01*
X53457Y55729D01*
X53227Y55596D01*
X53038Y55407D01*
X52905Y55177D01*
X52836Y54919D01*
Y54653D01*
X52905Y54395D01*
X53038Y54165D01*
X53227Y53976D01*
X53457Y53843D01*
X53715Y53774D01*
X53981D01*
X54239Y53843D01*
X54469Y53976D01*
X54658Y54165D01*
X54791Y54395D01*
X54860Y54653D01*
Y54919D01*
X54791Y55177D01*
X54658Y55407D01*
X54469Y55596D01*
X54239Y55729D01*
X53981Y55798D01*
D02*
G37*
G36*
X51441D02*
X51175D01*
X50917Y55729D01*
X50687Y55596D01*
X50498Y55407D01*
X50365Y55177D01*
X50296Y54919D01*
Y54653D01*
X50365Y54395D01*
X50498Y54165D01*
X50687Y53976D01*
X50917Y53843D01*
X51175Y53774D01*
X51441D01*
X51699Y53843D01*
X51929Y53976D01*
X52118Y54165D01*
X52251Y54395D01*
X52320Y54653D01*
Y54919D01*
X52251Y55177D01*
X52118Y55407D01*
X51929Y55596D01*
X51699Y55729D01*
X51441Y55798D01*
D02*
G37*
G36*
X48901D02*
X48635D01*
X48377Y55729D01*
X48147Y55596D01*
X47958Y55407D01*
X47825Y55177D01*
X47756Y54919D01*
Y54653D01*
X47825Y54395D01*
X47958Y54165D01*
X48147Y53976D01*
X48377Y53843D01*
X48635Y53774D01*
X48901D01*
X49159Y53843D01*
X49389Y53976D01*
X49578Y54165D01*
X49711Y54395D01*
X49780Y54653D01*
Y54919D01*
X49711Y55177D01*
X49578Y55407D01*
X49389Y55596D01*
X49159Y55729D01*
X48901Y55798D01*
D02*
G37*
G36*
X46361D02*
X46095D01*
X45837Y55729D01*
X45607Y55596D01*
X45418Y55407D01*
X45285Y55177D01*
X45216Y54919D01*
Y54653D01*
X45285Y54395D01*
X45418Y54165D01*
X45607Y53976D01*
X45837Y53843D01*
X46095Y53774D01*
X46361D01*
X46619Y53843D01*
X46849Y53976D01*
X47038Y54165D01*
X47171Y54395D01*
X47240Y54653D01*
Y54919D01*
X47171Y55177D01*
X47038Y55407D01*
X46849Y55596D01*
X46619Y55729D01*
X46361Y55798D01*
D02*
G37*
G36*
X43821D02*
X43555D01*
X43297Y55729D01*
X43067Y55596D01*
X42878Y55407D01*
X42745Y55177D01*
X42676Y54919D01*
Y54653D01*
X42745Y54395D01*
X42878Y54165D01*
X43067Y53976D01*
X43297Y53843D01*
X43555Y53774D01*
X43821D01*
X44079Y53843D01*
X44309Y53976D01*
X44498Y54165D01*
X44631Y54395D01*
X44700Y54653D01*
Y54919D01*
X44631Y55177D01*
X44498Y55407D01*
X44309Y55596D01*
X44079Y55729D01*
X43821Y55798D01*
D02*
G37*
G36*
X94375Y54225D02*
X91625D01*
Y51475D01*
X94375D01*
Y54225D01*
D02*
G37*
G36*
X26882Y51250D02*
X26618D01*
X26364Y51182D01*
X26136Y51050D01*
X25950Y50864D01*
X25818Y50636D01*
X25750Y50382D01*
Y50118D01*
X25818Y49864D01*
X25950Y49636D01*
X26136Y49450D01*
X26364Y49318D01*
X26618Y49250D01*
X26882D01*
X27136Y49318D01*
X27364Y49450D01*
X27550Y49636D01*
X27682Y49864D01*
X27750Y50118D01*
Y50382D01*
X27682Y50636D01*
X27550Y50864D01*
X27364Y51050D01*
X27136Y51182D01*
X26882Y51250D01*
D02*
G37*
G36*
X20382D02*
X20118D01*
X19864Y51182D01*
X19636Y51050D01*
X19450Y50864D01*
X19318Y50636D01*
X19250Y50382D01*
Y50118D01*
X19318Y49864D01*
X19450Y49636D01*
X19636Y49450D01*
X19864Y49318D01*
X20118Y49250D01*
X20382D01*
X20636Y49318D01*
X20864Y49450D01*
X21050Y49636D01*
X21182Y49864D01*
X21250Y50118D01*
Y50382D01*
X21182Y50636D01*
X21050Y50864D01*
X20864Y51050D01*
X20636Y51182D01*
X20382Y51250D01*
D02*
G37*
G36*
X83132Y51000D02*
X82868D01*
X82614Y50932D01*
X82386Y50800D01*
X82200Y50614D01*
X82068Y50386D01*
X82000Y50132D01*
Y49868D01*
X82068Y49614D01*
X82200Y49386D01*
X82386Y49200D01*
X82614Y49068D01*
X82868Y49000D01*
X83132D01*
X83386Y49068D01*
X83614Y49200D01*
X83800Y49386D01*
X83932Y49614D01*
X84000Y49868D01*
Y50132D01*
X83932Y50386D01*
X83800Y50614D01*
X83614Y50800D01*
X83386Y50932D01*
X83132Y51000D01*
D02*
G37*
G36*
X78632D02*
X78368D01*
X78114Y50932D01*
X77886Y50800D01*
X77700Y50614D01*
X77568Y50386D01*
X77500Y50132D01*
Y49868D01*
X77568Y49614D01*
X77700Y49386D01*
X77886Y49200D01*
X78114Y49068D01*
X78368Y49000D01*
X78632D01*
X78886Y49068D01*
X79114Y49200D01*
X79300Y49386D01*
X79432Y49614D01*
X79500Y49868D01*
Y50132D01*
X79432Y50386D01*
X79300Y50614D01*
X79114Y50800D01*
X78886Y50932D01*
X78632Y51000D01*
D02*
G37*
G36*
X74132D02*
X73868D01*
X73614Y50932D01*
X73386Y50800D01*
X73200Y50614D01*
X73068Y50386D01*
X73000Y50132D01*
Y49868D01*
X73068Y49614D01*
X73200Y49386D01*
X73386Y49200D01*
X73614Y49068D01*
X73868Y49000D01*
X74132D01*
X74386Y49068D01*
X74614Y49200D01*
X74800Y49386D01*
X74932Y49614D01*
X75000Y49868D01*
Y50132D01*
X74932Y50386D01*
X74800Y50614D01*
X74614Y50800D01*
X74386Y50932D01*
X74132Y51000D01*
D02*
G37*
G36*
X69632D02*
X69368D01*
X69114Y50932D01*
X68886Y50800D01*
X68700Y50614D01*
X68568Y50386D01*
X68500Y50132D01*
Y49868D01*
X68568Y49614D01*
X68700Y49386D01*
X68886Y49200D01*
X69114Y49068D01*
X69368Y49000D01*
X69632D01*
X69886Y49068D01*
X70114Y49200D01*
X70300Y49386D01*
X70432Y49614D01*
X70500Y49868D01*
Y50132D01*
X70432Y50386D01*
X70300Y50614D01*
X70114Y50800D01*
X69886Y50932D01*
X69632Y51000D01*
D02*
G37*
G36*
X10988Y51928D02*
X10612D01*
X10243Y51855D01*
X9896Y51711D01*
X9584Y51502D01*
X9318Y51236D01*
X9109Y50924D01*
X8965Y50577D01*
X8892Y50208D01*
Y49832D01*
X8965Y49463D01*
X9109Y49116D01*
X9318Y48804D01*
X9584Y48538D01*
X9896Y48329D01*
X10243Y48185D01*
X10612Y48112D01*
X10988D01*
X11357Y48185D01*
X11704Y48329D01*
X12016Y48538D01*
X12282Y48804D01*
X12491Y49116D01*
X12635Y49463D01*
X12708Y49832D01*
Y50208D01*
X12635Y50577D01*
X12491Y50924D01*
X12282Y51236D01*
X12016Y51502D01*
X11704Y51711D01*
X11357Y51855D01*
X10988Y51928D01*
D02*
G37*
G36*
X64067Y49082D02*
X63814D01*
X63569Y49017D01*
X63349Y48890D01*
X63170Y48711D01*
X63043Y48491D01*
X62978Y48247D01*
Y47993D01*
X63043Y47748D01*
X63170Y47529D01*
X63349Y47350D01*
X63569Y47223D01*
X63814Y47157D01*
X64067D01*
X64312Y47223D01*
X64531Y47350D01*
X64711Y47529D01*
X64837Y47748D01*
X64903Y47993D01*
Y48247D01*
X64837Y48491D01*
X64711Y48711D01*
X64531Y48890D01*
X64312Y49017D01*
X64067Y49082D01*
D02*
G37*
G36*
X61527D02*
X61274D01*
X61029Y49017D01*
X60809Y48890D01*
X60630Y48711D01*
X60503Y48491D01*
X60438Y48247D01*
Y47993D01*
X60503Y47748D01*
X60630Y47529D01*
X60809Y47350D01*
X61029Y47223D01*
X61274Y47157D01*
X61527D01*
X61772Y47223D01*
X61991Y47350D01*
X62171Y47529D01*
X62297Y47748D01*
X62363Y47993D01*
Y48247D01*
X62297Y48491D01*
X62171Y48711D01*
X61991Y48890D01*
X61772Y49017D01*
X61527Y49082D01*
D02*
G37*
G36*
X58987D02*
X58734D01*
X58489Y49017D01*
X58269Y48890D01*
X58090Y48711D01*
X57963Y48491D01*
X57898Y48247D01*
Y47993D01*
X57963Y47748D01*
X58090Y47529D01*
X58269Y47350D01*
X58489Y47223D01*
X58734Y47157D01*
X58987D01*
X59232Y47223D01*
X59451Y47350D01*
X59631Y47529D01*
X59757Y47748D01*
X59823Y47993D01*
Y48247D01*
X59757Y48491D01*
X59631Y48711D01*
X59451Y48890D01*
X59232Y49017D01*
X58987Y49082D01*
D02*
G37*
G36*
X56447D02*
X56194D01*
X55949Y49017D01*
X55729Y48890D01*
X55550Y48711D01*
X55423Y48491D01*
X55358Y48247D01*
Y47993D01*
X55423Y47748D01*
X55550Y47529D01*
X55729Y47350D01*
X55949Y47223D01*
X56194Y47157D01*
X56447D01*
X56692Y47223D01*
X56911Y47350D01*
X57091Y47529D01*
X57217Y47748D01*
X57283Y47993D01*
Y48247D01*
X57217Y48491D01*
X57091Y48711D01*
X56911Y48890D01*
X56692Y49017D01*
X56447Y49082D01*
D02*
G37*
G36*
X53907D02*
X53654D01*
X53409Y49017D01*
X53189Y48890D01*
X53010Y48711D01*
X52883Y48491D01*
X52818Y48247D01*
Y47993D01*
X52883Y47748D01*
X53010Y47529D01*
X53189Y47350D01*
X53409Y47223D01*
X53654Y47157D01*
X53907D01*
X54152Y47223D01*
X54371Y47350D01*
X54551Y47529D01*
X54677Y47748D01*
X54743Y47993D01*
Y48247D01*
X54677Y48491D01*
X54551Y48711D01*
X54371Y48890D01*
X54152Y49017D01*
X53907Y49082D01*
D02*
G37*
G36*
X51367D02*
X51114D01*
X50869Y49017D01*
X50649Y48890D01*
X50470Y48711D01*
X50343Y48491D01*
X50278Y48247D01*
Y47993D01*
X50343Y47748D01*
X50470Y47529D01*
X50649Y47350D01*
X50869Y47223D01*
X51114Y47157D01*
X51367D01*
X51612Y47223D01*
X51831Y47350D01*
X52011Y47529D01*
X52137Y47748D01*
X52203Y47993D01*
Y48247D01*
X52137Y48491D01*
X52011Y48711D01*
X51831Y48890D01*
X51612Y49017D01*
X51367Y49082D01*
D02*
G37*
G36*
X48827D02*
X48574D01*
X48329Y49017D01*
X48109Y48890D01*
X47930Y48711D01*
X47803Y48491D01*
X47738Y48247D01*
Y47993D01*
X47803Y47748D01*
X47930Y47529D01*
X48109Y47350D01*
X48329Y47223D01*
X48574Y47157D01*
X48827D01*
X49072Y47223D01*
X49291Y47350D01*
X49471Y47529D01*
X49597Y47748D01*
X49663Y47993D01*
Y48247D01*
X49597Y48491D01*
X49471Y48711D01*
X49291Y48890D01*
X49072Y49017D01*
X48827Y49082D01*
D02*
G37*
G36*
X46287D02*
X46034D01*
X45789Y49017D01*
X45569Y48890D01*
X45390Y48711D01*
X45263Y48491D01*
X45198Y48247D01*
Y47993D01*
X45263Y47748D01*
X45390Y47529D01*
X45569Y47350D01*
X45789Y47223D01*
X46034Y47157D01*
X46287D01*
X46532Y47223D01*
X46751Y47350D01*
X46931Y47529D01*
X47057Y47748D01*
X47123Y47993D01*
Y48247D01*
X47057Y48491D01*
X46931Y48711D01*
X46751Y48890D01*
X46532Y49017D01*
X46287Y49082D01*
D02*
G37*
G36*
X43747D02*
X43494D01*
X43249Y49017D01*
X43029Y48890D01*
X42850Y48711D01*
X42723Y48491D01*
X42658Y48247D01*
Y47993D01*
X42723Y47748D01*
X42850Y47529D01*
X43029Y47350D01*
X43249Y47223D01*
X43494Y47157D01*
X43747D01*
X43992Y47223D01*
X44211Y47350D01*
X44391Y47529D01*
X44517Y47748D01*
X44583Y47993D01*
Y48247D01*
X44517Y48491D01*
X44391Y48711D01*
X44211Y48890D01*
X43992Y49017D01*
X43747Y49082D01*
D02*
G37*
G36*
X41207D02*
X40954D01*
X40709Y49017D01*
X40489Y48890D01*
X40310Y48711D01*
X40183Y48491D01*
X40118Y48247D01*
Y47993D01*
X40183Y47748D01*
X40310Y47529D01*
X40489Y47350D01*
X40709Y47223D01*
X40954Y47157D01*
X41207D01*
X41452Y47223D01*
X41671Y47350D01*
X41851Y47529D01*
X41977Y47748D01*
X42043Y47993D01*
Y48247D01*
X41977Y48491D01*
X41851Y48711D01*
X41671Y48890D01*
X41452Y49017D01*
X41207Y49082D01*
D02*
G37*
G36*
X38667D02*
X38414D01*
X38169Y49017D01*
X37949Y48890D01*
X37770Y48711D01*
X37643Y48491D01*
X37578Y48247D01*
Y47993D01*
X37643Y47748D01*
X37770Y47529D01*
X37949Y47350D01*
X38169Y47223D01*
X38414Y47157D01*
X38667D01*
X38912Y47223D01*
X39131Y47350D01*
X39311Y47529D01*
X39437Y47748D01*
X39503Y47993D01*
Y48247D01*
X39437Y48491D01*
X39311Y48711D01*
X39131Y48890D01*
X38912Y49017D01*
X38667Y49082D01*
D02*
G37*
G36*
X36963D02*
X35038D01*
Y47157D01*
X36963D01*
Y49082D01*
D02*
G37*
G36*
X15626Y46204D02*
X15374D01*
X15132Y46139D01*
X14914Y46013D01*
X14737Y45836D01*
X14611Y45618D01*
X14566Y45449D01*
X14434D01*
X14389Y45618D01*
X14263Y45836D01*
X14086Y46013D01*
X13868Y46139D01*
X13626Y46204D01*
X13374D01*
X13132Y46139D01*
X12914Y46013D01*
X12737Y45836D01*
X12611Y45618D01*
X12546Y45376D01*
Y45124D01*
X12611Y44882D01*
X12737Y44664D01*
X12914Y44487D01*
X13132Y44361D01*
X13374Y44296D01*
X13626D01*
X13868Y44361D01*
X14086Y44487D01*
X14263Y44664D01*
X14389Y44882D01*
X14434Y45051D01*
X14566D01*
X14611Y44882D01*
X14737Y44664D01*
X14914Y44487D01*
X15132Y44361D01*
X15374Y44296D01*
X15626D01*
X15868Y44361D01*
X16086Y44487D01*
X16263Y44664D01*
X16389Y44882D01*
X16454Y45124D01*
Y45376D01*
X16389Y45618D01*
X16263Y45836D01*
X16086Y46013D01*
X15868Y46139D01*
X15626Y46204D01*
D02*
G37*
G36*
X29104Y45775D02*
X28896D01*
X28703Y45695D01*
X28555Y45547D01*
X28475Y45354D01*
Y45146D01*
X28555Y44953D01*
X28703Y44805D01*
X28896Y44725D01*
X29104D01*
X29297Y44805D01*
X29445Y44953D01*
X29525Y45146D01*
Y45354D01*
X29445Y45547D01*
X29297Y45695D01*
X29104Y45775D01*
D02*
G37*
G36*
X74907Y44741D02*
X74699D01*
X74506Y44661D01*
X74358Y44513D01*
X74278Y44320D01*
Y44112D01*
X74358Y43919D01*
X74506Y43771D01*
X74699Y43691D01*
X74907D01*
X75100Y43771D01*
X75248Y43919D01*
X75328Y44112D01*
Y44320D01*
X75248Y44513D01*
X75100Y44661D01*
X74907Y44741D01*
D02*
G37*
G36*
X16454Y43704D02*
X14546D01*
Y43023D01*
X14419Y43006D01*
X14389Y43118D01*
X14263Y43336D01*
X14086Y43513D01*
X13868Y43639D01*
X13626Y43704D01*
X13374D01*
X13132Y43639D01*
X12914Y43513D01*
X12737Y43336D01*
X12611Y43118D01*
X12546Y42876D01*
Y42624D01*
X12611Y42382D01*
X12737Y42164D01*
X12914Y41987D01*
X13132Y41861D01*
X13374Y41796D01*
X13626D01*
X13868Y41861D01*
X14086Y41987D01*
X14263Y42164D01*
X14389Y42382D01*
X14419Y42494D01*
X14546Y42477D01*
Y41796D01*
X16454D01*
Y43704D01*
D02*
G37*
G36*
X29104Y43025D02*
X28896D01*
X28703Y42945D01*
X28555Y42797D01*
X28475Y42604D01*
Y42396D01*
X28555Y42203D01*
X28703Y42055D01*
X28896Y41975D01*
X29104D01*
X29297Y42055D01*
X29445Y42203D01*
X29525Y42396D01*
Y42604D01*
X29445Y42797D01*
X29297Y42945D01*
X29104Y43025D01*
D02*
G37*
G36*
X26882Y42750D02*
X26618D01*
X26364Y42682D01*
X26136Y42550D01*
X25950Y42364D01*
X25818Y42136D01*
X25750Y41882D01*
Y41618D01*
X25818Y41364D01*
X25950Y41136D01*
X26136Y40950D01*
X26364Y40818D01*
X26618Y40750D01*
X26882D01*
X27136Y40818D01*
X27364Y40950D01*
X27550Y41136D01*
X27682Y41364D01*
X27750Y41618D01*
Y41882D01*
X27682Y42136D01*
X27550Y42364D01*
X27364Y42550D01*
X27136Y42682D01*
X26882Y42750D01*
D02*
G37*
G36*
X20382D02*
X20118D01*
X19864Y42682D01*
X19636Y42550D01*
X19450Y42364D01*
X19318Y42136D01*
X19250Y41882D01*
Y41618D01*
X19318Y41364D01*
X19450Y41136D01*
X19636Y40950D01*
X19864Y40818D01*
X20118Y40750D01*
X20382D01*
X20636Y40818D01*
X20864Y40950D01*
X21050Y41136D01*
X21182Y41364D01*
X21250Y41618D01*
Y41882D01*
X21182Y42136D01*
X21050Y42364D01*
X20864Y42550D01*
X20636Y42682D01*
X20382Y42750D01*
D02*
G37*
G36*
X64067Y41462D02*
X63814D01*
X63569Y41397D01*
X63349Y41270D01*
X63170Y41091D01*
X63043Y40871D01*
X62978Y40627D01*
Y40373D01*
X63043Y40128D01*
X63170Y39909D01*
X63349Y39730D01*
X63569Y39603D01*
X63814Y39537D01*
X64067D01*
X64312Y39603D01*
X64531Y39730D01*
X64711Y39909D01*
X64837Y40128D01*
X64903Y40373D01*
Y40627D01*
X64837Y40871D01*
X64711Y41091D01*
X64531Y41270D01*
X64312Y41397D01*
X64067Y41462D01*
D02*
G37*
G36*
X61527D02*
X61274D01*
X61029Y41397D01*
X60809Y41270D01*
X60630Y41091D01*
X60503Y40871D01*
X60438Y40627D01*
Y40373D01*
X60503Y40128D01*
X60630Y39909D01*
X60809Y39730D01*
X61029Y39603D01*
X61274Y39537D01*
X61527D01*
X61772Y39603D01*
X61991Y39730D01*
X62171Y39909D01*
X62297Y40128D01*
X62363Y40373D01*
Y40627D01*
X62297Y40871D01*
X62171Y41091D01*
X61991Y41270D01*
X61772Y41397D01*
X61527Y41462D01*
D02*
G37*
G36*
X58987D02*
X58734D01*
X58489Y41397D01*
X58269Y41270D01*
X58090Y41091D01*
X57963Y40871D01*
X57898Y40627D01*
Y40373D01*
X57963Y40128D01*
X58090Y39909D01*
X58269Y39730D01*
X58489Y39603D01*
X58734Y39537D01*
X58987D01*
X59232Y39603D01*
X59451Y39730D01*
X59631Y39909D01*
X59757Y40128D01*
X59823Y40373D01*
Y40627D01*
X59757Y40871D01*
X59631Y41091D01*
X59451Y41270D01*
X59232Y41397D01*
X58987Y41462D01*
D02*
G37*
G36*
X53907D02*
X53654D01*
X53409Y41397D01*
X53189Y41270D01*
X53010Y41091D01*
X52883Y40871D01*
X52818Y40627D01*
Y40373D01*
X52883Y40128D01*
X53010Y39909D01*
X53189Y39730D01*
X53409Y39603D01*
X53654Y39537D01*
X53907D01*
X54152Y39603D01*
X54371Y39730D01*
X54551Y39909D01*
X54677Y40128D01*
X54743Y40373D01*
Y40627D01*
X54677Y40871D01*
X54551Y41091D01*
X54371Y41270D01*
X54152Y41397D01*
X53907Y41462D01*
D02*
G37*
G36*
X51367D02*
X51114D01*
X50869Y41397D01*
X50649Y41270D01*
X50470Y41091D01*
X50343Y40871D01*
X50278Y40627D01*
Y40373D01*
X50343Y40128D01*
X50470Y39909D01*
X50649Y39730D01*
X50869Y39603D01*
X51114Y39537D01*
X51367D01*
X51612Y39603D01*
X51831Y39730D01*
X52011Y39909D01*
X52137Y40128D01*
X52203Y40373D01*
Y40627D01*
X52137Y40871D01*
X52011Y41091D01*
X51831Y41270D01*
X51612Y41397D01*
X51367Y41462D01*
D02*
G37*
G36*
X48827D02*
X48574D01*
X48329Y41397D01*
X48109Y41270D01*
X47930Y41091D01*
X47803Y40871D01*
X47738Y40627D01*
Y40373D01*
X47803Y40128D01*
X47930Y39909D01*
X48109Y39730D01*
X48329Y39603D01*
X48574Y39537D01*
X48827D01*
X49072Y39603D01*
X49291Y39730D01*
X49471Y39909D01*
X49597Y40128D01*
X49663Y40373D01*
Y40627D01*
X49597Y40871D01*
X49471Y41091D01*
X49291Y41270D01*
X49072Y41397D01*
X48827Y41462D01*
D02*
G37*
G36*
X46287D02*
X46034D01*
X45789Y41397D01*
X45569Y41270D01*
X45390Y41091D01*
X45263Y40871D01*
X45198Y40627D01*
Y40373D01*
X45263Y40128D01*
X45390Y39909D01*
X45569Y39730D01*
X45789Y39603D01*
X46034Y39537D01*
X46287D01*
X46532Y39603D01*
X46751Y39730D01*
X46931Y39909D01*
X47057Y40128D01*
X47123Y40373D01*
Y40627D01*
X47057Y40871D01*
X46931Y41091D01*
X46751Y41270D01*
X46532Y41397D01*
X46287Y41462D01*
D02*
G37*
G36*
X41207D02*
X40954D01*
X40709Y41397D01*
X40489Y41270D01*
X40310Y41091D01*
X40183Y40871D01*
X40118Y40627D01*
Y40373D01*
X40183Y40128D01*
X40310Y39909D01*
X40489Y39730D01*
X40709Y39603D01*
X40954Y39537D01*
X41207D01*
X41452Y39603D01*
X41671Y39730D01*
X41851Y39909D01*
X41977Y40128D01*
X42043Y40373D01*
Y40627D01*
X41977Y40871D01*
X41851Y41091D01*
X41671Y41270D01*
X41452Y41397D01*
X41207Y41462D01*
D02*
G37*
G36*
X38667D02*
X38414D01*
X38169Y41397D01*
X37949Y41270D01*
X37770Y41091D01*
X37643Y40871D01*
X37578Y40627D01*
Y40373D01*
X37643Y40128D01*
X37770Y39909D01*
X37949Y39730D01*
X38169Y39603D01*
X38414Y39537D01*
X38667D01*
X38912Y39603D01*
X39131Y39730D01*
X39311Y39909D01*
X39437Y40128D01*
X39503Y40373D01*
Y40627D01*
X39437Y40871D01*
X39311Y41091D01*
X39131Y41270D01*
X38912Y41397D01*
X38667Y41462D01*
D02*
G37*
G36*
X36963D02*
X35038D01*
Y39537D01*
X36963D01*
Y41462D01*
D02*
G37*
G36*
X10988Y39888D02*
X10612D01*
X10243Y39815D01*
X9896Y39671D01*
X9584Y39462D01*
X9318Y39196D01*
X9109Y38884D01*
X8965Y38537D01*
X8892Y38168D01*
Y37792D01*
X8965Y37423D01*
X9109Y37076D01*
X9318Y36764D01*
X9584Y36498D01*
X9896Y36289D01*
X10243Y36145D01*
X10612Y36072D01*
X10988D01*
X11357Y36145D01*
X11704Y36289D01*
X12016Y36498D01*
X12282Y36764D01*
X12491Y37076D01*
X12635Y37423D01*
X12708Y37792D01*
Y37910D01*
X12835Y37953D01*
X12953Y37835D01*
X13146Y37755D01*
X13354D01*
X13547Y37835D01*
X13695Y37983D01*
X13775Y38176D01*
Y38384D01*
X13695Y38577D01*
X13547Y38725D01*
X13354Y38805D01*
X13146D01*
X12953Y38725D01*
X12805Y38577D01*
X12772Y38498D01*
X12640Y38511D01*
X12635Y38537D01*
X12491Y38884D01*
X12282Y39196D01*
X12016Y39462D01*
X11704Y39671D01*
X11357Y39815D01*
X10988Y39888D01*
D02*
G37*
G36*
X29604Y38775D02*
X29396D01*
X29203Y38695D01*
X29055Y38547D01*
X28975Y38354D01*
Y38146D01*
X29055Y37953D01*
X29203Y37805D01*
X29396Y37725D01*
X29604D01*
X29797Y37805D01*
X29945Y37953D01*
X30025Y38146D01*
Y38354D01*
X29945Y38547D01*
X29797Y38695D01*
X29604Y38775D01*
D02*
G37*
G36*
X36104Y37430D02*
X35896D01*
X35703Y37350D01*
X35555Y37202D01*
X35475Y37009D01*
Y36800D01*
X35555Y36608D01*
X35703Y36460D01*
X35896Y36380D01*
X36104D01*
X36297Y36460D01*
X36445Y36608D01*
X36525Y36800D01*
Y37009D01*
X36445Y37202D01*
X36297Y37350D01*
X36104Y37430D01*
D02*
G37*
G36*
X33067D02*
X32858D01*
X32665Y37350D01*
X32518Y37202D01*
X32438Y37009D01*
Y36800D01*
X32518Y36608D01*
X32665Y36460D01*
X32858Y36380D01*
X33067D01*
X33260Y36460D01*
X33408Y36608D01*
X33488Y36800D01*
Y37009D01*
X33408Y37202D01*
X33260Y37350D01*
X33067Y37430D01*
D02*
G37*
G36*
X26882Y38250D02*
X26618D01*
X26364Y38182D01*
X26136Y38050D01*
X25950Y37864D01*
X25818Y37636D01*
X25750Y37382D01*
Y37118D01*
X25818Y36864D01*
X25950Y36636D01*
X26136Y36450D01*
X26364Y36318D01*
X26618Y36250D01*
X26882D01*
X27136Y36318D01*
X27364Y36450D01*
X27550Y36636D01*
X27682Y36864D01*
X27750Y37118D01*
Y37382D01*
X27682Y37636D01*
X27550Y37864D01*
X27364Y38050D01*
X27136Y38182D01*
X26882Y38250D01*
D02*
G37*
G36*
X20382D02*
X20118D01*
X19864Y38182D01*
X19636Y38050D01*
X19450Y37864D01*
X19318Y37636D01*
X19250Y37382D01*
Y37118D01*
X19318Y36864D01*
X19450Y36636D01*
X19636Y36450D01*
X19864Y36318D01*
X20118Y36250D01*
X20382D01*
X20636Y36318D01*
X20864Y36450D01*
X21050Y36636D01*
X21182Y36864D01*
X21250Y37118D01*
Y37382D01*
X21182Y37636D01*
X21050Y37864D01*
X20864Y38050D01*
X20636Y38182D01*
X20382Y38250D01*
D02*
G37*
G36*
X41099Y37025D02*
X40890D01*
X40697Y36945D01*
X40549Y36797D01*
X40469Y36604D01*
Y36396D01*
X40549Y36203D01*
X40697Y36055D01*
X40890Y35975D01*
X41099D01*
X41292Y36055D01*
X41439Y36203D01*
X41519Y36396D01*
Y36604D01*
X41439Y36797D01*
X41292Y36945D01*
X41099Y37025D01*
D02*
G37*
G36*
X35351Y36160D02*
X35142D01*
X34949Y36080D01*
X34801Y35932D01*
X34721Y35739D01*
Y35530D01*
X34801Y35338D01*
X34949Y35190D01*
X35142Y35110D01*
X35351D01*
X35544Y35190D01*
X35691Y35338D01*
X35771Y35530D01*
Y35739D01*
X35691Y35932D01*
X35544Y36080D01*
X35351Y36160D01*
D02*
G37*
G36*
X68104Y35525D02*
X67896D01*
X67703Y35445D01*
X67555Y35297D01*
X67475Y35104D01*
Y34896D01*
X67555Y34703D01*
X67703Y34555D01*
X67896Y34475D01*
X68104D01*
X68297Y34555D01*
X68445Y34703D01*
X68525Y34896D01*
Y35104D01*
X68445Y35297D01*
X68297Y35445D01*
X68104Y35525D01*
D02*
G37*
G36*
X54104Y35465D02*
X53896D01*
X53703Y35385D01*
X53555Y35237D01*
X53475Y35045D01*
Y34836D01*
X53555Y34643D01*
X53703Y34495D01*
X53896Y34415D01*
X54104D01*
X54297Y34495D01*
X54445Y34643D01*
X54525Y34836D01*
Y35045D01*
X54445Y35237D01*
X54297Y35385D01*
X54104Y35465D01*
D02*
G37*
G36*
X36680Y34890D02*
X36472D01*
X36279Y34810D01*
X36131Y34662D01*
X36051Y34469D01*
Y34260D01*
X36131Y34068D01*
X36279Y33920D01*
X36472Y33840D01*
X36680D01*
X36873Y33920D01*
X37021Y34068D01*
X37101Y34260D01*
Y34469D01*
X37021Y34662D01*
X36873Y34810D01*
X36680Y34890D01*
D02*
G37*
G36*
X34586Y34125D02*
X34377D01*
X34184Y34045D01*
X34036Y33897D01*
X33956Y33704D01*
Y33682D01*
X33851Y33612D01*
X33827Y33622D01*
X33618D01*
X33425Y33542D01*
X33342Y33459D01*
X33260Y33540D01*
X33067Y33620D01*
X32858D01*
X32665Y33540D01*
X32518Y33392D01*
X32438Y33199D01*
Y32990D01*
X32518Y32798D01*
X32665Y32650D01*
X32858Y32570D01*
X33067D01*
X33260Y32650D01*
X33343Y32733D01*
X33425Y32652D01*
X33618Y32572D01*
X33827D01*
X34020Y32652D01*
X34167Y32799D01*
X34247Y32992D01*
Y33014D01*
X34353Y33085D01*
X34377Y33075D01*
X34586D01*
X34610Y33085D01*
X34716Y33014D01*
Y32992D01*
X34796Y32799D01*
X34943Y32652D01*
X35136Y32572D01*
X35345D01*
X35538Y32652D01*
X35620Y32734D01*
X35703Y32652D01*
X35896Y32572D01*
X36104D01*
X36297Y32652D01*
X36445Y32799D01*
X36525Y32992D01*
Y33201D01*
X36445Y33394D01*
X36297Y33542D01*
X36104Y33622D01*
X35896D01*
X35703Y33542D01*
X35620Y33460D01*
X35538Y33542D01*
X35345Y33622D01*
X35136D01*
X35112Y33612D01*
X35006Y33682D01*
Y33704D01*
X34926Y33897D01*
X34779Y34045D01*
X34586Y34125D01*
D02*
G37*
G36*
X39474D02*
X39266D01*
X39073Y34045D01*
X38925Y33897D01*
X38845Y33704D01*
Y33496D01*
X38925Y33303D01*
X39073Y33155D01*
X39266Y33075D01*
X39474D01*
X39667Y33155D01*
X39815Y33303D01*
X39895Y33496D01*
Y33704D01*
X39815Y33897D01*
X39667Y34045D01*
X39474Y34125D01*
D02*
G37*
G36*
X48604Y35275D02*
X48396D01*
X48203Y35195D01*
X48055Y35047D01*
X47975Y34854D01*
Y34646D01*
X48055Y34453D01*
X48133Y34375D01*
X48055Y34297D01*
X47975Y34104D01*
Y33896D01*
X48055Y33703D01*
X48140Y33618D01*
X48069Y33547D01*
X47989Y33354D01*
Y33146D01*
X48069Y32953D01*
X48217Y32805D01*
X48410Y32725D01*
X48618D01*
X48811Y32805D01*
X48959Y32953D01*
X49039Y33146D01*
Y33354D01*
X48959Y33547D01*
X48874Y33632D01*
X48945Y33703D01*
X49025Y33896D01*
Y34104D01*
X48945Y34297D01*
X48867Y34375D01*
X48945Y34453D01*
X49025Y34646D01*
Y34854D01*
X48945Y35047D01*
X48797Y35195D01*
X48604Y35275D01*
D02*
G37*
G36*
X61064Y33585D02*
X60856D01*
X60663Y33505D01*
X60515Y33357D01*
X60435Y33165D01*
Y32956D01*
X60515Y32763D01*
X60663Y32615D01*
X60856Y32535D01*
X61064D01*
X61257Y32615D01*
X61405Y32763D01*
X61485Y32956D01*
Y33165D01*
X61405Y33357D01*
X61257Y33505D01*
X61064Y33585D01*
D02*
G37*
G36*
X41904Y33025D02*
X41696D01*
X41503Y32945D01*
X41355Y32797D01*
X41275Y32604D01*
Y32396D01*
X41328Y32268D01*
X41231Y32170D01*
X41099Y32225D01*
X40890D01*
X40697Y32145D01*
X40549Y31997D01*
X40469Y31804D01*
Y31596D01*
X40549Y31403D01*
X40697Y31255D01*
X40890Y31175D01*
X41099D01*
X41292Y31255D01*
X41375Y31339D01*
X41459Y31255D01*
X41652Y31175D01*
X41861D01*
X42054Y31255D01*
X42178Y31379D01*
X42303Y31255D01*
X42496Y31175D01*
X42704D01*
X42897Y31255D01*
X43045Y31403D01*
X43125Y31596D01*
Y31804D01*
X43045Y31997D01*
X42897Y32145D01*
X42704Y32225D01*
X42496D01*
X42370Y32173D01*
X42273Y32270D01*
X42325Y32396D01*
Y32604D01*
X42245Y32797D01*
X42097Y32945D01*
X41904Y33025D01*
D02*
G37*
G36*
X54104Y32525D02*
X53896D01*
X53703Y32445D01*
X53555Y32297D01*
X53475Y32104D01*
Y31896D01*
X53555Y31703D01*
X53703Y31555D01*
X53896Y31475D01*
X54104D01*
X54297Y31555D01*
X54445Y31703D01*
X54525Y31896D01*
Y32104D01*
X54445Y32297D01*
X54297Y32445D01*
X54104Y32525D01*
D02*
G37*
G36*
X39855Y32225D02*
X39647D01*
X39454Y32145D01*
X39306Y31997D01*
X39226Y31804D01*
Y31596D01*
X39306Y31403D01*
X39454Y31255D01*
X39647Y31175D01*
X39855D01*
X40048Y31255D01*
X40196Y31403D01*
X40276Y31596D01*
Y31804D01*
X40196Y31997D01*
X40048Y32145D01*
X39855Y32225D01*
D02*
G37*
G36*
X58104Y32175D02*
X57896D01*
X57703Y32095D01*
X57555Y31947D01*
X57475Y31754D01*
Y31546D01*
X57555Y31353D01*
X57703Y31205D01*
X57896Y31125D01*
X58104D01*
X58297Y31205D01*
X58445Y31353D01*
X58525Y31546D01*
Y31754D01*
X58445Y31947D01*
X58297Y32095D01*
X58104Y32175D01*
D02*
G37*
G36*
X60104Y31825D02*
X59896D01*
X59703Y31745D01*
X59555Y31597D01*
X59475Y31404D01*
Y31196D01*
X59555Y31003D01*
X59703Y30855D01*
X59896Y30775D01*
X60104D01*
X60297Y30855D01*
X60445Y31003D01*
X60525Y31196D01*
Y31404D01*
X60445Y31597D01*
X60297Y31745D01*
X60104Y31825D01*
D02*
G37*
G36*
X38664Y30965D02*
X38456D01*
X38263Y30885D01*
X38145Y30767D01*
X38027Y30885D01*
X37834Y30965D01*
X37625D01*
X37432Y30885D01*
X37285Y30737D01*
X37205Y30544D01*
Y30336D01*
X37285Y30143D01*
X37432Y29995D01*
X37625Y29915D01*
X37834D01*
X38027Y29995D01*
X38145Y30113D01*
X38263Y29995D01*
X38456Y29915D01*
X38664D01*
X38857Y29995D01*
X39005Y30143D01*
X39085Y30336D01*
Y30544D01*
X39005Y30737D01*
X38857Y30885D01*
X38664Y30965D01*
D02*
G37*
G36*
X34114Y30525D02*
X33905D01*
X33713Y30445D01*
X33565Y30297D01*
X33485Y30104D01*
Y29896D01*
X33565Y29703D01*
X33713Y29555D01*
X33905Y29475D01*
X34114D01*
X34307Y29555D01*
X34455Y29703D01*
X34535Y29896D01*
Y30104D01*
X34455Y30297D01*
X34307Y30445D01*
X34114Y30525D01*
D02*
G37*
G36*
X68304Y29625D02*
X68095D01*
X67902Y29545D01*
X67807Y29450D01*
X67724Y29411D01*
X67641Y29450D01*
X67546Y29545D01*
X67353Y29625D01*
X67145D01*
X66952Y29545D01*
X66804Y29397D01*
X66724Y29204D01*
Y28996D01*
X66804Y28803D01*
X66952Y28655D01*
X67145Y28575D01*
X67353D01*
X67546Y28655D01*
X67641Y28750D01*
X67724Y28789D01*
X67807Y28750D01*
X67902Y28655D01*
X68095Y28575D01*
X68304D01*
X68497Y28655D01*
X68645Y28803D01*
X68725Y28996D01*
Y29204D01*
X68645Y29397D01*
X68497Y29545D01*
X68304Y29625D01*
D02*
G37*
G36*
X46604Y30775D02*
X46396D01*
X46203Y30695D01*
X46055Y30547D01*
X45975Y30354D01*
Y30146D01*
X46055Y29953D01*
X46183Y29824D01*
X46194Y29750D01*
X46183Y29676D01*
X46055Y29547D01*
X45975Y29354D01*
Y29146D01*
X46055Y28953D01*
X46183Y28825D01*
X46055Y28697D01*
X45975Y28504D01*
Y28296D01*
X46055Y28103D01*
X46203Y27955D01*
X46396Y27875D01*
X46604D01*
X46797Y27955D01*
X46945Y28103D01*
X47025Y28296D01*
Y28504D01*
X46945Y28697D01*
X46817Y28825D01*
X46945Y28953D01*
X47025Y29146D01*
Y29354D01*
X46945Y29547D01*
X46817Y29676D01*
X46806Y29750D01*
X46817Y29824D01*
X46945Y29953D01*
X47025Y30146D01*
Y30354D01*
X46945Y30547D01*
X46797Y30695D01*
X46604Y30775D01*
D02*
G37*
G36*
X68304Y27125D02*
X68095D01*
X67902Y27045D01*
X67807Y26950D01*
X67724Y26911D01*
X67641Y26950D01*
X67546Y27045D01*
X67353Y27125D01*
X67145D01*
X66952Y27045D01*
X66804Y26897D01*
X66724Y26704D01*
Y26496D01*
X66804Y26303D01*
X66952Y26155D01*
X67145Y26075D01*
X67353D01*
X67546Y26155D01*
X67641Y26250D01*
X67724Y26289D01*
X67807Y26250D01*
X67902Y26155D01*
X68095Y26075D01*
X68304D01*
X68497Y26155D01*
X68645Y26303D01*
X68725Y26496D01*
Y26704D01*
X68645Y26897D01*
X68497Y27045D01*
X68304Y27125D01*
D02*
G37*
G36*
X4665Y29250D02*
X4335D01*
X4018Y29165D01*
X3732Y29000D01*
X3500Y28768D01*
X3335Y28482D01*
X3250Y28165D01*
Y27835D01*
X3335Y27518D01*
X3500Y27232D01*
X3732Y27000D01*
X4018Y26835D01*
X4335Y26750D01*
X4665D01*
X4982Y26835D01*
X5268Y27000D01*
X5500Y27232D01*
X5665Y27518D01*
X5750Y27835D01*
Y28165D01*
X5665Y28482D01*
X5500Y28768D01*
X5268Y29000D01*
X4982Y29165D01*
X4665Y29250D01*
D02*
G37*
G36*
X46404Y26325D02*
X46196D01*
X46003Y26245D01*
X45855Y26097D01*
X45775Y25904D01*
Y25696D01*
X45855Y25503D01*
X46003Y25355D01*
X46196Y25275D01*
X46404D01*
X46597Y25355D01*
X46745Y25503D01*
X46825Y25696D01*
Y25904D01*
X46745Y26097D01*
X46597Y26245D01*
X46404Y26325D01*
D02*
G37*
G36*
X36680Y25798D02*
X36472D01*
X36279Y25718D01*
X36131Y25570D01*
X36051Y25377D01*
Y25169D01*
X36131Y24976D01*
X36279Y24828D01*
X36472Y24748D01*
X36680D01*
X36873Y24828D01*
X37021Y24976D01*
X37101Y25169D01*
Y25377D01*
X37021Y25570D01*
X36873Y25718D01*
X36680Y25798D01*
D02*
G37*
G36*
X46404Y25025D02*
X46196D01*
X46003Y24945D01*
X45855Y24797D01*
X45775Y24604D01*
Y24396D01*
X45855Y24203D01*
X46003Y24055D01*
X46196Y23975D01*
X46404D01*
X46597Y24055D01*
X46745Y24203D01*
X46825Y24396D01*
Y24604D01*
X46745Y24797D01*
X46597Y24945D01*
X46404Y25025D01*
D02*
G37*
G36*
X61854Y24225D02*
X61646D01*
X61453Y24145D01*
X61305Y23997D01*
X61225Y23804D01*
Y23596D01*
X61305Y23403D01*
X61453Y23255D01*
X61646Y23175D01*
X61854D01*
X62047Y23255D01*
X62195Y23403D01*
X62275Y23596D01*
Y23804D01*
X62195Y23997D01*
X62047Y24145D01*
X61854Y24225D01*
D02*
G37*
G36*
X41604Y23109D02*
X41396D01*
X41203Y23029D01*
X41133Y22960D01*
X41050Y22886D01*
X40967Y22960D01*
X40897Y23029D01*
X40704Y23109D01*
X40496D01*
X40303Y23029D01*
X40155Y22882D01*
X40075Y22689D01*
Y22480D01*
X40155Y22287D01*
X40303Y22139D01*
X40496Y22059D01*
X40704D01*
X40897Y22139D01*
X40967Y22209D01*
X41050Y22282D01*
X41133Y22209D01*
X41203Y22139D01*
X41396Y22059D01*
X41604D01*
X41797Y22139D01*
X41945Y22287D01*
X42025Y22480D01*
Y22689D01*
X41945Y22882D01*
X41797Y23029D01*
X41604Y23109D01*
D02*
G37*
G36*
X44004Y23152D02*
X43796D01*
X43603Y23072D01*
X43455Y22924D01*
X43375Y22731D01*
Y22523D01*
X43455Y22330D01*
X43603Y22182D01*
X43796Y22102D01*
X44004D01*
X44197Y22182D01*
X44286Y22271D01*
X44403Y22155D01*
X44596Y22075D01*
X44804D01*
X44997Y22155D01*
X45100Y22258D01*
X45203Y22155D01*
X45396Y22075D01*
X45604D01*
X45797Y22155D01*
X45945Y22303D01*
X46025Y22496D01*
Y22704D01*
X45945Y22897D01*
X45797Y23045D01*
X45604Y23125D01*
X45396D01*
X45203Y23045D01*
X45100Y22942D01*
X44997Y23045D01*
X44804Y23125D01*
X44596D01*
X44403Y23045D01*
X44313Y22956D01*
X44197Y23072D01*
X44004Y23152D01*
D02*
G37*
G36*
X4665Y24170D02*
X4335D01*
X4018Y24085D01*
X3732Y23920D01*
X3500Y23688D01*
X3335Y23402D01*
X3250Y23085D01*
Y22755D01*
X3335Y22438D01*
X3500Y22152D01*
X3732Y21920D01*
X4018Y21755D01*
X4335Y21670D01*
X4665D01*
X4982Y21755D01*
X5268Y21920D01*
X5500Y22152D01*
X5665Y22438D01*
X5750Y22755D01*
Y23085D01*
X5665Y23402D01*
X5500Y23688D01*
X5268Y23920D01*
X4982Y24085D01*
X4665Y24170D01*
D02*
G37*
G36*
X36526Y21774D02*
X36318D01*
X36125Y21694D01*
X35977Y21546D01*
X35897Y21353D01*
Y21145D01*
X35977Y20952D01*
X36125Y20804D01*
X36318Y20724D01*
X36526D01*
X36719Y20804D01*
X36867Y20952D01*
X36947Y21145D01*
Y21353D01*
X36867Y21546D01*
X36719Y21694D01*
X36526Y21774D01*
D02*
G37*
G36*
X46586Y21025D02*
X46378D01*
X46185Y20945D01*
X46037Y20797D01*
X45957Y20604D01*
Y20396D01*
X46037Y20203D01*
X46185Y20055D01*
X46378Y19975D01*
X46586D01*
X46779Y20055D01*
X46927Y20203D01*
X47007Y20396D01*
Y20604D01*
X46927Y20797D01*
X46779Y20945D01*
X46586Y21025D01*
D02*
G37*
G36*
X41354D02*
X41146D01*
X40953Y20945D01*
X40805Y20797D01*
X40725Y20604D01*
Y20396D01*
X40805Y20203D01*
X40953Y20055D01*
X41146Y19975D01*
X41354D01*
X41547Y20055D01*
X41695Y20203D01*
X41775Y20396D01*
Y20604D01*
X41695Y20797D01*
X41547Y20945D01*
X41354Y21025D01*
D02*
G37*
G36*
X38604Y19275D02*
X38396D01*
X38203Y19195D01*
X38055Y19047D01*
X37975Y18854D01*
Y18646D01*
X38055Y18453D01*
X38203Y18305D01*
X38396Y18225D01*
X38604D01*
X38797Y18305D01*
X38945Y18453D01*
X39025Y18646D01*
Y18854D01*
X38945Y19047D01*
X38797Y19195D01*
X38604Y19275D01*
D02*
G37*
G36*
X42354Y18178D02*
X42146D01*
X41953Y18098D01*
X41805Y17950D01*
X41725Y17757D01*
Y17549D01*
X41805Y17356D01*
X41953Y17208D01*
X42146Y17128D01*
X42354D01*
X42547Y17208D01*
X42695Y17356D01*
X42775Y17549D01*
Y17757D01*
X42695Y17950D01*
X42547Y18098D01*
X42354Y18178D01*
D02*
G37*
G36*
X33214Y14275D02*
X33005D01*
X32813Y14195D01*
X32665Y14047D01*
X32585Y13854D01*
Y13646D01*
X32665Y13453D01*
X32813Y13305D01*
X33005Y13225D01*
X33214D01*
X33407Y13305D01*
X33555Y13453D01*
X33635Y13646D01*
Y13854D01*
X33555Y14047D01*
X33407Y14195D01*
X33214Y14275D01*
D02*
G37*
G36*
X89600Y14850D02*
X87900D01*
Y13150D01*
X89600D01*
Y14850D01*
D02*
G37*
G36*
X35791Y10729D02*
X35583D01*
X35390Y10649D01*
X35242Y10501D01*
X35162Y10308D01*
Y10100D01*
X35242Y9907D01*
X35390Y9759D01*
X35583Y9679D01*
X35791D01*
X35984Y9759D01*
X36132Y9907D01*
X36212Y10100D01*
Y10308D01*
X36132Y10501D01*
X35984Y10649D01*
X35791Y10729D01*
D02*
G37*
%LPD*%
D16*
X69500Y50000D02*
D03*
X78500D02*
D03*
X83000D02*
D03*
X74000D02*
D03*
X26750Y45750D02*
D03*
X20250D02*
D03*
Y50250D02*
D03*
X26750D02*
D03*
X20250Y41750D02*
D03*
X26750D02*
D03*
X20250Y37250D02*
D03*
X26750D02*
D03*
D17*
X69500Y47460D02*
D03*
X78500D02*
D03*
X83000D02*
D03*
X74000D02*
D03*
D18*
X48768Y54786D02*
D03*
X56388Y76786D02*
D03*
X48768D02*
D03*
X46228D02*
D03*
X53848Y54786D02*
D03*
X51308D02*
D03*
X46228D02*
D03*
X43688D02*
D03*
D19*
X53848Y76786D02*
D03*
X51308D02*
D03*
X43688D02*
D03*
X56388Y54786D02*
D03*
D20*
X17040Y10290D02*
D03*
Y7750D02*
D03*
Y5210D02*
D03*
X11960D02*
D03*
Y7750D02*
D03*
Y10290D02*
D03*
X26540D02*
D03*
Y7750D02*
D03*
Y5210D02*
D03*
X21460D02*
D03*
Y7750D02*
D03*
Y10290D02*
D03*
X68040D02*
D03*
Y7750D02*
D03*
Y5210D02*
D03*
X62960D02*
D03*
Y7750D02*
D03*
Y10290D02*
D03*
X77540D02*
D03*
Y7750D02*
D03*
Y5210D02*
D03*
X72460D02*
D03*
Y7750D02*
D03*
Y10290D02*
D03*
D21*
X93750Y14000D02*
D03*
D22*
X88750D02*
D03*
D23*
X41460Y11750D02*
D03*
Y14250D02*
D03*
X44960Y11750D02*
D03*
Y14250D02*
D03*
X50040Y11750D02*
D03*
Y14250D02*
D03*
X53540Y11750D02*
D03*
Y14250D02*
D03*
X41460Y3660D02*
D03*
Y6160D02*
D03*
X44960Y3660D02*
D03*
Y6160D02*
D03*
X50040Y3660D02*
D03*
Y6160D02*
D03*
X53540Y3660D02*
D03*
Y6160D02*
D03*
D24*
X47500Y13045D02*
D03*
Y4955D02*
D03*
D25*
X92000Y63080D02*
D03*
Y60540D02*
D03*
Y58000D02*
D03*
D26*
X4500Y28000D02*
D03*
Y22920D02*
D03*
Y58920D02*
D03*
Y12760D02*
D03*
Y17840D02*
D03*
Y64000D02*
D03*
D27*
X43620Y40500D02*
D03*
X56320D02*
D03*
X48700Y48120D02*
D03*
X56320D02*
D03*
X58860D02*
D03*
X61400D02*
D03*
X63940D02*
D03*
X53780D02*
D03*
X51240D02*
D03*
X46160D02*
D03*
X43620D02*
D03*
X41080D02*
D03*
X38540D02*
D03*
X58860Y40500D02*
D03*
X61400D02*
D03*
X63940D02*
D03*
X53780D02*
D03*
X51240D02*
D03*
X48700D02*
D03*
X46160D02*
D03*
X41080D02*
D03*
X38540D02*
D03*
D28*
X93000Y22150D02*
D03*
D29*
X15500Y42750D02*
D03*
D30*
X10800Y37980D02*
D03*
Y50020D02*
D03*
D31*
X13500Y42750D02*
D03*
Y45250D02*
D03*
X15500D02*
D03*
D32*
X92500Y78000D02*
D03*
X4500D02*
D03*
Y4500D02*
D03*
X92500D02*
D03*
D33*
X36000Y48120D02*
D03*
Y40500D02*
D03*
D34*
X93000Y52850D02*
D03*
D35*
X32100Y3600D02*
D03*
X31600Y2600D02*
D03*
X31100Y3600D02*
D03*
X30600Y2600D02*
D03*
X30100Y5600D02*
D03*
X29600Y4600D02*
D03*
X30100Y3600D02*
D03*
X29600Y2600D02*
D03*
X29100Y5600D02*
D03*
X28600Y4600D02*
D03*
X29100Y3600D02*
D03*
X28600Y2600D02*
D03*
X28100Y11600D02*
D03*
Y9600D02*
D03*
Y7600D02*
D03*
X27600Y6600D02*
D03*
X28100Y5600D02*
D03*
Y3600D02*
D03*
X27600Y2600D02*
D03*
X27100Y3600D02*
D03*
X26600Y2600D02*
D03*
X26100Y3600D02*
D03*
X25600Y2600D02*
D03*
X25100Y11600D02*
D03*
X24600Y10600D02*
D03*
X25100Y9600D02*
D03*
X24600Y8600D02*
D03*
Y6600D02*
D03*
Y4600D02*
D03*
X25100Y3600D02*
D03*
X24600Y2600D02*
D03*
X24100Y11600D02*
D03*
X23600Y10600D02*
D03*
X24100Y9600D02*
D03*
X23600Y8600D02*
D03*
X24100Y7600D02*
D03*
X23600Y6600D02*
D03*
X24100Y5600D02*
D03*
X23600Y4600D02*
D03*
X24100Y3600D02*
D03*
X23600Y2600D02*
D03*
X23100Y11600D02*
D03*
Y9600D02*
D03*
Y7600D02*
D03*
X22600Y6600D02*
D03*
X23100Y5600D02*
D03*
Y3600D02*
D03*
X22600Y2600D02*
D03*
X22100Y3600D02*
D03*
X21600Y2600D02*
D03*
X21100Y3600D02*
D03*
X20600Y2600D02*
D03*
X46100Y15600D02*
D03*
Y9600D02*
D03*
X45600Y8600D02*
D03*
X46100Y7600D02*
D03*
X45100Y9600D02*
D03*
X44600Y8600D02*
D03*
X44100Y15600D02*
D03*
X43600Y12600D02*
D03*
Y10600D02*
D03*
X44100Y9600D02*
D03*
X43600Y8600D02*
D03*
X44100Y7600D02*
D03*
X43600Y4600D02*
D03*
Y2600D02*
D03*
X43100Y15600D02*
D03*
Y13600D02*
D03*
Y11600D02*
D03*
X42600Y10600D02*
D03*
X43100Y9600D02*
D03*
X42600Y8600D02*
D03*
X43100Y7600D02*
D03*
Y5600D02*
D03*
Y3600D02*
D03*
X42100Y9600D02*
D03*
X41600Y8600D02*
D03*
X42100Y7600D02*
D03*
X41100Y9600D02*
D03*
X40600Y8600D02*
D03*
X40100Y15600D02*
D03*
X39600Y14600D02*
D03*
Y12600D02*
D03*
Y10600D02*
D03*
X40100Y9600D02*
D03*
X39600Y8600D02*
D03*
X40100Y7600D02*
D03*
X39600Y6600D02*
D03*
Y4600D02*
D03*
Y2600D02*
D03*
X39100Y15600D02*
D03*
Y13600D02*
D03*
Y11600D02*
D03*
Y9600D02*
D03*
Y7600D02*
D03*
Y5600D02*
D03*
X38600Y4600D02*
D03*
X39100Y3600D02*
D03*
X38600Y2600D02*
D03*
X38100Y5600D02*
D03*
X37600Y4600D02*
D03*
X38100Y3600D02*
D03*
X37600Y2600D02*
D03*
X37100Y5600D02*
D03*
X36600Y4600D02*
D03*
X37100Y3600D02*
D03*
X36600Y2600D02*
D03*
X36100Y5600D02*
D03*
X35600Y4600D02*
D03*
X36100Y3600D02*
D03*
X35600Y2600D02*
D03*
X35100Y3600D02*
D03*
X34600Y2600D02*
D03*
X34100Y3600D02*
D03*
X33600Y2600D02*
D03*
X69100Y11600D02*
D03*
Y3600D02*
D03*
X68100D02*
D03*
X67100Y11600D02*
D03*
X66600Y8600D02*
D03*
Y6600D02*
D03*
Y4600D02*
D03*
X67100Y3600D02*
D03*
X66100Y11600D02*
D03*
X65600Y10600D02*
D03*
X66100Y9600D02*
D03*
X65600Y8600D02*
D03*
X66100Y7600D02*
D03*
X65600Y6600D02*
D03*
X66100Y5600D02*
D03*
X65600Y4600D02*
D03*
X66100Y3600D02*
D03*
X65100Y11600D02*
D03*
X64600Y10600D02*
D03*
X65100Y9600D02*
D03*
X64600Y8600D02*
D03*
X65100Y7600D02*
D03*
X64600Y6600D02*
D03*
X65100Y5600D02*
D03*
X64600Y4600D02*
D03*
X65100Y3600D02*
D03*
X64100Y11600D02*
D03*
Y3600D02*
D03*
X63100D02*
D03*
X62100Y11600D02*
D03*
X61600Y8600D02*
D03*
Y6600D02*
D03*
X62100Y3600D02*
D03*
X61100Y11600D02*
D03*
X60600Y10600D02*
D03*
X61100Y9600D02*
D03*
X60600Y8600D02*
D03*
X61100Y7600D02*
D03*
X60600Y6600D02*
D03*
X61100Y5600D02*
D03*
X60600Y4600D02*
D03*
X61100Y3600D02*
D03*
X60100Y11600D02*
D03*
X59600Y10600D02*
D03*
X60100Y9600D02*
D03*
X59600Y8600D02*
D03*
X60100Y7600D02*
D03*
X59600Y6600D02*
D03*
X60100Y5600D02*
D03*
X59600Y4600D02*
D03*
X60100Y3600D02*
D03*
X59100Y11600D02*
D03*
X58600Y10600D02*
D03*
X59100Y9600D02*
D03*
X58600Y8600D02*
D03*
X59100Y7600D02*
D03*
X58600Y6600D02*
D03*
X59100Y5600D02*
D03*
X58600Y4600D02*
D03*
X59100Y3600D02*
D03*
X58100Y11600D02*
D03*
X57600Y10600D02*
D03*
X58100Y9600D02*
D03*
X57600Y8600D02*
D03*
X58100Y7600D02*
D03*
X57600Y6600D02*
D03*
X58100Y5600D02*
D03*
X57600Y4600D02*
D03*
X58100Y3600D02*
D03*
X57100Y11600D02*
D03*
X56600Y10600D02*
D03*
X57100Y9600D02*
D03*
X56600Y8600D02*
D03*
X57100Y7600D02*
D03*
X56600Y6600D02*
D03*
X57100Y5600D02*
D03*
X56600Y4600D02*
D03*
X57100Y3600D02*
D03*
X56100Y15600D02*
D03*
X55600Y14600D02*
D03*
X56100Y13600D02*
D03*
X55600Y12600D02*
D03*
X56100Y11600D02*
D03*
X55600Y10600D02*
D03*
X56100Y9600D02*
D03*
X55600Y8600D02*
D03*
X56100Y7600D02*
D03*
X55600Y6600D02*
D03*
X56100Y5600D02*
D03*
X55600Y4600D02*
D03*
X56100Y3600D02*
D03*
X55600Y2600D02*
D03*
X55100Y15600D02*
D03*
Y13600D02*
D03*
Y9600D02*
D03*
X54600Y8600D02*
D03*
X55100Y7600D02*
D03*
Y5600D02*
D03*
X54100Y9600D02*
D03*
X53600Y8600D02*
D03*
X53100Y9600D02*
D03*
X52600Y8600D02*
D03*
X52100Y15600D02*
D03*
X51600Y14600D02*
D03*
X52100Y13600D02*
D03*
X51600Y12600D02*
D03*
Y10600D02*
D03*
X52100Y9600D02*
D03*
X51600Y8600D02*
D03*
X52100Y7600D02*
D03*
X51600Y6600D02*
D03*
Y4600D02*
D03*
Y2600D02*
D03*
X51100Y15600D02*
D03*
Y9600D02*
D03*
X50600Y8600D02*
D03*
X51100Y7600D02*
D03*
X50100Y9600D02*
D03*
X49600Y8600D02*
D03*
X49100Y15600D02*
D03*
X48600Y10600D02*
D03*
X49100Y9600D02*
D03*
X48600Y8600D02*
D03*
X49100Y7600D02*
D03*
X48600Y2600D02*
D03*
X68000Y35000D02*
D03*
X67249Y26600D02*
D03*
X68200D02*
D03*
X67249Y29100D02*
D03*
X68200D02*
D03*
X40994Y36500D02*
D03*
X66800Y35000D02*
D03*
X68000Y22750D02*
D03*
X48514Y33250D02*
D03*
X33722Y33097D02*
D03*
X32963Y33095D02*
D03*
X36576Y34365D02*
D03*
X34481Y33600D02*
D03*
X35246Y35635D02*
D03*
X35241Y33097D02*
D03*
X52324Y33250D02*
D03*
X58860Y44310D02*
D03*
X38500Y18750D02*
D03*
X35750Y17000D02*
D03*
X41250Y20500D02*
D03*
X43900Y22627D02*
D03*
X42250Y17653D02*
D03*
X35687Y10204D02*
D03*
X29750D02*
D03*
X33110Y13750D02*
D03*
X74803Y44216D02*
D03*
X72897Y36500D02*
D03*
X60960Y33060D02*
D03*
X58000Y31650D02*
D03*
X60000Y31300D02*
D03*
X40600Y22584D02*
D03*
X63119Y27000D02*
D03*
X61750Y23700D02*
D03*
X54000Y34940D02*
D03*
Y32000D02*
D03*
X60750Y23700D02*
D03*
X58000Y29950D02*
D03*
X7493Y51000D02*
D03*
X57150Y23500D02*
D03*
X46500Y30250D02*
D03*
X40994Y31700D02*
D03*
X42600D02*
D03*
X41756D02*
D03*
X41800Y32500D02*
D03*
X36576Y25273D02*
D03*
X36422Y21249D02*
D03*
X37730Y30440D02*
D03*
X32000Y30000D02*
D03*
X32963Y36905D02*
D03*
X93715Y33500D02*
D03*
Y46500D02*
D03*
X86000Y43500D02*
D03*
Y36500D02*
D03*
Y40000D02*
D03*
X69500Y55485D02*
D03*
X78500D02*
D03*
X32000Y69750D02*
D03*
X38500Y68450D02*
D03*
X41500Y22584D02*
D03*
X50500Y30000D02*
D03*
X14060Y67500D02*
D03*
X15500Y72500D02*
D03*
X45600Y68500D02*
D03*
X44000Y63060D02*
D03*
X43500Y36500D02*
D03*
X54500Y26625D02*
D03*
X50500Y21500D02*
D03*
X42250Y18500D02*
D03*
X40750Y70000D02*
D03*
X22150Y66000D02*
D03*
X17780Y74500D02*
D03*
X20250Y40190D02*
D03*
X29500Y36905D02*
D03*
X13250Y36720D02*
D03*
X32000Y22000D02*
D03*
X83000Y55500D02*
D03*
X46500Y28400D02*
D03*
X35400Y72500D02*
D03*
X39370Y33600D02*
D03*
X19500Y68675D02*
D03*
X29500Y38250D02*
D03*
X34010Y30000D02*
D03*
X29000Y42500D02*
D03*
Y45250D02*
D03*
X36000Y33097D02*
D03*
X36000Y36905D02*
D03*
X46500Y29250D02*
D03*
X46300Y25800D02*
D03*
Y24500D02*
D03*
X44700Y22600D02*
D03*
X45500D02*
D03*
X38560Y30440D02*
D03*
X39751Y31700D02*
D03*
X62500Y74500D02*
D03*
X74000Y55500D02*
D03*
X46482Y20500D02*
D03*
X38500Y67000D02*
D03*
X36322D02*
D03*
X48500Y34000D02*
D03*
Y34750D02*
D03*
X13250Y38280D02*
D03*
%TF.MD5,25e6cebce5d67a9170fc331fe3139325*%
M02*
