%TF.GenerationSoftware,Altium Limited,Altium Designer,25.2.1 (25)*%
G04 Layer_Color=32768*
%FSLAX43Y43*%
%MOMM*%
%TF.SameCoordinates,14BE83A4-B3EB-4770-8DB1-726BE69DDD70*%
%TF.FilePolarity,Positive*%
%TF.FileFunction,Other,Mechanical_15*%
%TF.Part,Single*%
G01*
G75*
%TA.AperFunction,NonConductor*%
%ADD67C,0.254*%
%ADD69C,0.100*%
%ADD76C,0.127*%
%ADD126C,0.050*%
D67*
X14238Y52936D02*
X85838D01*
X14238Y78636D02*
X85838D01*
Y52936D02*
Y78636D01*
X14238Y52936D02*
Y78636D01*
D69*
X36100Y10750D02*
X37900D01*
X36100Y7850D02*
X37900D01*
X36100D02*
Y10750D01*
X37900Y7850D02*
Y10750D01*
X70747Y38617D02*
X75047D01*
Y41842D01*
X73972Y42917D02*
X75047Y41842D01*
X71822Y42917D02*
X73972D01*
X70747Y41842D02*
X71822Y42917D01*
X70747Y38617D02*
Y41842D01*
X70250Y29250D02*
Y32750D01*
X65750Y29250D02*
Y32750D01*
X65750Y32750D02*
X70250D01*
X65750Y29250D02*
X70250D01*
X65350Y32850D02*
Y34650D01*
X68250Y32850D02*
Y34650D01*
X65350Y32850D02*
X68250D01*
X65350Y34650D02*
X68250D01*
X67100Y23109D02*
X68900D01*
X67100Y26009D02*
X68900D01*
Y23109D02*
Y26009D01*
X67100Y23109D02*
Y26009D01*
X78750Y34250D02*
Y45750D01*
X95000D01*
Y34250D02*
Y45750D01*
X78750Y34250D02*
X95000D01*
X9810Y3060D02*
Y12440D01*
Y3060D02*
X19190D01*
Y12440D01*
X9810D02*
X19190D01*
X19310Y3060D02*
Y12440D01*
Y3060D02*
X28690D01*
Y12440D01*
X19310D02*
X28690D01*
X60810Y3060D02*
Y12440D01*
Y3060D02*
X70190D01*
Y12440D01*
X60810D02*
X70190D01*
X36500Y17000D02*
X58500D01*
Y9000D02*
Y17000D01*
X36500Y9000D02*
X58500D01*
X36500D02*
Y17000D01*
X70310Y3060D02*
Y12440D01*
Y3060D02*
X79690D01*
Y12440D01*
X70310D02*
X79690D01*
X54550Y23850D02*
Y27650D01*
X49950Y23850D02*
X54550D01*
X49950Y23850D02*
Y27650D01*
Y27650D02*
X54550D01*
X29000Y44000D02*
Y46500D01*
X33000Y44000D02*
Y46500D01*
X29000Y44000D02*
X33000D01*
X29000Y46500D02*
X33000D01*
X42465Y64050D02*
Y66950D01*
X40665Y64050D02*
Y66950D01*
Y64050D02*
X42465D01*
X40665Y66950D02*
X42465D01*
X16865Y64900D02*
X19765D01*
X16865Y63100D02*
X19765D01*
Y64900D01*
X16865Y63100D02*
Y64900D01*
X54800Y27650D02*
X57700D01*
X54800Y25850D02*
X57700D01*
Y27650D01*
X54800Y25850D02*
Y27650D01*
X47015Y30900D02*
X49915D01*
X47015Y29100D02*
X49915D01*
Y30900D01*
X47015Y29100D02*
Y30900D01*
X36500Y8910D02*
X58500D01*
Y910D02*
Y8910D01*
X36500Y910D02*
X58500D01*
X36500D02*
Y8910D01*
X33050Y70100D02*
X35950D01*
X33050Y71900D02*
X35950D01*
X33050Y70100D02*
Y71900D01*
X35950Y70100D02*
Y71900D01*
X65940Y38500D02*
Y50120D01*
X34000Y38500D02*
Y50120D01*
X65940D01*
X34000Y38500D02*
X65940D01*
X16880Y71078D02*
Y73978D01*
X18680Y71078D02*
Y73978D01*
X16880D02*
X18680D01*
X16880Y71078D02*
X18680D01*
X29000Y41000D02*
X33000D01*
X29000Y38500D02*
X33000D01*
Y41000D01*
X29000Y38500D02*
Y41000D01*
X13500Y35500D02*
Y39500D01*
X16000Y35500D02*
Y39500D01*
X13500D02*
X16000D01*
X13500Y35500D02*
X16000D01*
X29000Y43750D02*
X33000D01*
X29000Y41250D02*
X33000D01*
Y43750D01*
X29000Y41250D02*
Y43750D01*
X62219Y26200D02*
X64019D01*
X62219Y23300D02*
X64019D01*
X62219D02*
Y26200D01*
X64019Y23300D02*
Y26200D01*
X35460Y22100D02*
Y23900D01*
X32560Y22100D02*
Y23900D01*
X35460D01*
X32560Y22100D02*
X35460D01*
X32560Y16100D02*
Y17900D01*
X35460Y16100D02*
Y17900D01*
X32560Y16100D02*
X35460D01*
X32560Y17900D02*
X35460D01*
X38350Y19050D02*
X40150D01*
X38350Y21950D02*
X40150D01*
Y19050D02*
Y21950D01*
X38350Y19050D02*
Y21950D01*
X54800Y23850D02*
Y25650D01*
X57700Y23850D02*
Y25650D01*
X54800Y23850D02*
X57700D01*
X54800Y25650D02*
X57700D01*
X6593Y51635D02*
X8393D01*
X6593Y54535D02*
X8393D01*
Y51635D02*
Y54535D01*
X6593Y51635D02*
Y54535D01*
X39600Y33050D02*
X41400D01*
X39600Y35950D02*
X41400D01*
Y33050D02*
Y35950D01*
X39600Y33050D02*
Y35950D01*
X47015Y21600D02*
Y23400D01*
X49915Y21600D02*
Y23400D01*
X47015Y21600D02*
X49915D01*
X47015Y23400D02*
X49915D01*
X42350Y21950D02*
X44150D01*
X42350Y19050D02*
X44150D01*
X42350D02*
Y21950D01*
X44150Y19050D02*
Y21950D01*
X43600Y33050D02*
X45400D01*
X43600Y35950D02*
X45400D01*
Y33050D02*
Y35950D01*
X43600Y33050D02*
Y35950D01*
X35460Y20100D02*
Y21900D01*
X32560Y20100D02*
Y21900D01*
X35460D01*
X32560Y20100D02*
X35460D01*
X41600Y33050D02*
X43400D01*
X41600Y35950D02*
X43400D01*
Y33050D02*
Y35950D01*
X41600Y33050D02*
Y35950D01*
X35460Y28100D02*
Y29900D01*
X32560Y28100D02*
Y29900D01*
X35460D01*
X32560Y28100D02*
X35460D01*
Y30100D02*
Y31900D01*
X32560Y30100D02*
Y31900D01*
X35460D01*
X32560Y30100D02*
X35460D01*
X45600Y33050D02*
X47400D01*
X45600Y35950D02*
X47400D01*
Y33050D02*
Y35950D01*
X45600Y33050D02*
Y35950D01*
X40350Y21950D02*
X42150D01*
X40350Y19050D02*
X42150D01*
X40350D02*
Y21950D01*
X42150Y19050D02*
Y21950D01*
X44350D02*
X46150D01*
X44350Y19050D02*
X46150D01*
X44350D02*
Y21950D01*
X46150Y19050D02*
Y21950D01*
X47015Y19600D02*
Y21400D01*
X49915Y19600D02*
Y21400D01*
X47015Y19600D02*
X49915D01*
X47015Y21400D02*
X49915D01*
D76*
X6222Y47985D02*
Y54885D01*
X2223D02*
X6222D01*
X2223Y47985D02*
Y54885D01*
Y47985D02*
X6222D01*
D126*
X29889Y3768D02*
X35389D01*
X29889D02*
Y11218D01*
X35389D01*
Y3768D02*
Y11218D01*
X66017Y44140D02*
X69617D01*
Y37140D02*
Y44140D01*
X66017Y37140D02*
X69617D01*
X66017D02*
Y44140D01*
X65017Y26007D02*
X66983D01*
X65017Y22591D02*
X66983D01*
Y26007D01*
X65017Y22591D02*
Y26007D01*
X58517Y32292D02*
Y35708D01*
X60483Y32292D02*
Y35708D01*
X58517Y32292D02*
X60483D01*
X58517Y35708D02*
X60483D01*
X56517Y32292D02*
Y35708D01*
X58483Y32292D02*
Y35708D01*
X56517Y32292D02*
X58483D01*
X56517Y35708D02*
X58483D01*
X75369Y40419D02*
Y45081D01*
X78631Y40419D02*
Y45081D01*
X75369Y40419D02*
X78631D01*
X75369Y45081D02*
X78631D01*
X37895Y22895D02*
X46105D01*
X37895Y31105D02*
X46105D01*
X37895Y22895D02*
Y31105D01*
X46105Y22895D02*
Y31105D01*
X54517Y32292D02*
Y35708D01*
X56483Y32292D02*
Y35708D01*
X54517Y32292D02*
X56483D01*
X54517Y35708D02*
X56483D01*
X47767Y27458D02*
X49733D01*
X47767Y24042D02*
X49733D01*
Y27458D01*
X47767Y24042D02*
Y27458D01*
X43017Y66948D02*
X44983D01*
X43017Y63532D02*
X44983D01*
Y66948D01*
X43017Y63532D02*
Y66948D01*
X58450Y30900D02*
X62050D01*
Y24600D02*
Y30900D01*
X58450Y24600D02*
X62050D01*
X58450D02*
Y30900D01*
X32708Y11317D02*
Y13283D01*
X29292Y11317D02*
Y13283D01*
Y11317D02*
X32708D01*
X29292Y13283D02*
X32708D01*
X36208Y11317D02*
Y13283D01*
X32792Y11317D02*
Y13283D01*
Y11317D02*
X36208D01*
X32792Y13283D02*
X36208D01*
X51678Y43327D02*
Y45293D01*
X48262Y43327D02*
Y45293D01*
Y43327D02*
X51678D01*
X48262Y45293D02*
X51678D01*
X12710Y50300D02*
X16850D01*
X12710D02*
Y51930D01*
X8890D02*
X12710D01*
X8890Y50300D02*
Y51930D01*
X150Y50300D02*
X8890D01*
X150Y37700D02*
Y50300D01*
Y37700D02*
X8890D01*
Y36070D02*
Y37700D01*
Y36070D02*
X12710D01*
Y37700D01*
X16850D01*
Y50300D01*
X29900Y32110D02*
X39100D01*
Y37890D01*
X29900D02*
X39100D01*
X29900Y32110D02*
Y37890D01*
X70483Y51792D02*
Y55208D01*
X68517Y51792D02*
Y55208D01*
X70483D01*
X68517Y51792D02*
X70483D01*
X83983D02*
Y55208D01*
X82017Y51792D02*
Y55208D01*
X83983D01*
X82017Y51792D02*
X83983D01*
X79483D02*
Y55208D01*
X77517Y51792D02*
Y55208D01*
X79483D01*
X77517Y51792D02*
X79483D01*
X74983D02*
Y55208D01*
X73017Y51792D02*
Y55208D01*
X74983D01*
X73017Y51792D02*
X74983D01*
X16867Y65017D02*
X20283D01*
X16867Y66983D02*
X20283D01*
Y65017D02*
Y66983D01*
X16867Y65017D02*
Y66983D01*
X40790Y67400D02*
Y69600D01*
X45210D01*
Y67400D02*
Y69600D01*
X40790Y67400D02*
X45210D01*
X43740Y70510D02*
Y71990D01*
X40760Y70510D02*
X43740D01*
X40760D02*
Y71990D01*
X43740D01*
X36625Y71550D02*
X40375D01*
X36625Y68450D02*
Y71550D01*
Y68450D02*
X40375D01*
Y71550D01*
X32532Y69483D02*
X35948D01*
X32532Y67517D02*
X35948D01*
X32532D02*
Y69483D01*
X35948Y67517D02*
Y69483D01*
X22517Y46292D02*
X24483D01*
X22517Y49708D02*
X24483D01*
X22517Y46292D02*
Y49708D01*
X24483Y46292D02*
Y49708D01*
X13050Y68300D02*
Y71700D01*
X16450D01*
Y68300D02*
Y71700D01*
X13050Y68300D02*
X16450D01*
X13292Y65017D02*
X16708D01*
X13292Y66983D02*
X16708D01*
Y65017D02*
Y66983D01*
X13292Y65017D02*
Y66983D01*
X16865Y70800D02*
X23135D01*
X16865Y67200D02*
X23135D01*
Y70800D01*
X16865Y67200D02*
Y70800D01*
X32042Y14017D02*
X35458D01*
X32042Y15983D02*
X35458D01*
Y14017D02*
Y15983D01*
X32042Y14017D02*
Y15983D01*
X22517Y37542D02*
Y40958D01*
X24483Y37542D02*
Y40958D01*
X22517Y37542D02*
X24483D01*
X22517Y40958D02*
X24483D01*
X32042Y26017D02*
Y27983D01*
X35458Y26017D02*
Y27983D01*
X32042D02*
X35458D01*
X32042Y26017D02*
X35458D01*
X32042Y24017D02*
Y25983D01*
X35458Y24017D02*
Y25983D01*
X32042D02*
X35458D01*
X32042Y24017D02*
X35458D01*
X5035Y41990D02*
Y43510D01*
X7965D01*
Y41990D02*
Y43510D01*
X5035Y41990D02*
X7965D01*
X5035Y44490D02*
Y46010D01*
X7965D01*
Y44490D02*
Y46010D01*
X5035Y44490D02*
X7965D01*
X32485Y18260D02*
X35465D01*
Y19740D01*
X32485D02*
X35465D01*
X32485Y18260D02*
Y19740D01*
X96000Y20775D02*
Y54225D01*
X90000Y20775D02*
X96000D01*
X90000D02*
Y54225D01*
X96000D01*
%TF.MD5,ec46c39d9fb4d4dfb565b9b82eb82eda*%
M02*
