M48
;Layer_Color=9474304
;FILE_FORMAT=4:3
METRIC,LZ
;TYPE=PLATED
T01F00S00C0.400
T02F00S00C0.762
T03F00S00C0.800
T04F00S00C0.850
T05F00S00C0.900
T06F00S00C0.950
T07F00S00C1.000
T08F00S00C1.200
T09F00S00C1.300
T10F00S00C1.500
T11F00S00C1.600
T12F00S00C1.700
T13F00S00C2.300
T14F00S00C3.400
;TYPE=NON_PLATED
T15F00S00C2.650
%
T01
X0001524Y0007747
Y0010287
Y0012827
X0015748Y0011811
X0025908Y0008636
X0027813Y0004826
X0029972Y0001651
X0034925Y0001524
X0033926Y0006858
X0032639Y0008128
X0032893Y0012192
X0031496Y0013589
X0038275Y001143
X0040894Y0012573
X0045339Y0013081
X0049784Y0008382
X0025273Y0001016
X0055753Y0005842
Y0006985
X0057658
X0059563Y0011811
X006604
X0067818Y0012573
Y0001524
X0063119Y0003048
X005969Y0018415
Y0022987
X005715
Y0021844
Y00205
X006604Y0022987
X0067818Y0017272
X0071628Y0015621
X0070358Y0026543
X0076073Y0027432
X0063627Y0029591
X0061976Y0029718
X0064643Y0045466
X0064516Y005105
X0071882Y0053086
X0085598Y0017272
X0048514Y0020066
X004826Y0026289
Y0031496
X00447Y003937
Y004087
Y004237
X0052959Y00405
X003384Y004087
Y003937
X00313
Y004087
Y004237
X002876
Y004087
Y003937
X002622
Y004087
Y004237
X002368
Y004087
Y003937
X002114Y004087
Y004237
X00146Y003791
X0015113Y003175
X0016383Y0031115
X0016129Y0028956
X0020066Y0029845
X0019558Y0025908
X0018669Y002413
X0023749Y002286
X0023876Y0017907
X0032893Y0015748
X0038481Y0024602
Y0029464
X0037338
X0036195
X0026416Y0029845
X003384Y004237
X0008001Y0043942
X00108Y0037973
X0011938Y0029985
X0008128Y0029083
X0007433Y0024257
X00083Y005634
X001075
X00132
Y0059032
X001075
X00083
Y0061724
X001075
X00132
Y0064416
X001075
X00083
Y0067107
X001075
X00132
Y0069799
X001075
X00083
Y007249
X001075
X00132
Y0075182
X001075
X00083
Y0077874
X001075
X00132
Y0080566
X001075
X00083
X002114Y0068
Y00665
Y0065
X002368
Y00665
Y0068
X002622
Y00665
Y0065
X002876
Y00665
Y0068
X00313
Y00665
X0031242Y0065
X0033724
Y00665
Y0068
X0039664Y0057
Y00555
Y0054
X0042164
Y00555
Y0057
X0051943Y0064262
X0053721Y0069342
X0049276Y0069596
X0046736Y007493
X0059309
Y00762
Y0077343
X0058293Y0065405
X0055753Y005969
X0061976Y0058928
Y0057595
Y0056261
X0064516Y0059436
X0074295Y0057023
Y0054737
X0073787Y0070866
Y0073152
X0071882Y0078867
X0083566Y0064262
Y0062103
T02
X0094947Y0037846
Y0040386
Y0042926
Y0045466
Y0048006
Y0050546
X0072947
Y0048006
Y0045466
Y0042926
Y0040386
Y0037846
T03
X0023241Y0027411
Y0032291
T04
X005545Y0048018
X005895
T05
X001475Y00135
X001725
X0057Y003556
X005954
Y00405
X0057
X0065Y00405
X006754
Y003556
X0065
X0035814Y0021717
Y0019177
X0033274
Y0021717
X0030734
Y0019177
X001725Y00155
X001475
X0004826Y0030607
Y0033147
Y0035687
X0002286
Y0033147
Y0030607
T06
X003906Y0071374
X00416
X004414
X004668
X004922
X005176
Y0078994
X004922
X004668
X004414
X00416
X003906
X00543
X005684
X005938
X006192
X006446
X0067
Y0071374
X006446
X006192
X005938
X005684
X00543
T07
X0082221Y0001742
Y0006242
X0088721
Y0001742
T08
X0080486Y0092456
X0083026
X0085566
T09
X0041148Y0091821
X0046228
X005534
X006042
X00655
X007058
T10
X0038763Y008382
X0069463
T11
X0039664Y0039807
X0042164
Y0043307
X0039664
Y0048387
X0042164
Y0051887
X0039664
X004715
X004965
Y0048387
X004715
Y0043307
X004965
Y0039807
X004715
T12
X002114Y00453
X002622
X00313
Y005546
X002622
X002114
Y00713
X002622
X00313
Y008146
X002622
X002114
T13
X000998Y00108
X002202
T14
X00045Y00045
X00935
X00045Y00915
X00935
T15
X0040869Y0045847
X0048355
M30
