%TF.GenerationSoftware,Altium Limited,Altium Designer,25.2.1 (25)*%
G04 Layer_Physical_Order=2*
G04 Layer_Color=36540*
%FSLAX43Y43*%
%MOMM*%
%TF.SameCoordinates,66537E59-A43E-40DC-9FEC-BE63E116DA79*%
%TF.FilePolarity,Positive*%
%TF.FileFunction,Copper,L2,Inr,Signal*%
%TF.Part,Single*%
G01*
G75*
%TA.AperFunction,Conductor*%
%ADD38C,0.175*%
%ADD39C,0.300*%
%ADD40C,0.800*%
%ADD41C,0.400*%
%TA.AperFunction,ComponentPad*%
%ADD43C,1.500*%
%ADD44R,1.500X1.500*%
%ADD45C,1.408*%
%ADD46R,1.408X1.408*%
%ADD47C,3.316*%
%ADD48C,1.524*%
%ADD49R,1.524X1.524*%
%ADD50C,3.000*%
%ADD51R,3.000X3.000*%
%ADD52C,1.425*%
%ADD53R,1.425X1.425*%
%ADD54C,2.000*%
%ADD55R,2.000X2.000*%
%ADD56R,2.250X2.250*%
%ADD57C,2.250*%
%ADD58R,1.500X1.500*%
%ADD59C,1.500*%
%ADD60C,1.550*%
%ADD61C,1.800*%
%ADD62C,1.275*%
%ADD63R,1.275X1.275*%
%ADD64C,1.325*%
%ADD65C,2.400*%
%TA.AperFunction,ViaPad*%
%ADD66C,5.080*%
%ADD67C,0.750*%
G36*
X35941Y69523D02*
X41148D01*
Y62865D01*
X21463D01*
X18140Y66188D01*
Y74300D01*
X35941D01*
Y69523D01*
D02*
G37*
G36*
X34300Y82540D02*
Y77988D01*
X32812Y76500D01*
X17318D01*
X16000Y75182D01*
Y61724D01*
X17224Y60500D01*
X33000D01*
X34300Y59200D01*
X34300D01*
Y53858D01*
X32902Y52460D01*
X7484D01*
X5500Y54444D01*
Y82208D01*
X7752Y84460D01*
X32380D01*
X34300Y82540D01*
D02*
G37*
G36*
X44648Y47498D02*
X37648D01*
Y59182D01*
X44648D01*
Y47498D01*
D02*
G37*
G36*
X34300Y44450D02*
X34554Y44196D01*
X45164D01*
Y36807D01*
X23633D01*
X18140Y42300D01*
Y48300D01*
X34300D01*
Y44450D01*
D02*
G37*
D38*
X61341Y57277D02*
X73885D01*
X74139Y57023D01*
X74295D01*
X48006Y67945D02*
Y69977D01*
Y67945D02*
X55245Y60706D01*
Y50673D02*
Y60706D01*
X43505Y73279D02*
X73660D01*
X73787Y73152D01*
X38481Y29464D02*
Y32639D01*
X37084Y34036D02*
X38481Y32639D01*
X73787Y70866D02*
Y71628D01*
X53030Y72644D02*
X72771D01*
X73787Y71628D01*
X71120Y52324D02*
X71882Y53086D01*
X63119Y52324D02*
X71120D01*
X93472Y49481D02*
X94947Y48006D01*
X93472Y49481D02*
Y53848D01*
X83058Y64262D02*
X93472Y53848D01*
X92075Y48338D02*
Y53594D01*
X83566Y62103D02*
X92075Y53594D01*
Y48338D02*
X94947Y45466D01*
X41600Y71374D02*
X43505Y73279D01*
X51760Y71374D02*
X53030Y72644D01*
X72947Y37846D02*
X76859D01*
X78105Y39092D01*
Y76454D01*
X73949Y80610D02*
X78105Y76454D01*
X60901Y80610D02*
X73949D01*
X60833Y80542D02*
X60901Y80610D01*
X60833Y80447D02*
Y80542D01*
X59380Y78994D02*
X60833Y80447D01*
X75946Y40894D02*
Y74954D01*
X75438Y40386D02*
X75946Y40894D01*
X64460Y78994D02*
X66599Y76855D01*
X74046D01*
X75946Y74954D01*
X72947Y40386D02*
X75438D01*
X10795Y37973D02*
X14732Y34036D01*
X37084D01*
D39*
X23876Y17907D02*
Y18923D01*
X18669Y24130D02*
X23876Y18923D01*
D40*
X33926Y6858D02*
X54229D01*
X48514Y26032D02*
Y28321D01*
X48045Y26500D02*
X48514Y26032D01*
X31411Y26500D02*
X48045D01*
X48514Y20066D02*
Y26032D01*
X30734Y25823D02*
X31411Y26500D01*
X48514Y28321D02*
X53086Y32893D01*
X48514Y20066D02*
X51689Y16891D01*
X67056Y1524D02*
X67818D01*
X63627Y4953D02*
X67056Y1524D01*
X63627Y4953D02*
Y13589D01*
X67183D01*
X14765Y15404D02*
X14982Y15621D01*
X12700Y6604D02*
Y14351D01*
X13753Y15404D02*
X14765D01*
X12700Y14351D02*
X13753Y15404D01*
X53721Y64389D02*
X59055Y59055D01*
Y45466D02*
Y59055D01*
X54229Y6858D02*
X55245Y5842D01*
X53721Y64389D02*
Y69342D01*
X76073Y27432D02*
X81026Y32385D01*
X63627Y14986D02*
X76073Y27432D01*
X63627Y13589D02*
Y14986D01*
X81026Y32385D02*
Y80899D01*
X67183Y13589D02*
X69215Y15621D01*
X71628D01*
X8001Y29210D02*
X8128Y29083D01*
X8001Y29210D02*
Y43942D01*
X8128Y29083D02*
X16002D01*
X16129Y28956D01*
X16510D01*
X61182Y85979D02*
X66521D01*
X60420Y91821D02*
X60679D01*
X66521Y85979D01*
X75946D01*
X55340Y91821D02*
X61182Y85979D01*
X75946D02*
X81026Y80899D01*
X19643Y25823D02*
X30734D01*
Y21717D02*
Y25823D01*
X51689Y13589D02*
Y16891D01*
Y6985D02*
Y13589D01*
X63627Y13589D01*
X16510Y28956D02*
X19558Y25908D01*
X53086Y32893D02*
Y39497D01*
X59055Y45466D01*
X64643D01*
X53848D02*
X59055D01*
X51943Y47371D02*
X53848Y45466D01*
X12700Y6604D02*
X13462Y5842D01*
X23114D02*
X25908Y8636D01*
X13462Y5842D02*
X23114D01*
D41*
X29972Y8937D02*
X30353Y9318D01*
X29972Y1651D02*
Y8937D01*
X30353Y9318D02*
Y16510D01*
X4064Y53594D02*
Y83058D01*
X6731Y17780D02*
Y50927D01*
X4064Y53594D02*
X6731Y50927D01*
Y17780D02*
X8001Y16510D01*
X30353D02*
X32131D01*
X32893Y15748D01*
X8001Y16510D02*
X30353D01*
X4064Y83058D02*
X9144Y88138D01*
X39243D01*
X41148Y90043D01*
Y91821D01*
D43*
X48000Y40500D02*
D03*
X65000Y35560D02*
D03*
X82221Y1742D02*
D03*
X88721D02*
D03*
X82221Y6242D02*
D03*
X88721D02*
D03*
X4826Y35687D02*
D03*
X2286Y33147D02*
D03*
X4826D02*
D03*
Y30607D02*
D03*
X35814Y19177D02*
D03*
X33274Y21717D02*
D03*
Y19177D02*
D03*
X30734Y21717D02*
D03*
Y19177D02*
D03*
X48000Y35560D02*
D03*
X65000Y40500D02*
D03*
D44*
X50540D02*
D03*
X67540Y35560D02*
D03*
X35814Y21717D02*
D03*
X50540Y35560D02*
D03*
X67540Y40500D02*
D03*
D45*
X14750Y15500D02*
D03*
X17250D02*
D03*
Y13500D02*
D03*
D46*
X14750D02*
D03*
D47*
X22020Y10800D02*
D03*
X9980D02*
D03*
D48*
X72947Y42926D02*
D03*
X94947Y50546D02*
D03*
Y42926D02*
D03*
Y40386D02*
D03*
X72947Y48006D02*
D03*
Y45466D02*
D03*
Y40386D02*
D03*
Y37846D02*
D03*
D49*
X94947Y48006D02*
D03*
Y45466D02*
D03*
Y37846D02*
D03*
X72947Y50546D02*
D03*
D50*
X31300Y71300D02*
D03*
X26220D02*
D03*
X21140D02*
D03*
X31300Y45300D02*
D03*
X26220D02*
D03*
X21140D02*
D03*
D51*
X31300Y81460D02*
D03*
X26220D02*
D03*
X21140D02*
D03*
X31300Y55460D02*
D03*
X26220D02*
D03*
X21140D02*
D03*
D52*
X67000Y71374D02*
D03*
X64460D02*
D03*
X61920D02*
D03*
X56840D02*
D03*
X54300D02*
D03*
X51760D02*
D03*
X49220D02*
D03*
X39060D02*
D03*
X41600D02*
D03*
X44140D02*
D03*
X67000Y78994D02*
D03*
X64460D02*
D03*
X61920D02*
D03*
X59380D02*
D03*
X56840D02*
D03*
X54300D02*
D03*
X51760D02*
D03*
X49220D02*
D03*
X39060D02*
D03*
X41600D02*
D03*
X44140D02*
D03*
X46680D02*
D03*
D53*
X59380Y71374D02*
D03*
X46680D02*
D03*
D54*
X41148Y91821D02*
D03*
X60420D02*
D03*
X55340D02*
D03*
D55*
X46228D02*
D03*
X70580D02*
D03*
X65500D02*
D03*
D56*
X38763Y83820D02*
D03*
D57*
X69463D02*
D03*
D58*
X2286Y35687D02*
D03*
D59*
Y30607D02*
D03*
D60*
X23241Y27411D02*
D03*
Y32291D02*
D03*
D61*
X85566Y92456D02*
D03*
X83026D02*
D03*
X80486D02*
D03*
D62*
X51943Y47371D02*
D03*
D63*
X48443D02*
D03*
D64*
X40869Y45847D02*
D03*
D65*
X39664Y39807D02*
D03*
X42164D02*
D03*
X39664Y43307D02*
D03*
X42164D02*
D03*
X39664Y48387D02*
D03*
X42164D02*
D03*
X39664Y51887D02*
D03*
X42164D02*
D03*
D66*
X93500Y4500D02*
D03*
Y91500D02*
D03*
X4500D02*
D03*
Y4500D02*
D03*
D67*
X29972Y1651D02*
D03*
X14732Y18288D02*
D03*
X18669Y24130D02*
D03*
X67818Y1524D02*
D03*
X66167Y11938D02*
D03*
X40894Y12573D02*
D03*
X49784Y8382D02*
D03*
X61976Y29718D02*
D03*
Y56261D02*
D03*
X61214Y57277D02*
D03*
Y58674D02*
D03*
X57150Y20500D02*
D03*
X70358Y26543D02*
D03*
X48006Y69977D02*
D03*
X55245Y50673D02*
D03*
X37211Y32385D02*
D03*
X38481Y29464D02*
D03*
X36195D02*
D03*
X73787Y70866D02*
D03*
X46609Y48133D02*
D03*
X32893Y15748D02*
D03*
X38354Y24892D02*
D03*
X63119Y52324D02*
D03*
X71882Y78867D02*
D03*
X73787Y73152D02*
D03*
X71882Y53086D02*
D03*
X74295Y54737D02*
D03*
Y57023D02*
D03*
X64516Y59436D02*
D03*
X85471Y17018D02*
D03*
X76073Y27432D02*
D03*
X71628Y15621D02*
D03*
X67691Y12573D02*
D03*
X83566Y62103D02*
D03*
X25273Y1016D02*
D03*
X55753Y6985D02*
D03*
X27813Y4826D02*
D03*
X31496Y13589D02*
D03*
X32893Y12192D02*
D03*
X38275Y11430D02*
D03*
X32639Y8128D02*
D03*
X7433Y24257D02*
D03*
X23876Y17907D02*
D03*
X8001Y43942D02*
D03*
X11938Y29985D02*
D03*
X8128Y29083D02*
D03*
X48514Y28321D02*
D03*
X53721Y69342D02*
D03*
X83058Y64262D02*
D03*
X59309Y77343D02*
D03*
Y76200D02*
D03*
X14600Y37910D02*
D03*
X10800Y37973D02*
D03*
X57150Y21844D02*
D03*
Y22987D02*
D03*
X59817Y22606D02*
D03*
X59690Y18415D02*
D03*
X16129Y28956D02*
D03*
X19558Y25908D02*
D03*
X15113Y31750D02*
D03*
X16383Y31115D02*
D03*
X1524Y12827D02*
D03*
Y10287D02*
D03*
Y7747D02*
D03*
X26416Y29845D02*
D03*
X20066D02*
D03*
X23749Y22860D02*
D03*
X33926Y6858D02*
D03*
X55245Y5842D02*
D03*
X48514Y20066D02*
D03*
X64643Y45466D02*
D03*
X59309Y74930D02*
D03*
X46736D02*
D03*
X45339Y13081D02*
D03*
X63119Y3048D02*
D03*
X57658Y7874D02*
D03*
X67818Y17272D02*
D03*
X66040Y23241D02*
D03*
X59563Y11811D02*
D03*
X63627Y29591D02*
D03*
X34925Y1524D02*
D03*
X25908Y8636D02*
D03*
X8300Y75182D02*
D03*
Y61724D02*
D03*
Y67107D02*
D03*
Y72490D02*
D03*
Y64416D02*
D03*
Y69799D02*
D03*
Y59032D02*
D03*
Y56340D02*
D03*
Y77874D02*
D03*
Y80566D02*
D03*
X13200Y75182D02*
D03*
Y61724D02*
D03*
Y67107D02*
D03*
Y72490D02*
D03*
Y64416D02*
D03*
Y69799D02*
D03*
Y59032D02*
D03*
Y56340D02*
D03*
Y77874D02*
D03*
Y80566D02*
D03*
X10750D02*
D03*
Y77874D02*
D03*
Y56340D02*
D03*
Y59032D02*
D03*
Y69799D02*
D03*
Y64416D02*
D03*
Y72490D02*
D03*
Y67107D02*
D03*
Y61724D02*
D03*
Y75182D02*
D03*
X21140Y40870D02*
D03*
X31300D02*
D03*
X26220D02*
D03*
X28760D02*
D03*
X23680D02*
D03*
Y42370D02*
D03*
X28760D02*
D03*
X26220D02*
D03*
X31300D02*
D03*
X21140D02*
D03*
X23680Y39370D02*
D03*
X26220D02*
D03*
X31300D02*
D03*
X33840Y42370D02*
D03*
Y40870D02*
D03*
X28760Y39370D02*
D03*
X33840D02*
D03*
X42164Y54000D02*
D03*
X39664D02*
D03*
Y57000D02*
D03*
X42164D02*
D03*
Y55500D02*
D03*
X39664D02*
D03*
X33724Y65000D02*
D03*
X28760D02*
D03*
X33724Y66500D02*
D03*
Y68000D02*
D03*
X21140Y65000D02*
D03*
X31242D02*
D03*
X26220D02*
D03*
X23680D02*
D03*
X21140Y68000D02*
D03*
X31300D02*
D03*
X26220D02*
D03*
X28760D02*
D03*
X23680D02*
D03*
Y66500D02*
D03*
X28760D02*
D03*
X26220D02*
D03*
X31300D02*
D03*
X21140D02*
D03*
%TF.MD5,cb5da0562f1748ac4812ebf5a15ad36d*%
M02*
