%TF.GenerationSoftware,Altium Limited,Altium Designer,25.2.1 (25)*%
G04 Layer_Color=255*
%FSLAX43Y43*%
%MOMM*%
%TF.SameCoordinates,66537E59-A43E-40DC-9FEC-BE63E116DA79*%
%TF.FilePolarity,Positive*%
%TF.FileFunction,Pads,Top*%
%TF.Part,Single*%
G01*
G75*
%TA.AperFunction,SMDPad,CuDef*%
%ADD11R,1.230X2.760*%
%ADD12R,0.500X1.125*%
%ADD13R,1.125X0.500*%
G04:AMPARAMS|DCode=14|XSize=1.47mm|YSize=0.55mm|CornerRadius=0.069mm|HoleSize=0mm|Usage=FLASHONLY|Rotation=180.000|XOffset=0mm|YOffset=0mm|HoleType=Round|Shape=RoundedRectangle|*
%AMROUNDEDRECTD14*
21,1,1.470,0.413,0,0,180.0*
21,1,1.333,0.550,0,0,180.0*
1,1,0.138,-0.666,0.206*
1,1,0.138,0.666,0.206*
1,1,0.138,0.666,-0.206*
1,1,0.138,-0.666,-0.206*
%
%ADD14ROUNDEDRECTD14*%
G04:AMPARAMS|DCode=15|XSize=0.55mm|YSize=1.47mm|CornerRadius=0.069mm|HoleSize=0mm|Usage=FLASHONLY|Rotation=180.000|XOffset=0mm|YOffset=0mm|HoleType=Round|Shape=RoundedRectangle|*
%AMROUNDEDRECTD15*
21,1,0.550,1.333,0,0,180.0*
21,1,0.413,1.470,0,0,180.0*
1,1,0.138,-0.206,0.666*
1,1,0.138,0.206,0.666*
1,1,0.138,0.206,-0.666*
1,1,0.138,-0.206,-0.666*
%
%ADD15ROUNDEDRECTD15*%
%ADD16R,2.650X1.800*%
%ADD17R,5.600X2.700*%
%ADD18R,0.800X0.900*%
%ADD19R,1.020X2.160*%
%ADD20R,8.330X6.990*%
%ADD21R,1.235X1.910*%
%ADD22R,2.720X1.160*%
G04:AMPARAMS|DCode=23|XSize=2.21mm|YSize=1.53mm|CornerRadius=0.115mm|HoleSize=0mm|Usage=FLASHONLY|Rotation=180.000|XOffset=0mm|YOffset=0mm|HoleType=Round|Shape=RoundedRectangle|*
%AMROUNDEDRECTD23*
21,1,2.210,1.301,0,0,180.0*
21,1,1.981,1.530,0,0,180.0*
1,1,0.230,-0.990,0.650*
1,1,0.230,0.990,0.650*
1,1,0.230,0.990,-0.650*
1,1,0.230,-0.990,-0.650*
%
%ADD23ROUNDEDRECTD23*%
%ADD24R,2.760X1.230*%
G04:AMPARAMS|DCode=25|XSize=0.87mm|YSize=1.02mm|CornerRadius=0.109mm|HoleSize=0mm|Usage=FLASHONLY|Rotation=90.000|XOffset=0mm|YOffset=0mm|HoleType=Round|Shape=RoundedRectangle|*
%AMROUNDEDRECTD25*
21,1,0.870,0.803,0,0,90.0*
21,1,0.653,1.020,0,0,90.0*
1,1,0.217,0.401,0.326*
1,1,0.217,0.401,-0.326*
1,1,0.217,-0.401,-0.326*
1,1,0.217,-0.401,0.326*
%
%ADD25ROUNDEDRECTD25*%
G04:AMPARAMS|DCode=26|XSize=1.016mm|YSize=1.397mm|CornerRadius=0.127mm|HoleSize=0mm|Usage=FLASHONLY|Rotation=180.000|XOffset=0mm|YOffset=0mm|HoleType=Round|Shape=RoundedRectangle|*
%AMROUNDEDRECTD26*
21,1,1.016,1.143,0,0,180.0*
21,1,0.762,1.397,0,0,180.0*
1,1,0.254,-0.381,0.572*
1,1,0.254,0.381,0.572*
1,1,0.254,0.381,-0.572*
1,1,0.254,-0.381,-0.572*
%
%ADD26ROUNDEDRECTD26*%
%ADD27R,3.200X1.500*%
%ADD28R,1.160X2.720*%
%ADD29R,0.850X0.300*%
%ADD30R,0.690X2.440*%
%ADD31R,1.300X1.650*%
G04:AMPARAMS|DCode=32|XSize=1.47mm|YSize=0.4mm|CornerRadius=0.05mm|HoleSize=0mm|Usage=FLASHONLY|Rotation=0.000|XOffset=0mm|YOffset=0mm|HoleType=Round|Shape=RoundedRectangle|*
%AMROUNDEDRECTD32*
21,1,1.470,0.300,0,0,0.0*
21,1,1.370,0.400,0,0,0.0*
1,1,0.100,0.685,-0.150*
1,1,0.100,-0.685,-0.150*
1,1,0.100,-0.685,0.150*
1,1,0.100,0.685,0.150*
%
%ADD32ROUNDEDRECTD32*%
G04:AMPARAMS|DCode=33|XSize=0.28mm|YSize=1.6mm|CornerRadius=0.035mm|HoleSize=0mm|Usage=FLASHONLY|Rotation=0.000|XOffset=0mm|YOffset=0mm|HoleType=Round|Shape=RoundedRectangle|*
%AMROUNDEDRECTD33*
21,1,0.280,1.530,0,0,0.0*
21,1,0.210,1.600,0,0,0.0*
1,1,0.070,0.105,-0.765*
1,1,0.070,-0.105,-0.765*
1,1,0.070,-0.105,0.765*
1,1,0.070,0.105,0.765*
%
%ADD33ROUNDEDRECTD33*%
G04:AMPARAMS|DCode=34|XSize=1.6mm|YSize=0.28mm|CornerRadius=0.035mm|HoleSize=0mm|Usage=FLASHONLY|Rotation=0.000|XOffset=0mm|YOffset=0mm|HoleType=Round|Shape=RoundedRectangle|*
%AMROUNDEDRECTD34*
21,1,1.600,0.210,0,0,0.0*
21,1,1.530,0.280,0,0,0.0*
1,1,0.070,0.765,-0.105*
1,1,0.070,-0.765,-0.105*
1,1,0.070,-0.765,0.105*
1,1,0.070,0.765,0.105*
%
%ADD34ROUNDEDRECTD34*%
%ADD35R,0.400X1.900*%
%ADD36R,0.600X1.900*%
G04:AMPARAMS|DCode=37|XSize=1.21mm|YSize=0.59mm|CornerRadius=0.148mm|HoleSize=0mm|Usage=FLASHONLY|Rotation=0.000|XOffset=0mm|YOffset=0mm|HoleType=Round|Shape=RoundedRectangle|*
%AMROUNDEDRECTD37*
21,1,1.210,0.295,0,0,0.0*
21,1,0.915,0.590,0,0,0.0*
1,1,0.295,0.458,-0.148*
1,1,0.295,-0.458,-0.148*
1,1,0.295,-0.458,0.148*
1,1,0.295,0.458,0.148*
%
%ADD37ROUNDEDRECTD37*%
%TA.AperFunction,ComponentPad*%
%ADD43C,1.500*%
%ADD44R,1.500X1.500*%
%ADD45C,1.408*%
%ADD46R,1.408X1.408*%
%ADD47C,3.316*%
%ADD48C,1.524*%
%ADD49R,1.524X1.524*%
%ADD50C,3.000*%
%ADD51R,3.000X3.000*%
%ADD52C,1.425*%
%ADD53R,1.425X1.425*%
%ADD54C,2.000*%
%ADD55R,2.000X2.000*%
%ADD56R,2.250X2.250*%
%ADD57C,2.250*%
%ADD58R,1.500X1.500*%
%ADD59C,1.500*%
%ADD60C,1.550*%
%ADD61C,1.800*%
%ADD62C,1.275*%
%ADD63R,1.275X1.275*%
%ADD64C,1.325*%
%ADD65C,2.400*%
%TA.AperFunction,ViaPad*%
%ADD66C,5.080*%
G36*
G01X4274Y12140D02*
G01Y10940D01*
G01X3766D01*
G01X3766Y10940D01*
G02Y12140I0J600D01*
G01X4274D01*
D02*
G37*
G36*
G01X4726D02*
G01Y10940D01*
G01X5234D01*
G01X5234Y10940D01*
G03Y12140I0J600D01*
G01X4726D01*
D02*
G37*
G36*
G01Y14680D02*
G01Y13480D01*
G01X5234D01*
G01X5234Y13480D01*
G03Y14680I0J600D01*
G01X4726D01*
D02*
G37*
G36*
G01X4274D02*
G01Y13480D01*
G01X3766D01*
G01X3766Y13480D01*
G02Y14680I0J600D01*
G01X4274D01*
D02*
G37*
G36*
G01Y8400D02*
G01Y9600D01*
G01X3766D01*
G01X3766Y9600D01*
G03Y8400I0J-600D01*
G01X4274D01*
D02*
G37*
G36*
G01X4726D02*
G01Y9600D01*
G01X5234D01*
G01X5234Y9600D01*
G02Y8400I0J-600D01*
G01X4726D01*
D02*
G37*
D11*
X49534Y26289D02*
D03*
X52466D02*
D03*
X1767Y40500D02*
D03*
X4699D02*
D03*
X4466Y24000D02*
D03*
X1534D02*
D03*
X51564Y75184D02*
D03*
X54496D02*
D03*
X64585Y2325D02*
D03*
X61653D02*
D03*
D12*
X74000Y2133D02*
D03*
Y4457D02*
D03*
D13*
X2338Y44000D02*
D03*
X4662D02*
D03*
D14*
X9821Y27051D02*
D03*
Y27851D02*
D03*
Y28651D02*
D03*
Y29451D02*
D03*
Y30251D02*
D03*
Y31051D02*
D03*
Y31851D02*
D03*
Y32651D02*
D03*
X18161D02*
D03*
Y31851D02*
D03*
Y31051D02*
D03*
Y30251D02*
D03*
Y29451D02*
D03*
Y28651D02*
D03*
Y27851D02*
D03*
Y27051D02*
D03*
D15*
X16791Y25681D02*
D03*
X15991D02*
D03*
X15191D02*
D03*
X14391D02*
D03*
X13591D02*
D03*
X12791D02*
D03*
X11991D02*
D03*
X11191D02*
D03*
Y34021D02*
D03*
X11991D02*
D03*
X12791D02*
D03*
X13591D02*
D03*
X14391D02*
D03*
X15191D02*
D03*
X15991D02*
D03*
X16791D02*
D03*
D16*
X56728Y48895D02*
D03*
X61128D02*
D03*
X47200Y10500D02*
D03*
X42800D02*
D03*
Y15700D02*
D03*
X47200D02*
D03*
D17*
X41148Y59223D02*
D03*
Y67523D02*
D03*
D18*
X30000Y8000D02*
D03*
X30950Y6000D02*
D03*
X29050D02*
D03*
D19*
X61100Y54500D02*
D03*
X62800D02*
D03*
X64500D02*
D03*
X66200D02*
D03*
X67900D02*
D03*
D20*
X64500Y65175D02*
D03*
D21*
X69283Y67715D02*
D03*
X59717D02*
D03*
D22*
X67183Y27735D02*
D03*
Y30685D02*
D03*
X51500Y68475D02*
D03*
Y65525D02*
D03*
X47000D02*
D03*
Y68475D02*
D03*
X28448Y27975D02*
D03*
Y25025D02*
D03*
X21500Y21475D02*
D03*
Y18525D02*
D03*
X78000Y1525D02*
D03*
Y4475D02*
D03*
X47000Y61475D02*
D03*
Y58525D02*
D03*
X26035Y18591D02*
D03*
Y21541D02*
D03*
X8000Y18525D02*
D03*
Y21475D02*
D03*
X28448Y34876D02*
D03*
Y31926D02*
D03*
X57658Y1525D02*
D03*
Y4475D02*
D03*
X51000Y22975D02*
D03*
Y20025D02*
D03*
X33909Y13540D02*
D03*
Y10590D02*
D03*
X55245Y30685D02*
D03*
Y27735D02*
D03*
X59436Y30685D02*
D03*
Y27735D02*
D03*
X52738Y4475D02*
D03*
Y1525D02*
D03*
X47819Y4475D02*
D03*
Y1525D02*
D03*
X42899Y4475D02*
D03*
Y1525D02*
D03*
D23*
X53757Y53848D02*
D03*
X49657D02*
D03*
D24*
X56000Y65534D02*
D03*
Y68466D02*
D03*
X17020Y21466D02*
D03*
Y18534D02*
D03*
X12520Y21466D02*
D03*
Y18534D02*
D03*
X38000Y1534D02*
D03*
Y4466D02*
D03*
X70000Y4492D02*
D03*
Y1560D02*
D03*
X41000Y22966D02*
D03*
Y20034D02*
D03*
X46010Y22966D02*
D03*
Y20034D02*
D03*
Y30676D02*
D03*
Y27744D02*
D03*
X41000Y30676D02*
D03*
Y27744D02*
D03*
X14600Y39466D02*
D03*
Y36534D02*
D03*
X10800Y39466D02*
D03*
Y36534D02*
D03*
X33000Y28385D02*
D03*
Y31317D02*
D03*
X78000Y12466D02*
D03*
Y9534D02*
D03*
X74000Y12466D02*
D03*
Y9534D02*
D03*
X38000Y9966D02*
D03*
Y7034D02*
D03*
D25*
X17653Y10577D02*
D03*
Y9017D02*
D03*
X14605Y10686D02*
D03*
Y9126D02*
D03*
D26*
X15367Y4826D02*
D03*
X17145D02*
D03*
D27*
X27000Y15297D02*
D03*
Y11097D02*
D03*
D28*
X4475Y18000D02*
D03*
X1525D02*
D03*
X76150Y17000D02*
D03*
X73200D02*
D03*
D29*
X51050Y61000D02*
D03*
Y60500D02*
D03*
Y60000D02*
D03*
Y59500D02*
D03*
Y59000D02*
D03*
X52950D02*
D03*
Y59500D02*
D03*
Y60000D02*
D03*
Y60500D02*
D03*
Y61000D02*
D03*
D30*
X52000Y60000D02*
D03*
D31*
X67000Y51050D02*
D03*
Y46950D02*
D03*
D32*
X32150Y3475D02*
D03*
Y2825D02*
D03*
Y2175D02*
D03*
Y1525D02*
D03*
X27850D02*
D03*
Y2175D02*
D03*
Y2825D02*
D03*
Y3475D02*
D03*
D33*
X56500Y25180D02*
D03*
X57000D02*
D03*
X57500D02*
D03*
X58000D02*
D03*
X58500D02*
D03*
X59000D02*
D03*
X59500D02*
D03*
X60000D02*
D03*
X60500D02*
D03*
X61000D02*
D03*
X61500D02*
D03*
X62000D02*
D03*
X62500D02*
D03*
X63000D02*
D03*
X63500D02*
D03*
X64000D02*
D03*
X64500D02*
D03*
X65000D02*
D03*
X65500D02*
D03*
X66000D02*
D03*
X66500D02*
D03*
X67000D02*
D03*
X67500D02*
D03*
X68000D02*
D03*
X68500D02*
D03*
Y9820D02*
D03*
X68000D02*
D03*
X67500D02*
D03*
X67000D02*
D03*
X66500D02*
D03*
X66000D02*
D03*
X65500D02*
D03*
X65000D02*
D03*
X64500D02*
D03*
X64000D02*
D03*
X63500D02*
D03*
X63000D02*
D03*
X62500D02*
D03*
X62000D02*
D03*
X61500D02*
D03*
X61000D02*
D03*
X60500D02*
D03*
X60000D02*
D03*
X59500D02*
D03*
X59000D02*
D03*
X58500D02*
D03*
X58000D02*
D03*
X57500D02*
D03*
X57000D02*
D03*
X56500D02*
D03*
D34*
X70180Y23500D02*
D03*
Y23000D02*
D03*
Y22500D02*
D03*
Y22000D02*
D03*
Y21500D02*
D03*
Y21000D02*
D03*
Y20500D02*
D03*
Y20000D02*
D03*
Y19500D02*
D03*
Y19000D02*
D03*
Y18500D02*
D03*
Y18000D02*
D03*
Y17500D02*
D03*
Y17000D02*
D03*
Y16500D02*
D03*
Y16000D02*
D03*
Y15500D02*
D03*
Y15000D02*
D03*
Y14500D02*
D03*
Y14000D02*
D03*
Y13500D02*
D03*
Y13000D02*
D03*
Y12500D02*
D03*
Y12000D02*
D03*
Y11500D02*
D03*
X54820D02*
D03*
Y12000D02*
D03*
Y12500D02*
D03*
Y13000D02*
D03*
Y13500D02*
D03*
Y14000D02*
D03*
Y14500D02*
D03*
Y15000D02*
D03*
Y15500D02*
D03*
Y16000D02*
D03*
Y16500D02*
D03*
Y17000D02*
D03*
Y17500D02*
D03*
Y18000D02*
D03*
Y18500D02*
D03*
Y19000D02*
D03*
Y19500D02*
D03*
Y20000D02*
D03*
Y20500D02*
D03*
Y21000D02*
D03*
Y21500D02*
D03*
Y22000D02*
D03*
Y22500D02*
D03*
Y23000D02*
D03*
Y23500D02*
D03*
D35*
X63119Y5969D02*
D03*
D36*
X62169D02*
D03*
X64069D02*
D03*
D37*
X36745Y14550D02*
D03*
Y13600D02*
D03*
Y12650D02*
D03*
X39255D02*
D03*
Y14550D02*
D03*
D43*
X48000Y40500D02*
D03*
X65000Y35560D02*
D03*
X82221Y1742D02*
D03*
X88721D02*
D03*
X82221Y6242D02*
D03*
X88721D02*
D03*
X4826Y35687D02*
D03*
X2286Y33147D02*
D03*
X4826D02*
D03*
Y30607D02*
D03*
X35814Y19177D02*
D03*
X33274Y21717D02*
D03*
Y19177D02*
D03*
X30734Y21717D02*
D03*
Y19177D02*
D03*
X48000Y35560D02*
D03*
X65000Y40500D02*
D03*
D44*
X50540D02*
D03*
X67540Y35560D02*
D03*
X35814Y21717D02*
D03*
X50540Y35560D02*
D03*
X67540Y40500D02*
D03*
D45*
X14750Y15500D02*
D03*
X17250D02*
D03*
Y13500D02*
D03*
D46*
X14750D02*
D03*
D47*
X22020Y10800D02*
D03*
X9980D02*
D03*
D48*
X72947Y42926D02*
D03*
X94947Y50546D02*
D03*
Y42926D02*
D03*
Y40386D02*
D03*
X72947Y48006D02*
D03*
Y45466D02*
D03*
Y40386D02*
D03*
Y37846D02*
D03*
D49*
X94947Y48006D02*
D03*
Y45466D02*
D03*
Y37846D02*
D03*
X72947Y50546D02*
D03*
D50*
X31300Y71300D02*
D03*
X26220D02*
D03*
X21140D02*
D03*
X31300Y45300D02*
D03*
X26220D02*
D03*
X21140D02*
D03*
D51*
X31300Y81460D02*
D03*
X26220D02*
D03*
X21140D02*
D03*
X31300Y55460D02*
D03*
X26220D02*
D03*
X21140D02*
D03*
D52*
X67000Y71374D02*
D03*
X64460D02*
D03*
X61920D02*
D03*
X56840D02*
D03*
X54300D02*
D03*
X51760D02*
D03*
X49220D02*
D03*
X39060D02*
D03*
X41600D02*
D03*
X44140D02*
D03*
X67000Y78994D02*
D03*
X64460D02*
D03*
X61920D02*
D03*
X59380D02*
D03*
X56840D02*
D03*
X54300D02*
D03*
X51760D02*
D03*
X49220D02*
D03*
X39060D02*
D03*
X41600D02*
D03*
X44140D02*
D03*
X46680D02*
D03*
D53*
X59380Y71374D02*
D03*
X46680D02*
D03*
D54*
X41148Y91821D02*
D03*
X60420D02*
D03*
X55340D02*
D03*
D55*
X46228D02*
D03*
X70580D02*
D03*
X65500D02*
D03*
D56*
X38763Y83820D02*
D03*
D57*
X69463D02*
D03*
D58*
X2286Y35687D02*
D03*
D59*
Y30607D02*
D03*
D60*
X23241Y27411D02*
D03*
Y32291D02*
D03*
D61*
X85566Y92456D02*
D03*
X83026D02*
D03*
X80486D02*
D03*
D62*
X51943Y47371D02*
D03*
D63*
X48443D02*
D03*
D64*
X40869Y45847D02*
D03*
D65*
X39664Y39807D02*
D03*
X42164D02*
D03*
X39664Y43307D02*
D03*
X42164D02*
D03*
X39664Y48387D02*
D03*
X42164D02*
D03*
X39664Y51887D02*
D03*
X42164D02*
D03*
D66*
X93500Y4500D02*
D03*
Y91500D02*
D03*
X4500D02*
D03*
Y4500D02*
D03*
%TF.MD5,b33cf3003810e7858d8885302c6d1e75*%
M02*
