%TF.GenerationSoftware,Altium Limited,Altium Designer,25.2.1 (25)*%
G04 Layer_Color=16711935*
%FSLAX43Y43*%
%MOMM*%
%TF.SameCoordinates,66537E59-A43E-40DC-9FEC-BE63E116DA79*%
%TF.FilePolarity,Negative*%
%TF.FileFunction,Soldermask,Bot*%
%TF.Part,Single*%
G01*
G75*
%TA.AperFunction,ComponentPad*%
%ADD106C,1.650*%
%ADD107R,1.650X1.650*%
%ADD108C,1.558*%
%ADD109R,1.558X1.558*%
%ADD110C,3.466*%
%ADD111C,1.674*%
%ADD112R,1.674X1.674*%
%ADD113C,3.150*%
%ADD114R,3.150X3.150*%
%ADD115C,1.575*%
%ADD116R,1.575X1.575*%
%ADD117C,2.150*%
%ADD118R,2.150X2.150*%
%ADD119R,2.400X2.400*%
%ADD120C,2.400*%
%ADD121R,1.650X1.650*%
%ADD122C,1.650*%
%ADD123C,1.700*%
%ADD124C,1.950*%
%ADD125C,1.425*%
%ADD126R,1.425X1.425*%
%ADD127C,1.475*%
%ADD128C,2.550*%
%TA.AperFunction,ViaPad*%
%ADD129C,5.230*%
%ADD130C,0.900*%
G36*
X35941Y69523D02*
X41148D01*
Y62865D01*
X21463D01*
X18140Y66188D01*
Y74300D01*
X35941D01*
Y69523D01*
D02*
G37*
G36*
X34300Y82540D02*
Y77988D01*
X32812Y76500D01*
Y76500D01*
X17318D01*
X16000Y75182D01*
Y61724D01*
X17224Y60500D01*
X33000D01*
X34300Y59200D01*
Y53858D01*
X32902Y52460D01*
X7484D01*
X7484Y52460D01*
X5500Y54444D01*
Y82208D01*
X7752Y84460D01*
X32380D01*
X34300Y82540D01*
D02*
G37*
G36*
X44648Y47498D02*
X37648D01*
Y59182D01*
X44648D01*
Y47498D01*
D02*
G37*
G36*
X34300Y44450D02*
X34554Y44196D01*
X45164D01*
Y36807D01*
X23633D01*
X18140Y42300D01*
Y48300D01*
X34300D01*
Y44450D01*
D02*
G37*
D106*
X48000Y40500D02*
D03*
X65000Y35560D02*
D03*
X82221Y1742D02*
D03*
X88721D02*
D03*
X82221Y6242D02*
D03*
X88721D02*
D03*
X4826Y35687D02*
D03*
X2286Y33147D02*
D03*
X4826D02*
D03*
Y30607D02*
D03*
X35814Y19177D02*
D03*
X33274Y21717D02*
D03*
Y19177D02*
D03*
X30734Y21717D02*
D03*
Y19177D02*
D03*
X48000Y35560D02*
D03*
X65000Y40500D02*
D03*
D107*
X50540D02*
D03*
X67540Y35560D02*
D03*
X35814Y21717D02*
D03*
X50540Y35560D02*
D03*
X67540Y40500D02*
D03*
D108*
X14750Y15500D02*
D03*
X17250D02*
D03*
Y13500D02*
D03*
D109*
X14750D02*
D03*
D110*
X22020Y10800D02*
D03*
X9980D02*
D03*
D111*
X72947Y42926D02*
D03*
X94947Y50546D02*
D03*
Y42926D02*
D03*
Y40386D02*
D03*
X72947Y48006D02*
D03*
Y45466D02*
D03*
Y40386D02*
D03*
Y37846D02*
D03*
D112*
X94947Y48006D02*
D03*
Y45466D02*
D03*
Y37846D02*
D03*
X72947Y50546D02*
D03*
D113*
X31300Y71300D02*
D03*
X26220D02*
D03*
X21140D02*
D03*
X31300Y45300D02*
D03*
X26220D02*
D03*
X21140D02*
D03*
D114*
X31300Y81460D02*
D03*
X26220D02*
D03*
X21140D02*
D03*
X31300Y55460D02*
D03*
X26220D02*
D03*
X21140D02*
D03*
D115*
X67000Y71374D02*
D03*
X64460D02*
D03*
X61920D02*
D03*
X56840D02*
D03*
X54300D02*
D03*
X51760D02*
D03*
X49220D02*
D03*
X39060D02*
D03*
X41600D02*
D03*
X44140D02*
D03*
X67000Y78994D02*
D03*
X64460D02*
D03*
X61920D02*
D03*
X59380D02*
D03*
X56840D02*
D03*
X54300D02*
D03*
X51760D02*
D03*
X49220D02*
D03*
X39060D02*
D03*
X41600D02*
D03*
X44140D02*
D03*
X46680D02*
D03*
D116*
X59380Y71374D02*
D03*
X46680D02*
D03*
D117*
X41148Y91821D02*
D03*
X60420D02*
D03*
X55340D02*
D03*
D118*
X46228D02*
D03*
X70580D02*
D03*
X65500D02*
D03*
D119*
X38763Y83820D02*
D03*
D120*
X69463D02*
D03*
D121*
X2286Y35687D02*
D03*
D122*
Y30607D02*
D03*
D123*
X23241Y27411D02*
D03*
Y32291D02*
D03*
D124*
X85566Y92456D02*
D03*
X83026D02*
D03*
X80486D02*
D03*
D125*
X51943Y47371D02*
D03*
D126*
X48443D02*
D03*
D127*
X40869Y45847D02*
D03*
D128*
X39664Y39807D02*
D03*
X42164D02*
D03*
X39664Y43307D02*
D03*
X42164D02*
D03*
X39664Y48387D02*
D03*
X42164D02*
D03*
X39664Y51887D02*
D03*
X42164D02*
D03*
D129*
X93500Y4500D02*
D03*
Y91500D02*
D03*
X4500D02*
D03*
Y4500D02*
D03*
D130*
X29972Y1651D02*
D03*
X14732Y18288D02*
D03*
X18669Y24130D02*
D03*
X67818Y1524D02*
D03*
X66167Y11938D02*
D03*
X40894Y12573D02*
D03*
X49784Y8382D02*
D03*
X61976Y29718D02*
D03*
Y56261D02*
D03*
X61214Y57277D02*
D03*
Y58674D02*
D03*
X57150Y20500D02*
D03*
X70358Y26543D02*
D03*
X48006Y69977D02*
D03*
X55245Y50673D02*
D03*
X37211Y32385D02*
D03*
X38481Y29464D02*
D03*
X36195D02*
D03*
X73787Y70866D02*
D03*
X46609Y48133D02*
D03*
X32893Y15748D02*
D03*
X38354Y24892D02*
D03*
X63119Y52324D02*
D03*
X71882Y78867D02*
D03*
X73787Y73152D02*
D03*
X71882Y53086D02*
D03*
X74295Y54737D02*
D03*
Y57023D02*
D03*
X64516Y59436D02*
D03*
X85471Y17018D02*
D03*
X76073Y27432D02*
D03*
X71628Y15621D02*
D03*
X67691Y12573D02*
D03*
X83566Y62103D02*
D03*
X25273Y1016D02*
D03*
X55753Y6985D02*
D03*
X27813Y4826D02*
D03*
X31496Y13589D02*
D03*
X32893Y12192D02*
D03*
X38275Y11430D02*
D03*
X32639Y8128D02*
D03*
X7433Y24257D02*
D03*
X23876Y17907D02*
D03*
X8001Y43942D02*
D03*
X11938Y29985D02*
D03*
X8128Y29083D02*
D03*
X48514Y28321D02*
D03*
X53721Y69342D02*
D03*
X83058Y64262D02*
D03*
X59309Y77343D02*
D03*
Y76200D02*
D03*
X14600Y37910D02*
D03*
X10800Y37973D02*
D03*
X57150Y21844D02*
D03*
Y22987D02*
D03*
X59817Y22606D02*
D03*
X59690Y18415D02*
D03*
X16129Y28956D02*
D03*
X19558Y25908D02*
D03*
X15113Y31750D02*
D03*
X16383Y31115D02*
D03*
X1524Y12827D02*
D03*
Y10287D02*
D03*
Y7747D02*
D03*
X26416Y29845D02*
D03*
X20066D02*
D03*
X23749Y22860D02*
D03*
X33926Y6858D02*
D03*
X55245Y5842D02*
D03*
X48514Y20066D02*
D03*
X64643Y45466D02*
D03*
X59309Y74930D02*
D03*
X46736D02*
D03*
X45339Y13081D02*
D03*
X63119Y3048D02*
D03*
X57658Y7874D02*
D03*
X67818Y17272D02*
D03*
X66040Y23241D02*
D03*
X59563Y11811D02*
D03*
X63627Y29591D02*
D03*
X34925Y1524D02*
D03*
X25908Y8636D02*
D03*
X8300Y75182D02*
D03*
Y61724D02*
D03*
Y67107D02*
D03*
Y72490D02*
D03*
Y64416D02*
D03*
Y69799D02*
D03*
Y59032D02*
D03*
Y56340D02*
D03*
Y77874D02*
D03*
Y80566D02*
D03*
X13200Y75182D02*
D03*
Y61724D02*
D03*
Y67107D02*
D03*
Y72490D02*
D03*
Y64416D02*
D03*
Y69799D02*
D03*
Y59032D02*
D03*
Y56340D02*
D03*
Y77874D02*
D03*
Y80566D02*
D03*
X10750D02*
D03*
Y77874D02*
D03*
Y56340D02*
D03*
Y59032D02*
D03*
Y69799D02*
D03*
Y64416D02*
D03*
Y72490D02*
D03*
Y67107D02*
D03*
Y61724D02*
D03*
Y75182D02*
D03*
X21140Y40870D02*
D03*
X31300D02*
D03*
X26220D02*
D03*
X28760D02*
D03*
X23680D02*
D03*
Y42370D02*
D03*
X28760D02*
D03*
X26220D02*
D03*
X31300D02*
D03*
X21140D02*
D03*
X23680Y39370D02*
D03*
X26220D02*
D03*
X31300D02*
D03*
X33840Y42370D02*
D03*
Y40870D02*
D03*
X28760Y39370D02*
D03*
X33840D02*
D03*
X42164Y54000D02*
D03*
X39664D02*
D03*
Y57000D02*
D03*
X42164D02*
D03*
Y55500D02*
D03*
X39664D02*
D03*
X33724Y65000D02*
D03*
X28760D02*
D03*
X33724Y66500D02*
D03*
Y68000D02*
D03*
X21140Y65000D02*
D03*
X31242D02*
D03*
X26220D02*
D03*
X23680D02*
D03*
X21140Y68000D02*
D03*
X31300D02*
D03*
X26220D02*
D03*
X28760D02*
D03*
X23680D02*
D03*
Y66500D02*
D03*
X28760D02*
D03*
X26220D02*
D03*
X31300D02*
D03*
X21140D02*
D03*
%TF.MD5,0882653bc14fd60485b631455772baac*%
M02*
