%TF.GenerationSoftware,Altium Limited,Altium Designer,25.2.1 (25)*%
G04 Layer_Color=32896*
%FSLAX43Y43*%
%MOMM*%
%TF.SameCoordinates,66537E59-A43E-40DC-9FEC-BE63E116DA79*%
%TF.FilePolarity,Positive*%
%TF.FileFunction,Legend,Bot*%
%TF.Part,Single*%
G01*
G75*
%TA.AperFunction,NonConductor*%
%ADD68C,0.200*%
%ADD70C,0.250*%
%ADD72C,0.254*%
%ADD73C,0.300*%
%ADD74C,0.500*%
%ADD75C,0.100*%
%ADD76C,0.150*%
%ADD77C,0.400*%
%ADD78C,0.800*%
G36*
X58442Y22270D02*
X58700D01*
Y22257D01*
X58774D01*
Y22245D01*
X58847D01*
Y22233D01*
X58933D01*
Y22221D01*
X58970D01*
Y22208D01*
X59032D01*
Y22196D01*
X59081D01*
Y22184D01*
X59118D01*
Y22171D01*
X59167D01*
Y22159D01*
X59204D01*
Y22147D01*
X59228D01*
Y22135D01*
X59265D01*
Y22122D01*
X59302D01*
Y22110D01*
X59339D01*
Y22098D01*
X59376D01*
Y22086D01*
X59400D01*
Y22073D01*
X59425D01*
Y22061D01*
X59449D01*
Y22049D01*
X59474D01*
Y22036D01*
X59499D01*
Y22024D01*
X59523D01*
Y22012D01*
X59548D01*
Y22000D01*
X59584D01*
Y21987D01*
X59597D01*
Y21975D01*
X59621D01*
Y21963D01*
X59646D01*
Y21950D01*
X59658D01*
Y21938D01*
X59683D01*
Y21926D01*
X59707D01*
Y21914D01*
X59720D01*
Y21901D01*
X59744D01*
Y21889D01*
X59769D01*
Y21877D01*
X59781D01*
Y21864D01*
X59806D01*
Y21852D01*
X59818D01*
Y21840D01*
X59842D01*
Y21828D01*
X59855D01*
Y21815D01*
X59867D01*
Y21803D01*
X59892D01*
Y21791D01*
X59904D01*
Y21778D01*
X59916D01*
Y21766D01*
X59941D01*
Y21754D01*
X59953D01*
Y21742D01*
X59978D01*
Y21729D01*
X59990D01*
Y21717D01*
X60002D01*
Y21705D01*
X60014D01*
Y21692D01*
X60027D01*
Y21680D01*
X60039D01*
Y21668D01*
X60051D01*
Y21656D01*
X60064D01*
Y21643D01*
X60088D01*
Y21631D01*
X60100D01*
Y21619D01*
X60113D01*
Y21606D01*
X60125D01*
Y21594D01*
X60137D01*
Y21582D01*
X60150D01*
Y21570D01*
X60162D01*
Y21557D01*
X60174D01*
Y21545D01*
X60186D01*
Y21533D01*
X60199D01*
Y21520D01*
X60211D01*
Y21508D01*
X60223D01*
Y21496D01*
X60236D01*
Y21484D01*
X60248D01*
Y21471D01*
X60260D01*
Y21447D01*
X60272D01*
Y21434D01*
X60285D01*
Y21422D01*
X60297D01*
Y21410D01*
X60309D01*
Y21398D01*
X60321D01*
Y21385D01*
X60334D01*
Y21373D01*
X60346D01*
Y21348D01*
X60358D01*
Y21336D01*
X60371D01*
Y21324D01*
X60383D01*
Y21299D01*
X60395D01*
Y21287D01*
X60407D01*
Y21275D01*
X60420D01*
Y21250D01*
X60432D01*
Y21238D01*
X60444D01*
Y21226D01*
X60457D01*
Y21201D01*
X60469D01*
Y21189D01*
X60481D01*
Y21164D01*
X60493D01*
Y21152D01*
X60506D01*
Y21127D01*
X60518D01*
Y21103D01*
X60530D01*
Y21091D01*
X60543D01*
Y21066D01*
X60555D01*
Y21041D01*
X60567D01*
Y21029D01*
X60579D01*
Y21005D01*
X60592D01*
Y20980D01*
X60604D01*
Y20955D01*
X60616D01*
Y20931D01*
X60629D01*
Y20906D01*
X60641D01*
Y20882D01*
X60653D01*
Y20857D01*
X60665D01*
Y20833D01*
X60678D01*
Y20808D01*
X60690D01*
Y20783D01*
X60702D01*
Y20747D01*
X60715D01*
Y20710D01*
X60727D01*
Y20685D01*
X60739D01*
Y20648D01*
X60751D01*
Y20612D01*
X60764D01*
Y20587D01*
X60776D01*
Y20538D01*
X60788D01*
Y20501D01*
X60801D01*
Y20452D01*
X60813D01*
Y20403D01*
X60825D01*
Y20366D01*
X60837D01*
Y20304D01*
X60850D01*
Y20218D01*
X60862D01*
Y20157D01*
X60874D01*
Y20034D01*
X60887D01*
Y5921D01*
X60874D01*
Y5798D01*
X60862D01*
Y5736D01*
X60850D01*
Y5651D01*
X60837D01*
Y5589D01*
X60825D01*
Y5552D01*
X60813D01*
Y5503D01*
X60801D01*
Y5454D01*
X60788D01*
Y5417D01*
X60776D01*
Y5368D01*
X60764D01*
Y5343D01*
X60751D01*
Y5307D01*
X60739D01*
Y5270D01*
X60727D01*
Y5245D01*
X60715D01*
Y5208D01*
X60702D01*
Y5171D01*
X60690D01*
Y5147D01*
X60678D01*
Y5122D01*
X60665D01*
Y5098D01*
X60653D01*
Y5073D01*
X60641D01*
Y5049D01*
X60629D01*
Y5024D01*
X60616D01*
Y4999D01*
X60604D01*
Y4975D01*
X60592D01*
Y4950D01*
X60579D01*
Y4926D01*
X60567D01*
Y4914D01*
X60555D01*
Y4889D01*
X60543D01*
Y4864D01*
X60530D01*
Y4852D01*
X60518D01*
Y4828D01*
X60506D01*
Y4803D01*
X60493D01*
Y4791D01*
X60481D01*
Y4766D01*
X60469D01*
Y4754D01*
X60457D01*
Y4729D01*
X60444D01*
Y4717D01*
X60432D01*
Y4705D01*
X60420D01*
Y4680D01*
X60407D01*
Y4668D01*
X60395D01*
Y4656D01*
X60383D01*
Y4631D01*
X60371D01*
Y4619D01*
X60358D01*
Y4606D01*
X60346D01*
Y4582D01*
X60334D01*
Y4570D01*
X60321D01*
Y4557D01*
X60309D01*
Y4545D01*
X60297D01*
Y4533D01*
X60285D01*
Y4520D01*
X60272D01*
Y4508D01*
X60260D01*
Y4484D01*
X60248D01*
Y4471D01*
X60236D01*
Y4459D01*
X60223D01*
Y4447D01*
X60211D01*
Y4434D01*
X60199D01*
Y4422D01*
X60186D01*
Y4410D01*
X60174D01*
Y4398D01*
X60162D01*
Y4385D01*
X60150D01*
Y4373D01*
X60137D01*
Y4361D01*
X60125D01*
Y4348D01*
X60113D01*
Y4336D01*
X60100D01*
Y4324D01*
X60088D01*
Y4312D01*
X60064D01*
Y4299D01*
X60051D01*
Y4287D01*
X60039D01*
Y4275D01*
X60027D01*
Y4263D01*
X60014D01*
Y4250D01*
X60002D01*
Y4238D01*
X59990D01*
Y4226D01*
X59978D01*
Y4213D01*
X59953D01*
Y4201D01*
X59941D01*
Y4189D01*
X59916D01*
Y4177D01*
X59904D01*
Y4164D01*
X59892D01*
Y4152D01*
X59867D01*
Y4140D01*
X59855D01*
Y4127D01*
X59842D01*
Y4115D01*
X59818D01*
Y4103D01*
X59806D01*
Y4091D01*
X59781D01*
Y4078D01*
X59769D01*
Y4066D01*
X59744D01*
Y4054D01*
X59720D01*
Y4041D01*
X59707D01*
Y4029D01*
X59683D01*
Y4017D01*
X59658D01*
Y4005D01*
X59646D01*
Y3992D01*
X59621D01*
Y3980D01*
X59597D01*
Y3968D01*
X59584D01*
Y3955D01*
X59548D01*
Y3943D01*
X59523D01*
Y3931D01*
X59499D01*
Y3919D01*
X59474D01*
Y3906D01*
X59449D01*
Y3894D01*
X59425D01*
Y3882D01*
X59400D01*
Y3869D01*
X59376D01*
Y3857D01*
X59339D01*
Y3845D01*
X59302D01*
Y3833D01*
X59277D01*
Y3820D01*
X59228D01*
Y3808D01*
X59204D01*
Y3796D01*
X59167D01*
Y3783D01*
X59118D01*
Y3771D01*
X59081D01*
Y3759D01*
X59032D01*
Y3747D01*
X58970D01*
Y3734D01*
X58933D01*
Y3722D01*
X58847D01*
Y3710D01*
X58774D01*
Y3697D01*
X58700D01*
Y3685D01*
X58442D01*
Y3673D01*
X49119D01*
Y3685D01*
X48861D01*
Y3697D01*
X48788D01*
Y3710D01*
X48714D01*
Y3722D01*
X48628D01*
Y3734D01*
X48591D01*
Y3747D01*
X48530D01*
Y3759D01*
X48480D01*
Y3771D01*
X48444D01*
Y3783D01*
X48394D01*
Y3796D01*
X48358D01*
Y3808D01*
X48333D01*
Y3820D01*
X48284D01*
Y3833D01*
X48259D01*
Y3845D01*
X48222D01*
Y3857D01*
X48186D01*
Y3869D01*
X48161D01*
Y3882D01*
X48137D01*
Y3894D01*
X48112D01*
Y3906D01*
X48087D01*
Y3919D01*
X48063D01*
Y3931D01*
X48038D01*
Y3943D01*
X48014D01*
Y3955D01*
X47977D01*
Y3968D01*
X47965D01*
Y3980D01*
X47940D01*
Y3992D01*
X47915D01*
Y4005D01*
X47903D01*
Y4017D01*
X47879D01*
Y4029D01*
X47854D01*
Y4041D01*
X47842D01*
Y4054D01*
X47817D01*
Y4066D01*
X47793D01*
Y4078D01*
X47780D01*
Y4091D01*
X47756D01*
Y4103D01*
X47743D01*
Y4115D01*
X47719D01*
Y4127D01*
X47707D01*
Y4140D01*
X47694D01*
Y4152D01*
X47670D01*
Y4164D01*
X47657D01*
Y4177D01*
X47645D01*
Y4189D01*
X47621D01*
Y4201D01*
X47608D01*
Y4213D01*
X47584D01*
Y4226D01*
X47571D01*
Y4238D01*
X47559D01*
Y4250D01*
X47547D01*
Y4263D01*
X47535D01*
Y4275D01*
X47522D01*
Y4287D01*
X47510D01*
Y4299D01*
X47498D01*
Y4312D01*
X47473D01*
Y4324D01*
X47461D01*
Y4336D01*
X47449D01*
Y4348D01*
X47436D01*
Y4361D01*
X47424D01*
Y4373D01*
X47412D01*
Y4385D01*
X47400D01*
Y4398D01*
X47387D01*
Y4410D01*
X47375D01*
Y4422D01*
X47363D01*
Y4434D01*
X47350D01*
Y4447D01*
X47338D01*
Y4459D01*
X47326D01*
Y4471D01*
X47314D01*
Y4484D01*
X47301D01*
Y4508D01*
X47289D01*
Y4520D01*
X47277D01*
Y4533D01*
X47264D01*
Y4545D01*
X47252D01*
Y4557D01*
X47240D01*
Y4570D01*
X47228D01*
Y4582D01*
X47215D01*
Y4606D01*
X47203D01*
Y4619D01*
X47191D01*
Y4631D01*
X47178D01*
Y4656D01*
X47166D01*
Y4668D01*
X47154D01*
Y4680D01*
X47142D01*
Y4705D01*
X47129D01*
Y4717D01*
X47117D01*
Y4729D01*
X47105D01*
Y4754D01*
X47092D01*
Y4766D01*
X47080D01*
Y4791D01*
X47068D01*
Y4803D01*
X47056D01*
Y4828D01*
X47043D01*
Y4852D01*
X47031D01*
Y4864D01*
X47019D01*
Y4889D01*
X47006D01*
Y4914D01*
X46994D01*
Y4926D01*
X46982D01*
Y4950D01*
X46970D01*
Y4975D01*
X46957D01*
Y4999D01*
X46945D01*
Y5024D01*
X46933D01*
Y5049D01*
X46920D01*
Y5073D01*
X46908D01*
Y5098D01*
X46896D01*
Y5122D01*
X46884D01*
Y5147D01*
X46871D01*
Y5171D01*
X46859D01*
Y5208D01*
X46847D01*
Y5245D01*
X46834D01*
Y5270D01*
X46822D01*
Y5307D01*
X46810D01*
Y5343D01*
X46798D01*
Y5368D01*
X46785D01*
Y5417D01*
X46773D01*
Y5454D01*
X46761D01*
Y5503D01*
X46749D01*
Y5552D01*
X46736D01*
Y5589D01*
X46724D01*
Y5651D01*
X46712D01*
Y5736D01*
X46699D01*
Y5798D01*
X46687D01*
Y5921D01*
X46675D01*
Y6142D01*
X46663D01*
Y19813D01*
X46675D01*
Y20034D01*
X46687D01*
Y20157D01*
X46699D01*
Y20218D01*
X46712D01*
Y20304D01*
X46724D01*
Y20366D01*
X46736D01*
Y20403D01*
X46749D01*
Y20452D01*
X46761D01*
Y20501D01*
X46773D01*
Y20538D01*
X46785D01*
Y20587D01*
X46798D01*
Y20612D01*
X46810D01*
Y20648D01*
X46822D01*
Y20685D01*
X46834D01*
Y20710D01*
X46847D01*
Y20747D01*
X46859D01*
Y20783D01*
X46871D01*
Y20808D01*
X46884D01*
Y20833D01*
X46896D01*
Y20857D01*
X46908D01*
Y20882D01*
X46920D01*
Y20906D01*
X46933D01*
Y20931D01*
X46945D01*
Y20955D01*
X46957D01*
Y20980D01*
X46970D01*
Y21005D01*
X46982D01*
Y21029D01*
X46994D01*
Y21041D01*
X47006D01*
Y21066D01*
X47019D01*
Y21091D01*
X47031D01*
Y21103D01*
X47043D01*
Y21127D01*
X47056D01*
Y21152D01*
X47068D01*
Y21164D01*
X47080D01*
Y21189D01*
X47092D01*
Y21201D01*
X47105D01*
Y21226D01*
X47117D01*
Y21238D01*
X47129D01*
Y21250D01*
X47142D01*
Y21275D01*
X47154D01*
Y21287D01*
X47166D01*
Y21299D01*
X47178D01*
Y21324D01*
X47191D01*
Y21336D01*
X47203D01*
Y21348D01*
X47215D01*
Y21373D01*
X47228D01*
Y21385D01*
X47240D01*
Y21398D01*
X47252D01*
Y21410D01*
X47264D01*
Y21422D01*
X47277D01*
Y21434D01*
X47289D01*
Y21447D01*
X47301D01*
Y21471D01*
X47314D01*
Y21484D01*
X47326D01*
Y21496D01*
X47338D01*
Y21508D01*
X47350D01*
Y21520D01*
X47363D01*
Y21533D01*
X47375D01*
Y21545D01*
X47387D01*
Y21557D01*
X47400D01*
Y21570D01*
X47412D01*
Y21582D01*
X47424D01*
Y21594D01*
X47436D01*
Y21606D01*
X47449D01*
Y21619D01*
X47461D01*
Y21631D01*
X47473D01*
Y21643D01*
X47498D01*
Y21656D01*
X47510D01*
Y21668D01*
X47522D01*
Y21680D01*
X47535D01*
Y21692D01*
X47547D01*
Y21705D01*
X47559D01*
Y21717D01*
X47571D01*
Y21729D01*
X47584D01*
Y21742D01*
X47608D01*
Y21754D01*
X47621D01*
Y21766D01*
X47645D01*
Y21778D01*
X47657D01*
Y21791D01*
X47670D01*
Y21803D01*
X47694D01*
Y21815D01*
X47707D01*
Y21828D01*
X47719D01*
Y21840D01*
X47743D01*
Y21852D01*
X47756D01*
Y21864D01*
X47780D01*
Y21877D01*
X47793D01*
Y21889D01*
X47817D01*
Y21901D01*
X47842D01*
Y21914D01*
X47854D01*
Y21926D01*
X47879D01*
Y21938D01*
X47903D01*
Y21950D01*
X47915D01*
Y21963D01*
X47940D01*
Y21975D01*
X47965D01*
Y21987D01*
X47977D01*
Y22000D01*
X48014D01*
Y22012D01*
X48038D01*
Y22024D01*
X48063D01*
Y22036D01*
X48087D01*
Y22049D01*
X48112D01*
Y22061D01*
X48137D01*
Y22073D01*
X48161D01*
Y22086D01*
X48186D01*
Y22098D01*
X48222D01*
Y22110D01*
X48259D01*
Y22122D01*
X48296D01*
Y22135D01*
X48333D01*
Y22147D01*
X48358D01*
Y22159D01*
X48394D01*
Y22171D01*
X48444D01*
Y22184D01*
X48480D01*
Y22196D01*
X48530D01*
Y22208D01*
X48591D01*
Y22221D01*
X48628D01*
Y22233D01*
X48714D01*
Y22245D01*
X48788D01*
Y22257D01*
X48861D01*
Y22270D01*
X49119D01*
Y22282D01*
X58442D01*
Y22270D01*
D02*
G37*
%LPC*%
G36*
X58479Y21189D02*
X49082D01*
Y21177D01*
X48947D01*
Y21164D01*
X48874D01*
Y21152D01*
X48812D01*
Y21140D01*
X48775D01*
Y21127D01*
X48726D01*
Y21115D01*
X48689D01*
Y21103D01*
X48652D01*
Y21091D01*
X48616D01*
Y21078D01*
X48591D01*
Y21066D01*
X48566D01*
Y21054D01*
X48530D01*
Y21041D01*
X48517D01*
Y21029D01*
X48493D01*
Y21017D01*
X48468D01*
Y21005D01*
X48444D01*
Y20992D01*
X48419D01*
Y20980D01*
X48407D01*
Y20968D01*
X48382D01*
Y20955D01*
X48358D01*
Y20943D01*
X48345D01*
Y20931D01*
X48333D01*
Y20919D01*
X48321D01*
Y20906D01*
X48296D01*
Y20894D01*
X48284D01*
Y20882D01*
X48259D01*
Y20869D01*
X48247D01*
Y20857D01*
X48235D01*
Y20845D01*
X48222D01*
Y20833D01*
X48210D01*
Y20820D01*
X48198D01*
Y20808D01*
X48186D01*
Y20796D01*
X48173D01*
Y20783D01*
X48161D01*
Y20771D01*
X48149D01*
Y20759D01*
X48137D01*
Y20747D01*
X48124D01*
Y20734D01*
X48112D01*
Y20722D01*
X48100D01*
Y20710D01*
X48087D01*
Y20697D01*
X48075D01*
Y20685D01*
X48063D01*
Y20661D01*
X48051D01*
Y20648D01*
X48038D01*
Y20624D01*
X48026D01*
Y20612D01*
X48014D01*
Y20599D01*
X48001D01*
Y20575D01*
X47989D01*
Y20562D01*
X47977D01*
Y20538D01*
X47965D01*
Y20513D01*
X47952D01*
Y20501D01*
X47940D01*
Y20476D01*
X47928D01*
Y20452D01*
X47915D01*
Y20427D01*
X47903D01*
Y20403D01*
X47891D01*
Y20378D01*
X47879D01*
Y20354D01*
X47866D01*
Y20317D01*
X47854D01*
Y20292D01*
X47842D01*
Y20255D01*
X47829D01*
Y20218D01*
X47817D01*
Y20182D01*
X47805D01*
Y20120D01*
X47793D01*
Y20059D01*
X47780D01*
Y19997D01*
X47768D01*
Y5958D01*
X47780D01*
Y5896D01*
X47793D01*
Y5835D01*
X47805D01*
Y5773D01*
X47817D01*
Y5736D01*
X47829D01*
Y5700D01*
X47842D01*
Y5663D01*
X47854D01*
Y5638D01*
X47866D01*
Y5601D01*
X47879D01*
Y5577D01*
X47891D01*
Y5552D01*
X47903D01*
Y5528D01*
X47915D01*
Y5503D01*
X47928D01*
Y5479D01*
X47940D01*
Y5454D01*
X47952D01*
Y5442D01*
X47965D01*
Y5417D01*
X47977D01*
Y5393D01*
X47989D01*
Y5380D01*
X48001D01*
Y5356D01*
X48014D01*
Y5343D01*
X48026D01*
Y5331D01*
X48038D01*
Y5307D01*
X48051D01*
Y5294D01*
X48063D01*
Y5270D01*
X48075D01*
Y5257D01*
X48087D01*
Y5245D01*
X48100D01*
Y5233D01*
X48112D01*
Y5221D01*
X48124D01*
Y5208D01*
X48137D01*
Y5196D01*
X48149D01*
Y5184D01*
X48161D01*
Y5171D01*
X48173D01*
Y5159D01*
X48186D01*
Y5147D01*
X48198D01*
Y5135D01*
X48210D01*
Y5122D01*
X48222D01*
Y5110D01*
X48235D01*
Y5098D01*
X48247D01*
Y5085D01*
X48259D01*
Y5073D01*
X48284D01*
Y5061D01*
X48296D01*
Y5049D01*
X48308D01*
Y5036D01*
X48333D01*
Y5024D01*
X48345D01*
Y5012D01*
X48358D01*
Y4999D01*
X48382D01*
Y4987D01*
X48407D01*
Y4975D01*
X48419D01*
Y4963D01*
X48444D01*
Y4950D01*
X48468D01*
Y4938D01*
X48493D01*
Y4926D01*
X48517D01*
Y4914D01*
X48530D01*
Y4901D01*
X48566D01*
Y4889D01*
X48591D01*
Y4877D01*
X48616D01*
Y4864D01*
X48652D01*
Y4852D01*
X48689D01*
Y4840D01*
X48726D01*
Y4828D01*
X48775D01*
Y4815D01*
X48812D01*
Y4803D01*
X48874D01*
Y4791D01*
X48947D01*
Y4778D01*
X49082D01*
Y4766D01*
X58467D01*
Y4778D01*
X58614D01*
Y4791D01*
X58688D01*
Y4803D01*
X58749D01*
Y4815D01*
X58786D01*
Y4828D01*
X58835D01*
Y4840D01*
X58872D01*
Y4852D01*
X58909D01*
Y4864D01*
X58946D01*
Y4877D01*
X58970D01*
Y4889D01*
X58995D01*
Y4901D01*
X59032D01*
Y4914D01*
X59044D01*
Y4926D01*
X59069D01*
Y4938D01*
X59093D01*
Y4950D01*
X59118D01*
Y4963D01*
X59142D01*
Y4975D01*
X59155D01*
Y4987D01*
X59179D01*
Y4999D01*
X59204D01*
Y5012D01*
X59216D01*
Y5024D01*
X59228D01*
Y5036D01*
X59241D01*
Y5049D01*
X59265D01*
Y5061D01*
X59277D01*
Y5073D01*
X59302D01*
Y5085D01*
X59314D01*
Y5098D01*
X59327D01*
Y5110D01*
X59339D01*
Y5122D01*
X59351D01*
Y5135D01*
X59363D01*
Y5147D01*
X59376D01*
Y5159D01*
X59388D01*
Y5171D01*
X59400D01*
Y5184D01*
X59413D01*
Y5196D01*
X59425D01*
Y5208D01*
X59437D01*
Y5221D01*
X59449D01*
Y5233D01*
X59462D01*
Y5245D01*
X59474D01*
Y5257D01*
X59486D01*
Y5270D01*
X59499D01*
Y5294D01*
X59511D01*
Y5307D01*
X59523D01*
Y5331D01*
X59535D01*
Y5343D01*
X59548D01*
Y5356D01*
X59560D01*
Y5380D01*
X59572D01*
Y5393D01*
X59584D01*
Y5417D01*
X59597D01*
Y5442D01*
X59609D01*
Y5454D01*
X59621D01*
Y5479D01*
X59634D01*
Y5503D01*
X59646D01*
Y5528D01*
X59658D01*
Y5552D01*
X59670D01*
Y5577D01*
X59683D01*
Y5601D01*
X59695D01*
Y5638D01*
X59707D01*
Y5663D01*
X59720D01*
Y5700D01*
X59732D01*
Y5736D01*
X59744D01*
Y5773D01*
X59756D01*
Y5835D01*
X59769D01*
Y5896D01*
X59781D01*
Y5958D01*
X59793D01*
Y19997D01*
X59781D01*
Y20059D01*
X59769D01*
Y20120D01*
X59756D01*
Y20182D01*
X59744D01*
Y20218D01*
X59732D01*
Y20255D01*
X59720D01*
Y20292D01*
X59707D01*
Y20317D01*
X59695D01*
Y20354D01*
X59683D01*
Y20378D01*
X59670D01*
Y20403D01*
X59658D01*
Y20427D01*
X59646D01*
Y20452D01*
X59634D01*
Y20476D01*
X59621D01*
Y20501D01*
X59609D01*
Y20513D01*
X59597D01*
Y20538D01*
X59584D01*
Y20562D01*
X59572D01*
Y20575D01*
X59560D01*
Y20599D01*
X59548D01*
Y20612D01*
X59535D01*
Y20624D01*
X59523D01*
Y20648D01*
X59511D01*
Y20661D01*
X59499D01*
Y20685D01*
X59486D01*
Y20697D01*
X59474D01*
Y20710D01*
X59462D01*
Y20722D01*
X59449D01*
Y20734D01*
X59437D01*
Y20747D01*
X59425D01*
Y20759D01*
X59413D01*
Y20771D01*
X59400D01*
Y20783D01*
X59388D01*
Y20796D01*
X59376D01*
Y20808D01*
X59363D01*
Y20820D01*
X59351D01*
Y20833D01*
X59339D01*
Y20845D01*
X59327D01*
Y20857D01*
X59314D01*
Y20869D01*
X59302D01*
Y20882D01*
X59277D01*
Y20894D01*
X59265D01*
Y20906D01*
X59241D01*
Y20919D01*
X59228D01*
Y20931D01*
X59216D01*
Y20943D01*
X59204D01*
Y20955D01*
X59179D01*
Y20968D01*
X59155D01*
Y20980D01*
X59142D01*
Y20992D01*
X59118D01*
Y21005D01*
X59093D01*
Y21017D01*
X59069D01*
Y21029D01*
X59044D01*
Y21041D01*
X59032D01*
Y21054D01*
X58995D01*
Y21066D01*
X58970D01*
Y21078D01*
X58946D01*
Y21091D01*
X58909D01*
Y21103D01*
X58872D01*
Y21115D01*
X58835D01*
Y21127D01*
X58786D01*
Y21140D01*
X58749D01*
Y21152D01*
X58688D01*
Y21164D01*
X58614D01*
Y21177D01*
X58479D01*
Y21189D01*
D02*
G37*
%LPD*%
G36*
X50225Y18990D02*
X50262D01*
Y18978D01*
X50298D01*
Y18966D01*
X50335D01*
Y18953D01*
X50372D01*
Y18941D01*
X50409D01*
Y18929D01*
X50446D01*
Y18916D01*
X50483D01*
Y18904D01*
X50519D01*
Y18892D01*
X50569D01*
Y18880D01*
X50593D01*
Y18867D01*
X50642D01*
Y18855D01*
X50679D01*
Y18843D01*
X50716D01*
Y18830D01*
X50753D01*
Y18818D01*
X50790D01*
Y18806D01*
X50827D01*
Y18794D01*
X50863D01*
Y18781D01*
X50913D01*
Y18769D01*
X50949D01*
Y18757D01*
X50986D01*
Y18744D01*
X51023D01*
Y18732D01*
X51060D01*
Y18720D01*
X51097D01*
Y18708D01*
X51134D01*
Y18695D01*
X51170D01*
Y18683D01*
X51207D01*
Y18671D01*
X51244D01*
Y18658D01*
X51293D01*
Y18646D01*
X51330D01*
Y18634D01*
X51367D01*
Y18622D01*
X51404D01*
Y18609D01*
X51441D01*
Y18597D01*
X51478D01*
Y18585D01*
X51514D01*
Y18572D01*
X51551D01*
Y18560D01*
X51600D01*
Y18548D01*
X51637D01*
Y18536D01*
X51674D01*
Y18523D01*
X51711D01*
Y18511D01*
X51748D01*
Y18499D01*
X51785D01*
Y18487D01*
X51821D01*
Y18474D01*
X51858D01*
Y18462D01*
X51895D01*
Y18450D01*
X51932D01*
Y18437D01*
X51981D01*
Y18425D01*
X52018D01*
Y18413D01*
X52055D01*
Y18401D01*
X52092D01*
Y18388D01*
X52129D01*
Y18376D01*
X52165D01*
Y18364D01*
X52202D01*
Y18351D01*
X52239D01*
Y18339D01*
X52288D01*
Y18327D01*
X52325D01*
Y18315D01*
X52362D01*
Y18302D01*
X52399D01*
Y18290D01*
X52436D01*
Y18278D01*
X52472D01*
Y18265D01*
X52509D01*
Y18253D01*
X52546D01*
Y18241D01*
X52595D01*
Y18229D01*
X52620D01*
Y18216D01*
X52669D01*
Y18204D01*
X52706D01*
Y18192D01*
X52743D01*
Y18179D01*
X52780D01*
Y18167D01*
X52816D01*
Y18155D01*
X52853D01*
Y18143D01*
X52890D01*
Y18130D01*
X52939D01*
Y18118D01*
X52964D01*
Y18106D01*
X53013D01*
Y18093D01*
X53050D01*
Y18081D01*
X53087D01*
Y18069D01*
X53124D01*
Y18057D01*
X53160D01*
Y18044D01*
X53197D01*
Y18032D01*
X53234D01*
Y18020D01*
X53271D01*
Y18007D01*
X53320D01*
Y17995D01*
X53357D01*
Y17983D01*
X53394D01*
Y17971D01*
X53431D01*
Y17958D01*
X53467D01*
Y17946D01*
X53504D01*
Y17934D01*
X53541D01*
Y17921D01*
X53578D01*
Y17909D01*
X53627D01*
Y17897D01*
X53664D01*
Y17885D01*
X53701D01*
Y17872D01*
X53738D01*
Y17860D01*
X53775D01*
Y17848D01*
X53811D01*
Y17835D01*
X53848D01*
Y17823D01*
X53885D01*
Y17811D01*
X53922D01*
Y17799D01*
X53959D01*
Y17786D01*
X54008D01*
Y17774D01*
X54045D01*
Y17762D01*
X54082D01*
Y17750D01*
X54118D01*
Y17737D01*
X54155D01*
Y17725D01*
X54192D01*
Y17713D01*
X54229D01*
Y17700D01*
X54266D01*
Y17688D01*
X54303D01*
Y17676D01*
X54352D01*
Y17664D01*
X54389D01*
Y17651D01*
X54426D01*
Y17639D01*
X54462D01*
Y17627D01*
X54499D01*
Y17614D01*
X54536D01*
Y17602D01*
X54573D01*
Y17590D01*
X54610D01*
Y17578D01*
X54659D01*
Y17565D01*
X54696D01*
Y17553D01*
X54733D01*
Y17541D01*
X54769D01*
Y17528D01*
X54806D01*
Y17516D01*
X54843D01*
Y17504D01*
X54880D01*
Y17492D01*
X54917D01*
Y17479D01*
X54954D01*
Y17467D01*
X54991D01*
Y17455D01*
X55040D01*
Y17442D01*
X55077D01*
Y17430D01*
X55113D01*
Y17418D01*
X55150D01*
Y17406D01*
X55187D01*
Y17393D01*
X55224D01*
Y17381D01*
X55261D01*
Y17369D01*
X55298D01*
Y17356D01*
X55347D01*
Y17344D01*
X55384D01*
Y17332D01*
X55420D01*
Y17320D01*
X55457D01*
Y17307D01*
X55494D01*
Y17295D01*
X55531D01*
Y17283D01*
X55568D01*
Y17270D01*
X55605D01*
Y17258D01*
X55642D01*
Y17246D01*
X55691D01*
Y17234D01*
X55728D01*
Y17221D01*
X55764D01*
Y17209D01*
X55801D01*
Y17197D01*
X55838D01*
Y17184D01*
X55875D01*
Y17172D01*
X55912D01*
Y17160D01*
X55949D01*
Y17148D01*
X55986D01*
Y17135D01*
X56022D01*
Y17123D01*
X56071D01*
Y17111D01*
X56108D01*
Y17098D01*
X56145D01*
Y17086D01*
X56182D01*
Y17074D01*
X56219D01*
Y17062D01*
X56256D01*
Y17049D01*
X56293D01*
Y17037D01*
X56329D01*
Y17025D01*
X56379D01*
Y17013D01*
X56415D01*
Y17000D01*
X56452D01*
Y16988D01*
X56489D01*
Y16976D01*
X56526D01*
Y16963D01*
X56563D01*
Y16951D01*
X56600D01*
Y16939D01*
X56637D01*
Y16927D01*
X56686D01*
Y16914D01*
X56722D01*
Y16902D01*
X56759D01*
Y16890D01*
X56796D01*
Y16877D01*
X56833D01*
Y16865D01*
X56870D01*
Y16853D01*
X56907D01*
Y16841D01*
X56944D01*
Y16828D01*
X56980D01*
Y16816D01*
X57017D01*
Y16804D01*
X57066D01*
Y16791D01*
X57103D01*
Y16779D01*
X57140D01*
Y16767D01*
X57177D01*
Y16755D01*
X57214D01*
Y16742D01*
X57251D01*
Y16730D01*
X57288D01*
Y16718D01*
X57324D01*
Y16705D01*
X57361D01*
Y16693D01*
X57410D01*
Y16681D01*
X57447D01*
Y16669D01*
X57484D01*
Y16656D01*
X57521D01*
Y16644D01*
X57558D01*
Y16632D01*
X57595D01*
Y16619D01*
X57631D01*
Y16607D01*
X57668D01*
Y16595D01*
X57717D01*
Y16583D01*
X57742D01*
Y16570D01*
X57791D01*
Y16558D01*
X57828D01*
Y16546D01*
X57865D01*
Y16533D01*
X57877D01*
Y16521D01*
X57865D01*
Y16509D01*
X57853D01*
Y16497D01*
X57840D01*
Y16484D01*
X57828D01*
Y16472D01*
X57816D01*
Y16460D01*
X57803D01*
Y16447D01*
X57791D01*
Y16435D01*
X57779D01*
Y16423D01*
X57767D01*
Y16411D01*
X57754D01*
Y16398D01*
X57742D01*
Y16386D01*
X57730D01*
Y16374D01*
X57717D01*
Y16361D01*
X57705D01*
Y16349D01*
X57693D01*
Y16337D01*
X57681D01*
Y16325D01*
X57668D01*
Y16312D01*
X57656D01*
Y16300D01*
X57644D01*
Y16288D01*
X57631D01*
Y16276D01*
X57619D01*
Y16263D01*
X57607D01*
Y16251D01*
X57595D01*
Y16239D01*
X57582D01*
Y16226D01*
X57570D01*
Y16214D01*
X57558D01*
Y16202D01*
X57545D01*
Y16190D01*
X57533D01*
Y16177D01*
X57521D01*
Y16165D01*
X57509D01*
Y16153D01*
X57496D01*
Y16140D01*
X57484D01*
Y16128D01*
X57472D01*
Y16116D01*
X57459D01*
Y16104D01*
X57447D01*
Y16091D01*
X57435D01*
Y16079D01*
X57423D01*
Y16067D01*
X57410D01*
Y16054D01*
X57398D01*
Y16042D01*
X57386D01*
Y16030D01*
X57374D01*
Y16018D01*
X57361D01*
Y16005D01*
X57349D01*
Y15993D01*
X57337D01*
Y15981D01*
X57324D01*
Y15968D01*
X57312D01*
Y15956D01*
X57300D01*
Y15944D01*
X57288D01*
Y15932D01*
X57275D01*
Y15919D01*
X57263D01*
Y15907D01*
X57251D01*
Y15895D01*
X57238D01*
Y15882D01*
X57226D01*
Y15870D01*
X57214D01*
Y15858D01*
X57202D01*
Y15846D01*
X57189D01*
Y15833D01*
X57177D01*
Y15821D01*
X57165D01*
Y15809D01*
X57152D01*
Y15796D01*
X57140D01*
Y15784D01*
X57128D01*
Y15772D01*
X57116D01*
Y15760D01*
X57103D01*
Y15747D01*
X57091D01*
Y15735D01*
X57079D01*
Y15723D01*
X57066D01*
Y15710D01*
X57054D01*
Y15698D01*
X57042D01*
Y15686D01*
X57030D01*
Y15674D01*
X57017D01*
Y15661D01*
X57005D01*
Y15649D01*
X56993D01*
Y15637D01*
X56980D01*
Y15625D01*
X56968D01*
Y15612D01*
X56956D01*
Y15600D01*
X56944D01*
Y15588D01*
X56931D01*
Y15575D01*
X56919D01*
Y15563D01*
X56907D01*
Y15551D01*
X56894D01*
Y15539D01*
X56882D01*
Y15526D01*
X56870D01*
Y15514D01*
X56858D01*
Y15502D01*
X56845D01*
Y15489D01*
X56833D01*
Y15477D01*
X56821D01*
Y15465D01*
X56808D01*
Y15453D01*
X56796D01*
Y15440D01*
X56784D01*
Y15428D01*
X56772D01*
Y15416D01*
X56759D01*
Y15403D01*
X56747D01*
Y15391D01*
X56735D01*
Y15379D01*
X56722D01*
Y15367D01*
X56710D01*
Y15354D01*
X56698D01*
Y15342D01*
X56686D01*
Y15330D01*
X56673D01*
Y15317D01*
X56661D01*
Y15305D01*
X56649D01*
Y15293D01*
X56637D01*
Y15281D01*
X56624D01*
Y15268D01*
X56612D01*
Y15256D01*
X56600D01*
Y15244D01*
X56587D01*
Y15231D01*
X56575D01*
Y15219D01*
X56563D01*
Y15207D01*
X56551D01*
Y15195D01*
X56538D01*
Y15182D01*
X56526D01*
Y15170D01*
X56514D01*
Y15158D01*
X56501D01*
Y15145D01*
X56489D01*
Y15133D01*
X56477D01*
Y15121D01*
X56465D01*
Y15109D01*
X56452D01*
Y15096D01*
X56440D01*
Y15084D01*
X56428D01*
Y15072D01*
X56415D01*
Y15059D01*
X56403D01*
Y15047D01*
X56391D01*
Y15035D01*
X56379D01*
Y15023D01*
X56366D01*
Y15010D01*
X56354D01*
Y14998D01*
X56342D01*
Y14986D01*
X56329D01*
Y14974D01*
X56317D01*
Y14961D01*
X56305D01*
Y14949D01*
X56293D01*
Y14937D01*
X56280D01*
Y14924D01*
X56268D01*
Y14912D01*
X56256D01*
Y14900D01*
X56243D01*
Y14888D01*
X56231D01*
Y14875D01*
X56219D01*
Y14863D01*
X56207D01*
Y14851D01*
X56194D01*
Y14838D01*
X56182D01*
Y14826D01*
X56170D01*
Y14814D01*
X56157D01*
Y14802D01*
X56145D01*
Y14789D01*
X56133D01*
Y14777D01*
X56121D01*
Y14765D01*
X56108D01*
Y14752D01*
X56096D01*
Y14740D01*
X56084D01*
Y14728D01*
X56071D01*
Y14716D01*
X56059D01*
Y14703D01*
X56047D01*
Y14691D01*
X56035D01*
Y14679D01*
X56022D01*
Y14666D01*
X56010D01*
Y14654D01*
X55998D01*
Y14642D01*
X55986D01*
Y14630D01*
X55973D01*
Y14617D01*
X55961D01*
Y14605D01*
X55949D01*
Y14593D01*
X55936D01*
Y14580D01*
X55924D01*
Y14568D01*
X55912D01*
Y14556D01*
X55900D01*
Y14544D01*
X55887D01*
Y14531D01*
X55875D01*
Y14519D01*
X55863D01*
Y14507D01*
X55850D01*
Y14494D01*
X55838D01*
Y14482D01*
X55826D01*
Y14470D01*
X55814D01*
Y14458D01*
X55801D01*
Y14445D01*
X55789D01*
Y14433D01*
X55777D01*
Y14421D01*
X55764D01*
Y14408D01*
X55752D01*
Y14396D01*
X55740D01*
Y14384D01*
X55728D01*
Y14372D01*
X55715D01*
Y14359D01*
X55703D01*
Y14347D01*
X55691D01*
Y14335D01*
X55678D01*
Y14322D01*
X55666D01*
Y14310D01*
X55654D01*
Y14298D01*
X55642D01*
Y14286D01*
X55629D01*
Y14273D01*
X55617D01*
Y14261D01*
X55605D01*
Y14249D01*
X55592D01*
Y14236D01*
X55580D01*
Y14224D01*
X55568D01*
Y14212D01*
X55556D01*
Y14200D01*
X55543D01*
Y14187D01*
X55531D01*
Y14175D01*
X55519D01*
Y14163D01*
X55506D01*
Y14151D01*
X55494D01*
Y14138D01*
X55482D01*
Y14126D01*
X55470D01*
Y14114D01*
X55457D01*
Y14101D01*
X55445D01*
Y14089D01*
X55433D01*
Y14077D01*
X55420D01*
Y14065D01*
X55408D01*
Y14052D01*
X55396D01*
Y14040D01*
X55384D01*
Y14028D01*
X55371D01*
Y14015D01*
X55359D01*
Y14003D01*
X55347D01*
Y13991D01*
X55334D01*
Y13979D01*
X55322D01*
Y13966D01*
X55310D01*
Y13954D01*
X55298D01*
Y13942D01*
X55285D01*
Y13929D01*
X55273D01*
Y13917D01*
X55261D01*
Y13905D01*
X55249D01*
Y13893D01*
X55236D01*
Y13880D01*
X55224D01*
Y13868D01*
X55212D01*
Y13856D01*
X55199D01*
Y13843D01*
X55187D01*
Y13831D01*
X55175D01*
Y13819D01*
X55163D01*
Y13794D01*
X58418D01*
Y13807D01*
X58430D01*
Y15158D01*
X58442D01*
Y15170D01*
X58958D01*
Y15158D01*
X58970D01*
Y15145D01*
X58983D01*
Y13266D01*
X58970D01*
Y13254D01*
X49402D01*
Y14888D01*
X49954D01*
Y13794D01*
X53504D01*
Y13807D01*
X53517D01*
Y13819D01*
X53529D01*
Y13831D01*
X53541D01*
Y13843D01*
X53553D01*
Y13856D01*
X53566D01*
Y13868D01*
X53578D01*
Y13880D01*
X53590D01*
Y13893D01*
X53603D01*
Y13905D01*
X53615D01*
Y13917D01*
X53627D01*
Y13942D01*
X53639D01*
Y13954D01*
X53652D01*
Y13966D01*
X53664D01*
Y13979D01*
X53676D01*
Y13991D01*
X53689D01*
Y14003D01*
X53701D01*
Y14015D01*
X53713D01*
Y14028D01*
X53725D01*
Y14040D01*
X53738D01*
Y14065D01*
X53750D01*
Y14077D01*
X53762D01*
Y14089D01*
X53775D01*
Y14101D01*
X53787D01*
Y14114D01*
X53799D01*
Y14126D01*
X53811D01*
Y14138D01*
X53824D01*
Y14151D01*
X53836D01*
Y14163D01*
X53848D01*
Y14175D01*
X53861D01*
Y14200D01*
X53873D01*
Y14212D01*
X53885D01*
Y14224D01*
X53897D01*
Y14236D01*
X53910D01*
Y14249D01*
X53922D01*
Y14261D01*
X53934D01*
Y14273D01*
X53946D01*
Y14286D01*
X53959D01*
Y14298D01*
X53971D01*
Y14310D01*
X53983D01*
Y14322D01*
X53996D01*
Y14347D01*
X54008D01*
Y14359D01*
X54020D01*
Y14372D01*
X54032D01*
Y14384D01*
X54045D01*
Y14396D01*
X54057D01*
Y14408D01*
X54069D01*
Y14421D01*
X54082D01*
Y14433D01*
X54094D01*
Y14445D01*
X54106D01*
Y14470D01*
X54118D01*
Y14482D01*
X54131D01*
Y14494D01*
X54143D01*
Y14507D01*
X54155D01*
Y14519D01*
X54168D01*
Y14531D01*
X54180D01*
Y14544D01*
X54192D01*
Y14556D01*
X54204D01*
Y14568D01*
X54217D01*
Y14580D01*
X54229D01*
Y14605D01*
X54241D01*
Y14617D01*
X54254D01*
Y14630D01*
X54266D01*
Y14642D01*
X54278D01*
Y14654D01*
X54290D01*
Y14666D01*
X54303D01*
Y14679D01*
X54315D01*
Y14691D01*
X54327D01*
Y14703D01*
X54340D01*
Y14716D01*
X54352D01*
Y14740D01*
X54364D01*
Y14752D01*
X54376D01*
Y14765D01*
X54389D01*
Y14777D01*
X54401D01*
Y14789D01*
X54413D01*
Y14802D01*
X54426D01*
Y14814D01*
X54438D01*
Y14826D01*
X54450D01*
Y14838D01*
X54462D01*
Y14851D01*
X54475D01*
Y14875D01*
X54487D01*
Y14888D01*
X54499D01*
Y14900D01*
X54512D01*
Y14912D01*
X54524D01*
Y14924D01*
X54536D01*
Y14937D01*
X54548D01*
Y14949D01*
X54561D01*
Y14961D01*
X54573D01*
Y14974D01*
X54585D01*
Y14986D01*
X54597D01*
Y14998D01*
X54610D01*
Y15023D01*
X54622D01*
Y15035D01*
X54634D01*
Y15047D01*
X54647D01*
Y15059D01*
X54659D01*
Y15072D01*
X54671D01*
Y15084D01*
X54683D01*
Y15096D01*
X54696D01*
Y15109D01*
X54708D01*
Y15121D01*
X54720D01*
Y15145D01*
X54733D01*
Y15158D01*
X54745D01*
Y15170D01*
X54757D01*
Y15182D01*
X54769D01*
Y15195D01*
X54782D01*
Y15207D01*
X54794D01*
Y15219D01*
X54806D01*
Y15231D01*
X54819D01*
Y15244D01*
X54831D01*
Y15256D01*
X54843D01*
Y15281D01*
X54855D01*
Y15293D01*
X54868D01*
Y15305D01*
X54880D01*
Y15317D01*
X54892D01*
Y15330D01*
X54905D01*
Y15342D01*
X54917D01*
Y15354D01*
X54929D01*
Y15367D01*
X54941D01*
Y15379D01*
X54954D01*
Y15391D01*
X54966D01*
Y15403D01*
X54978D01*
Y15428D01*
X54991D01*
Y15440D01*
X55003D01*
Y15453D01*
X55015D01*
Y15465D01*
X55027D01*
Y15477D01*
X55040D01*
Y15489D01*
X55052D01*
Y15502D01*
X55064D01*
Y15514D01*
X55077D01*
Y15526D01*
X55089D01*
Y15551D01*
X55101D01*
Y15563D01*
X55113D01*
Y15575D01*
X55126D01*
Y15588D01*
X55138D01*
Y15600D01*
X55150D01*
Y15612D01*
X55163D01*
Y15625D01*
X55175D01*
Y15637D01*
X55187D01*
Y15649D01*
X55199D01*
Y15661D01*
X55212D01*
Y15686D01*
X55224D01*
Y15698D01*
X55236D01*
Y15710D01*
X55249D01*
Y15723D01*
X55261D01*
Y15735D01*
X55273D01*
Y15747D01*
X55285D01*
Y15760D01*
X55298D01*
Y15772D01*
X55310D01*
Y15784D01*
X55322D01*
Y15796D01*
X55334D01*
Y15821D01*
X55347D01*
Y15833D01*
X55359D01*
Y15846D01*
X55371D01*
Y15858D01*
X55384D01*
Y15870D01*
X55396D01*
Y15882D01*
X55408D01*
Y15895D01*
X55420D01*
Y15907D01*
X55433D01*
Y15919D01*
X55445D01*
Y15932D01*
X55457D01*
Y15956D01*
X55470D01*
Y15968D01*
X55482D01*
Y15981D01*
X55494D01*
Y15993D01*
X55506D01*
Y16005D01*
X55519D01*
Y16018D01*
X55531D01*
Y16030D01*
X55543D01*
Y16042D01*
X55556D01*
Y16054D01*
X55568D01*
Y16067D01*
X55580D01*
Y16079D01*
X55592D01*
Y16104D01*
X55605D01*
Y16116D01*
X55617D01*
Y16128D01*
X55629D01*
Y16140D01*
X55642D01*
Y16153D01*
X55654D01*
Y16165D01*
X55666D01*
Y16177D01*
X55678D01*
Y16190D01*
X55691D01*
Y16202D01*
X55703D01*
Y16226D01*
X55715D01*
Y16239D01*
X55728D01*
Y16251D01*
X55740D01*
Y16263D01*
X55752D01*
Y16276D01*
X55764D01*
Y16288D01*
X55777D01*
Y16300D01*
X55789D01*
Y16312D01*
X55801D01*
Y16325D01*
X55814D01*
Y16337D01*
X55826D01*
Y16361D01*
X55838D01*
Y16374D01*
X55850D01*
Y16386D01*
X55863D01*
Y16398D01*
X55875D01*
Y16411D01*
X55887D01*
Y16423D01*
X55900D01*
Y16435D01*
X55912D01*
Y16447D01*
X55924D01*
Y16460D01*
X55936D01*
Y16472D01*
X55949D01*
Y16484D01*
X55961D01*
Y16509D01*
X55973D01*
Y16521D01*
X55986D01*
Y16533D01*
X55998D01*
Y16546D01*
X56010D01*
Y16558D01*
X56022D01*
Y16570D01*
X56035D01*
Y16583D01*
X56047D01*
Y16595D01*
X56059D01*
Y16607D01*
X56071D01*
Y16632D01*
X56084D01*
Y16644D01*
X56096D01*
Y16656D01*
X56108D01*
Y16669D01*
X56121D01*
Y16681D01*
X56133D01*
Y16693D01*
X56145D01*
Y16705D01*
X56157D01*
Y16718D01*
X56170D01*
Y16730D01*
X56182D01*
Y16742D01*
X56194D01*
Y16767D01*
X56207D01*
Y16779D01*
X56219D01*
Y16791D01*
X56231D01*
Y16816D01*
X56194D01*
Y16828D01*
X56145D01*
Y16841D01*
X56108D01*
Y16853D01*
X56071D01*
Y16865D01*
X56035D01*
Y16877D01*
X55998D01*
Y16890D01*
X55961D01*
Y16902D01*
X55924D01*
Y16914D01*
X55887D01*
Y16927D01*
X55838D01*
Y16939D01*
X55801D01*
Y16951D01*
X55764D01*
Y16963D01*
X55728D01*
Y16976D01*
X55691D01*
Y16988D01*
X55654D01*
Y17000D01*
X55605D01*
Y17013D01*
X55580D01*
Y17025D01*
X55531D01*
Y17037D01*
X55494D01*
Y17049D01*
X55457D01*
Y17062D01*
X55420D01*
Y17074D01*
X55384D01*
Y17086D01*
X55347D01*
Y17098D01*
X55298D01*
Y17111D01*
X55261D01*
Y17123D01*
X55224D01*
Y17135D01*
X55187D01*
Y17148D01*
X55150D01*
Y17160D01*
X55113D01*
Y17172D01*
X55077D01*
Y17184D01*
X55027D01*
Y17197D01*
X54991D01*
Y17209D01*
X54954D01*
Y17221D01*
X54917D01*
Y17234D01*
X54880D01*
Y17246D01*
X54843D01*
Y17258D01*
X54806D01*
Y17270D01*
X54769D01*
Y17283D01*
X54720D01*
Y17295D01*
X54683D01*
Y17307D01*
X54647D01*
Y17320D01*
X54610D01*
Y17332D01*
X54573D01*
Y17344D01*
X54536D01*
Y17356D01*
X54487D01*
Y17369D01*
X54450D01*
Y17381D01*
X54413D01*
Y17393D01*
X54376D01*
Y17406D01*
X54340D01*
Y17418D01*
X54303D01*
Y17430D01*
X54266D01*
Y17442D01*
X54229D01*
Y17455D01*
X54180D01*
Y17467D01*
X54143D01*
Y17479D01*
X54106D01*
Y17492D01*
X54069D01*
Y17504D01*
X54032D01*
Y17516D01*
X53996D01*
Y17528D01*
X53959D01*
Y17541D01*
X53910D01*
Y17553D01*
X53873D01*
Y17565D01*
X53836D01*
Y17578D01*
X53799D01*
Y17590D01*
X53762D01*
Y17602D01*
X53725D01*
Y17614D01*
X53676D01*
Y17627D01*
X53639D01*
Y17639D01*
X53603D01*
Y17651D01*
X53566D01*
Y17664D01*
X53529D01*
Y17676D01*
X53492D01*
Y17688D01*
X53455D01*
Y17700D01*
X53418D01*
Y17713D01*
X53369D01*
Y17725D01*
X53332D01*
Y17737D01*
X53295D01*
Y17750D01*
X53259D01*
Y17762D01*
X53222D01*
Y17774D01*
X53185D01*
Y17786D01*
X53148D01*
Y17799D01*
X53111D01*
Y17811D01*
X53062D01*
Y17823D01*
X53025D01*
Y17835D01*
X52988D01*
Y17848D01*
X52952D01*
Y17860D01*
X52915D01*
Y17872D01*
X52878D01*
Y17885D01*
X52829D01*
Y17897D01*
X52792D01*
Y17909D01*
X52755D01*
Y17921D01*
X52718D01*
Y17934D01*
X52681D01*
Y17946D01*
X52644D01*
Y17958D01*
X52608D01*
Y17971D01*
X52558D01*
Y17983D01*
X52522D01*
Y17995D01*
X52485D01*
Y18007D01*
X52448D01*
Y18020D01*
X52411D01*
Y18032D01*
X52374D01*
Y18044D01*
X52337D01*
Y18057D01*
X52288D01*
Y18069D01*
X52251D01*
Y18081D01*
X52215D01*
Y18093D01*
X52178D01*
Y18106D01*
X52141D01*
Y18118D01*
X52104D01*
Y18130D01*
X52067D01*
Y18143D01*
X52018D01*
Y18155D01*
X51981D01*
Y18167D01*
X51944D01*
Y18179D01*
X51907D01*
Y18192D01*
X51871D01*
Y18204D01*
X51834D01*
Y18216D01*
X51797D01*
Y18229D01*
X51760D01*
Y18241D01*
X51711D01*
Y18253D01*
X51674D01*
Y18265D01*
X51637D01*
Y18278D01*
X51600D01*
Y18290D01*
X51564D01*
Y18302D01*
X51527D01*
Y18315D01*
X51478D01*
Y18327D01*
X51441D01*
Y18339D01*
X51404D01*
Y18351D01*
X51367D01*
Y18364D01*
X51330D01*
Y18376D01*
X51293D01*
Y18388D01*
X51256D01*
Y18401D01*
X51207D01*
Y18413D01*
X51170D01*
Y18425D01*
X51134D01*
Y18437D01*
X51097D01*
Y18450D01*
X51060D01*
Y18462D01*
X51023D01*
Y18474D01*
X50986D01*
Y18487D01*
X50949D01*
Y18499D01*
X50900D01*
Y18511D01*
X50863D01*
Y18523D01*
X50827D01*
Y18536D01*
X50790D01*
Y18548D01*
X50753D01*
Y18560D01*
X50716D01*
Y18572D01*
X50667D01*
Y18585D01*
X50630D01*
Y18597D01*
X50593D01*
Y18609D01*
X50556D01*
Y18622D01*
X50519D01*
Y18634D01*
X50483D01*
Y18646D01*
X50446D01*
Y18658D01*
X50409D01*
Y18671D01*
X50360D01*
Y18683D01*
X50323D01*
Y18695D01*
X50286D01*
Y18708D01*
X50249D01*
Y18720D01*
X50225D01*
Y18179D01*
X50212D01*
Y18167D01*
X50200D01*
Y18179D01*
X49672D01*
Y20354D01*
X49684D01*
Y20366D01*
X50225D01*
Y18990D01*
D02*
G37*
G36*
X58970Y12689D02*
X58983D01*
Y10809D01*
X58970D01*
Y10785D01*
X58442D01*
Y10797D01*
X58430D01*
Y12148D01*
X58418D01*
Y12161D01*
X57914D01*
Y12148D01*
X57902D01*
Y12161D01*
X57840D01*
Y12148D01*
X57828D01*
Y12161D01*
X56280D01*
Y12148D01*
X56268D01*
Y12161D01*
X56182D01*
Y12148D01*
X56170D01*
Y12161D01*
X55224D01*
Y12148D01*
X55199D01*
Y12161D01*
X55163D01*
Y12136D01*
X55175D01*
Y12124D01*
X55187D01*
Y12111D01*
X55199D01*
Y12099D01*
X55212D01*
Y12087D01*
X55224D01*
Y12075D01*
X55236D01*
Y12062D01*
X55249D01*
Y12050D01*
X55261D01*
Y12038D01*
X55273D01*
Y12026D01*
X55285D01*
Y12013D01*
X55298D01*
Y12001D01*
X55310D01*
Y11989D01*
X55322D01*
Y11976D01*
X55334D01*
Y11964D01*
X55347D01*
Y11952D01*
X55359D01*
Y11940D01*
X55371D01*
Y11927D01*
X55384D01*
Y11915D01*
X55396D01*
Y11903D01*
X55408D01*
Y11890D01*
X55420D01*
Y11878D01*
X55433D01*
Y11866D01*
X55445D01*
Y11854D01*
X55457D01*
Y11841D01*
X55470D01*
Y11829D01*
X55482D01*
Y11817D01*
X55494D01*
Y11804D01*
X55506D01*
Y11792D01*
X55519D01*
Y11780D01*
X55531D01*
Y11768D01*
X55543D01*
Y11755D01*
X55556D01*
Y11743D01*
X55568D01*
Y11731D01*
X55580D01*
Y11718D01*
X55592D01*
Y11706D01*
X55605D01*
Y11694D01*
X55617D01*
Y11682D01*
X55629D01*
Y11669D01*
X55642D01*
Y11657D01*
X55654D01*
Y11645D01*
X55666D01*
Y11632D01*
X55678D01*
Y11620D01*
X55691D01*
Y11608D01*
X55703D01*
Y11596D01*
X55715D01*
Y11583D01*
X55728D01*
Y11571D01*
X55740D01*
Y11559D01*
X55752D01*
Y11546D01*
X55764D01*
Y11534D01*
X55777D01*
Y11522D01*
X55789D01*
Y11510D01*
X55801D01*
Y11497D01*
X55814D01*
Y11485D01*
X55826D01*
Y11473D01*
X55838D01*
Y11460D01*
X55850D01*
Y11448D01*
X55863D01*
Y11436D01*
X55875D01*
Y11424D01*
X55887D01*
Y11411D01*
X55900D01*
Y11399D01*
X55912D01*
Y11387D01*
X55924D01*
Y11375D01*
X55936D01*
Y11362D01*
X55949D01*
Y11350D01*
X55961D01*
Y11338D01*
X55973D01*
Y11325D01*
X55986D01*
Y11313D01*
X55998D01*
Y11301D01*
X56010D01*
Y11289D01*
X56022D01*
Y11276D01*
X56035D01*
Y11264D01*
X56047D01*
Y11252D01*
X56059D01*
Y11239D01*
X56071D01*
Y11227D01*
X56084D01*
Y11215D01*
X56096D01*
Y11203D01*
X56108D01*
Y11190D01*
X56121D01*
Y11178D01*
X56133D01*
Y11166D01*
X56145D01*
Y11153D01*
X56157D01*
Y11141D01*
X56170D01*
Y11129D01*
X56182D01*
Y11117D01*
X56194D01*
Y11104D01*
X56207D01*
Y11092D01*
X56219D01*
Y11080D01*
X56231D01*
Y11067D01*
X56243D01*
Y11055D01*
X56256D01*
Y11043D01*
X56268D01*
Y11031D01*
X56280D01*
Y11018D01*
X56293D01*
Y11006D01*
X56305D01*
Y10994D01*
X56317D01*
Y10981D01*
X56329D01*
Y10969D01*
X56342D01*
Y10957D01*
X56354D01*
Y10945D01*
X56366D01*
Y10932D01*
X56379D01*
Y10920D01*
X56391D01*
Y10908D01*
X56403D01*
Y10895D01*
X56415D01*
Y10883D01*
X56428D01*
Y10871D01*
X56440D01*
Y10859D01*
X56452D01*
Y10846D01*
X56465D01*
Y10834D01*
X56477D01*
Y10822D01*
X56489D01*
Y10809D01*
X56501D01*
Y10797D01*
X56514D01*
Y10785D01*
X56526D01*
Y10773D01*
X56538D01*
Y10760D01*
X56551D01*
Y10748D01*
X56563D01*
Y10736D01*
X56575D01*
Y10723D01*
X56587D01*
Y10711D01*
X56600D01*
Y10699D01*
X56612D01*
Y10687D01*
X56624D01*
Y10674D01*
X56637D01*
Y10662D01*
X56649D01*
Y10650D01*
X56661D01*
Y10638D01*
X56673D01*
Y10625D01*
X56686D01*
Y10613D01*
X56698D01*
Y10601D01*
X56710D01*
Y10588D01*
X56722D01*
Y10576D01*
X56735D01*
Y10564D01*
X56747D01*
Y10552D01*
X56759D01*
Y10539D01*
X56772D01*
Y10527D01*
X56784D01*
Y10515D01*
X56796D01*
Y10502D01*
X56808D01*
Y10490D01*
X56821D01*
Y10478D01*
X56833D01*
Y10466D01*
X56845D01*
Y10453D01*
X56858D01*
Y10441D01*
X56870D01*
Y10429D01*
X56882D01*
Y10416D01*
X56894D01*
Y10404D01*
X56907D01*
Y10392D01*
X56919D01*
Y10380D01*
X56931D01*
Y10367D01*
X56944D01*
Y10355D01*
X56956D01*
Y10343D01*
X56968D01*
Y10330D01*
X56980D01*
Y10318D01*
X56993D01*
Y10306D01*
X57005D01*
Y10294D01*
X57017D01*
Y10281D01*
X57030D01*
Y10269D01*
X57042D01*
Y10257D01*
X57054D01*
Y10244D01*
X57066D01*
Y10232D01*
X57079D01*
Y10220D01*
X57091D01*
Y10208D01*
X57103D01*
Y10195D01*
X57116D01*
Y10183D01*
X57128D01*
Y10171D01*
X57140D01*
Y10158D01*
X57152D01*
Y10146D01*
X57165D01*
Y10134D01*
X57177D01*
Y10122D01*
X57189D01*
Y10109D01*
X57202D01*
Y10097D01*
X57214D01*
Y10085D01*
X57226D01*
Y10072D01*
X57238D01*
Y10060D01*
X57251D01*
Y10048D01*
X57263D01*
Y10036D01*
X57275D01*
Y10023D01*
X57288D01*
Y10011D01*
X57300D01*
Y9999D01*
X57312D01*
Y9986D01*
X57324D01*
Y9974D01*
X57337D01*
Y9962D01*
X57349D01*
Y9950D01*
X57361D01*
Y9937D01*
X57374D01*
Y9925D01*
X57386D01*
Y9913D01*
X57398D01*
Y9901D01*
X57410D01*
Y9888D01*
X57423D01*
Y9876D01*
X57435D01*
Y9864D01*
X57447D01*
Y9851D01*
X57459D01*
Y9839D01*
X57472D01*
Y9827D01*
X57484D01*
Y9815D01*
X57496D01*
Y9802D01*
X57509D01*
Y9790D01*
X57521D01*
Y9778D01*
X57533D01*
Y9765D01*
X57545D01*
Y9753D01*
X57558D01*
Y9741D01*
X57570D01*
Y9729D01*
X57582D01*
Y9716D01*
X57595D01*
Y9704D01*
X57607D01*
Y9692D01*
X57619D01*
Y9679D01*
X57631D01*
Y9667D01*
X57644D01*
Y9655D01*
X57656D01*
Y9643D01*
X57668D01*
Y9630D01*
X57681D01*
Y9618D01*
X57693D01*
Y9606D01*
X57705D01*
Y9593D01*
X57717D01*
Y9581D01*
X57730D01*
Y9569D01*
X57742D01*
Y9557D01*
X57754D01*
Y9544D01*
X57767D01*
Y9532D01*
X57779D01*
Y9520D01*
X57791D01*
Y9507D01*
X57803D01*
Y9495D01*
X57816D01*
Y9483D01*
X57828D01*
Y9471D01*
X57840D01*
Y9458D01*
X57853D01*
Y9446D01*
X57865D01*
Y9434D01*
X57877D01*
Y9421D01*
X57865D01*
Y9409D01*
X57828D01*
Y9397D01*
X57791D01*
Y9385D01*
X57742D01*
Y9372D01*
X57717D01*
Y9360D01*
X57668D01*
Y9348D01*
X57631D01*
Y9335D01*
X57595D01*
Y9323D01*
X57558D01*
Y9311D01*
X57521D01*
Y9299D01*
X57484D01*
Y9286D01*
X57447D01*
Y9274D01*
X57410D01*
Y9262D01*
X57361D01*
Y9250D01*
X57324D01*
Y9237D01*
X57288D01*
Y9225D01*
X57251D01*
Y9213D01*
X57214D01*
Y9200D01*
X57177D01*
Y9188D01*
X57140D01*
Y9176D01*
X57103D01*
Y9164D01*
X57066D01*
Y9151D01*
X57017D01*
Y9139D01*
X56980D01*
Y9127D01*
X56944D01*
Y9114D01*
X56907D01*
Y9102D01*
X56870D01*
Y9090D01*
X56833D01*
Y9078D01*
X56796D01*
Y9065D01*
X56759D01*
Y9053D01*
X56722D01*
Y9041D01*
X56686D01*
Y9028D01*
X56637D01*
Y9016D01*
X56600D01*
Y9004D01*
X56563D01*
Y8992D01*
X56526D01*
Y8979D01*
X56489D01*
Y8967D01*
X56452D01*
Y8955D01*
X56415D01*
Y8942D01*
X56379D01*
Y8930D01*
X56329D01*
Y8918D01*
X56293D01*
Y8906D01*
X56256D01*
Y8893D01*
X56219D01*
Y8881D01*
X56182D01*
Y8869D01*
X56145D01*
Y8856D01*
X56108D01*
Y8844D01*
X56071D01*
Y8832D01*
X56022D01*
Y8820D01*
X55998D01*
Y8807D01*
X55949D01*
Y8795D01*
X55912D01*
Y8783D01*
X55875D01*
Y8770D01*
X55838D01*
Y8758D01*
X55801D01*
Y8746D01*
X55764D01*
Y8734D01*
X55728D01*
Y8721D01*
X55691D01*
Y8709D01*
X55654D01*
Y8697D01*
X55605D01*
Y8684D01*
X55568D01*
Y8672D01*
X55531D01*
Y8660D01*
X55494D01*
Y8648D01*
X55457D01*
Y8635D01*
X55420D01*
Y8623D01*
X55384D01*
Y8611D01*
X55347D01*
Y8598D01*
X55298D01*
Y8586D01*
X55261D01*
Y8574D01*
X55224D01*
Y8562D01*
X55187D01*
Y8549D01*
X55150D01*
Y8537D01*
X55113D01*
Y8525D01*
X55077D01*
Y8513D01*
X55040D01*
Y8500D01*
X55003D01*
Y8488D01*
X54966D01*
Y8476D01*
X54917D01*
Y8463D01*
X54880D01*
Y8451D01*
X54843D01*
Y8439D01*
X54806D01*
Y8427D01*
X54769D01*
Y8414D01*
X54733D01*
Y8402D01*
X54696D01*
Y8390D01*
X54659D01*
Y8377D01*
X54622D01*
Y8365D01*
X54573D01*
Y8353D01*
X54536D01*
Y8341D01*
X54499D01*
Y8328D01*
X54462D01*
Y8316D01*
X54426D01*
Y8304D01*
X54389D01*
Y8291D01*
X54352D01*
Y8279D01*
X54315D01*
Y8267D01*
X54266D01*
Y8255D01*
X54229D01*
Y8242D01*
X54192D01*
Y8230D01*
X54155D01*
Y8218D01*
X54118D01*
Y8205D01*
X54082D01*
Y8193D01*
X54045D01*
Y8181D01*
X54008D01*
Y8169D01*
X53971D01*
Y8156D01*
X53934D01*
Y8144D01*
X53885D01*
Y8132D01*
X53848D01*
Y8119D01*
X53811D01*
Y8107D01*
X53775D01*
Y8095D01*
X53738D01*
Y8083D01*
X53701D01*
Y8070D01*
X53664D01*
Y8058D01*
X53627D01*
Y8046D01*
X53578D01*
Y8033D01*
X53541D01*
Y8021D01*
X53504D01*
Y8009D01*
X53467D01*
Y7997D01*
X53431D01*
Y7984D01*
X53394D01*
Y7972D01*
X53357D01*
Y7960D01*
X53320D01*
Y7947D01*
X53283D01*
Y7935D01*
X53246D01*
Y7923D01*
X53209D01*
Y7911D01*
X53160D01*
Y7898D01*
X53124D01*
Y7886D01*
X53087D01*
Y7874D01*
X53050D01*
Y7861D01*
X53013D01*
Y7849D01*
X52976D01*
Y7837D01*
X52939D01*
Y7825D01*
X52902D01*
Y7812D01*
X52853D01*
Y7800D01*
X52816D01*
Y7788D01*
X52780D01*
Y7776D01*
X52743D01*
Y7763D01*
X52706D01*
Y7751D01*
X52669D01*
Y7739D01*
X52632D01*
Y7726D01*
X52595D01*
Y7714D01*
X52558D01*
Y7702D01*
X52509D01*
Y7690D01*
X52472D01*
Y7677D01*
X52436D01*
Y7665D01*
X52399D01*
Y7653D01*
X52362D01*
Y7640D01*
X52325D01*
Y7628D01*
X52288D01*
Y7616D01*
X52251D01*
Y7604D01*
X52215D01*
Y7591D01*
X52165D01*
Y7579D01*
X52129D01*
Y7567D01*
X52092D01*
Y7554D01*
X52055D01*
Y7542D01*
X52018D01*
Y7530D01*
X51981D01*
Y7518D01*
X51944D01*
Y7505D01*
X51907D01*
Y7493D01*
X51871D01*
Y7481D01*
X51834D01*
Y7468D01*
X51785D01*
Y7456D01*
X51748D01*
Y7444D01*
X51711D01*
Y7432D01*
X51674D01*
Y7419D01*
X51637D01*
Y7407D01*
X51600D01*
Y7395D01*
X51564D01*
Y7382D01*
X51514D01*
Y7370D01*
X51490D01*
Y7358D01*
X51441D01*
Y7346D01*
X51404D01*
Y7333D01*
X51367D01*
Y7321D01*
X51330D01*
Y7309D01*
X51293D01*
Y7296D01*
X51256D01*
Y7284D01*
X51220D01*
Y7272D01*
X51183D01*
Y7260D01*
X51134D01*
Y7247D01*
X51097D01*
Y7235D01*
X51060D01*
Y7223D01*
X51023D01*
Y7210D01*
X50986D01*
Y7198D01*
X50949D01*
Y7186D01*
X50913D01*
Y7174D01*
X50876D01*
Y7161D01*
X50839D01*
Y7149D01*
X50790D01*
Y7137D01*
X50753D01*
Y7124D01*
X50716D01*
Y7112D01*
X50679D01*
Y7100D01*
X50642D01*
Y7088D01*
X50605D01*
Y7075D01*
X50569D01*
Y7063D01*
X50532D01*
Y7051D01*
X50495D01*
Y7039D01*
X50458D01*
Y7026D01*
X50409D01*
Y7014D01*
X50372D01*
Y7002D01*
X50335D01*
Y6989D01*
X50298D01*
Y6977D01*
X50262D01*
Y6965D01*
X50225D01*
Y5589D01*
X49684D01*
Y5601D01*
X49672D01*
Y7776D01*
X50225D01*
Y7235D01*
X50249D01*
Y7247D01*
X50286D01*
Y7260D01*
X50335D01*
Y7272D01*
X50372D01*
Y7284D01*
X50409D01*
Y7296D01*
X50446D01*
Y7309D01*
X50483D01*
Y7321D01*
X50519D01*
Y7333D01*
X50556D01*
Y7346D01*
X50605D01*
Y7358D01*
X50642D01*
Y7370D01*
X50679D01*
Y7382D01*
X50716D01*
Y7395D01*
X50753D01*
Y7407D01*
X50790D01*
Y7419D01*
X50827D01*
Y7432D01*
X50876D01*
Y7444D01*
X50913D01*
Y7456D01*
X50949D01*
Y7468D01*
X50986D01*
Y7481D01*
X51023D01*
Y7493D01*
X51060D01*
Y7505D01*
X51097D01*
Y7518D01*
X51146D01*
Y7530D01*
X51183D01*
Y7542D01*
X51220D01*
Y7554D01*
X51256D01*
Y7567D01*
X51293D01*
Y7579D01*
X51330D01*
Y7591D01*
X51367D01*
Y7604D01*
X51416D01*
Y7616D01*
X51453D01*
Y7628D01*
X51490D01*
Y7640D01*
X51527D01*
Y7653D01*
X51564D01*
Y7665D01*
X51600D01*
Y7677D01*
X51637D01*
Y7690D01*
X51686D01*
Y7702D01*
X51723D01*
Y7714D01*
X51760D01*
Y7726D01*
X51797D01*
Y7739D01*
X51834D01*
Y7751D01*
X51871D01*
Y7763D01*
X51907D01*
Y7776D01*
X51957D01*
Y7788D01*
X51993D01*
Y7800D01*
X52030D01*
Y7812D01*
X52067D01*
Y7825D01*
X52104D01*
Y7837D01*
X52141D01*
Y7849D01*
X52178D01*
Y7861D01*
X52227D01*
Y7874D01*
X52264D01*
Y7886D01*
X52301D01*
Y7898D01*
X52337D01*
Y7911D01*
X52374D01*
Y7923D01*
X52411D01*
Y7935D01*
X52448D01*
Y7947D01*
X52497D01*
Y7960D01*
X52534D01*
Y7972D01*
X52571D01*
Y7984D01*
X52608D01*
Y7997D01*
X52644D01*
Y8009D01*
X52681D01*
Y8021D01*
X52718D01*
Y8033D01*
X52755D01*
Y8046D01*
X52804D01*
Y8058D01*
X52841D01*
Y8070D01*
X52878D01*
Y8083D01*
X52915D01*
Y8095D01*
X52952D01*
Y8107D01*
X52988D01*
Y8119D01*
X53038D01*
Y8132D01*
X53074D01*
Y8144D01*
X53111D01*
Y8156D01*
X53148D01*
Y8169D01*
X53185D01*
Y8181D01*
X53222D01*
Y8193D01*
X53259D01*
Y8205D01*
X53308D01*
Y8218D01*
X53345D01*
Y8230D01*
X53381D01*
Y8242D01*
X53418D01*
Y8255D01*
X53455D01*
Y8267D01*
X53492D01*
Y8279D01*
X53529D01*
Y8291D01*
X53566D01*
Y8304D01*
X53615D01*
Y8316D01*
X53652D01*
Y8328D01*
X53689D01*
Y8341D01*
X53725D01*
Y8353D01*
X53762D01*
Y8365D01*
X53799D01*
Y8377D01*
X53848D01*
Y8390D01*
X53873D01*
Y8402D01*
X53922D01*
Y8414D01*
X53959D01*
Y8427D01*
X53996D01*
Y8439D01*
X54032D01*
Y8451D01*
X54069D01*
Y8463D01*
X54106D01*
Y8476D01*
X54155D01*
Y8488D01*
X54192D01*
Y8500D01*
X54229D01*
Y8513D01*
X54266D01*
Y8525D01*
X54303D01*
Y8537D01*
X54340D01*
Y8549D01*
X54376D01*
Y8562D01*
X54426D01*
Y8574D01*
X54462D01*
Y8586D01*
X54499D01*
Y8598D01*
X54536D01*
Y8611D01*
X54573D01*
Y8623D01*
X54610D01*
Y8635D01*
X54659D01*
Y8648D01*
X54683D01*
Y8660D01*
X54733D01*
Y8672D01*
X54769D01*
Y8684D01*
X54806D01*
Y8697D01*
X54843D01*
Y8709D01*
X54880D01*
Y8721D01*
X54917D01*
Y8734D01*
X54966D01*
Y8746D01*
X55003D01*
Y8758D01*
X55040D01*
Y8770D01*
X55077D01*
Y8783D01*
X55113D01*
Y8795D01*
X55150D01*
Y8807D01*
X55187D01*
Y8820D01*
X55224D01*
Y8832D01*
X55273D01*
Y8844D01*
X55310D01*
Y8856D01*
X55347D01*
Y8869D01*
X55384D01*
Y8881D01*
X55420D01*
Y8893D01*
X55457D01*
Y8906D01*
X55506D01*
Y8918D01*
X55531D01*
Y8930D01*
X55580D01*
Y8942D01*
X55617D01*
Y8955D01*
X55654D01*
Y8967D01*
X55691D01*
Y8979D01*
X55728D01*
Y8992D01*
X55764D01*
Y9004D01*
X55814D01*
Y9016D01*
X55850D01*
Y9028D01*
X55887D01*
Y9041D01*
X55924D01*
Y9053D01*
X55961D01*
Y9065D01*
X55998D01*
Y9078D01*
X56035D01*
Y9090D01*
X56084D01*
Y9102D01*
X56121D01*
Y9114D01*
X56157D01*
Y9127D01*
X56194D01*
Y9139D01*
X56231D01*
Y9164D01*
X56219D01*
Y9176D01*
X56207D01*
Y9188D01*
X56194D01*
Y9200D01*
X56182D01*
Y9225D01*
X56170D01*
Y9237D01*
X56157D01*
Y9250D01*
X56145D01*
Y9262D01*
X56133D01*
Y9274D01*
X56121D01*
Y9286D01*
X56108D01*
Y9299D01*
X56096D01*
Y9311D01*
X56084D01*
Y9323D01*
X56071D01*
Y9335D01*
X56059D01*
Y9360D01*
X56047D01*
Y9372D01*
X56035D01*
Y9385D01*
X56022D01*
Y9397D01*
X56010D01*
Y9409D01*
X55998D01*
Y9421D01*
X55986D01*
Y9434D01*
X55973D01*
Y9446D01*
X55961D01*
Y9458D01*
X55949D01*
Y9483D01*
X55936D01*
Y9495D01*
X55924D01*
Y9507D01*
X55912D01*
Y9520D01*
X55900D01*
Y9532D01*
X55887D01*
Y9544D01*
X55875D01*
Y9557D01*
X55863D01*
Y9569D01*
X55850D01*
Y9581D01*
X55838D01*
Y9593D01*
X55826D01*
Y9606D01*
X55814D01*
Y9630D01*
X55801D01*
Y9643D01*
X55789D01*
Y9655D01*
X55777D01*
Y9667D01*
X55764D01*
Y9679D01*
X55752D01*
Y9692D01*
X55740D01*
Y9704D01*
X55728D01*
Y9716D01*
X55715D01*
Y9729D01*
X55703D01*
Y9741D01*
X55691D01*
Y9765D01*
X55678D01*
Y9778D01*
X55666D01*
Y9790D01*
X55654D01*
Y9802D01*
X55642D01*
Y9815D01*
X55629D01*
Y9827D01*
X55617D01*
Y9839D01*
X55605D01*
Y9851D01*
X55592D01*
Y9864D01*
X55580D01*
Y9876D01*
X55568D01*
Y9901D01*
X55556D01*
Y9913D01*
X55543D01*
Y9925D01*
X55531D01*
Y9937D01*
X55519D01*
Y9950D01*
X55506D01*
Y9962D01*
X55494D01*
Y9974D01*
X55482D01*
Y9986D01*
X55470D01*
Y9999D01*
X55457D01*
Y10011D01*
X55445D01*
Y10036D01*
X55433D01*
Y10048D01*
X55420D01*
Y10060D01*
X55408D01*
Y10072D01*
X55396D01*
Y10085D01*
X55384D01*
Y10097D01*
X55371D01*
Y10109D01*
X55359D01*
Y10122D01*
X55347D01*
Y10134D01*
X55334D01*
Y10158D01*
X55322D01*
Y10171D01*
X55310D01*
Y10183D01*
X55298D01*
Y10195D01*
X55285D01*
Y10208D01*
X55273D01*
Y10220D01*
X55261D01*
Y10232D01*
X55249D01*
Y10244D01*
X55236D01*
Y10257D01*
X55224D01*
Y10269D01*
X55212D01*
Y10281D01*
X55199D01*
Y10306D01*
X55187D01*
Y10318D01*
X55175D01*
Y10330D01*
X55163D01*
Y10343D01*
X55150D01*
Y10355D01*
X55138D01*
Y10367D01*
X55126D01*
Y10380D01*
X55113D01*
Y10392D01*
X55101D01*
Y10404D01*
X55089D01*
Y10416D01*
X55077D01*
Y10441D01*
X55064D01*
Y10453D01*
X55052D01*
Y10466D01*
X55040D01*
Y10478D01*
X55027D01*
Y10490D01*
X55015D01*
Y10502D01*
X55003D01*
Y10515D01*
X54991D01*
Y10527D01*
X54978D01*
Y10539D01*
X54966D01*
Y10564D01*
X54954D01*
Y10576D01*
X54941D01*
Y10588D01*
X54929D01*
Y10601D01*
X54917D01*
Y10613D01*
X54905D01*
Y10625D01*
X54892D01*
Y10638D01*
X54880D01*
Y10650D01*
X54868D01*
Y10662D01*
X54855D01*
Y10674D01*
X54843D01*
Y10687D01*
X54831D01*
Y10711D01*
X54819D01*
Y10723D01*
X54806D01*
Y10736D01*
X54794D01*
Y10748D01*
X54782D01*
Y10760D01*
X54769D01*
Y10773D01*
X54757D01*
Y10785D01*
X54745D01*
Y10797D01*
X54733D01*
Y10809D01*
X54720D01*
Y10822D01*
X54708D01*
Y10846D01*
X54696D01*
Y10859D01*
X54683D01*
Y10871D01*
X54671D01*
Y10883D01*
X54659D01*
Y10895D01*
X54647D01*
Y10908D01*
X54634D01*
Y10920D01*
X54622D01*
Y10932D01*
X54610D01*
Y10945D01*
X54597D01*
Y10969D01*
X54585D01*
Y10981D01*
X54573D01*
Y10994D01*
X54561D01*
Y11006D01*
X54548D01*
Y11018D01*
X54536D01*
Y11031D01*
X54524D01*
Y11043D01*
X54512D01*
Y11055D01*
X54499D01*
Y11067D01*
X54487D01*
Y11080D01*
X54475D01*
Y11092D01*
X54462D01*
Y11117D01*
X54450D01*
Y11129D01*
X54438D01*
Y11141D01*
X54426D01*
Y11153D01*
X54413D01*
Y11166D01*
X54401D01*
Y11178D01*
X54389D01*
Y11190D01*
X54376D01*
Y11203D01*
X54364D01*
Y11215D01*
X54352D01*
Y11227D01*
X54340D01*
Y11252D01*
X54327D01*
Y11264D01*
X54315D01*
Y11276D01*
X54303D01*
Y11289D01*
X54290D01*
Y11301D01*
X54278D01*
Y11313D01*
X54266D01*
Y11325D01*
X54254D01*
Y11338D01*
X54241D01*
Y11350D01*
X54229D01*
Y11375D01*
X54217D01*
Y11387D01*
X54204D01*
Y11399D01*
X54192D01*
Y11411D01*
X54180D01*
Y11424D01*
X54168D01*
Y11436D01*
X54155D01*
Y11448D01*
X54143D01*
Y11460D01*
X54131D01*
Y11473D01*
X54118D01*
Y11485D01*
X54106D01*
Y11497D01*
X54094D01*
Y11522D01*
X54082D01*
Y11534D01*
X54069D01*
Y11546D01*
X54057D01*
Y11559D01*
X54045D01*
Y11571D01*
X54032D01*
Y11583D01*
X54020D01*
Y11596D01*
X54008D01*
Y11608D01*
X53996D01*
Y11620D01*
X53983D01*
Y11645D01*
X53971D01*
Y11657D01*
X53959D01*
Y11669D01*
X53946D01*
Y11682D01*
X53934D01*
Y11694D01*
X53922D01*
Y11706D01*
X53910D01*
Y11718D01*
X53897D01*
Y11731D01*
X53885D01*
Y11743D01*
X53873D01*
Y11755D01*
X53861D01*
Y11780D01*
X53848D01*
Y11792D01*
X53836D01*
Y11804D01*
X53824D01*
Y11817D01*
X53811D01*
Y11829D01*
X53799D01*
Y11841D01*
X53787D01*
Y11854D01*
X53775D01*
Y11866D01*
X53762D01*
Y11878D01*
X53750D01*
Y11890D01*
X53738D01*
Y11903D01*
X53725D01*
Y11927D01*
X53713D01*
Y11940D01*
X53701D01*
Y11952D01*
X53689D01*
Y11964D01*
X53676D01*
Y11976D01*
X53664D01*
Y11989D01*
X53652D01*
Y12001D01*
X53639D01*
Y12013D01*
X53627D01*
Y12026D01*
X53615D01*
Y12050D01*
X53603D01*
Y12062D01*
X53590D01*
Y12075D01*
X53578D01*
Y12087D01*
X53566D01*
Y12099D01*
X53553D01*
Y12111D01*
X53541D01*
Y12124D01*
X53529D01*
Y12136D01*
X53517D01*
Y12148D01*
X53492D01*
Y12161D01*
X53480D01*
Y12148D01*
X53467D01*
Y12161D01*
X49991D01*
Y12148D01*
X49979D01*
Y12161D01*
X49967D01*
Y12148D01*
X49954D01*
Y11067D01*
X49942D01*
Y11055D01*
X49918D01*
Y11067D01*
X49402D01*
Y12701D01*
X58970D01*
Y12689D01*
D02*
G37*
G36*
X49119Y20354D02*
X49131D01*
Y7628D01*
Y7616D01*
Y5601D01*
X49119D01*
Y5589D01*
X48591D01*
Y5601D01*
X48579D01*
Y20354D01*
X48591D01*
Y20366D01*
X49119D01*
Y20354D01*
D02*
G37*
D68*
X9350Y15500D02*
G03*
X9350Y15500I-100J0D01*
G01*
X31350Y63950D02*
G03*
X31350Y63950I-50J0D01*
G01*
Y37950D02*
G03*
X31350Y37950I-50J0D01*
G01*
X54193Y47371D02*
G03*
X54193Y47371I-4000J0D01*
G01*
X9950Y16600D02*
X22050D01*
X9950Y12810D02*
Y16600D01*
Y400D02*
Y8790D01*
Y400D02*
X22050D01*
Y8790D01*
Y12810D02*
Y16600D01*
X40238Y83820D02*
X49363D01*
X58863D02*
X67988D01*
X56213Y86470D02*
X58863Y83820D01*
Y81170D02*
Y86470D01*
X49363Y81170D02*
X58863D01*
X49363D02*
Y86470D01*
X58863D01*
X79216Y91186D02*
Y93726D01*
Y91186D02*
X86836D01*
Y93726D01*
X79216D02*
X86836D01*
X17999Y1400D02*
Y2600D01*
X17400D01*
X17200Y2400D01*
Y2000D01*
X17400Y1800D01*
X17999D01*
X16600Y1400D02*
X16200D01*
X16000Y1600D01*
Y2000D01*
X16200Y2200D01*
X16600D01*
X16800Y2000D01*
Y1600D01*
X16600Y1400D01*
X15600Y2200D02*
Y1400D01*
Y1800D01*
X15400Y2000D01*
X15200Y2200D01*
X15000D01*
X14201Y2400D02*
Y2200D01*
X14401D01*
X14001D01*
X14201D01*
Y1600D01*
X14001Y1400D01*
D70*
X81012Y86604D02*
Y87270D01*
Y86937D01*
X80012D01*
X81012Y87603D02*
X80012Y88270D01*
X81012D02*
X80012Y87603D01*
X82552Y86604D02*
X83552D01*
Y87103D01*
X83385Y87270D01*
X83052D01*
X82885Y87103D01*
Y86604D01*
Y86937D02*
X82552Y87270D01*
X83552Y87603D02*
X82552Y88270D01*
X83552D02*
X82552Y87603D01*
X85899Y86251D02*
X86066Y86084D01*
Y85751D01*
X85899Y85584D01*
X85233D01*
X85066Y85751D01*
Y86084D01*
X85233Y86251D01*
X85566D01*
Y85917D01*
X85066Y86584D02*
X86066D01*
X85066Y87250D01*
X86066D01*
Y87584D02*
X85066D01*
Y88083D01*
X85233Y88250D01*
X85899D01*
X86066Y88083D01*
Y87584D01*
X65749Y86633D02*
X65916Y86800D01*
X66249D01*
X66416Y86633D01*
Y85967D01*
X66249Y85800D01*
X65916D01*
X65749Y85967D01*
Y86300D01*
X66083D01*
X65416Y85800D02*
Y86800D01*
X64750Y85800D01*
Y86800D01*
X64416D02*
Y85800D01*
X63917D01*
X63750Y85967D01*
Y86633D01*
X63917Y86800D01*
X64416D01*
X62250Y86300D02*
X61584D01*
X61917Y86633D02*
Y85967D01*
X60584Y86800D02*
X61250D01*
Y86300D01*
X60917Y86467D01*
X60750D01*
X60584Y86300D01*
Y85967D01*
X60750Y85800D01*
X61084D01*
X61250Y85967D01*
X60251Y86800D02*
Y86133D01*
X59917Y85800D01*
X59584Y86133D01*
Y86800D01*
D72*
X90075Y6749D02*
G03*
X90075Y6749I-99J0D01*
G01*
X68270Y76832D02*
G03*
X68270Y73536I100J-1648D01*
G01*
X25591Y33051D02*
G03*
X20891Y33051I-2350J0D01*
G01*
Y26651D02*
G03*
X25591Y26651I2350J-0D01*
G01*
X29464Y17907D02*
X37084D01*
X29464Y22987D02*
X37084D01*
Y17907D02*
Y22987D01*
X29464Y17907D02*
Y22987D01*
X46000Y57500D02*
X60000D01*
X46000Y68500D02*
X60000D01*
Y57500D02*
Y68500D01*
X46000Y57500D02*
Y68500D01*
X1016Y29337D02*
X6096D01*
X1016Y36957D02*
X6096D01*
Y29337D02*
Y36957D01*
X1016Y29337D02*
Y36957D01*
X83171Y997D02*
X87771D01*
X82476Y2992D02*
Y4992D01*
X88466Y2992D02*
Y4992D01*
X83171Y6987D02*
X87771D01*
X71097Y8396D02*
Y79996D01*
X96797Y8396D02*
Y79996D01*
X71097D02*
X96797D01*
X71097Y8396D02*
X96797D01*
X68370Y70184D02*
Y73436D01*
X68270Y73536D02*
X68370Y73436D01*
Y76932D02*
Y80184D01*
X68270Y76832D02*
X68370Y76932D01*
X37690Y70184D02*
Y80184D01*
X68370D01*
X37690Y70184D02*
X68370D01*
X38608Y95321D02*
X48768D01*
X38608Y87321D02*
X48768D01*
Y95321D01*
X38608Y87321D02*
Y95321D01*
X53500Y23000D02*
Y35000D01*
X62000Y44196D02*
X72898D01*
X63000Y86241D02*
Y87376D01*
Y95631D01*
X73800Y87321D02*
Y95321D01*
X52800Y87321D02*
X73800D01*
X52800Y95321D02*
X73800D01*
X52800Y87321D02*
Y95321D01*
X20891Y26651D02*
Y33051D01*
X25591Y26651D02*
Y33051D01*
X31969Y34941D02*
X30769Y35741D01*
X31969D02*
X30769Y34941D01*
Y36941D02*
Y36141D01*
X31569Y36941D01*
X31769D01*
X31969Y36741D01*
Y36341D01*
X31769Y36141D01*
X36611Y93361D02*
X37811D01*
Y93961D01*
X37611Y94161D01*
X37211D01*
X37011Y93961D01*
Y93361D01*
X37811Y95361D02*
Y94561D01*
X37211D01*
X37411Y94961D01*
Y95161D01*
X37211Y95361D01*
X36811D01*
X36611Y95161D01*
Y94761D01*
X36811Y94561D01*
X74171Y93234D02*
X75371D01*
Y93834D01*
X75171Y94034D01*
X74771D01*
X74571Y93834D01*
Y93234D01*
X74171Y95034D02*
X75371D01*
X74771Y94434D01*
Y95234D01*
X37176Y78121D02*
X36176D01*
X35976Y78321D01*
Y78721D01*
X36176Y78921D01*
X37176D01*
Y79321D02*
Y80121D01*
X36976D01*
X36176Y79321D01*
X35976D01*
X96539Y81731D02*
X96739Y81531D01*
Y81132D01*
X96539Y80932D01*
X96339D01*
X96139Y81132D01*
Y81531D01*
X95939Y81731D01*
X95739D01*
X95539Y81531D01*
Y81132D01*
X95739Y80932D01*
X96739Y82931D02*
Y82131D01*
X95539D01*
Y82931D01*
X96139Y82131D02*
Y82531D01*
X96539Y84131D02*
X96739Y83931D01*
Y83531D01*
X96539Y83331D01*
X95739D01*
X95539Y83531D01*
Y83931D01*
X95739Y84131D01*
X96139D01*
Y83731D01*
X95539Y84530D02*
Y84930D01*
Y84730D01*
X96739D01*
X96539Y84530D01*
X9744Y89297D02*
X8544Y90097D01*
X9744D02*
X8544Y89297D01*
X9544Y90497D02*
X9744Y90697D01*
Y91097D01*
X9544Y91297D01*
X9344D01*
X9144Y91097D01*
Y90897D01*
Y91097D01*
X8944Y91297D01*
X8744D01*
X8544Y91097D01*
Y90697D01*
X8744Y90497D01*
X41367Y33201D02*
Y32401D01*
X40767D01*
Y32801D01*
Y32401D01*
X40167D01*
Y34401D02*
Y33601D01*
X40967Y34401D01*
X41167D01*
X41367Y34201D01*
Y33801D01*
X41167Y33601D01*
X88395Y92599D02*
X89595D01*
Y93199D01*
X89395Y93399D01*
X88995D01*
X88795Y93199D01*
Y92599D01*
X89395Y93799D02*
X89595Y93999D01*
Y94399D01*
X89395Y94599D01*
X89195D01*
X88995Y94399D01*
Y94199D01*
Y94399D01*
X88795Y94599D01*
X88595D01*
X88395Y94399D01*
Y93999D01*
X88595Y93799D01*
X11014Y17480D02*
X9814Y18280D01*
X11014D02*
X9814Y17480D01*
Y18680D02*
Y19080D01*
Y18880D01*
X11014D01*
X10814Y18680D01*
X23841Y22406D02*
Y22006D01*
X23641Y21806D01*
X22841D01*
X22641Y22006D01*
Y22406D01*
X22841Y22606D01*
X23641D01*
X23841Y22406D01*
X22641Y23006D02*
Y23406D01*
Y23206D01*
X23841D01*
X23641Y23006D01*
X72990Y83201D02*
X71790D01*
Y83801D01*
X71990Y84001D01*
X72790D01*
X72990Y83801D01*
Y83201D01*
X71990Y84401D02*
X71790Y84601D01*
Y85001D01*
X71990Y85201D01*
X72790D01*
X72990Y85001D01*
Y84601D01*
X72790Y84401D01*
X72590D01*
X72390Y84601D01*
Y85201D01*
X52343Y53200D02*
X52543Y53000D01*
Y52600D01*
X52343Y52401D01*
X51543D01*
X51343Y52600D01*
Y53000D01*
X51543Y53200D01*
X51343Y54400D02*
Y53600D01*
X52143Y54400D01*
X52343D01*
X52543Y54200D01*
Y53800D01*
X52343Y53600D01*
Y54800D02*
X52543Y55000D01*
Y55400D01*
X52343Y55599D01*
X51543D01*
X51343Y55400D01*
Y55000D01*
X51543Y54800D01*
X52343D01*
D73*
X52520Y61001D02*
X54019D01*
X53519Y61500D01*
X54019Y62000D01*
X52520D01*
X53519Y62750D02*
Y63250D01*
X53269Y63500D01*
X52520D01*
Y62750D01*
X52769Y62500D01*
X53019Y62750D01*
Y63500D01*
X53519Y64000D02*
X52520Y64999D01*
X53019Y64499D01*
X53519Y64999D01*
X52520Y64000D01*
X51500Y59501D02*
X50000D01*
Y60251D01*
X50250Y60501D01*
X50500D01*
X50750Y60251D01*
Y59501D01*
Y60251D01*
X51000Y60501D01*
X51250D01*
X51500Y60251D01*
Y59501D01*
X50000Y61251D02*
Y61750D01*
X50250Y62000D01*
X50750D01*
X51000Y61750D01*
Y61251D01*
X50750Y61001D01*
X50250D01*
X50000Y61251D01*
X51000Y62750D02*
Y63250D01*
X50750Y63500D01*
X50000D01*
Y62750D01*
X50250Y62500D01*
X50500Y62750D01*
Y63500D01*
X51000Y64000D02*
X50000D01*
X50500D01*
X50750Y64250D01*
X51000Y64499D01*
Y64749D01*
X51500Y66499D02*
X50000D01*
Y65749D01*
X50250Y65499D01*
X50750D01*
X51000Y65749D01*
Y66499D01*
X47481Y59001D02*
X48980D01*
Y59751D01*
X48730Y60001D01*
X48230D01*
X47981Y59751D01*
Y59001D01*
Y59501D02*
X47481Y60001D01*
X48480Y60751D02*
Y61251D01*
X48230Y61500D01*
X47481D01*
Y60751D01*
X47731Y60501D01*
X47981Y60751D01*
Y61500D01*
X48730Y62250D02*
X48480D01*
Y62000D01*
Y62500D01*
Y62250D01*
X47731D01*
X47481Y62500D01*
Y63250D02*
Y63750D01*
Y63500D01*
X48480D01*
Y63250D01*
X47481Y64499D02*
X48480D01*
Y65249D01*
X48230Y65499D01*
X47481D01*
X46981Y66499D02*
Y66749D01*
X47231Y66999D01*
X48480D01*
Y66249D01*
X48230Y65999D01*
X47731D01*
X47481Y66249D01*
Y66999D01*
X80347Y35599D02*
X80747Y35199D01*
X81147D01*
X81547Y35599D01*
X81347Y36998D02*
X81547Y36798D01*
Y36399D01*
X81347Y36199D01*
X80547D01*
X80347Y36399D01*
Y36798D01*
X80547Y36998D01*
X80347Y37598D02*
Y37998D01*
X80547Y38198D01*
X80947D01*
X81147Y37998D01*
Y37598D01*
X80947Y37398D01*
X80547D01*
X80347Y37598D01*
Y38598D02*
X81147D01*
Y38798D01*
X80947Y38998D01*
X80347D01*
X80947D01*
X81147Y39198D01*
X80947Y39398D01*
X80347D01*
Y39797D02*
X81147D01*
Y39997D01*
X80947Y40197D01*
X80347D01*
X80947D01*
X81147Y40397D01*
X80947Y40597D01*
X80347D01*
Y41197D02*
Y41597D01*
X80547Y41797D01*
X80947D01*
X81147Y41597D01*
Y41197D01*
X80947Y40997D01*
X80547D01*
X80347Y41197D01*
Y42197D02*
X81147D01*
Y42796D01*
X80947Y42996D01*
X80347D01*
X81347Y45396D02*
X81547Y45196D01*
Y44796D01*
X81347Y44596D01*
X80547D01*
X80347Y44796D01*
Y45196D01*
X80547Y45396D01*
X81147Y45995D02*
Y46395D01*
X80947Y46595D01*
X80347D01*
Y45995D01*
X80547Y45795D01*
X80747Y45995D01*
Y46595D01*
X81347Y47195D02*
X81147D01*
Y46995D01*
Y47395D01*
Y47195D01*
X80547D01*
X80347Y47395D01*
X81547Y47995D02*
X80347D01*
X80947D01*
X81147Y48195D01*
Y48595D01*
X80947Y48795D01*
X80347D01*
Y49394D02*
Y49794D01*
X80547Y49994D01*
X80947D01*
X81147Y49794D01*
Y49394D01*
X80947Y49194D01*
X80547D01*
X80347Y49394D01*
X81547Y51194D02*
X80347D01*
Y50594D01*
X80547Y50394D01*
X80947D01*
X81147Y50594D01*
Y51194D01*
X80347Y52193D02*
Y51794D01*
X80547Y51594D01*
X80947D01*
X81147Y51794D01*
Y52193D01*
X80947Y52393D01*
X80747D01*
Y51594D01*
X80347Y52793D02*
X80747Y53193D01*
X81147D01*
X81547Y52793D01*
X75220Y49415D02*
X74371Y50263D01*
X74795Y50687D01*
X75078D01*
X75644Y50122D01*
X75644Y49839D01*
X75220Y49415D01*
X75644Y51536D02*
X76492Y50687D01*
X75644D01*
X76209Y51253D01*
X75644Y48006D02*
X75644Y47723D01*
X75361Y47441D01*
X75078Y47441D01*
X74513Y48006D01*
Y48289D01*
X74795Y48572D01*
X75078D01*
X75361Y48289D01*
X75078Y48006D01*
X75644Y45466D02*
X75644Y45183D01*
X75361Y44901D01*
X75078Y44901D01*
X74513Y45466D01*
Y45749D01*
X74795Y46032D01*
X75078D01*
X75220Y41795D02*
X74371Y42643D01*
X74795Y43067D01*
X75078D01*
X75644Y42502D01*
X75644Y42219D01*
X75220Y41795D01*
Y43492D02*
X76068Y42643D01*
X76492Y43067D01*
X76492Y43350D01*
X76209Y43633D01*
X75926D01*
X75502Y43209D01*
X75219Y39679D02*
X74371Y40527D01*
X74795Y40952D01*
X75078D01*
X75644Y40386D01*
X75644Y40103D01*
X75219Y39679D01*
X75785Y37705D02*
X75219Y37139D01*
X74371Y37987D01*
X74937Y38553D01*
X74795Y37563D02*
X75078Y37846D01*
X83447Y30825D02*
X84947D01*
X84197Y30076D01*
Y31075D01*
Y31575D02*
Y32575D01*
X84947Y33075D02*
X83447D01*
Y33824D01*
X83697Y34074D01*
X84697D01*
X84947Y33824D01*
Y33075D01*
X83447Y34574D02*
Y35074D01*
Y34824D01*
X84447D01*
Y34574D01*
X82947Y36324D02*
Y36573D01*
X83197Y36823D01*
X84447D01*
Y36074D01*
X84197Y35824D01*
X83697D01*
X83447Y36074D01*
Y36823D01*
Y37323D02*
Y37823D01*
Y37573D01*
X84447D01*
Y37323D01*
X84697Y38823D02*
X84447D01*
Y38573D01*
Y39073D01*
Y38823D01*
X83697D01*
X83447Y39073D01*
X84947Y41322D02*
Y42322D01*
X84697D01*
X83697Y41322D01*
X83447D01*
Y42821D02*
Y43571D01*
X83697Y43821D01*
X83947Y43571D01*
Y43071D01*
X84197Y42821D01*
X84447Y43071D01*
Y43821D01*
X83447Y45071D02*
Y44571D01*
X83697Y44321D01*
X84197D01*
X84447Y44571D01*
Y45071D01*
X84197Y45321D01*
X83947D01*
Y44321D01*
X82947Y46320D02*
Y46570D01*
X83197Y46820D01*
X84447D01*
Y46070D01*
X84197Y45820D01*
X83697D01*
X83447Y46070D01*
Y46820D01*
X84947Y48819D02*
X83447D01*
Y49569D01*
X83697Y49819D01*
X84697D01*
X84947Y49569D01*
Y48819D01*
X83447Y50319D02*
Y50819D01*
Y50569D01*
X84447D01*
Y50319D01*
X83447Y51569D02*
Y52318D01*
X83697Y52568D01*
X83947Y52318D01*
Y51819D01*
X84197Y51569D01*
X84447Y51819D01*
Y52568D01*
X82947Y53068D02*
X84447D01*
Y53818D01*
X84197Y54068D01*
X83697D01*
X83447Y53818D01*
Y53068D01*
Y54568D02*
Y55067D01*
Y54818D01*
X84947D01*
Y54568D01*
X84447Y56067D02*
Y56567D01*
X84197Y56817D01*
X83447D01*
Y56067D01*
X83697Y55817D01*
X83947Y56067D01*
Y56817D01*
X84447Y57317D02*
X83697D01*
X83447Y57567D01*
Y58316D01*
X83197D01*
X82947Y58067D01*
Y57817D01*
X83447Y58316D02*
X84447D01*
X92957Y49839D02*
X92109Y50687D01*
X92533Y51111D01*
X92816D01*
X92957Y50970D01*
Y50687D01*
X92533Y50263D01*
X92957Y50687D01*
X93240D01*
X93381Y50546D01*
X93381Y50263D01*
X92957Y49839D01*
X92109Y46875D02*
X91261Y47723D01*
X91685Y48147D01*
X91968D01*
X92533Y47582D01*
X92533Y47299D01*
X92109Y46875D01*
X92816Y47865D02*
X93099Y47865D01*
X93381Y48147D01*
X93381Y48430D01*
X93240Y48571D01*
X92957D01*
X92816Y48430D01*
X92957Y48571D01*
Y48854D01*
X92816Y48996D01*
X92533D01*
X92250Y48713D01*
Y48430D01*
X92109Y44335D02*
X91261Y45183D01*
X91685Y45607D01*
X91968D01*
X92533Y45042D01*
X92533Y44759D01*
X92109Y44335D01*
X92674Y46597D02*
X92109Y46032D01*
X93240D01*
X93381Y45890D01*
X93381Y45607D01*
X93099Y45325D01*
X92816Y45325D01*
X93523Y42785D02*
X92957Y42219D01*
X92533Y42643D01*
X92816Y42926D01*
X92533Y42643D01*
X92109Y43067D01*
Y40527D02*
X92674Y39962D01*
X93240D01*
X93240Y40527D01*
X92674Y41093D01*
X93099Y40669D01*
X92533Y40103D01*
X92392Y36856D02*
X91543Y37705D01*
X91968Y38129D01*
X92250D01*
X92816Y37563D01*
X92816Y37280D01*
X92392Y36856D01*
Y38553D02*
X92674Y38836D01*
X92533Y38694D01*
X93381Y37846D01*
X93099Y37846D01*
X89621Y83821D02*
X88621D01*
X88421Y84021D01*
Y84421D01*
X88621Y84621D01*
X89621D01*
X88421Y85021D02*
X89221D01*
X89621Y85421D01*
X89221Y85820D01*
X88421D01*
X89021D01*
Y85021D01*
X88421Y86220D02*
X89621D01*
Y86820D01*
X89421Y87020D01*
X89021D01*
X88821Y86820D01*
Y86220D01*
Y86620D02*
X88421Y87020D01*
X89621Y87420D02*
Y88220D01*
Y87820D01*
X88421D01*
X47800Y23300D02*
X49200D01*
Y24000D01*
X48967Y24233D01*
X48500D01*
X48267Y24000D01*
Y23300D01*
Y23767D02*
X47800Y24233D01*
Y24700D02*
X48733D01*
X49200Y25166D01*
X48733Y25633D01*
X47800D01*
X48500D01*
Y24700D01*
X49200Y26099D02*
X47800D01*
Y26799D01*
X48033Y27032D01*
X48967D01*
X49200Y26799D01*
Y26099D01*
X47800Y27499D02*
X49200D01*
X48733Y27965D01*
X49200Y28432D01*
X47800D01*
X79500Y1393D02*
X80700D01*
Y1993D01*
X80500Y2193D01*
X80100D01*
X79900Y1993D01*
Y1393D01*
Y1793D02*
X79500Y2193D01*
Y3193D02*
Y2793D01*
X79700Y2593D01*
X80100D01*
X80300Y2793D01*
Y3193D01*
X80100Y3393D01*
X79900D01*
Y2593D01*
X79500Y3793D02*
Y4392D01*
X79700Y4592D01*
X79900Y4392D01*
Y3992D01*
X80100Y3793D01*
X80300Y3992D01*
Y4592D01*
X79500Y5592D02*
Y5192D01*
X79700Y4992D01*
X80100D01*
X80300Y5192D01*
Y5592D01*
X80100Y5792D01*
X79900D01*
Y4992D01*
X80500Y6392D02*
X80300D01*
Y6192D01*
Y6592D01*
Y6392D01*
X79700D01*
X79500Y6592D01*
X50184Y92873D02*
X50384Y92673D01*
Y92273D01*
X50184Y92073D01*
X49384D01*
X49184Y92273D01*
Y92673D01*
X49384Y92873D01*
X49784D01*
Y92473D01*
X49184Y93273D02*
X50384D01*
X49184Y94072D01*
X50384D01*
Y94472D02*
X49184D01*
Y95072D01*
X49384Y95272D01*
X50184D01*
X50384Y95072D01*
Y94472D01*
X37000Y86901D02*
Y87701D01*
X37400Y87301D02*
X36600D01*
X37400Y88101D02*
X37600Y88301D01*
Y88701D01*
X37400Y88901D01*
X37200D01*
X37000Y88701D01*
Y88501D01*
Y88701D01*
X36800Y88901D01*
X36600D01*
X36400Y88701D01*
Y88301D01*
X36600Y88101D01*
X37600Y89300D02*
X36800D01*
X36400Y89700D01*
X36800Y90100D01*
X37600D01*
X37400Y90500D02*
X37600Y90700D01*
Y91100D01*
X37400Y91300D01*
X37200D01*
X37000Y91100D01*
Y90900D01*
Y91100D01*
X36800Y91300D01*
X36600D01*
X36400Y91100D01*
Y90700D01*
X36600Y90500D01*
X51200Y87501D02*
Y88301D01*
X51600Y87901D02*
X50800D01*
X51800Y89500D02*
Y88701D01*
X51200D01*
X51400Y89101D01*
Y89300D01*
X51200Y89500D01*
X50800D01*
X50600Y89300D01*
Y88901D01*
X50800Y88701D01*
X51800Y89900D02*
X51000D01*
X50600Y90300D01*
X51000Y90700D01*
X51800D01*
X75330Y88301D02*
X75530Y88101D01*
Y87701D01*
X75330Y87501D01*
X74530D01*
X74330Y87701D01*
Y88101D01*
X74530Y88301D01*
X74930D01*
Y87901D01*
X74330Y88701D02*
X75530D01*
X74330Y89500D01*
X75530D01*
Y89900D02*
X74330D01*
Y90500D01*
X74530Y90700D01*
X75330D01*
X75530Y90500D01*
Y89900D01*
X13181Y30207D02*
X12381Y31007D01*
X13181Y32747D02*
X12381Y33547D01*
X13181Y35287D02*
X12381Y36087D01*
X11481Y30607D02*
X10681D01*
X11081Y31007D02*
Y30207D01*
X9482Y31207D02*
X10281D01*
Y30607D01*
X9882Y30807D01*
X9682D01*
X9482Y30607D01*
Y30207D01*
X9682Y30007D01*
X10081D01*
X10281Y30207D01*
X9082Y31207D02*
Y30407D01*
X8682Y30007D01*
X8282Y30407D01*
Y31207D01*
X11481Y32547D02*
Y33747D01*
X11081Y33347D01*
X10681Y33747D01*
Y32547D01*
X9682Y33747D02*
X10081D01*
X10281Y33547D01*
Y32747D01*
X10081Y32547D01*
X9682D01*
X9482Y32747D01*
Y33547D01*
X9682Y33747D01*
X8282Y33547D02*
X8482Y33747D01*
X8882D01*
X9082Y33547D01*
Y33347D01*
X8882Y33147D01*
X8482D01*
X8282Y32947D01*
Y32747D01*
X8482Y32547D01*
X8882D01*
X9082Y32747D01*
X7882Y33747D02*
X7482D01*
X7682D01*
Y32547D01*
X7882D01*
X7482D01*
X10681Y36087D02*
X10881Y36287D01*
X11281D01*
X11481Y36087D01*
Y35287D01*
X11281Y35087D01*
X10881D01*
X10681Y35287D01*
Y35687D01*
X11081D01*
X10281Y35087D02*
Y36287D01*
X9482Y35087D01*
Y36287D01*
X9082D02*
Y35087D01*
X8482D01*
X8282Y35287D01*
Y36087D01*
X8482Y36287D01*
X9082D01*
X18280Y30007D02*
Y31207D01*
X17880Y30807D01*
X17480Y31207D01*
Y30007D01*
X17080Y31207D02*
X16680D01*
X16880D01*
Y30007D01*
X17080D01*
X16680D01*
X15281Y31007D02*
X15481Y31207D01*
X15880D01*
X16080Y31007D01*
Y30807D01*
X15880Y30607D01*
X15481D01*
X15281Y30407D01*
Y30207D01*
X15481Y30007D01*
X15880D01*
X16080Y30207D01*
X14281Y31207D02*
X14681D01*
X14881Y31007D01*
Y30207D01*
X14681Y30007D01*
X14281D01*
X14081Y30207D01*
Y31007D01*
X14281Y31207D01*
X16480Y33547D02*
X16680Y33747D01*
X17080D01*
X17280Y33547D01*
Y33347D01*
X17080Y33147D01*
X16680D01*
X16480Y32947D01*
Y32747D01*
X16680Y32547D01*
X17080D01*
X17280Y32747D01*
X15281Y33547D02*
X15481Y33747D01*
X15880D01*
X16080Y33547D01*
Y32747D01*
X15880Y32547D01*
X15481D01*
X15281Y32747D01*
X14881Y33747D02*
Y32547D01*
Y32947D01*
X14081Y33747D01*
X14681Y33147D01*
X14081Y32547D01*
X19279Y35087D02*
Y36287D01*
X18680D01*
X18480Y36087D01*
Y35687D01*
X18680Y35487D01*
X19279D01*
X18879D02*
X18480Y35087D01*
X17480D02*
X17880D01*
X18080Y35287D01*
Y35687D01*
X17880Y35887D01*
X17480D01*
X17280Y35687D01*
Y35487D01*
X18080D01*
X16880Y35087D02*
X16280D01*
X16080Y35287D01*
X16280Y35487D01*
X16680D01*
X16880Y35687D01*
X16680Y35887D01*
X16080D01*
X15081Y35087D02*
X15481D01*
X15680Y35287D01*
Y35687D01*
X15481Y35887D01*
X15081D01*
X14881Y35687D01*
Y35487D01*
X15680D01*
X14281Y36087D02*
Y35887D01*
X14481D01*
X14081D01*
X14281D01*
Y35287D01*
X14081Y35087D01*
X2956Y19731D02*
Y20131D01*
Y19931D01*
X4156D01*
X3956Y19731D01*
X4156Y21531D02*
X3956Y21131D01*
X3556Y20731D01*
X3156D01*
X2956Y20931D01*
Y21331D01*
X3156Y21531D01*
X3356D01*
X3556Y21331D01*
Y20731D01*
X4156Y21931D02*
X3156D01*
X2956Y22131D01*
Y22531D01*
X3156Y22730D01*
X4156D01*
X2956Y23930D02*
Y23130D01*
X3756Y23930D01*
X3956D01*
X4156Y23730D01*
Y23330D01*
X3956Y23130D01*
X4156Y25530D02*
Y25929D01*
Y25729D01*
X2956D01*
Y25530D01*
Y25929D01*
X3956Y27329D02*
X4156Y27129D01*
Y26729D01*
X3956Y26529D01*
X3756D01*
X3556Y26729D01*
Y27129D01*
X3356Y27329D01*
X3156D01*
X2956Y27129D01*
Y26729D01*
X3156Y26529D01*
X2956Y27729D02*
X4156D01*
Y28329D01*
X3956Y28529D01*
X3556D01*
X3356Y28329D01*
Y27729D01*
X37800Y16748D02*
Y15948D01*
X38600Y16748D01*
X38800D01*
X39000Y16548D01*
Y16148D01*
X38800Y15948D01*
X39000Y17948D02*
Y17148D01*
X38400D01*
X38600Y17548D01*
Y17748D01*
X38400Y17948D01*
X38000D01*
X37800Y17748D01*
Y17348D01*
X38000Y17148D01*
X39000Y19147D02*
X38800Y18748D01*
X38400Y18348D01*
X38000D01*
X37800Y18548D01*
Y18947D01*
X38000Y19147D01*
X38200D01*
X38400Y18947D01*
Y18348D01*
X38800Y19547D02*
X39000Y19747D01*
Y20147D01*
X38800Y20347D01*
X38000D01*
X37800Y20147D01*
Y19747D01*
X38000Y19547D01*
X38800D01*
X39000Y21947D02*
Y22346D01*
Y22146D01*
X37800D01*
Y21947D01*
Y22346D01*
X38800Y23746D02*
X39000Y23546D01*
Y23146D01*
X38800Y22946D01*
X38600D01*
X38400Y23146D01*
Y23546D01*
X38200Y23746D01*
X38000D01*
X37800Y23546D01*
Y23146D01*
X38000Y22946D01*
X37800Y24146D02*
X39000D01*
Y24746D01*
X38800Y24946D01*
X38400D01*
X38200Y24746D01*
Y24146D01*
X36214Y24600D02*
X36414Y24400D01*
Y24000D01*
X36214Y23800D01*
X35414D01*
X35214Y24000D01*
Y24400D01*
X35414Y24600D01*
X35814D01*
Y24200D01*
X35214Y25000D02*
X36414D01*
X35214Y25799D01*
X36414D01*
Y26199D02*
X35214D01*
Y26799D01*
X35414Y26999D01*
X36214D01*
X36414Y26799D01*
Y26199D01*
X32674Y23800D02*
X33874D01*
X33474Y24200D01*
X33874Y24600D01*
X32674D01*
X33874Y25599D02*
Y25200D01*
X33674Y25000D01*
X32874D01*
X32674Y25200D01*
Y25599D01*
X32874Y25799D01*
X33674D01*
X33874Y25599D01*
X33674Y26999D02*
X33874Y26799D01*
Y26399D01*
X33674Y26199D01*
X33474D01*
X33274Y26399D01*
Y26799D01*
X33074Y26999D01*
X32874D01*
X32674Y26799D01*
Y26399D01*
X32874Y26199D01*
X33874Y27399D02*
Y27799D01*
Y27599D01*
X32674D01*
Y27399D01*
Y27799D01*
X30734Y23800D02*
Y24600D01*
X31134Y24200D02*
X30334D01*
X31334Y25799D02*
Y25000D01*
X30734D01*
X30934Y25399D01*
Y25599D01*
X30734Y25799D01*
X30334D01*
X30134Y25599D01*
Y25200D01*
X30334Y25000D01*
X31334Y26199D02*
X30534D01*
X30134Y26599D01*
X30534Y26999D01*
X31334D01*
X35214Y12002D02*
X36414D01*
Y12601D01*
X36214Y12801D01*
X35814D01*
X35614Y12601D01*
Y12002D01*
Y12402D02*
X35214Y12801D01*
Y13801D02*
Y13401D01*
X35414Y13201D01*
X35814D01*
X36014Y13401D01*
Y13801D01*
X35814Y14001D01*
X35614D01*
Y13201D01*
X35214Y14401D02*
Y15001D01*
X35414Y15201D01*
X35614Y15001D01*
Y14601D01*
X35814Y14401D01*
X36014Y14601D01*
Y15201D01*
X35214Y16200D02*
Y15800D01*
X35414Y15601D01*
X35814D01*
X36014Y15800D01*
Y16200D01*
X35814Y16400D01*
X35614D01*
Y15601D01*
X36214Y17000D02*
X36014D01*
Y16800D01*
Y17200D01*
Y17000D01*
X35414D01*
X35214Y17200D01*
X30134Y13001D02*
X31334D01*
X30934Y13401D01*
X31334Y13801D01*
X30134D01*
X31334Y14201D02*
Y14601D01*
Y14401D01*
X30134D01*
Y14201D01*
Y14601D01*
X31134Y16000D02*
X31334Y15800D01*
Y15401D01*
X31134Y15201D01*
X30934D01*
X30734Y15401D01*
Y15800D01*
X30534Y16000D01*
X30334D01*
X30134Y15800D01*
Y15401D01*
X30334Y15201D01*
X31334Y17000D02*
Y16600D01*
X31134Y16400D01*
X30334D01*
X30134Y16600D01*
Y17000D01*
X30334Y17200D01*
X31134D01*
X31334Y17000D01*
X33674Y14801D02*
X33874Y14601D01*
Y14201D01*
X33674Y14001D01*
X33474D01*
X33274Y14201D01*
Y14601D01*
X33074Y14801D01*
X32874D01*
X32674Y14601D01*
Y14201D01*
X32874Y14001D01*
X33674Y16000D02*
X33874Y15800D01*
Y15401D01*
X33674Y15201D01*
X32874D01*
X32674Y15401D01*
Y15800D01*
X32874Y16000D01*
X33874Y16400D02*
X32674D01*
X33074D01*
X33874Y17200D01*
X33274Y16600D01*
X32674Y17200D01*
X52376Y49131D02*
X51510D01*
X51943Y49564D02*
Y48698D01*
D74*
X58250Y59668D02*
Y61334D01*
X57833D01*
X56167Y59668D01*
X55750D01*
X58250Y63833D02*
X57833Y63000D01*
X57000Y62167D01*
X56167D01*
X55750Y62583D01*
Y63417D01*
X56167Y63833D01*
X56583D01*
X57000Y63417D01*
Y62167D01*
X55750Y64666D02*
X57417D01*
X58250Y65499D01*
X57417Y66332D01*
X55750D01*
X57000D01*
Y64666D01*
D75*
X35540Y64700D02*
Y88060D01*
X1540D02*
X35540D01*
X1540Y64700D02*
Y88060D01*
Y64700D02*
X35540D01*
Y38700D02*
Y62060D01*
X1540D02*
X35540D01*
X1540Y38700D02*
Y62060D01*
Y38700D02*
X35540D01*
X37914Y55847D02*
X43914D01*
Y35847D02*
Y55847D01*
X37914Y35847D02*
X43914D01*
X37914D02*
Y55847D01*
D76*
X39893Y89153D02*
X39393D01*
X39893Y88653D01*
Y88528D01*
X39768Y88403D01*
X39518D01*
X39393Y88528D01*
X40143Y88778D02*
X40643D01*
X40893Y89153D02*
Y88403D01*
X41267D01*
X41392Y88528D01*
Y88778D01*
X41267Y88903D01*
X40893D01*
X41642Y89153D02*
X41892D01*
X41767D01*
Y88653D01*
X41642D01*
X42267Y89153D02*
Y88653D01*
X42642D01*
X42767Y88778D01*
Y89153D01*
X44266Y88528D02*
X44141Y88403D01*
X43892D01*
X43767Y88528D01*
Y88653D01*
X43892Y88778D01*
X44141D01*
X44266Y88903D01*
Y89028D01*
X44141Y89153D01*
X43892D01*
X43767Y89028D01*
X45016Y88653D02*
X44641D01*
X44516Y88778D01*
Y89028D01*
X44641Y89153D01*
X45016D01*
X45266Y88653D02*
Y89153D01*
Y88903D01*
X45391Y88778D01*
X45516Y88653D01*
X45641D01*
X46391Y89153D02*
X46141D01*
X46016Y89028D01*
Y88778D01*
X46141Y88653D01*
X46391D01*
X46516Y88778D01*
Y88903D01*
X46016D01*
X46766Y88653D02*
Y89028D01*
X46891Y89153D01*
X47016Y89028D01*
X47141Y89153D01*
X47265Y89028D01*
Y88653D01*
X39393Y89663D02*
X39893D01*
X39643D01*
Y90413D01*
X40518D02*
X40268D01*
X40143Y90288D01*
Y90038D01*
X40268Y89913D01*
X40518D01*
X40643Y90038D01*
Y90163D01*
X40143D01*
X40893Y89913D02*
Y90413D01*
Y90163D01*
X41017Y90038D01*
X41142Y89913D01*
X41267D01*
X41642Y90413D02*
Y89913D01*
X41767D01*
X41892Y90038D01*
Y90413D01*
Y90038D01*
X42017Y89913D01*
X42142Y90038D01*
Y90413D01*
X39516Y94863D02*
X39266D01*
Y94113D01*
X39516D01*
X40391D02*
X39891D01*
Y94488D01*
X40141D01*
X39891D01*
Y94863D01*
X40641Y94363D02*
Y94863D01*
Y94613D01*
X40766Y94488D01*
X40890Y94363D01*
X41015D01*
X41515Y94863D02*
X41765D01*
X41890Y94738D01*
Y94488D01*
X41765Y94363D01*
X41515D01*
X41390Y94488D01*
Y94738D01*
X41515Y94863D01*
X42140D02*
Y94363D01*
X42515D01*
X42640Y94488D01*
Y94863D01*
X43015Y94238D02*
Y94363D01*
X42890D01*
X43140D01*
X43015D01*
Y94738D01*
X43140Y94863D01*
X43515D02*
X43765D01*
Y94113D01*
X43515D01*
X53708Y94863D02*
X53458D01*
Y94113D01*
X53708D01*
X54583D02*
X54083D01*
Y94488D01*
X54333D01*
X54083D01*
Y94863D01*
X54833Y94363D02*
Y94863D01*
Y94613D01*
X54958Y94488D01*
X55082Y94363D01*
X55207D01*
X55707Y94863D02*
X55957D01*
X56082Y94738D01*
Y94488D01*
X55957Y94363D01*
X55707D01*
X55582Y94488D01*
Y94738D01*
X55707Y94863D01*
X56332D02*
Y94363D01*
X56707D01*
X56832Y94488D01*
Y94863D01*
X57207Y94238D02*
Y94363D01*
X57082D01*
X57332D01*
X57207D01*
Y94738D01*
X57332Y94863D01*
X57707D02*
X57957D01*
Y94113D01*
X57707D01*
X53833Y88640D02*
Y87890D01*
X53458Y88265D01*
X53958D01*
X54208D02*
X54708D01*
X54958Y88640D02*
Y87890D01*
X55332D01*
X55457Y88015D01*
Y88265D01*
X55332Y88390D01*
X54958D01*
X55707Y88640D02*
X55957D01*
X55832D01*
Y88140D01*
X55707D01*
X56332Y88640D02*
Y88140D01*
X56707D01*
X56832Y88265D01*
Y88640D01*
X58331Y88015D02*
X58206Y87890D01*
X57957D01*
X57832Y88015D01*
Y88140D01*
X57957Y88265D01*
X58206D01*
X58331Y88390D01*
Y88515D01*
X58206Y88640D01*
X57957D01*
X57832Y88515D01*
X59081Y88140D02*
X58706D01*
X58581Y88265D01*
Y88515D01*
X58706Y88640D01*
X59081D01*
X59331Y88140D02*
Y88640D01*
Y88390D01*
X59456Y88265D01*
X59581Y88140D01*
X59706D01*
X60456Y88640D02*
X60206D01*
X60081Y88515D01*
Y88265D01*
X60206Y88140D01*
X60456D01*
X60581Y88265D01*
Y88390D01*
X60081D01*
X60831Y88140D02*
Y88515D01*
X60956Y88640D01*
X61081Y88515D01*
X61206Y88640D01*
X61330Y88515D01*
Y88140D01*
X62330Y87890D02*
X62830D01*
X62580D01*
Y88640D01*
X63455D02*
X63205D01*
X63080Y88515D01*
Y88265D01*
X63205Y88140D01*
X63455D01*
X63580Y88265D01*
Y88390D01*
X63080D01*
X63830Y88140D02*
Y88640D01*
Y88390D01*
X63955Y88265D01*
X64080Y88140D01*
X64205D01*
X64579Y88640D02*
Y88140D01*
X64704D01*
X64829Y88265D01*
Y88640D01*
Y88265D01*
X64954Y88140D01*
X65079Y88265D01*
Y88640D01*
D77*
X52400Y23400D02*
X51200D01*
X50600Y24000D01*
X51200Y24600D01*
X52400D01*
X52100Y25199D02*
X52400Y25499D01*
Y26099D01*
X52100Y26399D01*
X50900D01*
X50600Y26099D01*
Y25499D01*
X50900Y25199D01*
X52100D01*
X56400Y23400D02*
X54600D01*
Y24300D01*
X54900Y24600D01*
X55200D01*
X55500Y24300D01*
Y23400D01*
Y24300D01*
X55800Y24600D01*
X56100D01*
X56400Y24300D01*
Y23400D01*
X54600Y25499D02*
Y26099D01*
X54900Y26399D01*
X55500D01*
X55800Y26099D01*
Y25499D01*
X55500Y25199D01*
X54900D01*
X54600Y25499D01*
X55800Y27299D02*
Y27899D01*
X55500Y28198D01*
X54600D01*
Y27299D01*
X54900Y26999D01*
X55200Y27299D01*
Y28198D01*
X55800Y28798D02*
X54600D01*
X55200D01*
X55500Y29098D01*
X55800Y29398D01*
Y29698D01*
X56400Y31797D02*
X54600D01*
Y30898D01*
X54900Y30598D01*
X55500D01*
X55800Y30898D01*
Y31797D01*
X59700Y23400D02*
X57900D01*
Y24300D01*
X58200Y24600D01*
X58500D01*
X58800Y24300D01*
Y23400D01*
Y24300D01*
X59100Y24600D01*
X59400D01*
X59700Y24300D01*
Y23400D01*
X59100Y25499D02*
Y26099D01*
X58800Y26399D01*
X57900D01*
Y25499D01*
X58200Y25199D01*
X58500Y25499D01*
Y26399D01*
X59400Y27299D02*
X59100D01*
Y26999D01*
Y27599D01*
Y27299D01*
X58200D01*
X57900Y27599D01*
X59400Y28798D02*
X59100D01*
Y28498D01*
Y29098D01*
Y28798D01*
X58200D01*
X57900Y29098D01*
Y30898D02*
Y30298D01*
X58200Y29998D01*
X58800D01*
X59100Y30298D01*
Y30898D01*
X58800Y31197D01*
X58500D01*
Y29998D01*
X59100Y31797D02*
X57900D01*
X58500D01*
X58800Y32097D01*
X59100Y32397D01*
Y32697D01*
Y33597D02*
X58200D01*
X57900Y33897D01*
Y34796D01*
X57600D01*
X57300Y34496D01*
Y34196D01*
X57900Y34796D02*
X59100D01*
X57900Y37196D02*
X59700D01*
X59100Y37795D01*
X59700Y38395D01*
X57900D01*
Y39295D02*
Y39895D01*
X58200Y40195D01*
X58800D01*
X59100Y39895D01*
Y39295D01*
X58800Y38995D01*
X58200D01*
X57900Y39295D01*
Y40794D02*
X59100D01*
Y41694D01*
X58800Y41994D01*
X57900D01*
Y42594D02*
Y43194D01*
Y42894D01*
X59100D01*
Y42594D01*
X59400Y44393D02*
X59100D01*
Y44093D01*
Y44693D01*
Y44393D01*
X58200D01*
X57900Y44693D01*
Y45893D02*
Y46493D01*
X58200Y46792D01*
X58800D01*
X59100Y46493D01*
Y45893D01*
X58800Y45593D01*
X58200D01*
X57900Y45893D01*
X59100Y47392D02*
X57900D01*
X58500D01*
X58800Y47692D01*
X59100Y47992D01*
Y48292D01*
D78*
X68000Y50502D02*
X68500Y50003D01*
Y49003D01*
X68000Y48503D01*
X66000D01*
X65500Y49003D01*
Y50003D01*
X66000Y50502D01*
X67500Y51502D02*
X66000D01*
X65500Y52002D01*
Y53501D01*
X67500D01*
Y54501D02*
X65500D01*
X66500D01*
X67000Y55001D01*
X67500Y55501D01*
Y56001D01*
Y57500D02*
X65500D01*
X66500D01*
X67000Y58000D01*
X67500Y58500D01*
Y59000D01*
X65500Y61999D02*
Y60999D01*
X66000Y60499D01*
X67000D01*
X67500Y60999D01*
Y61999D01*
X67000Y62499D01*
X66500D01*
Y60499D01*
X65500Y63498D02*
X67500D01*
Y64998D01*
X67000Y65498D01*
X65500D01*
X68000Y66997D02*
X67500D01*
Y66497D01*
Y67497D01*
Y66997D01*
X66000D01*
X65500Y67497D01*
X68999Y12503D02*
X67000D01*
X66000Y13503D01*
X67000Y14502D01*
X68999D01*
X66000Y16002D02*
Y17002D01*
X66500Y17501D01*
X67500D01*
X68000Y17002D01*
Y16002D01*
X67500Y15502D01*
X66500D01*
X66000Y16002D01*
Y18501D02*
Y19501D01*
Y19001D01*
X68999D01*
Y18501D01*
X68500Y21500D02*
X68000D01*
Y21000D01*
Y22000D01*
Y21500D01*
X66500D01*
X66000Y22000D01*
X68000Y23999D02*
Y24999D01*
X67500Y25499D01*
X66000D01*
Y23999D01*
X66500Y23500D01*
X67000Y23999D01*
Y25499D01*
X65001Y27498D02*
Y27998D01*
X65500Y28498D01*
X68000D01*
Y26998D01*
X67500Y26499D01*
X66500D01*
X66000Y26998D01*
Y28498D01*
Y30997D02*
Y29997D01*
X66500Y29498D01*
X67500D01*
X68000Y29997D01*
Y30997D01*
X67500Y31497D01*
X67000D01*
Y29498D01*
%TF.MD5,8f47d35e0160f95ab372e658e7a55acb*%
M02*
