%TF.GenerationSoftware,Altium Limited,Altium Designer,25.2.1 (25)*%
G04 Layer_Color=128*
%FSLAX43Y43*%
%MOMM*%
%TF.SameCoordinates,4C24163C-91DB-42BE-86CD-6C2E27ADC54B*%
%TF.FilePolarity,Positive*%
%TF.FileFunction,Drillmap*%
%TF.Part,Single*%
G01*
G75*
%TA.AperFunction,NonConductor*%
%ADD75C,0.127*%
D75*
X56550Y40500D02*
X57450D01*
X57000Y40050D02*
Y40950D01*
X59090Y40500D02*
X59990D01*
X59540Y40050D02*
Y40950D01*
X67090Y40500D02*
X67990D01*
X67540Y40050D02*
Y40950D01*
X64550Y40500D02*
X65450D01*
X65000Y40050D02*
Y40950D01*
X56550Y35560D02*
X57450D01*
X57000Y35110D02*
Y36010D01*
X59090Y35560D02*
X59990D01*
X59540Y35110D02*
Y36010D01*
X64550Y35560D02*
X65450D01*
X65000Y35110D02*
Y36010D01*
X67090Y35560D02*
X67990D01*
X67540Y35110D02*
Y36010D01*
X41364Y51887D02*
X42964D01*
X42164Y51087D02*
Y52687D01*
X38864Y51887D02*
X40464D01*
X39664Y51087D02*
Y52687D01*
X41364Y48387D02*
X42964D01*
X42164Y47587D02*
Y49187D01*
X38864Y48387D02*
X40464D01*
X39664Y47587D02*
Y49187D01*
X41364Y43307D02*
X42964D01*
X42164Y42507D02*
Y44107D01*
X38864Y43307D02*
X40464D01*
X39664Y42507D02*
Y44107D01*
X41364Y39807D02*
X42964D01*
X42164Y39007D02*
Y40607D01*
X38864Y39807D02*
X40464D01*
X39664Y39007D02*
Y40607D01*
X39544Y45847D02*
X42194D01*
X40869Y44522D02*
Y47172D01*
X47030Y45847D02*
X49680D01*
X48355Y44522D02*
Y47172D01*
X46350Y39807D02*
X47950D01*
X47150Y39007D02*
Y40607D01*
X48850Y39807D02*
X50450D01*
X49650Y39007D02*
Y40607D01*
X46350Y43307D02*
X47950D01*
X47150Y42507D02*
Y44107D01*
X48850Y43307D02*
X50450D01*
X49650Y42507D02*
Y44107D01*
X46350Y48387D02*
X47950D01*
X47150Y47587D02*
Y49187D01*
X48850Y48387D02*
X50450D01*
X49650Y47587D02*
Y49187D01*
X46350Y51887D02*
X47950D01*
X47150Y51087D02*
Y52687D01*
X48850Y51887D02*
X50450D01*
X49650Y51087D02*
Y52687D01*
X14300Y15500D02*
X15200D01*
X14750Y15050D02*
Y15950D01*
X16800Y15500D02*
X17700D01*
X17250Y15050D02*
Y15950D01*
X16800Y13500D02*
X17700D01*
X17250Y13050D02*
Y13950D01*
X14300Y13500D02*
X15200D01*
X14750Y13050D02*
Y13950D01*
X20870Y10800D02*
X23170D01*
X22020Y9650D02*
Y11950D01*
X8830Y10800D02*
X11130D01*
X9980Y9650D02*
Y11950D01*
X81721Y1742D02*
X82721D01*
X82221Y1242D02*
Y2242D01*
X88221Y1742D02*
X89221D01*
X88721Y1242D02*
Y2242D01*
X81721Y6242D02*
X82721D01*
X82221Y5742D02*
Y6742D01*
X88221Y6242D02*
X89221D01*
X88721Y5742D02*
Y6742D01*
X72566Y42926D02*
X73328D01*
X72947Y42545D02*
Y43307D01*
X94566Y50546D02*
X95328D01*
X94947Y50165D02*
Y50927D01*
X94566Y48006D02*
X95328D01*
X94947Y47625D02*
Y48387D01*
X94566Y45466D02*
X95328D01*
X94947Y45085D02*
Y45847D01*
X94566Y42926D02*
X95328D01*
X94947Y42545D02*
Y43307D01*
X94566Y40386D02*
X95328D01*
X94947Y40005D02*
Y40767D01*
X94566Y37846D02*
X95328D01*
X94947Y37465D02*
Y38227D01*
X72566Y50546D02*
X73328D01*
X72947Y50165D02*
Y50927D01*
X72566Y48006D02*
X73328D01*
X72947Y47625D02*
Y48387D01*
X72566Y45466D02*
X73328D01*
X72947Y45085D02*
Y45847D01*
X72566Y40386D02*
X73328D01*
X72947Y40005D02*
Y40767D01*
X72566Y37846D02*
X73328D01*
X72947Y37465D02*
Y38227D01*
X30450Y71300D02*
X32150D01*
X31300Y70450D02*
Y72150D01*
X25370Y71300D02*
X27070D01*
X26220Y70450D02*
Y72150D01*
X20290Y71300D02*
X21990D01*
X21140Y70450D02*
Y72150D01*
X30450Y81460D02*
X32150D01*
X31300Y80610D02*
Y82310D01*
X25370Y81460D02*
X27070D01*
X26220Y80610D02*
Y82310D01*
X20290Y81460D02*
X21990D01*
X21140Y80610D02*
Y82310D01*
X66525Y71374D02*
X67475D01*
X67000Y70899D02*
Y71849D01*
X63985Y71374D02*
X64935D01*
X64460Y70899D02*
Y71849D01*
X61445Y71374D02*
X62395D01*
X61920Y70899D02*
Y71849D01*
X58905Y71374D02*
X59855D01*
X59380Y70899D02*
Y71849D01*
X56365Y71374D02*
X57315D01*
X56840Y70899D02*
Y71849D01*
X53825Y71374D02*
X54775D01*
X54300Y70899D02*
Y71849D01*
X51285Y71374D02*
X52235D01*
X51760Y70899D02*
Y71849D01*
X48745Y71374D02*
X49695D01*
X49220Y70899D02*
Y71849D01*
X38585Y71374D02*
X39535D01*
X39060Y70899D02*
Y71849D01*
X41125Y71374D02*
X42075D01*
X41600Y70899D02*
Y71849D01*
X43665Y71374D02*
X44615D01*
X44140Y70899D02*
Y71849D01*
X46205Y71374D02*
X47155D01*
X46680Y70899D02*
Y71849D01*
X66525Y78994D02*
X67475D01*
X67000Y78519D02*
Y79469D01*
X63985Y78994D02*
X64935D01*
X64460Y78519D02*
Y79469D01*
X61445Y78994D02*
X62395D01*
X61920Y78519D02*
Y79469D01*
X58905Y78994D02*
X59855D01*
X59380Y78519D02*
Y79469D01*
X56365Y78994D02*
X57315D01*
X56840Y78519D02*
Y79469D01*
X53825Y78994D02*
X54775D01*
X54300Y78519D02*
Y79469D01*
X51285Y78994D02*
X52235D01*
X51760Y78519D02*
Y79469D01*
X48745Y78994D02*
X49695D01*
X49220Y78519D02*
Y79469D01*
X38585Y78994D02*
X39535D01*
X39060Y78519D02*
Y79469D01*
X41125Y78994D02*
X42075D01*
X41600Y78519D02*
Y79469D01*
X43665Y78994D02*
X44615D01*
X44140Y78519D02*
Y79469D01*
X46205Y78994D02*
X47155D01*
X46680Y78519D02*
Y79469D01*
X30450Y45300D02*
X32150D01*
X31300Y44450D02*
Y46150D01*
X25370Y45300D02*
X27070D01*
X26220Y44450D02*
Y46150D01*
X20290Y45300D02*
X21990D01*
X21140Y44450D02*
Y46150D01*
X30450Y55460D02*
X32150D01*
X31300Y54610D02*
Y56310D01*
X25370Y55460D02*
X27070D01*
X26220Y54610D02*
Y56310D01*
X20290Y55460D02*
X21990D01*
X21140Y54610D02*
Y56310D01*
X40498Y91821D02*
X41798D01*
X41148Y91171D02*
Y92471D01*
X45578Y91821D02*
X46878D01*
X46228Y91171D02*
Y92471D01*
X38013Y83820D02*
X39513D01*
X38763Y83070D02*
Y84570D01*
X68713Y83820D02*
X70213D01*
X69463Y83070D02*
Y84570D01*
X1836Y35687D02*
X2736D01*
X2286Y35237D02*
Y36137D01*
X4376Y35687D02*
X5276D01*
X4826Y35237D02*
Y36137D01*
X1836Y33147D02*
X2736D01*
X2286Y32697D02*
Y33597D01*
X4376Y33147D02*
X5276D01*
X4826Y32697D02*
Y33597D01*
X1836Y30607D02*
X2736D01*
X2286Y30157D02*
Y31057D01*
X4376Y30607D02*
X5276D01*
X4826Y30157D02*
Y31057D01*
X35364Y21717D02*
X36264D01*
X35814Y21267D02*
Y22167D01*
X35364Y19177D02*
X36264D01*
X35814Y18727D02*
Y19627D01*
X32824Y21717D02*
X33724D01*
X33274Y21267D02*
Y22167D01*
X32824Y19177D02*
X33724D01*
X33274Y18727D02*
Y19627D01*
X30284Y21717D02*
X31184D01*
X30734Y21267D02*
Y22167D01*
X30284Y19177D02*
X31184D01*
X30734Y18727D02*
Y19627D01*
X69930Y91821D02*
X71230D01*
X70580Y91171D02*
Y92471D01*
X64850Y91821D02*
X66150D01*
X65500Y91171D02*
Y92471D01*
X59770Y91821D02*
X61070D01*
X60420Y91171D02*
Y92471D01*
X54690Y91821D02*
X55990D01*
X55340Y91171D02*
Y92471D01*
X22841Y27411D02*
X23641D01*
X23241Y27011D02*
Y27811D01*
X22841Y32291D02*
X23641D01*
X23241Y31891D02*
Y32691D01*
X84966Y92456D02*
X86166D01*
X85566Y91856D02*
Y93056D01*
X82426Y92456D02*
X83626D01*
X83026Y91856D02*
Y93056D01*
X79886Y92456D02*
X81086D01*
X80486Y91856D02*
Y93056D01*
X58525Y48018D02*
X59375D01*
X58950Y47593D02*
Y48443D01*
X55025Y48018D02*
X55875D01*
X55450Y47593D02*
Y48443D01*
X91800Y4500D02*
X95200D01*
X93500Y2800D02*
Y6200D01*
X91800Y91500D02*
X95200D01*
X93500Y89800D02*
Y93200D01*
X2800Y91500D02*
X6200D01*
X4500Y89800D02*
Y93200D01*
X2800Y4500D02*
X6200D01*
X4500Y2800D02*
Y6200D01*
X15548Y11811D02*
X15948D01*
X15748Y11611D02*
Y12011D01*
X64316Y51050D02*
X64716D01*
X64516Y50850D02*
Y51250D01*
X48060Y31496D02*
X48460D01*
X48260Y31296D02*
Y31696D01*
X58093Y65405D02*
X58493D01*
X58293Y65205D02*
Y65605D01*
X49076Y69596D02*
X49476D01*
X49276Y69396D02*
Y69796D01*
X85398Y17272D02*
X85798D01*
X85598Y17072D02*
Y17472D01*
X65840Y11811D02*
X66240D01*
X66040Y11611D02*
Y12011D01*
X59490Y22987D02*
X59890D01*
X59690Y22787D02*
Y23187D01*
X37138Y29464D02*
X37538D01*
X37338Y29264D02*
Y29664D01*
X38281Y24602D02*
X38681D01*
X38481Y24402D02*
Y24802D01*
X51743Y64262D02*
X52143D01*
X51943Y64062D02*
Y64462D01*
X52759Y40500D02*
X53159D01*
X52959Y40300D02*
Y40700D01*
X55553Y59690D02*
X55953D01*
X55753Y59490D02*
Y59890D01*
X61776Y58928D02*
X62176D01*
X61976Y58728D02*
Y59128D01*
X44500Y42370D02*
X44900D01*
X44700Y42170D02*
Y42570D01*
X44500Y39370D02*
X44900D01*
X44700Y39170D02*
Y39570D01*
X44500Y40870D02*
X44900D01*
X44700Y40670D02*
Y41070D01*
X48060Y26289D02*
X48460D01*
X48260Y26089D02*
Y26489D01*
X29772Y1651D02*
X30172D01*
X29972Y1451D02*
Y1851D01*
X18469Y24130D02*
X18869D01*
X18669Y23930D02*
Y24330D01*
X67618Y1524D02*
X68018D01*
X67818Y1324D02*
Y1724D01*
X40694Y12573D02*
X41094D01*
X40894Y12373D02*
Y12773D01*
X49584Y8382D02*
X49984D01*
X49784Y8182D02*
Y8582D01*
X61776Y29718D02*
X62176D01*
X61976Y29518D02*
Y29918D01*
X61776Y56261D02*
X62176D01*
X61976Y56061D02*
Y56461D01*
X61776Y57595D02*
X62176D01*
X61976Y57395D02*
Y57794D01*
X56950Y20500D02*
X57350D01*
X57150Y20300D02*
Y20700D01*
X70158Y26543D02*
X70558D01*
X70358Y26343D02*
Y26743D01*
X38281Y29464D02*
X38681D01*
X38481Y29264D02*
Y29664D01*
X35995Y29464D02*
X36395D01*
X36195Y29264D02*
Y29664D01*
X73587Y70866D02*
X73987D01*
X73787Y70666D02*
Y71066D01*
X32693Y15748D02*
X33093D01*
X32893Y15548D02*
Y15948D01*
X71682Y78867D02*
X72082D01*
X71882Y78667D02*
Y79067D01*
X73587Y73152D02*
X73987D01*
X73787Y72952D02*
Y73352D01*
X71682Y53086D02*
X72082D01*
X71882Y52886D02*
Y53286D01*
X74095Y54737D02*
X74495D01*
X74295Y54537D02*
Y54937D01*
X74095Y57023D02*
X74495D01*
X74295Y56823D02*
Y57223D01*
X64316Y59436D02*
X64716D01*
X64516Y59236D02*
Y59636D01*
X75873Y27432D02*
X76273D01*
X76073Y27232D02*
Y27632D01*
X71428Y15621D02*
X71828D01*
X71628Y15421D02*
Y15821D01*
X67618Y12573D02*
X68018D01*
X67818Y12373D02*
Y12773D01*
X83366Y62103D02*
X83766D01*
X83566Y61903D02*
Y62303D01*
X25073Y1016D02*
X25473D01*
X25273Y816D02*
Y1216D01*
X55553Y6985D02*
X55953D01*
X55753Y6785D02*
Y7185D01*
X27613Y4826D02*
X28013D01*
X27813Y4626D02*
Y5026D01*
X31296Y13589D02*
X31696D01*
X31496Y13389D02*
Y13789D01*
X32693Y12192D02*
X33093D01*
X32893Y11992D02*
Y12392D01*
X38075Y11430D02*
X38475D01*
X38275Y11230D02*
Y11630D01*
X32439Y8128D02*
X32839D01*
X32639Y7928D02*
Y8328D01*
X7233Y24257D02*
X7633D01*
X7433Y24057D02*
Y24457D01*
X23676Y17907D02*
X24076D01*
X23876Y17707D02*
Y18107D01*
X7801Y43942D02*
X8201D01*
X8001Y43742D02*
Y44142D01*
X11738Y29985D02*
X12138D01*
X11938Y29785D02*
Y30185D01*
X7928Y29083D02*
X8328D01*
X8128Y28883D02*
Y29283D01*
X53521Y69342D02*
X53921D01*
X53721Y69142D02*
Y69542D01*
X83366Y64262D02*
X83766D01*
X83566Y64062D02*
Y64462D01*
X59109Y77343D02*
X59509D01*
X59309Y77143D02*
Y77543D01*
X59109Y76200D02*
X59509D01*
X59309Y76000D02*
Y76400D01*
X14400Y37910D02*
X14800D01*
X14600Y37709D02*
Y38110D01*
X10600Y37973D02*
X11000D01*
X10800Y37773D02*
Y38173D01*
X56950Y21844D02*
X57350D01*
X57150Y21644D02*
Y22044D01*
X56950Y22987D02*
X57350D01*
X57150Y22787D02*
Y23187D01*
X59490Y18415D02*
X59890D01*
X59690Y18215D02*
Y18615D01*
X15929Y28956D02*
X16329D01*
X16129Y28756D02*
Y29156D01*
X19358Y25908D02*
X19758D01*
X19558Y25708D02*
Y26108D01*
X14913Y31750D02*
X15313D01*
X15113Y31550D02*
Y31950D01*
X16183Y31115D02*
X16583D01*
X16383Y30915D02*
Y31315D01*
X1324Y12827D02*
X1724D01*
X1524Y12627D02*
Y13027D01*
X1324Y10287D02*
X1724D01*
X1524Y10087D02*
Y10487D01*
X1324Y7747D02*
X1724D01*
X1524Y7547D02*
Y7947D01*
X26216Y29845D02*
X26616D01*
X26416Y29645D02*
Y30045D01*
X19866Y29845D02*
X20266D01*
X20066Y29645D02*
Y30045D01*
X23549Y22860D02*
X23949D01*
X23749Y22660D02*
Y23060D01*
X33726Y6858D02*
X34126D01*
X33926Y6658D02*
Y7058D01*
X55553Y5842D02*
X55953D01*
X55753Y5642D02*
Y6042D01*
X48314Y20066D02*
X48714D01*
X48514Y19866D02*
Y20266D01*
X64443Y45466D02*
X64843D01*
X64643Y45266D02*
Y45666D01*
X59109Y74930D02*
X59509D01*
X59309Y74730D02*
Y75130D01*
X46536Y74930D02*
X46936D01*
X46736Y74730D02*
Y75130D01*
X45139Y13081D02*
X45539D01*
X45339Y12881D02*
Y13281D01*
X62919Y3048D02*
X63319D01*
X63119Y2848D02*
Y3248D01*
X57458Y6985D02*
X57858D01*
X57658Y6785D02*
Y7185D01*
X67618Y17272D02*
X68018D01*
X67818Y17072D02*
Y17472D01*
X65840Y22987D02*
X66240D01*
X66040Y22787D02*
Y23187D01*
X59363Y11811D02*
X59763D01*
X59563Y11611D02*
Y12011D01*
X63427Y29591D02*
X63827D01*
X63627Y29391D02*
Y29791D01*
X34725Y1524D02*
X35125D01*
X34925Y1324D02*
Y1724D01*
X25708Y8636D02*
X26108D01*
X25908Y8436D02*
Y8836D01*
X8100Y75182D02*
X8500D01*
X8300Y74982D02*
Y75382D01*
X8100Y61724D02*
X8500D01*
X8300Y61524D02*
Y61924D01*
X8100Y67107D02*
X8500D01*
X8300Y66907D02*
Y67307D01*
X8100Y72490D02*
X8500D01*
X8300Y72290D02*
Y72690D01*
X8100Y64416D02*
X8500D01*
X8300Y64216D02*
Y64616D01*
X8100Y69799D02*
X8500D01*
X8300Y69599D02*
Y69999D01*
X8100Y59032D02*
X8500D01*
X8300Y58832D02*
Y59232D01*
X8100Y56340D02*
X8500D01*
X8300Y56140D02*
Y56540D01*
X8100Y77874D02*
X8500D01*
X8300Y77674D02*
Y78074D01*
X8100Y80566D02*
X8500D01*
X8300Y80366D02*
Y80766D01*
X13000Y75182D02*
X13400D01*
X13200Y74982D02*
Y75382D01*
X13000Y61724D02*
X13400D01*
X13200Y61524D02*
Y61924D01*
X13000Y67107D02*
X13400D01*
X13200Y66907D02*
Y67307D01*
X13000Y72490D02*
X13400D01*
X13200Y72290D02*
Y72690D01*
X13000Y64416D02*
X13400D01*
X13200Y64216D02*
Y64616D01*
X13000Y69799D02*
X13400D01*
X13200Y69599D02*
Y69999D01*
X13000Y59032D02*
X13400D01*
X13200Y58832D02*
Y59232D01*
X13000Y56340D02*
X13400D01*
X13200Y56140D02*
Y56540D01*
X13000Y77874D02*
X13400D01*
X13200Y77674D02*
Y78074D01*
X13000Y80566D02*
X13400D01*
X13200Y80366D02*
Y80766D01*
X10550Y80566D02*
X10950D01*
X10750Y80366D02*
Y80766D01*
X10550Y77874D02*
X10950D01*
X10750Y77674D02*
Y78074D01*
X10550Y56340D02*
X10950D01*
X10750Y56140D02*
Y56540D01*
X10550Y59032D02*
X10950D01*
X10750Y58832D02*
Y59232D01*
X10550Y69799D02*
X10950D01*
X10750Y69599D02*
Y69999D01*
X10550Y64416D02*
X10950D01*
X10750Y64216D02*
Y64616D01*
X10550Y72490D02*
X10950D01*
X10750Y72290D02*
Y72690D01*
X10550Y67107D02*
X10950D01*
X10750Y66907D02*
Y67307D01*
X10550Y61724D02*
X10950D01*
X10750Y61524D02*
Y61924D01*
X10550Y75182D02*
X10950D01*
X10750Y74982D02*
Y75382D01*
X20940Y40870D02*
X21340D01*
X21140Y40670D02*
Y41070D01*
X31100Y40870D02*
X31500D01*
X31300Y40670D02*
Y41070D01*
X26020Y40870D02*
X26420D01*
X26220Y40670D02*
Y41070D01*
X28560Y40870D02*
X28960D01*
X28760Y40670D02*
Y41070D01*
X23480Y40870D02*
X23880D01*
X23680Y40670D02*
Y41070D01*
X23480Y42370D02*
X23880D01*
X23680Y42170D02*
Y42570D01*
X28560Y42370D02*
X28960D01*
X28760Y42170D02*
Y42570D01*
X26020Y42370D02*
X26420D01*
X26220Y42170D02*
Y42570D01*
X31100Y42370D02*
X31500D01*
X31300Y42170D02*
Y42570D01*
X20940Y42370D02*
X21340D01*
X21140Y42170D02*
Y42570D01*
X23480Y39370D02*
X23880D01*
X23680Y39170D02*
Y39570D01*
X26020Y39370D02*
X26420D01*
X26220Y39170D02*
Y39570D01*
X31100Y39370D02*
X31500D01*
X31300Y39170D02*
Y39570D01*
X33640Y42370D02*
X34040D01*
X33840Y42170D02*
Y42570D01*
X33640Y40870D02*
X34040D01*
X33840Y40670D02*
Y41070D01*
X28560Y39370D02*
X28960D01*
X28760Y39170D02*
Y39570D01*
X33640Y39370D02*
X34040D01*
X33840Y39170D02*
Y39570D01*
X41964Y54000D02*
X42364D01*
X42164Y53800D02*
Y54200D01*
X39464Y54000D02*
X39864D01*
X39664Y53800D02*
Y54200D01*
X39464Y57000D02*
X39864D01*
X39664Y56800D02*
Y57200D01*
X41964Y57000D02*
X42364D01*
X42164Y56800D02*
Y57200D01*
X41964Y55500D02*
X42364D01*
X42164Y55300D02*
Y55700D01*
X39464Y55500D02*
X39864D01*
X39664Y55300D02*
Y55700D01*
X33524Y65000D02*
X33924D01*
X33724Y64800D02*
Y65200D01*
X28560Y65000D02*
X28960D01*
X28760Y64800D02*
Y65200D01*
X33524Y66500D02*
X33924D01*
X33724Y66300D02*
Y66700D01*
X33524Y68000D02*
X33924D01*
X33724Y67800D02*
Y68200D01*
X20940Y65000D02*
X21340D01*
X21140Y64800D02*
Y65200D01*
X31042Y65000D02*
X31442D01*
X31242Y64800D02*
Y65200D01*
X26020Y65000D02*
X26420D01*
X26220Y64800D02*
Y65200D01*
X23480Y65000D02*
X23880D01*
X23680Y64800D02*
Y65200D01*
X20940Y68000D02*
X21340D01*
X21140Y67800D02*
Y68200D01*
X31100Y68000D02*
X31500D01*
X31300Y67800D02*
Y68200D01*
X26020Y68000D02*
X26420D01*
X26220Y67800D02*
Y68200D01*
X28560Y68000D02*
X28960D01*
X28760Y67800D02*
Y68200D01*
X23480Y68000D02*
X23880D01*
X23680Y67800D02*
Y68200D01*
X23480Y66500D02*
X23880D01*
X23680Y66300D02*
Y66700D01*
X28560Y66500D02*
X28960D01*
X28760Y66300D02*
Y66700D01*
X26020Y66500D02*
X26420D01*
X26220Y66300D02*
Y66700D01*
X31100Y66500D02*
X31500D01*
X31300Y66300D02*
Y66700D01*
X20940Y66500D02*
X21340D01*
X21140Y66300D02*
Y66700D01*
%TF.MD5,d6c6e7b635f70a6c9ca828fb61e11d6c*%
M02*
