G04*
G04 #@! TF.GenerationSoftware,Altium Limited,Altium Designer,24.8.2 (39)*
G04*
G04 Layer_Color=32896*
%FSLAX25Y25*%
%MOIN*%
G70*
G04*
G04 #@! TF.SameCoordinates,0347263F-4986-443A-A638-574EEFBA0464*
G04*
G04*
G04 #@! TF.FilePolarity,Positive*
G04*
G01*
G75*
%ADD11C,0.00500*%
G36*
X132918Y165017D02*
X133139D01*
Y164944D01*
X133359D01*
Y164870D01*
X133506D01*
Y164797D01*
X133653D01*
Y164724D01*
X133800D01*
Y164650D01*
X133873D01*
Y164577D01*
X133947D01*
Y164503D01*
X134093D01*
Y164430D01*
X134167D01*
Y164356D01*
X134240D01*
Y164283D01*
X134314D01*
Y164136D01*
X134387D01*
Y164062D01*
X134461D01*
Y163989D01*
X134534D01*
Y163842D01*
X134608D01*
Y163769D01*
X134681D01*
Y163622D01*
X134755D01*
Y163401D01*
X134828D01*
Y163181D01*
X134901D01*
Y162887D01*
X134975D01*
Y152163D01*
X134901D01*
Y151796D01*
X134828D01*
Y151576D01*
X134755D01*
Y151429D01*
X134681D01*
Y151282D01*
X134608D01*
Y151135D01*
X134534D01*
Y151061D01*
X134461D01*
Y150915D01*
X134387D01*
Y150841D01*
X134314D01*
Y150768D01*
X134240D01*
Y150694D01*
X134167D01*
Y150621D01*
X134093D01*
Y150547D01*
X134020D01*
Y150474D01*
X133947D01*
Y150400D01*
X133800D01*
Y150327D01*
X133726D01*
Y150253D01*
X133579D01*
Y150180D01*
X133432D01*
Y150107D01*
X133285D01*
Y150033D01*
X133065D01*
Y149960D01*
X132698D01*
Y149886D01*
X117346D01*
Y149960D01*
X116979D01*
Y150033D01*
X116759D01*
Y150107D01*
X116612D01*
Y150180D01*
X116465D01*
Y150253D01*
X116318D01*
Y150327D01*
X116171D01*
Y150400D01*
X116098D01*
Y150474D01*
X116024D01*
Y150547D01*
X115951D01*
Y150621D01*
X115877D01*
Y150694D01*
X115804D01*
Y150768D01*
X115730D01*
Y150841D01*
X115657D01*
Y150915D01*
X115584D01*
Y150988D01*
X115510D01*
Y151135D01*
X115437D01*
Y151208D01*
X115363D01*
Y151355D01*
X115290D01*
Y151576D01*
X115216D01*
Y151722D01*
X115143D01*
Y152016D01*
X115069D01*
Y162961D01*
X115143D01*
Y163254D01*
X115216D01*
Y163475D01*
X115290D01*
Y163622D01*
X115363D01*
Y163769D01*
X115437D01*
Y163916D01*
X115510D01*
Y163989D01*
X115584D01*
Y164136D01*
X115657D01*
Y164209D01*
X115730D01*
Y164283D01*
X115804D01*
Y164356D01*
X115877D01*
Y164430D01*
X115951D01*
Y164503D01*
X116024D01*
Y164577D01*
X116171D01*
Y164650D01*
X116244D01*
Y164724D01*
X116391D01*
Y164797D01*
X116538D01*
Y164870D01*
X116685D01*
Y164944D01*
X116832D01*
Y165017D01*
X117126D01*
Y165091D01*
X132918D01*
Y165017D01*
D02*
G37*
%LPC*%
G36*
X132771Y163916D02*
X117273D01*
Y163842D01*
X117052D01*
Y163769D01*
X116906D01*
Y163695D01*
X116832D01*
Y163622D01*
X116759D01*
Y163548D01*
X116685D01*
Y163475D01*
X116612D01*
Y163401D01*
X116538D01*
Y163328D01*
X116465D01*
Y163254D01*
X116391D01*
Y163108D01*
X116318D01*
Y162887D01*
X116244D01*
Y152163D01*
X116318D01*
Y151943D01*
X116391D01*
Y151796D01*
X116465D01*
Y151649D01*
X116538D01*
Y151576D01*
X116612D01*
Y151502D01*
X116685D01*
Y151429D01*
X116759D01*
Y151355D01*
X116906D01*
Y151282D01*
X116979D01*
Y151208D01*
X117126D01*
Y151135D01*
X117420D01*
Y151061D01*
X132551D01*
Y151135D01*
X132845D01*
Y151208D01*
X133065D01*
Y151282D01*
X133139D01*
Y151355D01*
X133285D01*
Y151429D01*
X133359D01*
Y151502D01*
X133432D01*
Y151649D01*
X133506D01*
Y151722D01*
X133579D01*
Y151869D01*
X133653D01*
Y152016D01*
X133726D01*
Y152237D01*
X133800D01*
Y162814D01*
X133726D01*
Y163034D01*
X133653D01*
Y163181D01*
X133579D01*
Y163328D01*
X133506D01*
Y163401D01*
X133432D01*
Y163475D01*
X133359D01*
Y163548D01*
X133285D01*
Y163622D01*
X133212D01*
Y163695D01*
X133065D01*
Y163769D01*
X132992D01*
Y163842D01*
X132771D01*
Y163916D01*
D02*
G37*
%LPD*%
G36*
X124691Y152824D02*
X123002D01*
Y153412D01*
X124104D01*
Y157305D01*
X123957D01*
Y157378D01*
X123883D01*
Y157452D01*
X123810D01*
Y157525D01*
X123737D01*
Y157599D01*
X123663D01*
Y157672D01*
X123590D01*
Y157746D01*
X123516D01*
Y157819D01*
X123443D01*
Y157892D01*
X123369D01*
Y157966D01*
X123296D01*
Y158039D01*
X123222D01*
Y158113D01*
X123076D01*
Y158186D01*
X123002D01*
Y158260D01*
X122929D01*
Y158333D01*
X122855D01*
Y158407D01*
X122782D01*
Y158480D01*
X122708D01*
Y158554D01*
X122635D01*
Y158627D01*
X122561D01*
Y158700D01*
X122488D01*
Y158774D01*
X122341D01*
Y158921D01*
X122194D01*
Y158994D01*
X122121D01*
Y159068D01*
X122047D01*
Y159141D01*
X121974D01*
Y159215D01*
X121900D01*
Y159288D01*
X121827D01*
Y159361D01*
X121753D01*
Y159435D01*
X121680D01*
Y159508D01*
X121533D01*
Y159582D01*
X121460D01*
Y159655D01*
X121386D01*
Y159729D01*
X121313D01*
Y159802D01*
X121239D01*
Y159876D01*
X121166D01*
Y159949D01*
X121092D01*
Y160022D01*
X121019D01*
Y160096D01*
X120872D01*
Y159876D01*
X120799D01*
Y159655D01*
X120725D01*
Y159435D01*
X120652D01*
Y159215D01*
X120578D01*
Y158994D01*
X120505D01*
Y158774D01*
X120431D01*
Y158480D01*
X120358D01*
Y158260D01*
X120284D01*
Y158039D01*
X120211D01*
Y157819D01*
X120138D01*
Y157599D01*
X120064D01*
Y157378D01*
X119991D01*
Y157158D01*
X119917D01*
Y156864D01*
X119844D01*
Y156644D01*
X119770D01*
Y156423D01*
X119697D01*
Y156203D01*
X119623D01*
Y155983D01*
X119550D01*
Y155762D01*
X119476D01*
Y155542D01*
X119403D01*
Y155248D01*
X119330D01*
Y155028D01*
X119256D01*
Y154807D01*
X119183D01*
Y154587D01*
X119109D01*
Y154367D01*
X119036D01*
Y154146D01*
X118962D01*
Y153852D01*
X118889D01*
Y153706D01*
X119403D01*
Y153632D01*
X119476D01*
Y153191D01*
X119403D01*
Y153118D01*
X117126D01*
Y153706D01*
X118595D01*
Y153926D01*
X118668D01*
Y154146D01*
X118742D01*
Y154367D01*
X118815D01*
Y154587D01*
X118889D01*
Y154807D01*
X118962D01*
Y155028D01*
X119036D01*
Y155248D01*
X119109D01*
Y155468D01*
X119183D01*
Y155762D01*
X119256D01*
Y155983D01*
X119330D01*
Y156203D01*
X119403D01*
Y156423D01*
X119476D01*
Y156644D01*
X119550D01*
Y156864D01*
X119623D01*
Y157084D01*
X119697D01*
Y157305D01*
X119770D01*
Y157525D01*
X119844D01*
Y157746D01*
X119917D01*
Y158039D01*
X119991D01*
Y158260D01*
X120064D01*
Y158480D01*
X120138D01*
Y158700D01*
X120211D01*
Y158921D01*
X120284D01*
Y159141D01*
X120358D01*
Y159361D01*
X120431D01*
Y159582D01*
X120505D01*
Y159876D01*
X120578D01*
Y160022D01*
X120652D01*
Y160243D01*
X120725D01*
Y160537D01*
X120799D01*
Y160757D01*
X120872D01*
Y160977D01*
X120946D01*
Y161198D01*
X121019D01*
Y161418D01*
X121092D01*
Y161638D01*
X121166D01*
Y161859D01*
X121239D01*
Y161785D01*
X121386D01*
Y161712D01*
X121460D01*
Y161565D01*
X121607D01*
Y161492D01*
X121680D01*
Y161418D01*
X121753D01*
Y161345D01*
X121827D01*
Y161271D01*
X121900D01*
Y161198D01*
X121974D01*
Y161124D01*
X122047D01*
Y161051D01*
X122121D01*
Y160977D01*
X122194D01*
Y160904D01*
X122268D01*
Y160830D01*
X122341D01*
Y160757D01*
X122415D01*
Y160684D01*
X122488D01*
Y160610D01*
X122561D01*
Y160537D01*
X122635D01*
Y160463D01*
X122708D01*
Y160390D01*
X122782D01*
Y160316D01*
X122855D01*
Y160243D01*
X122929D01*
Y160169D01*
X123002D01*
Y160096D01*
X123076D01*
Y159949D01*
X123222D01*
Y159876D01*
X123296D01*
Y159729D01*
X123443D01*
Y159655D01*
X123516D01*
Y159582D01*
X123590D01*
Y159508D01*
X123663D01*
Y159435D01*
X123737D01*
Y159361D01*
X123810D01*
Y159288D01*
X123883D01*
Y159215D01*
X123957D01*
Y159141D01*
X124030D01*
Y159068D01*
X124104D01*
Y162520D01*
X122708D01*
Y162593D01*
X122635D01*
Y163034D01*
X124691D01*
Y152824D01*
D02*
G37*
G36*
X127336Y162520D02*
X125940D01*
Y162446D01*
X125867D01*
Y158994D01*
X125940D01*
Y159068D01*
X126014D01*
Y159141D01*
X126087D01*
Y159215D01*
X126161D01*
Y159288D01*
X126234D01*
Y159361D01*
X126307D01*
Y159435D01*
X126381D01*
Y159508D01*
X126454D01*
Y159582D01*
X126528D01*
Y159655D01*
X126601D01*
Y159729D01*
X126675D01*
Y159802D01*
X126748D01*
Y159876D01*
X126822D01*
Y159949D01*
X126895D01*
Y160022D01*
X126969D01*
Y160096D01*
X127042D01*
Y160169D01*
X127115D01*
Y160243D01*
X127189D01*
Y160316D01*
X127262D01*
Y160390D01*
X127336D01*
Y160463D01*
X127409D01*
Y160537D01*
X127483D01*
Y160610D01*
X127556D01*
Y160684D01*
X127630D01*
Y160757D01*
X127703D01*
Y160830D01*
X127777D01*
Y160904D01*
X127850D01*
Y160977D01*
X127923D01*
Y161051D01*
X127997D01*
Y161124D01*
X128070D01*
Y161198D01*
X128144D01*
Y161271D01*
X128217D01*
Y161345D01*
X128291D01*
Y161418D01*
X128364D01*
Y161492D01*
X128438D01*
Y161565D01*
X128511D01*
Y161638D01*
X128585D01*
Y161712D01*
X128658D01*
Y161785D01*
X128731D01*
Y161859D01*
X128805D01*
Y161785D01*
X128878D01*
Y161565D01*
X128952D01*
Y161345D01*
X129025D01*
Y161124D01*
X129099D01*
Y160904D01*
X129172D01*
Y160684D01*
X129246D01*
Y160463D01*
X129319D01*
Y160243D01*
X129393D01*
Y159949D01*
X129466D01*
Y159802D01*
X129539D01*
Y159582D01*
X129613D01*
Y159288D01*
X129686D01*
Y159068D01*
X129760D01*
Y158847D01*
X129833D01*
Y158627D01*
X129907D01*
Y158407D01*
X129980D01*
Y158186D01*
X130053D01*
Y157966D01*
X130127D01*
Y157672D01*
X130200D01*
Y157452D01*
X130274D01*
Y157231D01*
X130347D01*
Y157011D01*
X130421D01*
Y156791D01*
X130494D01*
Y156570D01*
X130568D01*
Y156350D01*
X130641D01*
Y156130D01*
X130715D01*
Y155909D01*
X130788D01*
Y155689D01*
X130861D01*
Y155468D01*
X130935D01*
Y155175D01*
X131008D01*
Y154954D01*
X131082D01*
Y154734D01*
X131155D01*
Y154514D01*
X131229D01*
Y154293D01*
X131302D01*
Y154073D01*
X131376D01*
Y153779D01*
X131449D01*
Y153706D01*
X132918D01*
Y153118D01*
X130568D01*
Y153706D01*
X131155D01*
Y153852D01*
X131082D01*
Y154073D01*
X131008D01*
Y154293D01*
X130935D01*
Y154514D01*
X130861D01*
Y154734D01*
X130788D01*
Y154954D01*
X130715D01*
Y155248D01*
X130641D01*
Y155468D01*
X130568D01*
Y155689D01*
X130494D01*
Y155909D01*
X130421D01*
Y156130D01*
X130347D01*
Y156350D01*
X130274D01*
Y156570D01*
X130200D01*
Y156864D01*
X130127D01*
Y157084D01*
X130053D01*
Y157305D01*
X129980D01*
Y157525D01*
X129907D01*
Y157746D01*
X129833D01*
Y157966D01*
X129760D01*
Y158186D01*
X129686D01*
Y158407D01*
X129613D01*
Y158700D01*
X129539D01*
Y158921D01*
X129466D01*
Y159141D01*
X129393D01*
Y159361D01*
X129319D01*
Y159582D01*
X129246D01*
Y159876D01*
X129172D01*
Y160022D01*
X129099D01*
Y160096D01*
X129025D01*
Y160022D01*
X128952D01*
Y159949D01*
X128878D01*
Y159876D01*
X128805D01*
Y159802D01*
X128658D01*
Y159655D01*
X128511D01*
Y159582D01*
X128438D01*
Y159508D01*
X128364D01*
Y159435D01*
X128291D01*
Y159361D01*
X128217D01*
Y159288D01*
X128144D01*
Y159215D01*
X128070D01*
Y159141D01*
X127997D01*
Y159068D01*
X127923D01*
Y158994D01*
X127777D01*
Y158921D01*
X127703D01*
Y158847D01*
X127630D01*
Y158774D01*
X127556D01*
Y158700D01*
X127483D01*
Y158627D01*
X127409D01*
Y158554D01*
X127336D01*
Y158480D01*
X127262D01*
Y158407D01*
X127189D01*
Y158333D01*
X127042D01*
Y158260D01*
X126969D01*
Y158186D01*
X126895D01*
Y158113D01*
X126822D01*
Y158039D01*
X126748D01*
Y157966D01*
X126675D01*
Y157892D01*
X126601D01*
Y157819D01*
X126528D01*
Y157746D01*
X126454D01*
Y157672D01*
X126381D01*
Y157599D01*
X126307D01*
Y157525D01*
X126161D01*
Y157452D01*
X126087D01*
Y157378D01*
X126014D01*
Y157305D01*
X125940D01*
Y157231D01*
X125867D01*
Y153485D01*
X125940D01*
Y153412D01*
X127042D01*
Y153338D01*
Y153265D01*
Y152824D01*
X125353D01*
Y152898D01*
X125279D01*
Y163034D01*
X127336D01*
Y162520D01*
D02*
G37*
G36*
X132918Y151943D02*
X117126D01*
Y152530D01*
X132918D01*
Y151943D01*
D02*
G37*
D11*
X179001Y166499D02*
X179500Y166999D01*
X180500D01*
X181000Y166499D01*
Y165999D01*
X180500Y165499D01*
X179500D01*
X179001Y164999D01*
Y164499D01*
X179500Y164000D01*
X180500D01*
X181000Y164499D01*
X178001Y163000D02*
Y165999D01*
X176501D01*
X176002Y165499D01*
Y164499D01*
X176501Y164000D01*
X178001D01*
X175002Y165999D02*
Y164000D01*
Y164999D01*
X174502Y165499D01*
X174002Y165999D01*
X173502D01*
X172003Y164000D02*
X171003D01*
X171503D01*
Y165999D01*
X172003D01*
X169504Y164000D02*
Y165999D01*
X168004D01*
X167504Y165499D01*
Y164000D01*
X165505Y163000D02*
X165005D01*
X164505Y163500D01*
Y165999D01*
X166005D01*
X166505Y165499D01*
Y164499D01*
X166005Y164000D01*
X164505D01*
X158507D02*
X160507D01*
X158507Y165999D01*
Y166499D01*
X159007Y166999D01*
X160007D01*
X160507Y166499D01*
X157508D02*
X157008Y166999D01*
X156008D01*
X155508Y166499D01*
Y164499D01*
X156008Y164000D01*
X157008D01*
X157508Y164499D01*
Y166499D01*
X152509Y164000D02*
X154509D01*
X152509Y165999D01*
Y166499D01*
X153009Y166999D01*
X154009D01*
X154509Y166499D01*
X149510Y166999D02*
X151509D01*
Y165499D01*
X150510Y165999D01*
X150010D01*
X149510Y165499D01*
Y164499D01*
X150010Y164000D01*
X151010D01*
X151509Y164499D01*
X181000Y150500D02*
Y153499D01*
X179500D01*
X179001Y152999D01*
Y151999D01*
X179500Y151500D01*
X181000D01*
X180000D02*
X179001Y150500D01*
X177501D02*
X176501D01*
X176002Y151000D01*
Y151999D01*
X176501Y152499D01*
X177501D01*
X178001Y151999D01*
Y151000D01*
X177501Y150500D01*
X175002Y152499D02*
X174002Y150500D01*
X173003Y152499D01*
X170503Y150500D02*
X171503D01*
X172003Y151000D01*
Y151999D01*
X171503Y152499D01*
X170503D01*
X170004Y151999D01*
Y151500D01*
X172003D01*
X169004Y152499D02*
Y150500D01*
Y151500D01*
X168504Y151999D01*
X168004Y152499D01*
X167504D01*
X163006Y150500D02*
Y153499D01*
X162006Y152499D01*
X161006Y153499D01*
Y150500D01*
X159507D02*
X158507D01*
X158007Y151000D01*
Y151999D01*
X158507Y152499D01*
X159507D01*
X160007Y151999D01*
Y151000D01*
X159507Y150500D01*
X156508Y152999D02*
Y152499D01*
X157008D01*
X156008D01*
X156508D01*
Y151000D01*
X156008Y150500D01*
X154009D02*
X153009D01*
X152509Y151000D01*
Y151999D01*
X153009Y152499D01*
X154009D01*
X154509Y151999D01*
Y151000D01*
X154009Y150500D01*
X151509Y152499D02*
Y150500D01*
Y151500D01*
X151010Y151999D01*
X150510Y152499D01*
X150010D01*
X145511Y153499D02*
Y150500D01*
Y151999D01*
X143512D01*
Y153499D01*
Y150500D01*
X142013Y152499D02*
X141013D01*
X140513Y151999D01*
Y150500D01*
X142013D01*
X142512Y151000D01*
X142013Y151500D01*
X140513D01*
X139014Y152999D02*
Y152499D01*
X139513D01*
X138514D01*
X139014D01*
Y151000D01*
X138514Y150500D01*
X181000Y160999D02*
Y158000D01*
Y159500D01*
X179001D01*
Y160999D01*
Y158000D01*
X177501Y159999D02*
X176501D01*
X176002Y159500D01*
Y158000D01*
X177501D01*
X178001Y158500D01*
X177501Y159000D01*
X176002D01*
X175002Y158000D02*
Y159999D01*
X173502D01*
X173003Y159500D01*
Y158000D01*
X172003D02*
Y159999D01*
X170503D01*
X170004Y159500D01*
Y158000D01*
X168504Y159999D02*
X167504D01*
X167005Y159500D01*
Y158000D01*
X168504D01*
X169004Y158500D01*
X168504Y159000D01*
X167005D01*
X166005Y160999D02*
Y158000D01*
Y159500D01*
X165505Y159999D01*
X164505D01*
X164005Y159500D01*
Y158000D01*
X158007Y160499D02*
X158507Y160999D01*
X159507D01*
X160007Y160499D01*
Y158500D01*
X159507Y158000D01*
X158507D01*
X158007Y158500D01*
X157008Y160999D02*
Y158000D01*
Y159500D01*
X156508Y159999D01*
X155508D01*
X155008Y159500D01*
Y158000D01*
X153509D02*
X152509D01*
X152009Y158500D01*
Y159500D01*
X152509Y159999D01*
X153509D01*
X154009Y159500D01*
Y158500D01*
X153509Y158000D01*
M02*
