G04*
G04 #@! TF.GenerationSoftware,Altium Limited,Altium Designer,24.8.2 (39)*
G04*
G04 Layer_Physical_Order=2*
G04 Layer_Color=16711680*
%FSLAX25Y25*%
%MOIN*%
G70*
G04*
G04 #@! TF.SameCoordinates,0347263F-4986-443A-A638-574EEFBA0464*
G04*
G04*
G04 #@! TF.FilePolarity,Positive*
G04*
G01*
G75*
%ADD18C,0.01000*%
%ADD19C,0.24410*%
%ADD20R,0.06000X0.06000*%
%ADD21C,0.06000*%
%ADD22C,0.04528*%
%ADD23R,0.04528X0.04528*%
G36*
X185000Y107500D02*
X102500D01*
Y195000D01*
X185000D01*
Y107500D01*
D02*
G37*
%LPC*%
G36*
X178027Y188000D02*
X178000D01*
Y184500D01*
X181500D01*
Y184527D01*
X181227Y185544D01*
X180701Y186456D01*
X179956Y187201D01*
X179044Y187727D01*
X178027Y188000D01*
D02*
G37*
G36*
X177000D02*
X176973D01*
X175956Y187727D01*
X175044Y187201D01*
X174299Y186456D01*
X173773Y185544D01*
X173500Y184527D01*
Y184500D01*
X177000D01*
Y188000D01*
D02*
G37*
G36*
X181500Y183500D02*
X178000D01*
Y180000D01*
X178027D01*
X179044Y180273D01*
X179956Y180799D01*
X180701Y181544D01*
X181227Y182456D01*
X181500Y183473D01*
Y183500D01*
D02*
G37*
G36*
X177000D02*
X173500D01*
Y183473D01*
X173773Y182456D01*
X174299Y181544D01*
X175044Y180799D01*
X175956Y180273D01*
X176973Y180000D01*
X177000D01*
Y183500D01*
D02*
G37*
G36*
X168027Y188000D02*
X166973D01*
X165956Y187727D01*
X165044Y187201D01*
X164299Y186456D01*
X163773Y185544D01*
X163500Y184527D01*
Y183473D01*
X163773Y182456D01*
X163780Y182443D01*
X160919Y179581D01*
X160587Y179085D01*
X160471Y178500D01*
Y178048D01*
X159471Y177481D01*
X159044Y177727D01*
X158027Y178000D01*
X156973D01*
X155956Y177727D01*
X155044Y177201D01*
X154299Y176456D01*
X153773Y175544D01*
X153500Y174527D01*
Y173473D01*
X153773Y172456D01*
X154299Y171544D01*
X155044Y170799D01*
X155956Y170273D01*
X156432Y170145D01*
X156738Y169037D01*
X144354Y156653D01*
X142187D01*
X141602Y156537D01*
X141106Y156205D01*
X127347Y142447D01*
X126541Y143051D01*
X126745Y143811D01*
X124000D01*
Y141066D01*
X124760Y141270D01*
X125364Y140464D01*
X124459Y139559D01*
X123930Y139701D01*
X123070D01*
X122240Y139478D01*
X121496Y139049D01*
X120888Y138441D01*
X120459Y137697D01*
X120236Y136867D01*
Y136007D01*
X120459Y135177D01*
X120888Y134433D01*
X121496Y133825D01*
X122240Y133396D01*
X123070Y133173D01*
X123930D01*
X124760Y133396D01*
X125504Y133825D01*
X126112Y134433D01*
X126541Y135177D01*
X126764Y136007D01*
Y136867D01*
X126622Y137396D01*
X142821Y153595D01*
X144988D01*
X145573Y153711D01*
X146069Y154043D01*
X163081Y171055D01*
X163267Y171332D01*
X163980Y171478D01*
X164014Y171480D01*
X164409Y171434D01*
X165044Y170799D01*
X165956Y170273D01*
X166973Y170000D01*
X168027D01*
X169044Y170273D01*
X169956Y170799D01*
X170701Y171544D01*
X171227Y172456D01*
X171500Y173473D01*
Y174527D01*
X171227Y175544D01*
X170701Y176456D01*
X169956Y177201D01*
X169044Y177727D01*
X168027Y178000D01*
X166973D01*
X165956Y177727D01*
X165044Y177201D01*
X164641Y176798D01*
X163704Y177107D01*
X163612Y177759D01*
X163622Y177959D01*
X165943Y180280D01*
X165956Y180273D01*
X166973Y180000D01*
X168027D01*
X169044Y180273D01*
X169956Y180799D01*
X170701Y181544D01*
X171227Y182456D01*
X171500Y183473D01*
Y184527D01*
X171227Y185544D01*
X170701Y186456D01*
X169956Y187201D01*
X169044Y187727D01*
X168027Y188000D01*
D02*
G37*
G36*
X158027D02*
X156973D01*
X155956Y187727D01*
X155044Y187201D01*
X154299Y186456D01*
X153773Y185544D01*
X153500Y184527D01*
Y183473D01*
X153773Y182456D01*
X154299Y181544D01*
X155044Y180799D01*
X155956Y180273D01*
X156973Y180000D01*
X158027D01*
X159044Y180273D01*
X159956Y180799D01*
X160701Y181544D01*
X161227Y182456D01*
X161500Y183473D01*
Y184527D01*
X161227Y185544D01*
X160701Y186456D01*
X159956Y187201D01*
X159044Y187727D01*
X158027Y188000D01*
D02*
G37*
G36*
X148027D02*
X146973D01*
X145956Y187727D01*
X145044Y187201D01*
X144299Y186456D01*
X143773Y185544D01*
X143500Y184527D01*
Y183473D01*
X143773Y182456D01*
X144299Y181544D01*
X145044Y180799D01*
X145956Y180273D01*
X146973Y180000D01*
X148027D01*
X149044Y180273D01*
X149956Y180799D01*
X150701Y181544D01*
X151227Y182456D01*
X151500Y183473D01*
Y184527D01*
X151227Y185544D01*
X150701Y186456D01*
X149956Y187201D01*
X149044Y187727D01*
X148027Y188000D01*
D02*
G37*
G36*
X138027D02*
X136973D01*
X135956Y187727D01*
X135044Y187201D01*
X134299Y186456D01*
X133773Y185544D01*
X133500Y184527D01*
Y183473D01*
X133773Y182456D01*
X134299Y181544D01*
X135044Y180799D01*
X135956Y180273D01*
X136973Y180000D01*
X138027D01*
X139044Y180273D01*
X139956Y180799D01*
X140701Y181544D01*
X141227Y182456D01*
X141500Y183473D01*
Y184527D01*
X141227Y185544D01*
X140701Y186456D01*
X139956Y187201D01*
X139044Y187727D01*
X138027Y188000D01*
D02*
G37*
G36*
X178027Y178000D02*
X178000D01*
Y174500D01*
X181500D01*
Y174527D01*
X181227Y175544D01*
X180701Y176456D01*
X179956Y177201D01*
X179044Y177727D01*
X178027Y178000D01*
D02*
G37*
G36*
X177000D02*
X176973D01*
X175956Y177727D01*
X175044Y177201D01*
X174299Y176456D01*
X173773Y175544D01*
X173500Y174527D01*
Y174500D01*
X177000D01*
Y178000D01*
D02*
G37*
G36*
X181500Y173500D02*
X178000D01*
Y170000D01*
X178027D01*
X179044Y170273D01*
X179956Y170799D01*
X180701Y171544D01*
X181227Y172456D01*
X181500Y173473D01*
Y173500D01*
D02*
G37*
G36*
X177000D02*
X173500D01*
Y173473D01*
X173773Y172456D01*
X174299Y171544D01*
X175044Y170799D01*
X175956Y170273D01*
X176973Y170000D01*
X177000D01*
Y173500D01*
D02*
G37*
G36*
X148027Y178000D02*
X146973D01*
X145956Y177727D01*
X145044Y177201D01*
X144299Y176456D01*
X143773Y175544D01*
X143500Y174527D01*
Y173473D01*
X143773Y172456D01*
X144299Y171544D01*
X145044Y170799D01*
X145956Y170273D01*
X146973Y170000D01*
X148027D01*
X149044Y170273D01*
X149956Y170799D01*
X150701Y171544D01*
X151227Y172456D01*
X151500Y173473D01*
Y174527D01*
X151227Y175544D01*
X150701Y176456D01*
X149956Y177201D01*
X149044Y177727D01*
X148027Y178000D01*
D02*
G37*
G36*
X141500D02*
X133500D01*
Y170000D01*
X141500D01*
Y178000D01*
D02*
G37*
G36*
X119366Y192205D02*
X117288D01*
X115235Y191880D01*
X113258Y191237D01*
X111406Y190294D01*
X109724Y189072D01*
X108255Y187602D01*
X107033Y185921D01*
X106089Y184069D01*
X105447Y182092D01*
X105122Y180039D01*
Y177961D01*
X105447Y175908D01*
X106089Y173931D01*
X107033Y172079D01*
X108255Y170398D01*
X109724Y168928D01*
X111406Y167706D01*
X113258Y166763D01*
X115235Y166120D01*
X117288Y165795D01*
X119366D01*
X121419Y166120D01*
X123396Y166763D01*
X125248Y167706D01*
X126929Y168928D01*
X128399Y170398D01*
X129621Y172079D01*
X130564Y173931D01*
X131206Y175908D01*
X131532Y177961D01*
Y180039D01*
X131206Y182092D01*
X130564Y184069D01*
X129621Y185921D01*
X128399Y187602D01*
X126929Y189072D01*
X125248Y190294D01*
X123396Y191237D01*
X121419Y191880D01*
X119366Y192205D01*
D02*
G37*
G36*
X161000Y147556D02*
Y144811D01*
X163745D01*
X163541Y145571D01*
X163112Y146315D01*
X162504Y146923D01*
X161760Y147352D01*
X161000Y147556D01*
D02*
G37*
G36*
X124000D02*
Y144811D01*
X126745D01*
X126541Y145571D01*
X126112Y146315D01*
X125504Y146923D01*
X124760Y147352D01*
X124000Y147556D01*
D02*
G37*
G36*
X160000D02*
X159240Y147352D01*
X158496Y146923D01*
X157888Y146315D01*
X157459Y145571D01*
X157255Y144811D01*
X160000D01*
Y147556D01*
D02*
G37*
G36*
X123000D02*
X122240Y147352D01*
X121496Y146923D01*
X120888Y146315D01*
X120459Y145571D01*
X120255Y144811D01*
X123000D01*
Y147556D01*
D02*
G37*
G36*
X163745Y143811D02*
X161000D01*
Y141066D01*
X161760Y141270D01*
X162504Y141699D01*
X163112Y142307D01*
X163541Y143051D01*
X163745Y143811D01*
D02*
G37*
G36*
X123000D02*
X120255D01*
X120459Y143051D01*
X120888Y142307D01*
X121496Y141699D01*
X122240Y141270D01*
X123000Y141066D01*
Y143811D01*
D02*
G37*
G36*
X160000D02*
X157255D01*
X157459Y143051D01*
X157888Y142307D01*
X158496Y141699D01*
X159240Y141270D01*
X160000Y141066D01*
Y143811D01*
D02*
G37*
G36*
X160930Y139701D02*
X160070D01*
X159240Y139478D01*
X158496Y139049D01*
X157888Y138441D01*
X157459Y137697D01*
X157236Y136867D01*
Y136007D01*
X157459Y135177D01*
X157888Y134433D01*
X158496Y133825D01*
X159240Y133396D01*
X160070Y133173D01*
X160930D01*
X161760Y133396D01*
X162504Y133825D01*
X163112Y134433D01*
X163541Y135177D01*
X163764Y136007D01*
Y136867D01*
X163541Y137697D01*
X163112Y138441D01*
X162504Y139049D01*
X161760Y139478D01*
X160930Y139701D01*
D02*
G37*
G36*
Y131827D02*
X160070D01*
X159240Y131604D01*
X158496Y131175D01*
X157888Y130567D01*
X157459Y129823D01*
X157236Y128993D01*
Y128133D01*
X157459Y127303D01*
X157888Y126559D01*
X158496Y125951D01*
X159240Y125522D01*
X160070Y125299D01*
X160930D01*
X161760Y125522D01*
X162504Y125951D01*
X163112Y126559D01*
X163541Y127303D01*
X163764Y128133D01*
Y128993D01*
X163541Y129823D01*
X163112Y130567D01*
X162504Y131175D01*
X161760Y131604D01*
X160930Y131827D01*
D02*
G37*
G36*
X123930D02*
X123070D01*
X122240Y131604D01*
X121496Y131175D01*
X120888Y130567D01*
X120459Y129823D01*
X120236Y128993D01*
Y128133D01*
X120459Y127303D01*
X120888Y126559D01*
X121496Y125951D01*
X122240Y125522D01*
X123070Y125299D01*
X123930D01*
X124760Y125522D01*
X125504Y125951D01*
X126112Y126559D01*
X126541Y127303D01*
X126764Y128133D01*
Y128993D01*
X126541Y129823D01*
X126112Y130567D01*
X125504Y131175D01*
X124760Y131604D01*
X123930Y131827D01*
D02*
G37*
G36*
X163764Y123953D02*
X157236D01*
Y117425D01*
X163764D01*
Y123953D01*
D02*
G37*
G36*
X126764D02*
X120236D01*
Y117425D01*
X126764D01*
Y123953D01*
D02*
G37*
%LPD*%
D18*
X162000Y178500D02*
X167500Y184000D01*
X162000Y172136D02*
Y178500D01*
X144988Y155124D02*
X162000Y172136D01*
X142187Y155124D02*
X144988D01*
X123500Y136437D02*
X142187Y155124D01*
D19*
X118327Y179000D02*
D03*
D20*
X137500Y174000D02*
D03*
D21*
X147500D02*
D03*
X157500D02*
D03*
X167500D02*
D03*
X177500D02*
D03*
X137500Y184000D02*
D03*
X147500D02*
D03*
X157500D02*
D03*
X167500D02*
D03*
X177500D02*
D03*
D22*
X123500Y144311D02*
D03*
Y136437D02*
D03*
Y128563D02*
D03*
X160500D02*
D03*
Y136437D02*
D03*
Y144311D02*
D03*
D23*
X123500Y120689D02*
D03*
X160500D02*
D03*
M02*
