G04*
G04 #@! TF.GenerationSoftware,Altium Limited,Altium Designer,24.8.2 (39)*
G04*
G04 Layer_Color=65535*
%FSLAX25Y25*%
%MOIN*%
G70*
G04*
G04 #@! TF.SameCoordinates,0347263F-4986-443A-A638-574EEFBA0464*
G04*
G04*
G04 #@! TF.FilePolarity,Positive*
G04*
G01*
G75*
%ADD10C,0.00787*%
%ADD11C,0.00500*%
%ADD12C,0.00600*%
D10*
X123894Y109665D02*
G03*
X123894Y109665I-394J0D01*
G01*
X160894D02*
G03*
X160894Y109665I-394J0D01*
G01*
D11*
X135114Y112224D02*
Y152776D01*
X113461Y112224D02*
Y152776D01*
X135114D01*
X113461Y112224D02*
X135114D01*
X150461D02*
X172114D01*
X150461Y152776D02*
X172114D01*
X150461Y112224D02*
Y152776D01*
X172114Y112224D02*
Y152776D01*
X105001Y192499D02*
Y190000D01*
X105500Y189500D01*
X106500D01*
X107000Y190000D01*
Y192499D01*
X108000Y189500D02*
X108999D01*
X108500D01*
Y192499D01*
X108000Y192000D01*
X137825Y121111D02*
X138325Y121611D01*
X139325D01*
X139824Y121111D01*
Y120611D01*
X139325Y120112D01*
X138825D01*
X139325D01*
X139824Y119612D01*
Y119112D01*
X139325Y118612D01*
X138325D01*
X137825Y119112D01*
X140824Y121611D02*
Y119612D01*
X141824Y118612D01*
X142823Y119612D01*
Y121611D01*
X143823Y121111D02*
X144323Y121611D01*
X145323D01*
X145823Y121111D01*
Y120611D01*
X145323Y120112D01*
X144823D01*
X145323D01*
X145823Y119612D01*
Y119112D01*
X145323Y118612D01*
X144323D01*
X143823Y119112D01*
X137825Y129778D02*
X138825D01*
X138325D01*
Y126779D01*
X137825D01*
X138825D01*
X140324D02*
Y129778D01*
X142324Y126779D01*
Y129778D01*
X143323Y126779D02*
X144323D01*
X143823D01*
Y129778D01*
X143323Y129278D01*
X137825Y137944D02*
X138825D01*
X138325D01*
Y134945D01*
X137825D01*
X138825D01*
X140324D02*
Y137944D01*
X142324Y134945D01*
Y137944D01*
X145323Y134945D02*
X143323D01*
X145323Y136945D01*
Y137444D01*
X144823Y137944D01*
X143823D01*
X143323Y137444D01*
X139824Y145611D02*
X139325Y146111D01*
X138325D01*
X137825Y145611D01*
Y143612D01*
X138325Y143112D01*
X139325D01*
X139824Y143612D01*
Y144612D01*
X138825D01*
X140824Y143112D02*
Y146111D01*
X142823Y143112D01*
Y146111D01*
X143823D02*
Y143112D01*
X145323D01*
X145823Y143612D01*
Y145611D01*
X145323Y146111D01*
X143823D01*
X176499Y145999D02*
X175999Y146499D01*
X175000D01*
X174500Y145999D01*
Y144000D01*
X175000Y143500D01*
X175999D01*
X176499Y144000D01*
Y145000D01*
X175500D01*
X177499Y143500D02*
Y146499D01*
X179498Y143500D01*
Y146499D01*
X180498D02*
Y143500D01*
X181998D01*
X182497Y144000D01*
Y145999D01*
X181998Y146499D01*
X180498D01*
X174500Y138332D02*
X175500D01*
X175000D01*
Y135333D01*
X174500D01*
X175500D01*
X176999D02*
Y138332D01*
X178998Y135333D01*
Y138332D01*
X181998Y135333D02*
X179998D01*
X181998Y137333D01*
Y137832D01*
X181498Y138332D01*
X180498D01*
X179998Y137832D01*
X174500Y130166D02*
X175500D01*
X175000D01*
Y127167D01*
X174500D01*
X175500D01*
X176999D02*
Y130166D01*
X178998Y127167D01*
Y130166D01*
X179998Y127167D02*
X180998D01*
X180498D01*
Y130166D01*
X179998Y129666D01*
X174500Y121499D02*
X175000Y121999D01*
X175999D01*
X176499Y121499D01*
Y120999D01*
X175999Y120500D01*
X175500D01*
X175999D01*
X176499Y120000D01*
Y119500D01*
X175999Y119000D01*
X175000D01*
X174500Y119500D01*
X177499Y121999D02*
Y120000D01*
X178499Y119000D01*
X179498Y120000D01*
Y121999D01*
X180498Y121499D02*
X180998Y121999D01*
X181998D01*
X182497Y121499D01*
Y120999D01*
X181998Y120500D01*
X181498D01*
X181998D01*
X182497Y120000D01*
Y119500D01*
X181998Y119000D01*
X180998D01*
X180498Y119500D01*
X157000Y156400D02*
Y159399D01*
X158500D01*
X158999Y158899D01*
Y157899D01*
X158500Y157400D01*
X157000D01*
X160499Y158399D02*
X161499D01*
X161998Y157899D01*
Y156400D01*
X160499D01*
X159999Y156900D01*
X160499Y157400D01*
X161998D01*
X162998Y158399D02*
Y156400D01*
Y157400D01*
X163498Y157899D01*
X163998Y158399D01*
X164498D01*
X166497Y158899D02*
Y158399D01*
X165997D01*
X166997D01*
X166497D01*
Y156900D01*
X166997Y156400D01*
X170496D02*
X168496D01*
X170496Y158399D01*
Y158899D01*
X169996Y159399D01*
X168996D01*
X168496Y158899D01*
X121000Y156400D02*
Y159399D01*
X122500D01*
X122999Y158899D01*
Y157899D01*
X122500Y157400D01*
X121000D01*
X124499Y158399D02*
X125499D01*
X125998Y157899D01*
Y156400D01*
X124499D01*
X123999Y156900D01*
X124499Y157400D01*
X125998D01*
X126998Y158399D02*
Y156400D01*
Y157400D01*
X127498Y157899D01*
X127998Y158399D01*
X128498D01*
X130497Y158899D02*
Y158399D01*
X129997D01*
X130997D01*
X130497D01*
Y156900D01*
X130997Y156400D01*
X132496D02*
X133496D01*
X132996D01*
Y159399D01*
X132496Y158899D01*
X114899Y159399D02*
X113900D01*
X114400D01*
Y156900D01*
X113900Y156400D01*
X113400D01*
X112900Y156900D01*
X117898Y156400D02*
X115899D01*
X117898Y158399D01*
Y158899D01*
X117399Y159399D01*
X116399D01*
X115899Y158899D01*
X151899Y159399D02*
X150900D01*
X151400D01*
Y156900D01*
X150900Y156400D01*
X150400D01*
X149900Y156900D01*
X152899Y156400D02*
X153899D01*
X153399D01*
Y159399D01*
X152899Y158899D01*
D12*
X178417Y166000D02*
X179000Y166583D01*
Y167749D01*
X178417Y168333D01*
X176084D01*
X175501Y167749D01*
Y166583D01*
X176084Y166000D01*
X176667D01*
X177251Y166583D01*
Y168333D01*
X165501Y166000D02*
Y168333D01*
X166084D01*
X168417Y166000D01*
X169000D01*
X155501Y168333D02*
Y166000D01*
X157251D01*
X156667Y167166D01*
Y167749D01*
X157251Y168333D01*
X158417D01*
X159000Y167749D01*
Y166583D01*
X158417Y166000D01*
X146084D02*
X145501Y166583D01*
Y167749D01*
X146084Y168333D01*
X146667D01*
X147251Y167749D01*
Y167166D01*
Y167749D01*
X147834Y168333D01*
X148417D01*
X149000Y167749D01*
Y166583D01*
X148417Y166000D01*
X139000D02*
Y167166D01*
Y166583D01*
X135501D01*
X136084Y166000D01*
M02*
