G04*
G04 #@! TF.GenerationSoftware,Altium Limited,Altium Designer,24.8.2 (39)*
G04*
G04 Layer_Physical_Order=1*
G04 Layer_Color=255*
%FSLAX25Y25*%
%MOIN*%
G70*
G04*
G04 #@! TF.SameCoordinates,0347263F-4986-443A-A638-574EEFBA0464*
G04*
G04*
G04 #@! TF.FilePolarity,Positive*
G04*
G01*
G75*
%ADD18C,0.01000*%
%ADD19C,0.24410*%
%ADD20R,0.06000X0.06000*%
%ADD21C,0.06000*%
%ADD22C,0.04528*%
%ADD23R,0.04528X0.04528*%
G36*
X183579Y108921D02*
X103921D01*
Y193579D01*
X183579D01*
Y108921D01*
D02*
G37*
%LPC*%
G36*
X138027Y188000D02*
X138000D01*
Y184500D01*
X141500D01*
Y184527D01*
X141227Y185544D01*
X140701Y186456D01*
X139956Y187201D01*
X139044Y187727D01*
X138027Y188000D01*
D02*
G37*
G36*
X137000D02*
X136973D01*
X135956Y187727D01*
X135044Y187201D01*
X134299Y186456D01*
X133773Y185544D01*
X133500Y184527D01*
Y184500D01*
X137000D01*
Y188000D01*
D02*
G37*
G36*
X178027D02*
X176973D01*
X175956Y187727D01*
X175044Y187201D01*
X174299Y186456D01*
X173773Y185544D01*
X173500Y184527D01*
Y183473D01*
X173773Y182456D01*
X174299Y181544D01*
X175044Y180799D01*
X175956Y180273D01*
X176973Y180000D01*
X178027D01*
X179044Y180273D01*
X179956Y180799D01*
X180701Y181544D01*
X181227Y182456D01*
X181500Y183473D01*
Y184527D01*
X181227Y185544D01*
X180701Y186456D01*
X179956Y187201D01*
X179044Y187727D01*
X178027Y188000D01*
D02*
G37*
G36*
X168027D02*
X166973D01*
X165956Y187727D01*
X165044Y187201D01*
X164299Y186456D01*
X163773Y185544D01*
X163500Y184527D01*
Y183473D01*
X163773Y182456D01*
X164299Y181544D01*
X165044Y180799D01*
X165956Y180273D01*
X166973Y180000D01*
X168027D01*
X169044Y180273D01*
X169956Y180799D01*
X170701Y181544D01*
X171227Y182456D01*
X171500Y183473D01*
Y184527D01*
X171227Y185544D01*
X170701Y186456D01*
X169956Y187201D01*
X169044Y187727D01*
X168027Y188000D01*
D02*
G37*
G36*
X158027D02*
X156973D01*
X155956Y187727D01*
X155044Y187201D01*
X154299Y186456D01*
X153773Y185544D01*
X153500Y184527D01*
Y183473D01*
X153773Y182456D01*
X153780Y182443D01*
X150919Y179581D01*
X150587Y179085D01*
X150471Y178500D01*
Y178048D01*
X149471Y177481D01*
X149044Y177727D01*
X148027Y178000D01*
X146973D01*
X145956Y177727D01*
X145044Y177201D01*
X144299Y176456D01*
X143773Y175544D01*
X143500Y174527D01*
Y173473D01*
X143773Y172456D01*
X144299Y171544D01*
X145044Y170799D01*
X145956Y170273D01*
X146973Y170000D01*
X148027D01*
X149044Y170273D01*
X149471Y170519D01*
X150471Y169952D01*
Y157696D01*
X127347Y134573D01*
X126541Y135177D01*
X126764Y136007D01*
Y136867D01*
X126541Y137697D01*
X126112Y138441D01*
X125504Y139049D01*
X124760Y139478D01*
X123930Y139701D01*
X123070D01*
X122240Y139478D01*
X121496Y139049D01*
X120888Y138441D01*
X120459Y137697D01*
X120236Y136867D01*
Y136007D01*
X120459Y135177D01*
X120888Y134433D01*
X121496Y133825D01*
X122240Y133396D01*
X123070Y133173D01*
X123930D01*
X124760Y133396D01*
X125364Y132590D01*
X124459Y131685D01*
X123930Y131827D01*
X123070D01*
X122240Y131604D01*
X121496Y131175D01*
X120888Y130567D01*
X120459Y129823D01*
X120236Y128993D01*
Y128133D01*
X120459Y127303D01*
X120888Y126559D01*
X121496Y125951D01*
X122240Y125522D01*
X123070Y125299D01*
X123930D01*
X124760Y125522D01*
X125504Y125951D01*
X126112Y126559D01*
X126541Y127303D01*
X126764Y128133D01*
Y128993D01*
X126622Y129522D01*
X152207Y155107D01*
X153207Y154693D01*
Y141924D01*
X153323Y141338D01*
X153655Y140842D01*
X155207Y139290D01*
Y132327D01*
X155323Y131741D01*
X155655Y131245D01*
X157378Y129522D01*
X157236Y128993D01*
Y128133D01*
X157459Y127303D01*
X157888Y126559D01*
X158496Y125951D01*
X159240Y125522D01*
X160070Y125299D01*
X160930D01*
X161760Y125522D01*
X162504Y125951D01*
X163112Y126559D01*
X163541Y127303D01*
X163764Y128133D01*
Y128993D01*
X163541Y129823D01*
X163112Y130567D01*
X162504Y131175D01*
X161760Y131604D01*
X160930Y131827D01*
X160070D01*
X159541Y131685D01*
X158636Y132590D01*
X159240Y133396D01*
X160070Y133173D01*
X160930D01*
X161760Y133396D01*
X162504Y133825D01*
X163112Y134433D01*
X163541Y135177D01*
X163764Y136007D01*
Y136867D01*
X163541Y137697D01*
X163112Y138441D01*
X162504Y139049D01*
X161760Y139478D01*
X161759Y139479D01*
X161429Y140381D01*
X161760Y141270D01*
X162504Y141699D01*
X163112Y142307D01*
X163541Y143051D01*
X163764Y143881D01*
Y144741D01*
X163541Y145571D01*
X163112Y146315D01*
X162504Y146923D01*
X161760Y147352D01*
X160930Y147575D01*
X160070D01*
X159240Y147352D01*
X158266Y147944D01*
Y162603D01*
X165943Y170280D01*
X165956Y170273D01*
X166973Y170000D01*
X168027D01*
X169044Y170273D01*
X169956Y170799D01*
X170701Y171544D01*
X171227Y172456D01*
X171500Y173473D01*
Y174527D01*
X171227Y175544D01*
X170701Y176456D01*
X169956Y177201D01*
X169044Y177727D01*
X168027Y178000D01*
X166973D01*
X165956Y177727D01*
X165044Y177201D01*
X164299Y176456D01*
X163773Y175544D01*
X163500Y174527D01*
Y173473D01*
X163773Y172456D01*
X163780Y172443D01*
X159189Y167852D01*
X158266Y168235D01*
Y170064D01*
X159044Y170273D01*
X159956Y170799D01*
X160701Y171544D01*
X161227Y172456D01*
X161500Y173473D01*
Y174527D01*
X161227Y175544D01*
X160701Y176456D01*
X159956Y177201D01*
X159044Y177727D01*
X158027Y178000D01*
X156973D01*
X155956Y177727D01*
X155044Y177201D01*
X154641Y176798D01*
X153703Y177107D01*
X153612Y177759D01*
X153622Y177959D01*
X155943Y180280D01*
X155956Y180273D01*
X156973Y180000D01*
X158027D01*
X159044Y180273D01*
X159956Y180799D01*
X160701Y181544D01*
X161227Y182456D01*
X161500Y183473D01*
Y184527D01*
X161227Y185544D01*
X160701Y186456D01*
X159956Y187201D01*
X159044Y187727D01*
X158027Y188000D01*
D02*
G37*
G36*
X148027D02*
X146973D01*
X145956Y187727D01*
X145044Y187201D01*
X144299Y186456D01*
X143773Y185544D01*
X143500Y184527D01*
Y183473D01*
X143773Y182456D01*
X144299Y181544D01*
X145044Y180799D01*
X145956Y180273D01*
X146973Y180000D01*
X148027D01*
X149044Y180273D01*
X149956Y180799D01*
X150701Y181544D01*
X151227Y182456D01*
X151500Y183473D01*
Y184527D01*
X151227Y185544D01*
X150701Y186456D01*
X149956Y187201D01*
X149044Y187727D01*
X148027Y188000D01*
D02*
G37*
G36*
X141500Y183500D02*
X138000D01*
Y180000D01*
X138027D01*
X139044Y180273D01*
X139956Y180799D01*
X140701Y181544D01*
X141227Y182456D01*
X141500Y183473D01*
Y183500D01*
D02*
G37*
G36*
X137000D02*
X133500D01*
Y183473D01*
X133773Y182456D01*
X134299Y181544D01*
X135044Y180799D01*
X135956Y180273D01*
X136973Y180000D01*
X137000D01*
Y183500D01*
D02*
G37*
G36*
X141500Y178000D02*
X138000D01*
Y174500D01*
X141500D01*
Y178000D01*
D02*
G37*
G36*
X137000D02*
X133500D01*
Y174500D01*
X137000D01*
Y178000D01*
D02*
G37*
G36*
X178027D02*
X176973D01*
X175956Y177727D01*
X175044Y177201D01*
X174299Y176456D01*
X173773Y175544D01*
X173500Y174527D01*
Y173473D01*
X173773Y172456D01*
X174299Y171544D01*
X175044Y170799D01*
X175956Y170273D01*
X176973Y170000D01*
X178027D01*
X179044Y170273D01*
X179956Y170799D01*
X180701Y171544D01*
X181227Y172456D01*
X181500Y173473D01*
Y174527D01*
X181227Y175544D01*
X180701Y176456D01*
X179956Y177201D01*
X179044Y177727D01*
X178027Y178000D01*
D02*
G37*
G36*
X141500Y173500D02*
X138000D01*
Y170000D01*
X141500D01*
Y173500D01*
D02*
G37*
G36*
X137000D02*
X133500D01*
Y170000D01*
X137000D01*
Y173500D01*
D02*
G37*
G36*
X119366Y192205D02*
X117288D01*
X115235Y191880D01*
X113258Y191237D01*
X111406Y190294D01*
X109724Y189072D01*
X108255Y187602D01*
X107033Y185921D01*
X106089Y184069D01*
X105447Y182092D01*
X105122Y180039D01*
Y177961D01*
X105447Y175908D01*
X106089Y173931D01*
X107033Y172079D01*
X108255Y170398D01*
X109724Y168928D01*
X111406Y167706D01*
X113258Y166763D01*
X115235Y166120D01*
X117288Y165795D01*
X119366D01*
X121419Y166120D01*
X123396Y166763D01*
X125248Y167706D01*
X126929Y168928D01*
X128399Y170398D01*
X129621Y172079D01*
X130564Y173931D01*
X131206Y175908D01*
X131532Y177961D01*
Y180039D01*
X131206Y182092D01*
X130564Y184069D01*
X129621Y185921D01*
X128399Y187602D01*
X126929Y189072D01*
X125248Y190294D01*
X123396Y191237D01*
X121419Y191880D01*
X119366Y192205D01*
D02*
G37*
G36*
X123930Y147575D02*
X123070D01*
X122240Y147352D01*
X121496Y146923D01*
X120888Y146315D01*
X120459Y145571D01*
X120236Y144741D01*
Y143881D01*
X120459Y143051D01*
X120888Y142307D01*
X121496Y141699D01*
X122240Y141270D01*
X123070Y141047D01*
X123930D01*
X124760Y141270D01*
X125504Y141699D01*
X126112Y142307D01*
X126541Y143051D01*
X126764Y143881D01*
Y144741D01*
X126541Y145571D01*
X126112Y146315D01*
X125504Y146923D01*
X124760Y147352D01*
X123930Y147575D01*
D02*
G37*
G36*
X163764Y123953D02*
X161000D01*
Y121189D01*
X163764D01*
Y123953D01*
D02*
G37*
G36*
X126764D02*
X124000D01*
Y121189D01*
X126764D01*
Y123953D01*
D02*
G37*
G36*
X160000D02*
X157236D01*
Y121189D01*
X160000D01*
Y123953D01*
D02*
G37*
G36*
X123000D02*
X120236D01*
Y121189D01*
X123000D01*
Y123953D01*
D02*
G37*
G36*
X163764Y120189D02*
X161000D01*
Y117425D01*
X163764D01*
Y120189D01*
D02*
G37*
G36*
X160000D02*
X157236D01*
Y117425D01*
X160000D01*
Y120189D01*
D02*
G37*
G36*
X126764D02*
X124000D01*
Y117425D01*
X126764D01*
Y120189D01*
D02*
G37*
G36*
X123000D02*
X120236D01*
Y117425D01*
X123000D01*
Y120189D01*
D02*
G37*
%LPD*%
D18*
X152000Y178500D02*
X157500Y184000D01*
X152000Y157063D02*
Y178500D01*
X123500Y128563D02*
X152000Y157063D01*
X154736Y164065D02*
X156736Y166065D01*
X154736Y141924D02*
X156736Y139924D01*
Y163236D02*
X167500Y174000D01*
X156736Y142752D02*
Y163236D01*
Y142752D02*
X159825Y139663D01*
X154736Y141924D02*
Y164065D01*
X156736Y166065D02*
Y173236D01*
X159825Y137112D02*
X160500Y136437D01*
X159825Y137112D02*
Y139663D01*
X156736Y132327D02*
Y139924D01*
Y173236D02*
X157500Y174000D01*
X156736Y132327D02*
X160500Y128563D01*
D19*
X118327Y179000D02*
D03*
D20*
X137500Y174000D02*
D03*
D21*
X147500D02*
D03*
X157500D02*
D03*
X167500D02*
D03*
X177500D02*
D03*
X137500Y184000D02*
D03*
X147500D02*
D03*
X157500D02*
D03*
X167500D02*
D03*
X177500D02*
D03*
D22*
X123500Y144311D02*
D03*
Y136437D02*
D03*
Y128563D02*
D03*
X160500D02*
D03*
Y136437D02*
D03*
Y144311D02*
D03*
D23*
X123500Y120689D02*
D03*
X160500D02*
D03*
M02*
